<svg class="snes" xmlns="http://www.w3.org/2000/svg" xmlns:xlink="http://www.w3.org/1999/xlink" viewBox="0 0 765.3 525.6">
  <g class="snes__part" fill="white" style="isolation: isolate">
    <path d="M1.2,358.5s2.73,24.93,6.3,33.9c0,0,.91,14.94,25.8,21.6,0,0,12.88,4.06,34.5,9.6,97.38,25,365.7,93,365.7,93s29.56,9.07,42,8.35c.2,0,.37,0,.59,0,.65,0,1.31,0,1.8,0a2.05,2.05,0,0,0,.6,0,2.29,2.29,0,0,1,.6,0c4.34.26,17.53,0,32.1-8.4h.6s6.6-.46,12.3-6.9c0,0,24.77-26.67,61.8-70.8,42.84-51.06,103.26-125.3,167.7-205.5,2.09-2.61,9-34.8,9-34.8s-48.39,57.53-132,158.7c-29.8,36.06-65.17,70.57-106.2,117.3-1.82,2.07-24.19,21.61-70.5,11.4l-27.6-6.9s-.06,21.9-24.3,18.3c0,0-65.9-17.34-137.1-35.4C182,441,92.1,418.2,92.1,418.2s-16.47-1.5-26.4-13.8a37,37,0,0,1-8.4-19.5s-10.62-2-22.8-5.7C20.58,375,4.69,368.61,1.2,358.5Z" fill-rule="evenodd"/>
  </g>
  <g class="snes__part" fill="white" style="isolation: isolate">
    <path d="M273.3,18.9s5.27-4.94,6-6.9a15.19,15.19,0,0,1-5.1,3.6s-4.05,1-8.4,6.3L227.7,60.3,147,142.2S59.41,233.32,21.6,287.7c0,0-1.62,2.05-4.2,5.1a69.34,69.34,0,0,0-4.2,6c-2.59,3.83-4.88,7.59-5.7,11.1A46.79,46.79,0,0,0,6,318.6S-.22,341.44.9,357.3c0,0,.75,6.3,8.4,11.7,0,0,13.74,8.49,27.3,10.8,0,0,19.06,5.64,20.7,4.8,0,0,.49-16.27,18.3-20.1,0,0,7.84-.25,13.2,2.1l311.1,78.6s23.68,3.33,26.4,33.9l1.8.3S463,490,479.4,489c0,0,25.64.66,40.2-10.5,0,0,8.55-6.59,10.5-9.6,0,0,93.27-96.47,188.7-217.2,13.8-17.46,29.38-34.83,43.5-52.5l.6-1.2s3.28-10.88-1.5-39c0,0-5.23-30.74-12.6-39.9,0,0-5.17-6.82-13.2-7.8,0,0-1.2,4.92.9,7.2,0,0,3.55,2.82,2.4,6.3l-.6,2.1s-36.9,42.1-70.5,84.3c-7,8.77-84.34,93.78-97.2,118.2,0,0-39.78,53.43-62.4,90.3,0,0-10.7,19.19-42.6,13.8l-35.7-9.3s-24.18-6.18-60.84-15.5C329.55,398.65,275.55,385,221.7,371.4,189.07,363.19,157,354.68,129,348c-52.76-12.58-90.6-22.8-90.6-22.8s-30.1-7.44-8.1-31.5c0,0,90.66-120.95,120-148.2,0,0,54.54-57.73,96.9-99.9C262.3,30.57,272.83,19.13,273.3,18.9Z" fill-rule="evenodd"/>
  </g>
  <g class="snes__part" fill="white" style="isolation: isolate">
    <path d="M315.3,36.9v2.7s60,14.32,130.5,30.6c96.95,22.37,213.14,48.67,214.5,48.6a64.41,64.41,0,0,1,9.6-12.3S680.43,93.71,684,90c0,0-92.49-21.18-181.5-42C426.55,30.23,353.67,12.5,340.2,10.8Z" fill-rule="evenodd"/>
  </g>
  <g class="snes__part" fill="white" style="isolation: isolate">
    <path d="M315.6,36.9l-.3,2.7c-35.19-12.11-44.1,6-44.1,6C166.45,150,109.93,219.85,98.4,235.8a12.87,12.87,0,0,0-2.4,5.4,9.73,9.73,0,0,0,5.7,9,98.89,98.89,0,0,0,11.4,3l.9,1.8h.6l.6-.9h.6c-.12,0-.93,1.41-1.2,1.69v.11l-.4.32C107.74,263.57,75.6,312,75.6,312c-10.25,12.26-8.1,21-8.1,21-.77.65-31.2-8.1-31.2-8.1-27.38-10.73-7.5-29.4-7.5-29.4,6.37-12,62.4-82.2,62.4-82.2C132.67,160.23,188,105.07,226.5,66c29.77-30.18,50.1-50.4,50.1-50.4,7.94-12.25,12.6-12,12.6-12,4.69-3,13.2-1.2,13.2-1.2l37.8,8.4Z" fill-rule="evenodd"/>
  </g>
  <g class="snes__part" fill="white" style="isolation: isolate">
    <path d="M738.9,127.2c-2.13,1.46-3.09,3.82-4.8,5.7-3.6,3.94-10.8,12-10.8,12s-15.79,20.11-39,46.2c-2.86,3.21-5,6.94-7.8,10.2-9.46,11-18.53,22.13-28.2,33-2.29,2.57-4.27,5.86-6.6,8.4-35.36,38.7-67.52,82.29-98.4,125.4-5.71,8-10.95,16.18-16.5,24.3-2.35,3.44-5.44,6.85-7.5,10.5-2,3.47-4.23,6.16-6.3,9.3-4.46,6.77-8.18,14.3-15.6,18-3.18,1.58-6,2-9.6,3.3-3.8,1.33-8.63,1.5-14.1,1.5-1.4,0-4.5-.3-4.5-.3l-33-8.1a35.4,35.4,0,0,1,2.4-11.1c2.2-5.4,6-11,7.8-14.1.47-.83,6.6-11.1,6.6-11.1l7.5-11.7,1.5-2.4s3.82-6.13,5.7-9a135.8,135.8,0,0,1,9-15,19.24,19.24,0,0,1,5.1-5.1c.1,0-.82-1.09,1.5-2.1l.9-.3s11.07,3.2,17.4,2.4c0,0,10.59-1.61,13.2-4.2l3.65-2.81c3.11-4.65,6.26-9.69,9.55-14.29,9.86-13.78,19.93-27.28,29.7-41.1,13.2-18.66,28-35.8,42-53.7,1.3-1.2,2.9-3,4.2-4.2,4.69-6.28,9.43-11.26,14.7-17.1a17.85,17.85,0,0,1,3.6-4.2c3.17-4.25,7.06-7.4,10.2-11.7,2-2.69,4.93-5.4,6.9-8.1,4.71-6.43,10.3-11.56,15-18,1.8-2.46,6.3-7.5,6.3-7.5s10.91-11.83,11.1-12c3.71-5.08,8.56-9.62,12.3-14.4.35-9.3-14.71-14-23.7-15,.29-2.89,10.2-13.8,10.2-13.8s8.85-9.88,12.9-14.7a24.44,24.44,0,0,1,7.5,1.5c5.34,1.56,10.06,2.16,15,3.6,10.23,3,23.94,2.84,28.5,11.4,1.66,3.12.67,6.38,1.8,10.2.53,1.79,2.44,3.07,3,4.8S739,125.81,738.9,127.2Z" fill-rule="evenodd"/>
  </g>
  <g class="snes__part" fill="white" style="isolation: isolate">
    <path d="M115.8,254.1c4,0,7.72,1.67,11.1,2.7,6.46,2,13,2.92,19.2,4.8,3.77,1.15,7.3,1.17,11.1,2.4,16.13,5.23,33.81,8,50.1,12.9,3.31,1,6.3,1.09,9.6,2.1,12.89,3.93,26.54,6.1,39.9,9.9,12.8,3.64,26.17,5.87,39.3,9.6,33.12,9.42,67.88,15.85,101.1,25.2,5.27,1.48,10.06,1.81,15.3,3.3,16,4.55,33.41,7.22,49.2,12,4.91,1.49,10.58,1.75,15,3.6,1.4.3,2.5.6,3.9.9,1.13.07,1.48,2.42,1.2,3.9-6.65,5.63-9.51,13.86-14.4,21.3C458,383,448.82,397.87,440.1,412.8c-1.51,2.58-2.17,6-3,9-.43,1.56,0,4.33-1.2,4.2-.46.31-1.83-.59-2.7-.6-2-.56-4-1.11-6-1.5-3.46-.69-7.11-2-10.5-3-2.74-.77-5.67-1.47-8.4-2.1-5.28-1.22-9.48-1.92-15-3.6-13.79-4.21-18.18-3.95-32.1-8.4-2.3-.3-15.7-4.2-18-4.5-30.61-7.39-59.56-15.08-89.4-22.8-5.13-1.33-10-2.49-15-3.9-9.57-2.72-19.8-4.59-29.4-7.5-4.5-1-9.3-2-13.8-3-10.19-3.1-20.76-5-30.9-7.8-4.56-1.28-9.25-2-13.2-3.3-6.11-2-12.37-2.48-18.6-4.5-14-4.56-24.84-6.19-39-10.2-4.88-1.38-15.13-3.54-19.8-4.8-1.93-.52-4.76-.56-6.9-1.5v-3.3c.57-1,.24-2.35.6-3.6a29.83,29.83,0,0,1,2.7-6.9c8.56-14,18.83-27.16,28.2-40.5C104.44,270.53,109.1,261.34,115.8,254.1Z"  fill-rule="evenodd"/>
  </g>
  <g class="snes__part" fill="white" style="isolation: isolate">
    <path d="M119.1,285a58.28,58.28,0,0,0,1.2,8.7h.6v-.3c1.89-1.72,2.88-5.67,5.4-6.6l3.9,1.2v.6c-2.65,2-5,9.5-8.1,10.2-1-.68-2.95-.94-4.2-1.2-.05-1.68-.6-8.13-1.5-8.7-1,1.69-4.06,6.77-6.3,6.9a9.23,9.23,0,0,0-3-.9l-.3-.6c2.55-2.07,5.25-10,8.7-10.2A7.54,7.54,0,0,0,119.1,285Z" fill-rule="evenodd"/>
    <path d="M132,291v-.9c.95-.67.73-1.08,2.4-1.2l3.3.9v.6a3.25,3.25,0,0,0-1.2,1.5Z" fill-rule="evenodd"/>
    <path d="M135,293.4v.9c-2,1.51-2.66,5.68-5.4,6.3-1-.67-2.95-.42-3.6-1.5,1.68-1.84,2.88-6.4,6-6.6A6.28,6.28,0,0,0,135,293.4Z" fill-rule="evenodd"/>
    <path d="M138,294.3l4.2.9.6.9,2.7-.3,3.3.9a4.84,4.84,0,0,1,1.2,3.6c-1.13,1.22-1.74,3.45-3.3,4.2-.52.31-3.18-.34-3.9-.9l-.3-.3a8.33,8.33,0,0,0,3-5.4c-.24-.31-.11-.08-.3-.6a10.91,10.91,0,0,0-2.4-.6c-.72.61-1.83.75-2.4,1.5-1.21,1.61-1.37,3.9-3.9,4.2a9.23,9.23,0,0,0-3-.9v-.9C135.28,299.2,136.83,296.27,138,294.3Z" fill-rule="evenodd"/>
    <path d="M156.3,296.1a11.5,11.5,0,0,1,4.2.9c-.12.84-.37.85,0,1.5a3.53,3.53,0,0,0,1.5.6v.6h-1.8c-.32-.23-.28-.18-.9-.3-.93,1.54-4.13,6.64-5.7,7.2l-3.6-1.2.3-.9c.91-.62,4.12-5.84,3.9-6-.51-.87-1.29-.63-1.8-1.5C154.57,297.14,155.31,297.56,156.3,296.1Z" fill-rule="evenodd"/>
    <path d="M114.6,301.8c-.11.62-.07.58-.3.9s-.5.23-1.2.3c-1.72-1.17-4.81-1.5-7.5-1.5l-.6.6c1,1.79,5.07,2.48,7.2,3l.3,1.8c-.68.65-.75,1.13-1.8,1.5-2.17,1.72-8.61-1.21-11.4-1.5V306l.6-.6a25.16,25.16,0,0,0,8.4,1.8,3.16,3.16,0,0,0,.6-1.5l-.9-.3c-2.24-1.52-4.51-1.07-6.6-3,.19-.53.06-.29.3-.6a1.79,1.79,0,0,1,1.5-1.5C105.32,298.61,112,301.38,114.6,301.8Z" fill="none" fill-rule="evenodd"/>
    <path d="M165.3,300.9c3,.89,8.79.78,7.8,5.7a5.44,5.44,0,0,1-1.8.3c-1.71-1.21-5.17-1.76-7.8-1.8a11.54,11.54,0,0,0-1.2,2.7,4.58,4.58,0,0,0,3.3.9,3.84,3.84,0,0,1,2.4-1.5,9.23,9.23,0,0,0,3,.9v.6a7.1,7.1,0,0,1-2.1.6c-2.89,2.05-9.43-.48-10.2-2.7a4.78,4.78,0,0,1-.3-2.4c1.13-.85,1.85-2.11,3.3-2.7C162.68,301.1,164.46,301.43,165.3,300.9Z" fill-rule="evenodd"/>
    <path d="M166.2,302.1c-.67.71-.95.53-1.2,1.8l.3.3,3.3.6a3.48,3.48,0,0,0,.6-2.1l-.9-.3A4,4,0,0,0,166.2,302.1Z" fill="none" fill-rule="evenodd"/>
    <path d="M117,302.7a7.74,7.74,0,0,1,2.7.6c-.76,1.43-3.56,4.26-3,5.7s2.86,1.78,4.8,1.8l4.2-6,2.1.3a4.33,4.33,0,0,1,.3,1.2c-2.31,1.75-2.44,6.19-6.3,6.3-2-1.32-5.68-1.51-7.8-2.4a4.72,4.72,0,0,1-.6-2.1Z" fill="none" fill-rule="evenodd"/>
    <path d="M172.2,311.4c.3-2,3.81-7.1,6-7.2,2.15,1.49,6.89,1.7,9.6,2.4.3.65,1,1.2,1.2,1.8.58,2.11-2.57,5.84-3.9,6.3-.84-.62-2.44-.58-3.3-1.2-.24-.31-.11-.08-.3-.6a10.91,10.91,0,0,0,3-5.1,4.93,4.93,0,0,0-3-1.2c-.58.5-1.62.6-2.1,1.2-1.51,1.91-1.3,4.16-4.8,4.2A4.41,4.41,0,0,0,172.2,311.4Z" fill="none" fill-rule="evenodd"/>
    <path d="M130.8,306c3,1,9.61,1.12,10.2,4.5a2.14,2.14,0,0,0-.6,1.2c-4.13,2-5.88.2-10.5,0-.46.92-1,1.49-1.5,2.4l-2.4-.6v-.6C127.8,311.1,129.44,308.13,130.8,306Z" fill="none" fill-rule="evenodd"/>
    <path d="M203.7,306.6c1.38.1,3.65.49,4.2,1.5-2.31,2.38-4.87,10.1-8.7,10.2-2.67-1.78-7.47-.68-9.3-3.3a4,4,0,0,1-.6-2.7c1.06-1,2.25-2,3.3-3,1.5-.12,3.87-.81,5.7-.3,1,.29,1.66,1,3,1.2C201.76,308.77,202.94,307.78,203.7,306.6Z" fill="none" fill-rule="evenodd"/>
    <path d="M131.4,310.5c1.92.25,3,.86,5.4.9.46-.74.69-.68.9-1.8a9.4,9.4,0,0,0-5.1-1.5,5.58,5.58,0,0,0-.9,1.5C131.47,309.92,131.52,309.88,131.4,310.5Z" fill="none" fill-rule="evenodd"/>
    <path d="M146.1,310.2c1.9.57,5.64,1.26,8.1,1.8v.3c-.24.31-.11.08-.3.6h-2.1c-1.38-1-4.2-1.26-6-.9a4.33,4.33,0,0,0-.6,1.2h.3c1.61,1.13,5.71.59,6.3,2.7a4.33,4.33,0,0,1-1.2.3c-1.53-1.07-4.83-1.55-6.9-1.8l-.3,1.5c1.85,1.1,4.3,1.53,6.6,2.4l-.3.9h-.6c-1.77.41-7.73-1.35-8.4-3.3-1.21-1.82,1.35-4.38,2.7-4.8C144,310.63,145.4,310.66,146.1,310.2Z" fill="none" fill-rule="evenodd"/>
    <path d="M197.7,310.2c-.35.24-.5.23-1.2.3-1.09,1.65-2.56,2.45-2.7,5.1a5.37,5.37,0,0,0,3,.6c1.11-1.65,2.76-2.55,3-5.1A7.26,7.26,0,0,0,197.7,310.2Z" fill="none" fill-rule="evenodd"/>
    <path d="M156.6,312.6c3.19.53,10.47,1.47,10.5,5.1l-1.8,1.5c-1.53.58-2-.46-2.7.9l.9,2.7h-1.8c-.23-.2-.67-.39-.9-.6-2-2.4,0-3.94-4.8-4.2a4.38,4.38,0,0,1-2.4,2.7,5.23,5.23,0,0,0-1.8-.6v-.6C153.62,317.68,155.22,314.77,156.6,312.6Z" fill="none" fill-rule="evenodd"/>
    <path d="M210.3,312.6c3.48-.11,7.82.8,8.7,3.3,4.1,5.37-13.83,8.61-14.4,1.5-.23-.32-.18-.28-.3-.9.89-1.09,1.2-2.18,2.7-2.7C207.85,313.15,209.35,313.23,210.3,312.6Z" fill="none" fill-rule="evenodd"/>
    <path d="M213.6,313.5a6.69,6.69,0,0,1-2.1.6c-1,1.95-2.74,3-3,5.7a6,6,0,0,0,2.7.9c1.73-1.67,3.93-3.2,4.2-6.3A8.9,8.9,0,0,1,213.6,313.5Z" fill="none" fill-rule="evenodd"/>
    <path d="M158.4,314.7a7,7,0,0,1-1.2,1.5v.6h.6c1.53,1.32,5.58,1.92,6-.6A10.74,10.74,0,0,0,158.4,314.7Z" fill="none" fill-rule="evenodd"/>
    <path d="M177,318.6a21.37,21.37,0,0,1,9.9,1.8l-.3.6a5.44,5.44,0,0,1-1.8.3c-1.41-1.09-5.94-1.88-7.2-.3h-.3l.3.3c1.65,1.34,6.26.73,6.9,3a4.63,4.63,0,0,1-1.5.3c-1.62-1.12-4.78-1.37-6.9-1.8-.64,1.09-1.38,2.54-2.7,3a5.23,5.23,0,0,0-1.8-.6v-.9c1.18-.93,1.5-2.37,2.4-3.6C174.74,319.69,176,319.39,177,318.6Z" fill="none" fill-rule="evenodd"/>
    <path d="M188.7,322.2c.11-.62.07-.58.3-.9a2.61,2.61,0,0,1,1.5-.3c2.17,1.57,5.95.8,7.5,3a3.13,3.13,0,0,1,.6,1.8c-1.4,1.79-1.77,4.94-4.8,5.1-2.72-1.89-8.93-.24-9-4.8.24-.31.11-.08.3-.6,3.44-1.66,6.2-.24,10.2.3a4.33,4.33,0,0,0,.3-1.2A12.17,12.17,0,0,0,188.7,322.2Z" fill="none" fill-rule="evenodd"/>
    <path d="M202.2,324.3c2.16,0,12.26,2.42,13.5,3.3.73.52.85,1.13.9,2.4-1.56,1.75-2,5.23-5.1,5.4a5.85,5.85,0,0,0-1.2-.6l.3-.9c.74-.54,3.17-4,2.7-4.5-.31-.92-.29-.88-1.2-1.2a3.26,3.26,0,0,0-1.8-.3l-3.9,6-2.4-.6v-.9a11.68,11.68,0,0,0,3.3-5.1h.3l-.3-.3a4.5,4.5,0,0,0-3-.6c-1,1.74-2.81,5.31-4.8,6a5.23,5.23,0,0,0-1.8-.6v-.9C199.49,329.51,201.18,326.41,202.2,324.3Z" fill="none" fill-rule="evenodd"/>
    <path d="M189.6,325.8c-.35.24-.5.23-1.2.3a2.33,2.33,0,0,0-.3,1.8l5.1,1.2a4.48,4.48,0,0,0,.9-2.1h-.6C192.55,326.34,190.72,326.22,189.6,325.8Z" fill="none" fill-rule="evenodd"/>
    <path d="M222.9,329.1c-.19,1.32-4.18,7.53-5.1,7.8a17.85,17.85,0,0,1-2.1-.6c.25-2.09,3.74-7.4,6-7.5C222.05,329,222.2,329,222.9,329.1Z" fill="none" fill-rule="evenodd"/>
    <path d="M226.5,330.9c3.89-.08,6.2.82,9.3,1.5v.9a5.44,5.44,0,0,1-1.8.3c-1.84-1.38-5-1.18-7.2-.6l-1.5,2.1.3,2.1,6.3,1.8-.3.6a6.2,6.2,0,0,1-2.1.3c-2.11-1.38-5.78-.63-6.9-3-.53-.58-.57-.94-.6-2.1.7-.74,1-2.11,1.8-2.7S225.74,331.51,226.5,330.9Z" fill="none" fill-rule="evenodd"/>
    <path d="M238.5,333.9c4.95-.2,10.32.41,10.2,5.4h-.3c-1.38,4.64-12.66,4.35-14.1,0a2.61,2.61,0,0,1-.3-1.5c.66-.79.95-2.11,1.8-2.7S237.74,334.5,238.5,333.9Z" fill="none" fill-rule="evenodd"/>
    <path d="M240.6,335.1c-1.73,1.33-3.38,1.59-3.6,4.5.55.39.51.59,1.2.9,1,.83,2.58.93,4.5.9.83-.79,1.74-1.11,2.4-2.1a4,4,0,0,0,.6-2.7,4.33,4.33,0,0,0-1.2-.6A7.22,7.22,0,0,0,240.6,335.1Z" fill="none" fill-rule="evenodd"/>
    <path d="M252.6,336.9c2.63.1,13.07,2.67,13.8,4.2a3.26,3.26,0,0,1,.3,1.8c-1.53,1.7-1.73,4.94-4.8,5.1-.55-.43-.81-.21-1.2-.9a10.11,10.11,0,0,0,3-5.7,4.58,4.58,0,0,0-3-.9c-.82,1.4-3.2,5.65-4.8,6a5.23,5.23,0,0,0-1.8-.6v-.3a16.65,16.65,0,0,0,3.6-6l-.3-.3-3-.3c-.83,1.79-2.61,5.32-4.5,6-.79-.53-1.6-.32-2.1-1.2C249.62,342.36,251.4,338.9,252.6,336.9Z" fill="none" fill-rule="evenodd"/>
  </g>
  <g class="snes__part" fill="white" style="isolation: isolate">
    <path d="M391.2,378.6l15.9,3.9s3.87.79,4.2,3c0,0-.26,2.82-5.7,2.4,0,0-14.93-3.22-19.2-4.5a1.68,1.68,0,0,1-1.2-2.4S385.53,378.09,391.2,378.6Z"  fill-rule="evenodd"/>
  </g>
  <g class="snes__part" fill="white" style="isolation: isolate">
    <path d="M396.6,363.3a2.12,2.12,0,0,1,.3,2.1c-.93.58-3.47-.24-3.9-.3-.59-.48-.68,1.27-1.2,1.5-.52-.18-.81-.46-.6-1.2,1.47-1.25-.25-2.4,2.7-2.4A7.34,7.34,0,0,1,396.6,363.3Z"  fill-rule="evenodd"/>
    <path d="M393.6,363.9v.6a5.83,5.83,0,0,0,1.8,0h.3v-.3Z"  fill-rule="evenodd"/>
    <path d="M396.9,367.8a5.83,5.83,0,0,1,0-1.8c.56-.91,2.63-2.07,3.6-1.5,1.77.35,2.73.71,2.7,3-.23.32-.18.28-.3.9-.72,0-1.73.5-3,.3C399.1,368.58,398,367.94,396.9,367.8Z"  fill-rule="evenodd"/>
    <path d="M405,365.4l.3,2.1h.3A4.38,4.38,0,0,1,408,366l.3.3c0,1.31.07,2.09.6,2.4a3.29,3.29,0,0,1,2.4-1.5v.9c-1.45.91-1.55,2-3.9,2.1v-.6c-.49-.76-.14-1.43,0-2.4h-.3c-.75,1-1.15,2.11-2.7,2.4-.39-.55-.59-.51-.9-1.2.68-1,.36-2.12.6-3Z"  fill-rule="evenodd"/>
    <path d="M399,365.7a4,4,0,0,1-.3,1.2h.6a4,4,0,0,0,2.1.3v-.6l-.9-.9Z"  fill-rule="evenodd"/>
    <path d="M412.2,367.5a31.39,31.39,0,0,1,3.6.3,1,1,0,0,1,.3,1.2c-.37.37-2.28-.8-3.3-.6-.14.06,0,.2,0,.3h.3c.3.25.81-.09,2.1.9-.1.1-.12.64-.6.6a7.87,7.87,0,0,0-2.7-.6.44.44,0,0,0,0,.6c-.3,0,1.22.19,2.4.6.36.24.22.41-.3.6-1.45.27-2.09-.52-3.6-.9-.19-.53.24-.29,0-.6V369C411.31,368.25,411.46,368.17,412.2,367.5Z"  fill-rule="evenodd"/>
    <path d="M421.5,371.1c-1.47.23-1.73.8-1.8,2.4h-1.2v-1.8h-.6c-.32-.23-.28-.18-.9-.3-.44.68-1,1.17-1.5.9-.23-.32-.18-.28-.3-.9.68-.7.92-1.9,1.8-2.4,1.22-.84,3.18,0,4.2.3A5.44,5.44,0,0,1,421.5,371.1Z"  fill-rule="evenodd"/>
    <path d="M420.3,370.8v-.9h-.6a4,4,0,0,0-2.1-.3v.3c.46.34.25.33.9.6C418.8,370.71,419.2,370.75,420.3,370.8Z"  fill-rule="evenodd"/>
  </g>
  <g class="snes__part" fill="white" style="isolation: isolate">
    <path d="M74.7,364.8c4.81-.82,8.45.38,12.6,1.2-5-1,22.49,5.18,38.7,9.6,6.22,1.7,62.1,15.9,62.1,15.9s10.2,2.37,15.6,3.9C198.57,393.94,312,423,312,423l24,6,23.7,6,9.6,2.4,24.3,6s10.42,2.18,15.3,5.1a35.94,35.94,0,0,1,13.2,14.7c3,5.79,6.33,15.87,2.7,24-2.8,6.28-8.76,10.5-18,10.5-1.6,0-4.8-.3-4.8-.3l-90.6-22.8s-32.19-8.1-47.7-12.6h-2.1c-3.26-.93-7.24-2.05-10.5-3H249c-46.09-13.11-93.57-23.11-140.1-36-5.3-1.47-10.56-2.78-15.6-4.2-7.41-2.09-14.2-2.49-19.8-6.3-.7-.9-2-1.8-2.7-2.7a54.13,54.13,0,0,1-9.6-11.7,30,30,0,0,1-3-6.6c-2.11-8.79.12-13.56,2.7-17.4A25,25,0,0,1,71.1,366,12.72,12.72,0,0,1,74.7,364.8Z"  fill-rule="evenodd"/>
  </g>
  <g class="snes__part" fill="white" style="isolation: isolate">
    <path d="M278.4,427.2l84.9,21.6c4.84,1.29,16.82,13.74,12,22.2,0,0-2.52,9.17-14.4,6.9l-80.1-19.8s-8.4-2-9.9-8.7c0,0-.26-13.66,0-14.1C270.9,435.3,270,427.43,278.4,427.2Z"  fill-rule="evenodd"/>
  </g>
  <g class="snes__part" fill="white" style="isolation: isolate">
    <path d="M113.1,385.5,198,407.1c4.84,1.29,16.82,13.74,12,22.2,0,0-2.52,9.17-14.4,6.9l-80.1-19.8s-8.4-2-9.9-8.7c0,0-.26-13.66,0-14.1C105.6,393.6,104.69,385.73,113.1,385.5Z"  fill-rule="evenodd"/>
  </g>
  <g class="snes__part" fill="white" style="isolation: isolate">
    <path d="M80.1,380.7s13.29.75,13.2,15.3c0,0-1.31,11.4-15.6,6,0,0-9.28-3.95-9-13.2C68.7,388.8,69.23,380,80.1,380.7Z"  fill-rule="evenodd"/>
  </g>
  <g class="snes__part" fill="white" style="isolation: isolate">
    <polygon points="80.4 388.5 80.4 396.6 82.2 398.1 83.1 397.8 83.1 396 83.1 387 80.4 385.8 78.9 385.8 78.6 387.9 80.4 388.5"  fill-rule="evenodd"/>
  </g>
  <g class="snes__part" fill="white" style="isolation: isolate">
    <path d="M400.5,462.3s13.29.75,13.2,15.3c0,0-1.31,11.4-15.6,6,0,0-9.28-4-9-13.2C389.1,470.4,389.63,461.6,400.5,462.3Z"  fill-rule="evenodd"/>
  </g>
  <g class="snes__part" fill="white" style="isolation: isolate">
    <path d="M400.5,476.1l6,1.5v2.1l-10.2-2.4s-1.39-7.68,5.1-5.1c0,0,4.19.57.9-1.5l-5.4-1.2v-2.4H399l5.4,1.2s5,4.69-.3,6.9l-4.2-.9S397.9,475.17,400.5,476.1Z"  fill-rule="evenodd"/>
  </g>
  <g class="snes__part" fill="white" style="isolation: isolate">
    <path d="M684,134.1l-11.7,13.5c-10.3,11.08-46.2,53.7-46.2,53.7-25.6,28.24-57.9,69.9-57.9,69.9-29.22,38.22-50.7,70.2-50.7,70.2-13.38,11.1-33.3,3.3-33.3,3.3l-1.2.6-.9.9-.3-.3-.3-.9-.6-1.2c-43.22-9.7-345.57-85.11-364.2-89.7h-1.5l-.6.9h-.9l-.3-1.2-10.2-3c-8.83-2.62-7.2-10.5-7.2-10.5l-.2-.05c1.89-5.48,9.5-14.35,9.5-14.35,34.31-46.53,85.8-98.4,85.8-98.4,49-50.67,81.3-83.7,81.3-83.7C285,27,315.6,39.6,315.6,39.6c189.31,44.54,343.5,78.9,343.5,78.9a51.9,51.9,0,0,1,16.8,4.5C686.79,128.43,684,134.1,684,134.1Z"  fill-rule="evenodd"/>
  </g>
  <g class="snes__part" fill="white" style="isolation: isolate">
    <path d="M466.2,319.2s14.45,4.28,21.6-6.3l26.1-35.7s4.6-8.17-8.4-11.7l-50.4-12s-8.89-1.18-12.6.9c0,0-3.31.26-8.1,5.7l-25.2,34.8s-4.68,6.6,2.4,10.2a68.55,68.55,0,0,0,17.4,5.1l15,3.9,15,3.6Z"  fill-rule="evenodd"/>
  </g>
  <g class="snes__part" fill="white" style="isolation: isolate">
    <path d="M417,297s25.66-34.76,27.6-35.1c0,0,2.93-5.44,11.7-1.8l45,11.1s5,1.51,5.4,4.5c.14,1.1-.57,2.38-2.1,3.9l-24.3,34.2s-4.58,4.18-15.9,1.5l-45.6-12S413.94,301,417,297Z"  fill-rule="evenodd"/>
  </g>
  <g class="snes__part" fill="white" style="isolation: isolate">
    <path d="M435.9,300.3l-2.1-.3v-.6a2.61,2.61,0,0,1-.3-1.5,17.34,17.34,0,0,0-2.1-.3c-.34,0-.6.9-.6.9a6.27,6.27,0,0,1-1.5.3c-.32-.47-.2-.51-.3-1.2,1.43-1.19,1.09-3.11,3.6-3.3,2.09.83,5.77.55,5.7,3-.24.31-.11.08-.3.6-.74.13-1.6-.1-2.1.3-.18.14-.19.69-.3.9C435.84,299.45,435.83,299.6,435.9,300.3Z"  fill-rule="evenodd"/>
    <path d="M432.6,295.8l-.3.9h.6a5.62,5.62,0,0,0,2.7.6l.3-.9h-.6A4,4,0,0,0,432.6,295.8Z"  fill-rule="evenodd"/>
    <path d="M444.9,300.6c-1.82-.2-2.86-.79-4.8-.9v.6h.3c1,.73,2.63.76,3.9,1.2l-.3.6a4.33,4.33,0,0,1-1.2.3c-2-1.3-4.66-.28-4.8-3.6,1-.7,1-1.32,2.7-1.5,1.31-.88,4.54.39,5.7.9v.6h-1.8a5.77,5.77,0,0,0-3-.6v.6h.6a7.06,7.06,0,0,0,2.7.9Z"  fill-rule="evenodd"/>
    <path d="M447.9,298.8a20.2,20.2,0,0,1,6.9,1.5c.13.5,0,.6,0,.6s-.6.2-.6.3l-5.4-1.2v.6c1.65,0,3.64.62,4.2,1.8.24.35.23.5.3,1.2a5.55,5.55,0,0,1-1.2.6c-1.53,1.07-5.65-.69-6.6-1.5-.24-.31-.11-.08-.3-.6.28,0,.48-.37.9-.3.6.09.58.3.9.3a6.9,6.9,0,0,0,3.9.9v-.6a9.41,9.41,0,0,1-3.6-1.2,7.65,7.65,0,0,1-.9-.9l.3-.9.3-.3C447.62,299,447.58,299,447.9,298.8Z"  fill-rule="evenodd"/>
    <path d="M457.5,303.3l3.6.3c.12.5.23.88,0,1.2-.51.34-2.4-.3-2.4-.3a8.93,8.93,0,0,0-2.4-.6v.6c.2,0,.4.3.6.3,1,.71,3,.39,3,1.5a2,2,0,0,1-1.2.3c-2.07-1.43-4.53-.18-4.5-3.9a5.58,5.58,0,0,1,1.5-.9c1.4-1.2,5.56-.76,6.3.6-.1,0,.1.3,0,.3-.46.31-1.23,0-2.1,0-.47-.4-1.36-.17-2.4-.3C456.55,302.76,457.18,303.12,457.5,303.3Z"  fill-rule="evenodd"/>
    <path d="M463.2,303c.18-.35.65-.29,1-.27a16.4,16.4,0,0,1,2.63.57c1.2.28,3.6.9,3.6.9s.2.2,0,.6c-.79.51-1.89.11-3,0a17.77,17.77,0,0,1-2.7,3,2.62,2.62,0,0,1-.9,0,1.82,1.82,0,0,1-.6-.3v-.6a9.51,9.51,0,0,0,2.1-3C463.92,303.84,463.6,304.05,463.2,303Z"  fill-rule="evenodd"/>
  </g>
  <g class="snes__part" fill="white" style="isolation: isolate">
    <path d="M202.8,255.6s14.45,4.28,21.6-6.3l26.1-36.9s3.44-6.53-8.7-9.9l-49.2-11.7s-9.19-1.18-12.9.9c0,0-2.71.86-7.5,6.3l-25.8,33.6s-5,6.6,2.1,10.2a70.26,70.26,0,0,0,17.1,4.8l15,3.9,15,3.6Z"  fill-rule="evenodd"/>
  </g>
  <g class="snes__part" fill="white" style="isolation: isolate">
    <path d="M156.3,232.8l7.8-10.8a15.66,15.66,0,0,0,1.5-3.3c.51-1.73.71-3.77,1.2-5.1.07-.2.52-5.81.6-6,.48-1.16,2.44-4.6,3.9-5.1s3.9.6,3.9.6l4.5,1.2s2.33-5.58,13.2-3.3l42.9,10.8,3.9.6s1.69.62,1.8,1.8l-26.7,34.5s-4.72,3.94-12.6,1.5L156,238.8S151.58,237.89,156.3,232.8Z"  fill-rule="evenodd"/>
  </g>
  <g class="snes__part" fill="white" style="isolation: isolate">
    <path d="M164.4,234.9c1.42-1.05,1.51-3.1,3.6-3.3a12.08,12.08,0,0,1,5.1,1.5c.89,1,.51,2.16-1.8,2.4-1,.47-3.42-1.43-4.5-.6C165.11,236.2,164.31,236.87,164.4,234.9Z"  fill-rule="evenodd"/>
    <path d="M175.2,234a20,20,0,0,1,5.7.9,3.35,3.35,0,0,1,.9,2.4l-1.8,1.5a17.67,17.67,0,0,1-6.3-.6C172.25,235.81,173.53,235.52,175.2,234Z"  fill-rule="evenodd"/>
    <path d="M175.8,235.2a2.32,2.32,0,0,0-.9,2.1c.3.1.3.2.6.3.84.58,2.71.21,3.6,0,.56-.39.67-.59.6-1.8A3.85,3.85,0,0,0,175.8,235.2Z"  fill-rule="evenodd"/>
    <path d="M189,240c2.09-.43,1.8-2.12,4.5-2.1.23.13.17.66,0,.9-2.11.92-2.26,3.12-6,3-.42-.26-.42-.71-.3-1.5a3.11,3.11,0,0,0,.3-2.1c-1.24,0-2,2.48-4.8,2.4-.39-.36-.46-.44-.6-1.2a31.56,31.56,0,0,0,.9-3.3c.13-1,1.7-.9,1.8.9a3.13,3.13,0,0,0-.6,1.8h.6a4.48,4.48,0,0,1,4.2-2.1C189.86,237.32,188.94,240.58,189,240Z"  fill-rule="evenodd"/>
    <path d="M200.4,240.9c-.91.17-3.08-.84-5.4-.9a.53.53,0,0,0,0,.6,24.76,24.76,0,0,1,4.5.6,4.38,4.38,0,0,1-.3,1.5c-1.06-.41-4.23-1.83-4.8-1.5s-.19.69,0,1.2c1.26.42,3,.11,3.9.9,0,.1-.08.76-.3.9s-1.11-.14-1.8-.3c-2-.88-4.13-.29-3.9-3.3,2.09-2.37,4.74-2.32,8.4-.6C200.83,240.3,200.52,240.64,200.4,240.9Z"  fill-rule="evenodd"/>
    <path d="M206.4,246.3l-1.5-.3c-.82-.55-.09-1.69-.9-2.1-.24-.36-1.49-.37-2.4-.6-.31,1.11-.54,1.45-2.1,1.5l-.6-.9c1.45-1.18,1.72-3.46,3.9-3.9,1.59,1.08,4,.63,6,2.4-.19.53-.06.29-.3.6-.46,1.17-1.25,1.09-2.4,1.5A4.67,4.67,0,0,1,206.4,246.3Z"  fill-rule="evenodd"/>
    <path d="M203.1,241.5c-.38.3-.45.33-.6,1.2a10.82,10.82,0,0,0,3.9.6.72.72,0,0,0,.3-.9,3.13,3.13,0,0,0-1.8-.6A3.26,3.26,0,0,0,203.1,241.5Z"  fill-rule="evenodd"/>
    <path d="M168.6,232.8s-1.95.84-.6,1.5c0,0,2,.76,2.4.3,0,0,1.94-.31.6-1.2A3.16,3.16,0,0,0,168.6,232.8Z"  fill-rule="evenodd"/>
  </g>
  <g class="snes__part js-snes-insert-game" fill="white" style="isolation: isolate">
    <path d="M251.7,118.2c4.75-.14,8,1,11.4,1.8l3.3-.3c7.71,1.88,16.43,3.73,24,6,5.24,1.57,10.26,1.73,15.6,3.3,12.14,3.57,25.51,6.14,37.8,9.6,10.29,2.89,48.55,11.12,57,13.5,3.65,1,16.77,3.7,20.4,4.8,10.13,3.08,11,1.79,21.6,4.8,20.7,5.87,42.89,9.48,63.6,15.3-6.81-1.91,30.51,6.69,56.4,13.2,5.25,1.32,13,2.58,16.8,5.4,1.75,1.29,2.14,2.09,2.1,4.8-3.81,3.72-7.25,9.08-12.3,11.4-4.51,2.07-11.61,1.8-18,1.8h-5.7c-14.91-3.09-29.09-4.33-42.6-8.1-4-.6-7.7-1.2-11.7-1.8-3.47-1.11-7.77-1.3-11.7-2.4-12.3-3.44-25.91-5-38.1-8.4-3.38-1-10.67-2-14.1-3-9.63-2.9-20.8-4.52-30.9-6.9-17.78-4.19-31.23-7.85-48.6-12.3-8.79-2.25-17.74-4.62-26.4-6.9-4.79-1.26-9.14-2.39-13.8-3.9-5.69-1.84-11.06-3-16.8-4.8-8.06-2.6-16.62-4.3-24.6-6.9-2.9-.7-5.2-1.7-8.1-2.4-1.5-.7-3.6-1.1-5.1-1.8-2.8-.92-5.38-1.18-7.5-2.7a61.49,61.49,0,0,1-6.9-5.4l-.3-4.5c.78-2.85,6.17-8.88,8.4-10.5C248.39,119.82,250.25,119.34,251.7,118.2Z"  fill-rule="evenodd"/>
  </g>
  <g class="snes__part" fill="white" style="isolation: isolate">
    <path d="M590.4,152.7s3.53,3.49,24,2.7c0,0,11.21,1.17,24.3-6.9,0,0,11.5-8.64-2.1-18.3,0,0-13.84-8.9-31.5-7.8,0,0-28.18-.4-30.3,15.3C574.8,137.7,573,147.57,590.4,152.7Z"  fill-rule="evenodd"/>
  </g>
  <g class="snes__part" fill="white" style="isolation: isolate">
    <path d="M622.5,148.5s15.16,1.95,14.73-6.09c-.3-1.2-4.85-3.52-9.93-4.41a14.74,14.74,0,0,0-8.1.9s-2.68,1.09-2.4,2c.11.37,2.1,1,2.1,1S623.41,141.93,622.5,148.5Z"  fill-rule="evenodd"/>
    <path d="M598.8,147.3s5.17,3.15,16.2,3.3c0,0,10.4-.52,1.5-4.8,0,0-8.07-3.74-15.3-3C601.2,142.8,591.46,143.2,598.8,147.3Z"  fill-rule="evenodd"/>
    <path d="M583.2,137.4s8.92,3.77,14.7,3.3c0,0,11.83-.12,2.1-4.8a34,34,0,0,0-13.8-2.7S575.74,133.21,583.2,137.4Z"  fill-rule="evenodd"/>
    <path d="M604.8,129.3s-7.59.81.6,3.9c0,0,2.15,1.54,1.5,3.6a1.69,1.69,0,0,0-.09,1.74c.43.68,3.69.36,3.69.36s19.29-1.87,7.8-9C618.3,129.9,611,127.12,604.8,129.3Z"  fill-rule="evenodd"/>
  </g>
  <g class="snes__part" fill="white" style="isolation: isolate">
    <path d="M275.4,215.4c8.78-.24,15.11,2.14,21.9,4.2,8.51,2.58,17.29,3.81,25.5,6.3s16.05,3.36,24.3,5.7c20.8,5.9,42.78,10.52,63.6,16.2,1.44,2.18,3.25,6.12,1.2,9.3-1.49,2.3-3.79,4.38-5.4,6.6-5.5,7.62-11.36,15-16.8,22.5-2.3,3.19-5,10-11.4,8.7-6.59-1.31-13-3-19.2-4.8-8.64-2.44-17.23-3.79-25.5-6.3-12.93-3.93-26-5.6-39-9.3-15.43-4.38-31.7-8.24-47.4-12-.75-2.24-.32-6.22-.3-9,.36-.59,0-1.5.3-2.4a27.66,27.66,0,0,1,2.7-5.7c3.67-6,7.56-12.05,11.7-17.7,1.34-1.83,3.45-3.31,4.8-5.1a23.89,23.89,0,0,1,4.2-4.8C272,216.75,273.9,216.46,275.4,215.4Z"  fill-rule="evenodd"/>
    <path d="M303,253.2c-.87.69-1.64.63-2.1,1.8-.63.68-.63,1.6-.6,3,1.8,1.11,3.33,2.3,6,1.8v-1.2c-1.15-.41-3.45-.54-3.9-1.5.33-.69,1.58-.17,2.1,0,.61.56,1.15.6,2.4.6a4.33,4.33,0,0,0,.3-1.2,5.38,5.38,0,0,1-1.2-.9c1.6.05,2.06,0,2.7-.9l-.6-.3C307,253.55,304.77,253.26,303,253.2Z"  fill-rule="evenodd"/>
    <path d="M303.9,255.3c.11-1.38,2.38,0,2.1,0,.79.1.38,1.09-.6.6A3.77,3.77,0,0,1,303.9,255.3Z"  fill-rule="evenodd"/>
    <path d="M314.4,256.2c-.82.95-1.78,3.1-3,3.6-.07.67-2.61,0-3.6.3l.3.6c3.07,1.46,4.61.84,6.3-.6.56,2.65,3.48,4.19,6.3,3.6v-1.2c-1.15-.41-3.2-.45-3.6-1.5.16-.52,1.3,0,1.8,0,.61.56,1.15.6,2.4.6a4.33,4.33,0,0,0,.3-1.2,5.38,5.38,0,0,1-1.2-.9c1.6.05,2.06,0,2.7-.9l-.6-.3c-1.86-1.49-4.67-.94-6.9-.6A3.2,3.2,0,0,0,314.4,256.2Z"  fill-rule="evenodd"/>
    <path d="M318.6,259.5c-.92-1.05,1.09-.58,1.5-.3,0,.1,1.08,0,.3.3A1.43,1.43,0,0,1,318.6,259.5Z"  fill-rule="evenodd"/>
    <path d="M325.2,259.2a5.85,5.85,0,0,1-1.2.6c-.74,1.5-1.28,2.54-.9,4.5a10.83,10.83,0,0,0,5.1,1.8,3.16,3.16,0,0,0,.6-1.5h-.6c-1.58-.93-3.45.21-3-2.4.9-1.24,1-1.68,3.3-1.5,1.75,1.4,4.68-.27,5.1,3a6.14,6.14,0,0,0-1.8,3c.21.43,1.4.86,1.8.3,1.69-.8.53-3.85,3.3-3.6a2.12,2.12,0,0,0,1.8.3,1.23,1.23,0,0,0,.3-.9,25.75,25.75,0,0,0-6-2.1c-.6.1-1.2.5-1.8.6-.4-.4-.8-1.1-1.2-1.5Z"  fill-rule="evenodd"/>
  </g>
  <g class="snes__part" fill="white" style="isolation: isolate">
    <path d="M302.4,253.2c2.36-.08,5,.14,6.3,1.2.23.32.18.28.3.9a8.66,8.66,0,0,1-2.7.3,3.19,3.19,0,0,0-2.1-.6v.6a8.65,8.65,0,0,1,3.6,1.2l-.3.9h-2.1a5.41,5.41,0,0,0-2.7-.9v.6h.3c.87.75,2.88,1,3.9,1.5l-.3.9a10.08,10.08,0,0,1-3,.3c-1.88-1.57-3.66-.78-3.6-4.5Z"  fill-rule="evenodd"/>
    <path d="M314.1,255.9h.9c.3.56.62,1.15.9,1.8,2.38-1.13,5.69-.29,7.8.6v.6a5.38,5.38,0,0,0-1.2.9l-3.9-.9v.6a5.83,5.83,0,0,1,3.3.9c.23.32.18.28.3.9a3.16,3.16,0,0,1-1.5.6,9.34,9.34,0,0,0-3.6-1.2v.6h.3c.88.75,2.58.53,3.6,1.2.23.32.18.28.3.9-.24.31-.11.08-.3.6a4.63,4.63,0,0,1-1.5.3c-1.71-1.08-3.66-.77-4.8-2.4-.43-.63-.19-1.07-.9-1.5-1.24,2-5.89,1.58-6.6-.6a5.44,5.44,0,0,1,1.8-.3,4.41,4.41,0,0,0,2.4.6A42.86,42.86,0,0,1,314.1,255.9Z"  fill-rule="evenodd"/>
    <path d="M324.6,259.2c5.64-.12,9.53,1.88,14.1,3a4.63,4.63,0,0,1,.3,1.5,4.33,4.33,0,0,1-1.2.3,3.19,3.19,0,0,0-2.1-.6c-.71,1.71-1.14,3.81-3.6,3.9a4.63,4.63,0,0,1-.3-1.5,4.77,4.77,0,0,0,1.5-3,15.81,15.81,0,0,0-6.6-2.1c-.57.61-.86.56-1.2,1.5a2.61,2.61,0,0,0-.3,1.5h.6c.7.52,2.22.4,3,.9.24.35.23.5.3,1.2a8.66,8.66,0,0,1-2.7.3c-2.12-1.51-3.71-.54-3.6-4.5C323.46,260.81,323.94,259.94,324.6,259.2Z"  fill-rule="evenodd"/>
  </g>
  <g class="snes__shadow">
    <image width="2549" height="1748" transform="translate(0.3 1.2) scale(0.3)" xlink:href="svg/snes-shadow.png"/>
  </g>
</svg>
