<?xml version="1.0" encoding="utf-8"?>
<!-- Generator: Adobe Illustrator 25.0.0, SVG Export Plug-In . SVG Version: 6.00 Build 0)  -->
<svg version="1.1" id="Layer_1" xmlns="http://www.w3.org/2000/svg" xmlns:xlink="http://www.w3.org/1999/xlink" x="0px" y="0px"
	 viewBox="0 0 496.2 496.2" style="enable-background:new 0 0 496.2 496.2;" xml:space="preserve">
<style type="text/css">
	.st0{fill:#CAD4DA;}
	.st1{fill:#FFFFFF;}
</style>
<path class="st0" d="M496.2,248.1C496.2,111.1,385.1,0,248.1,0C111.1,0,0,111.1,0,248.1c0,137,111.1,248.1,248.1,248.1
	C385.1,496.2,496.2,385.1,496.2,248.1z"/>
<g>
	<path class="st1" d="M259.4,128.9c-3.4-1.9-7.6-1.7-10.8,0.4l-95.1,61.8h-35.2c-5.8,0-10.6,4.7-10.6,10.6v92.7
		c0,5.8,4.7,10.6,10.6,10.6h35.2l95.1,61.8c1.7,1.1,3.8,1.7,5.8,1.7c1.7,0,3.5-0.4,5-1.3c3.4-1.9,5.5-5.4,5.5-9.3V138.2
		C265,134.3,262.8,130.8,259.4,128.9z"/>
	<path class="st1" d="M355.4,248.1l30.4-30.4c3.5-3.5,3.5-9.2,0-12.7c-3.5-3.5-9.2-3.5-12.7,0l-30.4,30.4L312.3,205
		c-3.5-3.5-9.2-3.5-12.7,0c-3.5,3.5-3.5,9.2,0,12.7l30.4,30.4l-30.4,30.4c-3.5,3.5-3.5,9.2,0,12.7c1.8,1.8,4.1,2.6,6.4,2.6
		s4.6-0.9,6.4-2.6l30.4-30.4l30.4,30.4c1.8,1.8,4.1,2.6,6.4,2.6s4.6-0.9,6.4-2.6c3.5-3.5,3.5-9.2,0-12.7L355.4,248.1z"/>
</g>
</svg>
