<?xml version="1.0" encoding="utf-8"?>
<!-- Generator: Adobe Illustrator 25.0.0, SVG Export Plug-In . SVG Version: 6.00 Build 0)  -->
<svg version="1.1" id="Capa_1" xmlns="http://www.w3.org/2000/svg" xmlns:xlink="http://www.w3.org/1999/xlink" x="0px" y="0px"
	 viewBox="0 0 512 512" style="enable-background:new 0 0 512 512;" xml:space="preserve">
<style type="text/css">
	.st0{fill:#FF3636;}
	.st1{fill:#E7E7E7;}
</style>
<path class="st0" d="M256,0C115.3,0,0,115.3,0,256s115.3,256,256,256s256-115.3,256-256S396.7,0,256,0z"/>
<path class="st1" d="M226,76v180h60V76H226z M383.2,128.8l-42.3,42.3c46.8,46.8,46.8,123,0,169.8c-21.6,21.6-52.5,33.9-84.9,33.9
	s-63.3-12.3-84.9-33.9c-46.8-46.8-46.8-123,0-169.8l-42.3-42.3c-70.2,70.2-70.2,184.2,0,254.4C162.7,417.1,208,436,256,436
	s93.3-18.9,127.2-52.8C453.4,313,453.4,199,383.2,128.8z"/>
</svg>
