<?xml version="1.0" encoding="utf-8"?>
<!-- Generator: Adobe Illustrator 25.2.0, SVG Export Plug-In . SVG Version: 6.00 Build 0)  -->
<svg version="1.1" id="Layer_1" xmlns="http://www.w3.org/2000/svg" xmlns:xlink="http://www.w3.org/1999/xlink" x="0px" y="0px"
	 viewBox="0 0 38 38" style="enable-background:new 0 0 38 38;" xml:space="preserve">
<style type="text/css">
	.st0{fill:#CAD4DA;}
	.st1{fill:#FFFFFF;}
</style>
<path class="st0" d="M38,19C38,8.5,29.5,0,19,0S0,8.5,0,19s8.5,19,19,19S38,29.5,38,19z"/>
<path class="st1" d="M19.9,9.9c-0.3-0.1-0.6-0.1-0.8,0l-7.3,4.7H9.1c-0.4,0-0.8,0.4-0.8,0.8v7.1c0,0.4,0.4,0.8,0.8,0.8h2.7l7.3,4.7
	c0.1,0.1,0.3,0.1,0.4,0.1c0.1,0,0.3,0,0.4-0.1c0.3-0.1,0.4-0.4,0.4-0.7V10.6C20.3,10.3,20.1,10,19.9,9.9z"/>
<g>
	<path class="st1" d="M23,16.8c-0.2,0.3-0.2,0.6,0,0.9c0.3,0.3,0.5,0.8,0.5,1.3c0,0.5-0.2,0.9-0.5,1.3c-0.2,0.3-0.2,0.6,0,0.9
		c0.3,0.4,0.9,0.4,1.2,0c0.5-0.6,0.8-1.4,0.8-2.2c0-0.8-0.3-1.6-0.9-2.2C23.9,16.5,23.3,16.5,23,16.8L23,16.8z"/>
	<path class="st1" d="M24.9,14.5L24.9,14.5c-0.2,0.3-0.2,0.7,0.1,0.9c1,0.9,1.7,2.1,1.7,3.5S26,21.6,25,22.5
		c-0.3,0.3-0.3,0.7-0.1,0.9l0,0c0.3,0.3,0.8,0.4,1.2,0.1c1.3-1.2,2.1-2.8,2.1-4.6c0-1.8-0.8-3.4-2.2-4.6
		C25.7,14.1,25.1,14.2,24.9,14.5L24.9,14.5z"/>
	<path class="st1" d="M26.7,12.2L26.7,12.2c-0.2,0.3-0.2,0.7,0.1,1c1.8,1.4,2.9,3.5,3,5.8s-1.1,4.4-2.9,5.9c-0.3,0.2-0.4,0.7-0.1,1
		l0,0c0.3,0.3,0.8,0.4,1.2,0.1c2.1-1.7,3.4-4.2,3.4-6.9c0-2.8-1.4-5.2-3.5-6.9C27.5,11.8,27,11.9,26.7,12.2z"/>
</g>
</svg>
