<svg id="Layer_1" data-name="Layer 1" xmlns="http://www.w3.org/2000/svg" viewBox="0 0 300 300">
  <g>
    <g>
      <g>
        <g>
          <path d="M235.66,86.33a3.62,3.62,0,0,0,1.55-.35,2.21,2.21,0,0,0,.47-.33c.82-.79,8.12-7.91,9.81-13a3.1,3.1,0,0,0-.28-2.93,2.89,2.89,0,0,0-2.47-1.14c-3.82,0-12.67,5.81-12.86,11.34-.09,2.55.36,4.3,1.38,5.36A3.31,3.31,0,0,0,235.66,86.33Z" fill="#f36b35"/>
          <path d="M244.74,70.51c.88,0,1.31.47.94,1.57-1.59,4.76-9.32,12.2-9.32,12.2a1.72,1.72,0,0,1-.7.15c-.81,0-2-.63-1.88-4.42.15-4.34,8-9.5,11-9.5m0-3.81c-4.47,0-14.52,6.37-14.76,13.18-.11,3.1.51,5.3,1.91,6.75a5.19,5.19,0,0,0,3.77,1.61,5.44,5.44,0,0,0,2.4-.56A3.8,3.8,0,0,0,239,87c.08-.08,2.08-2,4.3-4.56,3.2-3.69,5.16-6.69,6-9.18a5,5,0,0,0-.54-4.64,4.75,4.75,0,0,0-4-1.94Z" fill="#231f20"/>
        </g>
        <g>
          <path d="M230,81.22a1.93,1.93,0,0,0,1.06-.31c.27-.19,6.67-4.58,5.33-14.84-1.2-9.2-6.69-13.82-9.42-13.82a2.28,2.28,0,0,0-1.32.39c-1.23.81-1.25,2.33-1.28,4.62,0,1.8-.05,4.26-.75,5.57-1.71,3.2-3.15,9-3,11.2.05.77.17,2.8,8.55,7A1.83,1.83,0,0,0,230,81.22Z" fill="#fae151"/>
          <path d="M226.93,54.15c1.43,0,6.42,3.63,7.53,12.17,1.2,9.2-4.5,13-4.5,13s-7.4-3.7-7.5-5.4,1.2-7.2,2.8-10.2.5-8.9,1.4-9.5a.54.54,0,0,1,.27-.07m0-3.8a4.26,4.26,0,0,0-2.38.7c-2.05,1.38-2.08,3.6-2.12,6.19,0,1.42-.05,3.8-.53,4.69-1.73,3.25-3.4,9.53-3.24,12.21.08,1.37.23,3.9,9.6,8.59a3.93,3.93,0,0,0,1.7.4,3.82,3.82,0,0,0,2.11-.64c2.85-1.9,7.35-7.55,6.17-16.66-1.3-10-7.51-15.48-11.31-15.48Z" fill="#231f20"/>
        </g>
        <g>
          <path d="M204.62,126.86c19.69,0,35.71-14,35.71-31.17a27.63,27.63,0,0,0-2.82-12.17,4.82,4.82,0,0,0,.19-1.37,5.53,5.53,0,0,0-4.62-5.29c-6.73-7.75-17.3-12.35-28.46-12.35-19.69,0-35.7,14-35.7,31.18S184.93,126.86,204.62,126.86Z" fill="#3da448"/>
          <path d="M204.62,66.41c11.33,0,21.35,4.83,27.49,12.24a3.7,3.7,0,0,1,3.69,3.5,3.24,3.24,0,0,1-.37,1.48,25.91,25.91,0,0,1,3,12.06c0,16.16-15.13,29.27-33.8,29.27s-33.8-13.11-33.8-29.27S186,66.41,204.62,66.41m0-3.8C183.88,62.61,167,77.45,167,95.69s16.87,33.07,37.61,33.07,37.61-14.84,37.61-33.07a29.54,29.54,0,0,0-2.72-12.39,7.22,7.22,0,0,0-5.4-8.15c-7.1-7.88-18-12.54-29.49-12.54Z" fill="#231f20"/>
        </g>
        <g>
          <path d="M212.37,101.9c5.72,0,10.38-5.79,10.38-12.92s-4.66-12.91-10.38-12.91S202,81.86,202,89,206.65,101.9,212.37,101.9Z" fill="#fff"/>
          <path d="M212.37,78c4.68,0,8.47,4.93,8.47,11s-3.79,11-8.47,11-8.47-4.93-8.47-11,3.79-11,8.47-11m0-3.81c-6.77,0-12.27,6.65-12.27,14.82s5.5,14.82,12.27,14.82S224.65,97.15,224.65,89s-5.51-14.82-12.28-14.82Z" fill="#231f20"/>
        </g>
        <path d="M225.93,88.71h.2a1.91,1.91,0,0,0,1.69-2.1,7,7,0,0,1,2.36-5.72,1.92,1.92,0,0,0,.23-2.68,1.9,1.9,0,0,0-2.67-.24A10.92,10.92,0,0,0,224,87,1.9,1.9,0,0,0,225.93,88.71Z" fill="#231f20"/>
        <g>
          <path d="M224.46,88a2.82,2.82,0,0,0,2.33-1.27c1.07-1.52,1.05-4.11,0-7.12-1.52-4.18-5.56-15.3-15.11-15.89-.47,0-.91,0-1.33,0-3.11,0-5.34.78-6.63,2.32a4.66,4.66,0,0,0-1.05,3.59,1.87,1.87,0,0,0,.53,1,7,7,0,0,0-2.49,5,2,2,0,0,0,.65,1.59,1.92,1.92,0,0,0,1.25.47,1.83,1.83,0,0,0,.4,0,16.49,16.49,0,0,1,3-.25,17.61,17.61,0,0,1,7.74,1.73c2.7,1.81,6.79,5,7.62,6.62,1,2,2.4,2.26,3.13,2.26Z" fill="#f36b35"/>
          <path d="M210.31,65.59c.38,0,.79,0,1.22,0,7.74.48,11.49,9.31,13.43,14.64,1.35,3.71.58,5.84-.5,5.84-.47,0-1-.4-1.44-1.24-1.45-2.79-8.35-7.38-8.35-7.38a19.26,19.26,0,0,0-8.7-2,17.84,17.84,0,0,0-3.4.29c.48-6.17,8.35-5.08,6.05-6.05a7.6,7.6,0,0,0-2.92-.6,5.07,5.07,0,0,0-1.19.12s-.65-3.67,5.8-3.67m0-3.81c-3.7,0-6.42,1-8.09,3a6.49,6.49,0,0,0-1.46,5.14c0,.11,0,.22.07.33a9,9,0,0,0-2.06,5.24,3.79,3.79,0,0,0,3.78,4.11,3.56,3.56,0,0,0,.8-.08,15,15,0,0,1,2.62-.21,15.69,15.69,0,0,1,6.78,1.47c3.12,2.1,6.37,4.86,6.9,5.85a5.44,5.44,0,0,0,4.81,3.29,4.71,4.71,0,0,0,3.89-2.09c1.45-2.06,1.51-5.21.19-8.86-1.64-4.5-6-16.47-16.78-17.14-.49,0-1,0-1.45,0Z" fill="#231f20"/>
        </g>
        <g>
          <path d="M221.57,89.83c0,2.94-1.24,5.33-2.78,5.33S216,92.77,216,89.83s1.25-5.32,2.79-5.32S221.57,86.89,221.57,89.83Z" fill="#231f20"/>
          <path d="M214.1,89.83c0-4.12,2-7.23,4.69-7.23s4.68,3.11,4.68,7.23-2,7.23-4.68,7.23S214.1,94,214.1,89.83Zm3.81,0a5.41,5.41,0,0,0,.88,3.32,6.7,6.7,0,0,0,0-6.64A5.41,5.41,0,0,0,217.91,89.83Z" fill="#231f20"/>
        </g>
        <g>
          <g>
            <g>
              <path d="M204.19,109.58s-19.73-1.31-22,12.47,4.66,16,7.08,19.92,15.45,14,15.45,14,16-6.52,24.75-34.07Z" fill="#7c1317"/>
              <path d="M203.58,157.43c-1.36-1.05-13.37-10.38-15.9-14.46a14.89,14.89,0,0,0-2-2.27c-3.06-3.12-7.25-7.4-5.38-19,2.13-13.08,17.76-14.1,22.5-14.1.93,0,1.47,0,1.47,0l.37,0,27.14,13.17-.5,1.57c-8.92,28.07-25.17,35-25.86,35.25l-1,.41Zm.13-46h-.87c-4,0-17.1.78-18.74,10.9-1.56,9.66,1.57,12.86,4.34,15.69a17.24,17.24,0,0,1,2.47,2.92c1.7,2.74,10,9.54,14.06,12.73a34.47,34.47,0,0,0,7.71-6c4.27-4.3,10.17-12.06,14.5-24.85Z" fill="#231f20"/>
            </g>
            <g>
              <path d="M200.78,157.43c8.9,0,16.18-4.71,18.12-11.72,1.24-4.48.2-9.28-2.93-13.5a24.32,24.32,0,0,0-13.09-8.65,26,26,0,0,0-7-1c-8.9,0-16.19,4.71-18.13,11.72-2.51,9.07,4.68,19,16,22.16a26.32,26.32,0,0,0,7,1Z" fill="#ed2027"/>
              <path d="M195.87,124.49a24.35,24.35,0,0,1,6.5.9c10.36,2.87,16.94,11.74,14.7,19.81-1.76,6.36-8.46,10.33-16.29,10.33a24.35,24.35,0,0,1-6.5-.9c-10.36-2.87-16.94-11.73-14.7-19.81,1.76-6.36,8.46-10.33,16.29-10.33m0-3.8c-9.77,0-17.79,5.27-20,13.11-2.79,10.09,5,21.08,17.35,24.5a28.07,28.07,0,0,0,7.52,1c9.76,0,17.79-5.28,20-13.12,1.4-5.06.25-10.44-3.24-15.15a26.24,26.24,0,0,0-14.11-9.35,28.11,28.11,0,0,0-7.52-1Z" fill="#231f20"/>
            </g>
          </g>
          <g>
            <g>
              <path d="M243.15,138.29c2.24,0,4.08-2.32,6-4.78.35-.44.68-.87,1-1.25a24.67,24.67,0,0,0,5.08-10.35,1.9,1.9,0,0,0-1-2l-11.88-6.17a2,2,0,0,0-.88-.22,1.89,1.89,0,0,0-.92.24,1.92,1.92,0,0,0-1,1.51c-1.39,16.62-.22,20.4,1.27,22a3.05,3.05,0,0,0,2.29,1Z" fill="#fff"/>
              <path d="M241.49,115.4l11.88,6.16a22.81,22.81,0,0,1-4.66,9.48c-1.73,2.07-3.93,5.35-5.56,5.35-1.92,0-3-4.55-1.66-21m0-3.81a3.87,3.87,0,0,0-1.84.47,3.81,3.81,0,0,0-2,3c-1.39,16.44-.36,21.16,1.75,23.46a5,5,0,0,0,3.7,1.65c3.16,0,5.38-2.8,7.51-5.5.34-.43.66-.84,1-1.21a26.73,26.73,0,0,0,5.48-11.23,3.8,3.8,0,0,0-2-4.06L243.25,112a3.81,3.81,0,0,0-1.76-.43Z" fill="#231f20"/>
            </g>
            <g>
              <path d="M220.32,137.79c2,0,3.39-1.84,4.77-3.62,2.23-2.88,5.39-10.35,5.52-10.66a1.91,1.91,0,0,0-.53-2.2l-12-10.08a1.91,1.91,0,0,0-1.22-.44,1.87,1.87,0,0,0-.8.18,1.89,1.89,0,0,0-1.1,1.72,143.4,143.4,0,0,0,1.23,18.81c.3,1.88,1,6.29,4.17,6.29Z" fill="#fff"/>
              <path d="M216.82,112.69l12,10.08s-3.16,7.52-5.26,10.23c-1.11,1.42-2.26,2.88-3.27,2.88s-1.72-1.19-2.3-4.69a144.81,144.81,0,0,1-1.2-18.5m0-3.81a3.82,3.82,0,0,0-3.81,3.81,146.5,146.5,0,0,0,1.26,19.11c.35,2.16,1.28,7.89,6,7.89,2.88,0,4.76-2.42,6.27-4.36,2.35-3,5.43-10.27,5.77-11.09a3.8,3.8,0,0,0-1.06-4.39l-12-10.08a3.8,3.8,0,0,0-2.44-.89Z" fill="#231f20"/>
            </g>
            <g>
              <path d="M202.21,125.17a2.19,2.19,0,0,0,1.13-.31c1.92-1.12,6.95-6.8,8.44-8.51a1.9,1.9,0,0,0,0-2.5c-8.06-9.29-9.71-9.29-10.5-9.29a2.15,2.15,0,0,0-2.11,1.65,53.7,53.7,0,0,0-.27,8.7c.22,7.72,1.09,8.82,1.5,9.35a2.25,2.25,0,0,0,1.8.91Z" fill="#fff"/>
              <path d="M201.29,106.46c1.57,0,9.06,8.64,9.06,8.64s-6.17,7.07-8,8.12a.41.41,0,0,1-.17,0c-1.64,0-1.62-14.85-1.19-16.6a.26.26,0,0,1,.27-.21m0-3.81a4.09,4.09,0,0,0-4,3.1c-.52,2.08-.33,8.92-.32,9.21.22,7.7,1.1,9.44,1.9,10.47a4.12,4.12,0,0,0,5.39,1.08c2-1.19,6.46-6.1,8.92-8.91a3.81,3.81,0,0,0,0-5c-8.64-9.95-10.47-9.95-11.94-9.95Z" fill="#231f20"/>
            </g>
            <g>
              <path d="M221.11,153c2.93,0,7.31-2.69,8.16-3.22a1.92,1.92,0,0,0,.88-1.74c-.06-.91-.65-8.91-1.75-12.2a2.67,2.67,0,0,0-2.53-2.14c-2.05,0-3.57,1.82-7.68,13.06-.29.79-1.16,3.18,0,4.88A3.37,3.37,0,0,0,221.11,153Z" fill="#fff"/>
              <path d="M225.87,135.63c.29,0,.54.26.73.83,1.05,3.16,1.65,11.73,1.65,11.73s-4.61,2.93-7.14,2.93c-1.39,0-2.15-.9-1.13-3.68,2.34-6.41,4.58-11.82,5.89-11.81m0-3.81c-3.05,0-4.7,2.93-6,5.68-.94,2-2.05,4.74-3.47,8.63-.37,1-1.5,4.11.25,6.62a5.23,5.23,0,0,0,4.46,2.18c3.37,0,7.88-2.7,9.18-3.53a3.8,3.8,0,0,0,1.76-3.48c-.06-.92-.67-9.15-1.84-12.67a4.54,4.54,0,0,0-4.33-3.43Z" fill="#231f20"/>
            </g>
            <g>
              <path d="M199.75,156c3.9,0,9.65-3.89,11.62-7.08a1.91,1.91,0,0,0,.26-1.3c-.17-1.07-1.72-10.51-2.67-12.89-.38-1-1-2.52-2.69-2.52-1.89,0-3,1.27-8.76,12.91-2.12,4.28-2.55,7.16-1.36,9.07A4,4,0,0,0,199.75,156Z" fill="#fff"/>
              <path d="M206.27,134.09c.4,0,.63.58.92,1.31.91,2.26,2.56,12.49,2.56,12.49-1.76,2.85-6.95,6.18-10,6.18-2.43,0-3.52-2.09-.53-8.14,4.58-9.26,6.2-11.84,7.05-11.84m0-3.81c-3.4,0-5.1,3.13-10.46,14-1.53,3.1-3.34,7.6-1.28,10.91a6,6,0,0,0,5.22,2.71c4.68,0,11-4.29,13.24-8a3.85,3.85,0,0,0,.52-2.61c-.41-2.5-1.8-10.83-2.8-13.32-.4-1-1.47-3.68-4.44-3.68Z" fill="#231f20"/>
            </g>
          </g>
        </g>
        <g>
          <path d="M201.17,168.62c9.18,0,14.63-2.32,17.91-4.8a8.4,8.4,0,0,0,5.74,2,12.76,12.76,0,0,0,9.1-4,10.92,10.92,0,0,0,2.88-8.48c-.78-9.38-8.7-9.54-14.47-9.66-.94,0-1.87,0-2.77-.09-.36,0-.74,0-1.13,0A67.05,67.05,0,0,0,207.17,145a47.23,47.23,0,0,1-5.4.83c-.62-1-1.84-3.75-2.68-5.62-1-2.16-1.89-4.19-2.56-5.36-1.14-2-4.54-5.72-7.93-9.36l-1-1.14c1.1-2,6-7.19,9.15-9.32a14.11,14.11,0,0,0,1.73-1.43,4.57,4.57,0,0,1,.71-.6c1.23,0,6.13,3.49,8.22,5,8.83,6.28,20.88,10.34,30.71,10.34a25.9,25.9,0,0,0,8-1.14,27.46,27.46,0,0,0,3.53-1.42,2,2,0,0,0,.92.81,9.41,9.41,0,0,0,3.59.67c5.15,0,11.93-3.68,15.46-11.92,4.14-9.66.41-21.67.25-22.17a1.64,1.64,0,0,0-.14-.33c-5.26-9.7-12.46-14.62-21.4-14.62-11.64,0-22.64,8.73-25.58,11.79-1.12,1.16-2,2.21-2.84,3.14C218,95.37,217,96.43,216,96.43a2.32,2.32,0,0,1-.56-.07,17.46,17.46,0,0,1-4.2-2.6,68.36,68.36,0,0,0-18.48-10,23,23,0,0,0-7.63-1.33c-8,0-16.14,4.38-23.46,12.66-4.78,5.4-8,19.33-2,28,4.59,6.64,11.87,8.94,14.95,9.65,1.34,6.48,8.45,16.56,10.51,19.38-1,9.74,6.62,14.83,10.9,16.19a2,2,0,0,0,.43.08C198.05,168.56,199.65,168.62,201.17,168.62Z" fill="#fed091"/>
          <path d="M248.31,80.13c7,0,14.16,3.36,19.72,13.62,0,0,3.73,11.73-.18,20.85-3.18,7.41-9.18,10.77-13.71,10.77a7.44,7.44,0,0,1-2.86-.53s5.59-5.4,3.91-6.33a.83.83,0,0,0-.37-.12c-1.1,0-.48,4.12-9.31,7a24.27,24.27,0,0,1-7.44,1c-9.36,0-21.1-3.94-29.6-10-5.64-4-7.95-5.33-9.33-5.33s-1.8,1.18-3.52,2.35c-3.53,2.42-11.16,10.24-10.05,11.54s7.82,8.2,9.31,10.8,4.66,10.61,5.77,11.73a1.53,1.53,0,0,0,1,.22c2.92,0,11.15-2.3,16.79-2.3q.52,0,1,0c6.52.37,14.71-.93,15.45,8,.54,6.51-5.24,10.45-10.08,10.45a6.37,6.37,0,0,1-4.62-1.71s3.16-3.72,2.42-5.21c0-.08-.09-.12-.13-.12-.75,0-2.75,9.8-21.32,9.8-1.44,0-3-.06-4.61-.18,0,0-11.17-3.54-9.5-14.89,0,0-10.42-14-10.79-20.48,0,0-9.68-1.3-15.08-9.12s-2.42-20.85,1.86-25.69c3.53-4,11.6-12,22-12a21.08,21.08,0,0,1,7,1.22C205.86,90.4,211.63,97.48,215,98.22a4.33,4.33,0,0,0,1,.11c2.68,0,4.14-2.82,8.14-7,2.74-2.84,13.21-11.2,24.21-11.2m0-3.8c-12.37,0-23.65,8.93-26.95,12.37-1.15,1.2-2.09,2.27-2.9,3.21a17.13,17.13,0,0,1-2.55,2.61h-.08a24,24,0,0,1-3.52-2.3,70.14,70.14,0,0,0-19-10.24,24.93,24.93,0,0,0-8.26-1.43c-8.59,0-17.19,4.6-24.89,13.3-5.17,5.84-8.66,20.93-2.14,30.37,4.43,6.42,11.19,9.09,14.94,10.13,1.81,6.41,7.59,14.86,10.12,18.37-.68,10.46,7.59,16,12.29,17.45a3.56,3.56,0,0,0,.85.17c1.7.13,3.34.2,4.91.2,7.52,0,13.43-1.44,17.85-4.37a10.65,10.65,0,0,0,5.8,1.61,14.52,14.52,0,0,0,10.5-4.65,12.92,12.92,0,0,0,3.37-9.93c-.92-11.09-10.57-11.29-16.33-11.4-1,0-1.84,0-2.69-.09-.4,0-.81,0-1.24,0a67.81,67.81,0,0,0-11.61,1.49c-1.37.25-2.86.53-4,.69-.63-1.26-1.46-3.12-2-4.39-1-2.2-1.92-4.28-2.64-5.53-1.24-2.17-4.58-5.83-8.18-9.71l0,0a46.57,46.57,0,0,1,7.79-7.58,15.36,15.36,0,0,0,1.79-1.44,62.12,62.12,0,0,1,6.7,4.38c9.12,6.5,21.61,10.69,31.81,10.69a27.85,27.85,0,0,0,8.62-1.23c.93-.31,1.78-.63,2.56-1a3.81,3.81,0,0,0,.57.29,11.08,11.08,0,0,0,4.32.82c8,0,14.42-6.56,17.21-13.07,4.41-10.3.48-23,.31-23.5a3.19,3.19,0,0,0-.28-.66c-3.86-7.12-11-15.61-23.07-15.61Z" fill="#231f20"/>
        </g>
        <g>
          <path d="M248.53,92.25a8.37,8.37,0,0,0-4.69-.37c-1.82.37-1.61-2,1-3a5.42,5.42,0,0,1,6.67,3.07c.83,2.4,1.62,3.44.57,4S250.41,93,248.53,92.25Z" fill="#231f20"/>
          <path d="M251.86,97.85h0a2.37,2.37,0,0,0,1.07-.25c2.36-1.19,1.44-3.52.89-4.92-.16-.39-.34-.85-.52-1.37a7.35,7.35,0,0,0-6.85-4.64,6.5,6.5,0,0,0-2.29.41c-2.28.87-3.7,2.8-3.37,4.58a2.75,2.75,0,0,0,3.43,2.09,6.62,6.62,0,0,1,3.58.25c.37.16.89,1,1.2,1.56C249.6,96.58,250.35,97.85,251.86,97.85Z" fill="#231f20"/>
        </g>
      </g>
      <g>
        <path d="M184.6,83.08A10.57,10.57,0,0,0,194,76.61a1.18,1.18,0,0,0,.07-.2c2.37-7.66.9-8.71.2-9.22-.19-.13-.55-.35-1-.65-1.71-1-6.92-4.19-7.61-6.76a24.68,24.68,0,0,1-.6-4c-.22-2.38-.49-5.33-3.12-5.33a3,3,0,0,0-1.07.21c-2.06.79-10.24,6.18-9.53,16.28.64,9.21,7.81,15.71,12.46,16.13A7.32,7.32,0,0,0,184.6,83.08Z" fill="#fae151"/>
        <path d="M181.93,52.32c1.48,0,.9,4.3,1.88,8,1.06,3.93,8.32,7.72,9.38,8.47s-.91,7.11-.91,7.11a8.64,8.64,0,0,1-7.68,5.33c-.21,0-.43,0-.64,0-3.32-.31-10.13-5.75-10.74-14.37s6.36-13.62,8.33-14.37a1,1,0,0,1,.38-.09m0-3.8a4.85,4.85,0,0,0-1.75.33c-3.67,1.41-11.47,7.95-10.75,18.19s8.75,17.4,14.19,17.9c.32,0,.65,0,1,0a12.49,12.49,0,0,0,11.17-7.61,3.12,3.12,0,0,0,.15-.39c1.67-5.39,2.22-9.38-.52-11.33-.28-.21-.63-.42-1.15-.73-5.66-3.43-6.61-5.09-6.76-5.64a23.52,23.52,0,0,1-.55-3.71,18.68,18.68,0,0,0-.46-3.19,4.71,4.71,0,0,0-4.55-3.86Z" fill="#231f20"/>
      </g>
    </g>
    <g>
      <g>
        <path d="M197.8,154.7l21.71.53s-2.79,12.26-1.33,15.32l-2.13-.26s1.06,3.06-2.8,7.32h.16c.65,0,3.25-.3,4.64-4.94L228.84,174l-4.66,12.38-4-2.93a56.92,56.92,0,0,0-20.28-3.6h-.63L197.8,154.7m0-3.8a3.8,3.8,0,0,0-3.8,4l1.47,25.18a3.79,3.79,0,0,0,3.79,3.58h.64a55,55,0,0,1,18.42,3.15l3.61,2.64a3.77,3.77,0,0,0,2.25.74,3.67,3.67,0,0,0,1.08-.16,3.81,3.81,0,0,0,2.48-2.31l4.66-12.38a3.81,3.81,0,0,0-3.1-5.12l-7.52-.93-.12-.3c-.4-1.49.32-7.49,1.56-12.93a3.78,3.78,0,0,0-.7-3.18,3.82,3.82,0,0,0-2.92-1.47l-21.71-.53Z" fill="#231f20"/>
        <g>
          <path d="M220.18,183.47a57,57,0,0,0-20.91-3.59L197.8,154.7l21.71.53s-2.79,12.26-1.33,15.32l-2.13-.26s1.06,3.06-2.8,7.32c0,0,3.2.4,4.8-4.93L228.84,174l-4.66,12.38Z" fill="#e98624"/>
          <path d="M219.25,185.15a56.13,56.13,0,0,0-19.35-3.37l-2.43,0-1.69-29.05,26.11.64-.52,2.27c-1.28,5.6-2.18,12.6-1.47,14.07l.64,1.34,10.93,1.35-6.4,17Zm.07-10.39c-1.74,4.08-4.52,4.69-5.68,4.75a47.2,47.2,0,0,1,7.28,2.21l.2.09,2.16,1.58,2.92-7.78Zm-3.44-6.41a53.74,53.74,0,0,1,1.29-11.27l-17.35-.42L201.06,178a61.43,61.43,0,0,1,8.59.77l2.19-2.42c2.95-3.25,2.42-5.39,2.41-5.42l-1-2.89Z" fill="#231f20"/>
        </g>
      </g>
      <path d="M228.7,183.24a1.9,1.9,0,0,0,1-3.51l-5.46-3.46a1.91,1.91,0,0,0-2,3.22l5.46,3.46A1.91,1.91,0,0,0,228.7,183.24Z" fill="#231f20"/>
      <g>
        <path d="M229.39,191.65a2.33,2.33,0,0,0,1.92-.89c1.89-2.08-.35-6.9-.84-7.89-1.8-3.64-4-4.41-5.5-4.41a4.8,4.8,0,0,0-1.23.17,4.89,4.89,0,0,0-3.55,3.8c-.24,1.33-.07,3.95,3.65,6.58C227.17,191.35,228.55,191.65,229.39,191.65Z" fill="#fff"/>
        <path d="M225,180.37c1.79,0,3,1.82,3.79,3.34.86,1.72,2,5.17,1.06,5.84,0,0,0,.2-.43.2s-1.76-.4-4.46-2.3c-4.62-3.25-2.87-6.4-.69-7a2.73,2.73,0,0,1,.73-.1m0-3.81a6.8,6.8,0,0,0-6.65,5.54c-.32,1.77-.16,5.23,4.42,8.46,3,2.13,4.94,3,6.65,3a4.3,4.3,0,0,0,3.3-1.49c1.25-1.32,1.57-3.3,1-5.91a20.61,20.61,0,0,0-1.48-4.14c-2.23-4.51-5.15-5.46-7.2-5.46Z" fill="#231f20"/>
      </g>
      <g>
        <path d="M234.93,186.12a2.37,2.37,0,0,0,2-.91c2-2.2-.42-7.46-.95-8.54-1.95-3.94-4.3-4.77-5.92-4.77a4.85,4.85,0,0,0-1.3.18,5.18,5.18,0,0,0-3.8,4c-.25,1.43-.07,4.25,4,7.09C232.53,185.79,234,186.12,234.93,186.12Z" fill="#fff"/>
        <path d="M230,173.8c2,0,3.38,2,4.22,3.71.94,1.91,2.16,5.74,1.17,6.49,0,0,0,.22-.48.22-.6,0-2-.44-5-2.55-5.13-3.62-3.19-7.11-.77-7.76a3.35,3.35,0,0,1,.81-.11m0-3.8a7,7,0,0,0-1.8.24,7.09,7.09,0,0,0-5.17,5.56c-.33,1.87-.16,5.52,4.74,9,3.23,2.27,5.36,3.25,7.14,3.25a4.36,4.36,0,0,0,3.36-1.52c1.28-1.37,1.6-3.44,1-6.18a22.25,22.25,0,0,0-1.62-4.51C235.26,171,232.18,170,230,170Z" fill="#231f20"/>
      </g>
      <g>
        <path d="M238.15,176.29a2.64,2.64,0,0,0,2.46-1.29c2-2.84-2.12-8.94-2.61-9.65-2.1-3-4.38-4.6-6.78-4.6a5.53,5.53,0,0,0-2.2.46,5.92,5.92,0,0,0-3.62,5.17c-.05,1.66.62,4.84,5.77,7.47C235.46,176,237.21,176.29,238.15,176.29Z" fill="#fff"/>
        <path d="M231.22,162.65c2.17,0,4,2,5.21,3.77,1.46,2.14,3.6,6.53,2.53,7.6,0,0,0,.36-.81.36s-2.58-.43-6.12-2.23c-6.79-3.46-5.06-8-2.26-9.19a3.71,3.71,0,0,1,1.45-.31m0-3.81a7.44,7.44,0,0,0-2.95.62,7.81,7.81,0,0,0-4.77,6.85c-.07,2.12.72,6.13,6.81,9.23,4.6,2.35,6.6,2.65,7.84,2.65a4.56,4.56,0,0,0,4-2.09c1.74-2.45.46-5.72,0-6.86a25.93,25.93,0,0,0-2.63-5c-2.47-3.6-5.27-5.42-8.34-5.43Z" fill="#231f20"/>
      </g>
      <g>
        <path d="M228.39,173.33a2.72,2.72,0,0,0,2.57-1.22c1.88-2.6-2.39-7.17-2.9-7.7-1.9-2-3.86-3-5.81-3a5.65,5.65,0,0,0-2.34.52,4.86,4.86,0,0,0-3,4.57c.09,1.67,1.16,4,5.74,5.51A20.34,20.34,0,0,0,228.39,173.33Z" fill="#fff"/>
        <path d="M222.25,163.33c1.76,0,3.35,1.27,4.44,2.4,1.39,1.45,3.51,4.5,2.65,5.36,0,0,0,.34-1,.34a18.58,18.58,0,0,1-5.16-1.2c-6.09-2-4.87-5.47-2.52-6.55a3.66,3.66,0,0,1,1.54-.35m0-3.8a7.43,7.43,0,0,0-3.13.69,6.75,6.75,0,0,0-4.13,6.41c.1,1.84,1.14,5.24,7,7.21a21.58,21.58,0,0,0,6.37,1.39,4.69,4.69,0,0,0,4.14-2c2.09-2.89-.15-7-3.1-10.12-2.28-2.36-4.69-3.55-7.18-3.55Z" fill="#231f20"/>
      </g>
    </g>
    <g>
      <g>
        <g>
          <path d="M133.88,179.19a12.6,12.6,0,0,0,4-.56c7.51-2.43,15.68-15,16.64-16.56,1.26-1.47,8.57-10.3,7.29-16.71-1.36-6.81-9.74-16.69-19.78-16.69q-.69,0-1.38.06c-10.86,1-23.73,8.41-27.3,26.34-1.23,6.18,0,11.77,3.64,16.17A23.1,23.1,0,0,0,133.88,179.19Z" fill="#858485"/>
          <path d="M142,130.57c9.26,0,16.79,9.52,17.92,15.16,1.17,5.89-7,15.2-7,15.2s-8.43,13.54-15.69,15.89a11,11,0,0,1-3.36.47c-8.32,0-21.69-6.85-18.71-21.85,3.43-17.26,15.79-23.93,25.6-24.81.41,0,.81-.06,1.21-.06m0-3.8c-.52,0-1,0-1.55.06-11.54,1-25.22,8.91-29,27.87-1.7,8.54,1.25,14.36,4,17.75a24.78,24.78,0,0,0,18.41,8.65,14.74,14.74,0,0,0,4.53-.65c8-2.59,16.09-14.87,17.59-17.24,1.93-2.26,9-11.15,7.63-18.23-1.49-7.42-10.66-18.21-21.65-18.21Z" fill="#231f20"/>
        </g>
        <g>
          <path d="M126.75,151.41a6.81,6.81,0,1,0-6.81-6.81A6.81,6.81,0,0,0,126.75,151.41Z" fill="#fff"/>
          <path d="M126.75,139.7a4.91,4.91,0,1,1-4.91,4.9,4.9,4.9,0,0,1,4.91-4.9m0-3.81a8.71,8.71,0,1,0,8.7,8.71,8.73,8.73,0,0,0-8.7-8.71Z" fill="#231f20"/>
        </g>
        <g>
          <path d="M154.47,142.15a4.26,4.26,0,0,0,3.65-1.73,4.37,4.37,0,0,0,.16-4.39,8.72,8.72,0,0,0-3-3.45,8.45,8.45,0,0,0-4.7-1.61,4.24,4.24,0,0,0-3.65,1.73,4.37,4.37,0,0,0-.16,4.39,8.79,8.79,0,0,0,3,3.45,8.45,8.45,0,0,0,4.7,1.61Z" fill="#fff"/>
          <path d="M150.56,132.87a6.62,6.62,0,0,1,3.62,1.27c2.23,1.54,3.29,3.87,2.37,5.2a2.41,2.41,0,0,1-2.08.91,6.73,6.73,0,0,1-3.62-1.27c-2.23-1.54-3.29-3.87-2.37-5.21a2.43,2.43,0,0,1,2.08-.9m0-3.8a6.15,6.15,0,0,0-5.21,2.54,6.25,6.25,0,0,0-.33,6.27,10.68,10.68,0,0,0,3.67,4.23,10.4,10.4,0,0,0,5.78,1.94,6.15,6.15,0,0,0,5.21-2.55,6.23,6.23,0,0,0,.33-6.26,10.61,10.61,0,0,0-3.67-4.23,10.32,10.32,0,0,0-5.78-1.94Z" fill="#231f20"/>
        </g>
        <g>
          <path d="M122.56,176.76a5,5,0,0,0,4.76-2.71c1.22-2.62-.39-5.88-3.68-7.41a7.84,7.84,0,0,0-3.28-.75,5,5,0,0,0-4.76,2.71c-1.22,2.62.4,5.88,3.69,7.4A7.81,7.81,0,0,0,122.56,176.76Z" fill="#fff"/>
          <path d="M120.36,167.8a5.88,5.88,0,0,1,2.48.57c2.28,1.06,3.52,3.25,2.76,4.88a3.18,3.18,0,0,1-3,1.6,5.83,5.83,0,0,1-2.47-.57c-2.29-1.06-3.52-3.25-2.76-4.88a3.16,3.16,0,0,1,3-1.6m0-3.81a6.93,6.93,0,0,0-6.48,3.81c-1.68,3.59.35,7.95,4.6,9.93a9.71,9.71,0,0,0,4.08.93,7,7,0,0,0,6.49-3.81c1.67-3.59-.36-7.95-4.61-9.93a9.68,9.68,0,0,0-4.08-.93Z" fill="#231f20"/>
        </g>
      </g>
      <g>
        <path d="M154.51,186.91c1.46,0,3.11,0,14.59-29.08l.5-1.3-1.07-.87c-3.61-3-9.7-8.08-10.67-9.24-1.33-1.59-4.17-2.62-7.25-2.62a15.22,15.22,0,0,0-6.64,1.56c-5.44,2.67-17,13.87-13.24,25.75,3.91,12.38,23.25,15.74,23.44,15.78l.16,0Z" fill="#e98624"/>
        <path d="M150.61,145.7c2.72,0,4.92.9,5.79,1.94,1.44,1.73,10.92,9.49,10.92,9.49S156.32,185,154.51,185h0c-1.73-.29-18.59-3.84-21.94-14.47s7.18-21,12.26-23.47a13.13,13.13,0,0,1,5.8-1.37m0-3.81a17.11,17.11,0,0,0-7.48,1.76,30.72,30.72,0,0,0-10.77,10c-4.07,6-5.26,12.29-3.44,18.07,4.25,13.48,24.74,17,24.94,17.07l.34.05h.31c2.85,0,4.21-2.46,6.18-6.48,1.17-2.37,2.65-5.66,4.41-9.77,3-6.94,5.74-14,5.77-14l1-2.59-2.15-1.76c-4.38-3.58-9.61-8-10.4-9-1.71-2.05-5.05-3.32-8.72-3.32Z" fill="#231f20"/>
      </g>
      <g>
        <g>
          <path d="M166.64,196.43a14.21,14.21,0,0,0,7.66-1.94c5.31-3.54,8.78-14.61,9.33-16.47.7-1.5,4.41-9.93,2-14.7-2-3.86-8.51-9.21-15.65-9.21a13,13,0,0,0-4.65.84c-8.24,3.14-16.64,11.75-15.49,26.48C150.62,191.79,158.85,196.43,166.64,196.43Z" fill="#858485"/>
          <path d="M170,156c6.16,0,12.16,4.67,13.95,8.18,2.17,4.25-2.06,13.16-2.06,13.16s-3.55,12.19-8.6,15.56a12.45,12.45,0,0,1-6.61,1.62c-6.34,0-14.16-3.43-14.93-13.25-1.09-14,6.95-21.76,14.28-24.55a11,11,0,0,1,4-.72m0-3.8a14.94,14.94,0,0,0-5.33,1c-8.88,3.39-17.94,12.63-16.71,28.4.9,11.58,10.05,16.76,18.72,16.76a16,16,0,0,0,8.72-2.25c2.75-1.84,5.22-5.33,7.57-10.69a64.83,64.83,0,0,0,2.48-6.68c1.06-2.29,4.64-10.86,1.89-16.25-2.51-4.93-9.86-10.25-17.34-10.25Z" fill="#231f20"/>
        </g>
        <g>
          <path d="M158.25,176.28a5.56,5.56,0,0,0,1.57-.22,5.79,5.79,0,0,0,4-7.16,5.82,5.82,0,0,0-5.59-4.24,5.56,5.56,0,0,0-1.57.22,5.81,5.81,0,0,0,1.57,11.4Z" fill="#fff"/>
          <path d="M158.25,166.56a3.92,3.92,0,1,1-1.06.15,3.91,3.91,0,0,1,1.06-.15m0-3.8a7.43,7.43,0,0,0-2.09.29,7.7,7.7,0,0,0-5.33,9.51,7.73,7.73,0,0,0,7.42,5.62,7.43,7.43,0,0,0,2.09-.29,7.7,7.7,0,0,0,5.33-9.51,7.73,7.73,0,0,0-7.42-5.62Z" fill="#231f20"/>
        </g>
        <g>
          <path d="M177.45,163.2c2.12,0,3.77-1,4.32-2.57a3.88,3.88,0,0,0-.9-3.78,7.34,7.34,0,0,0-3.23-2.12,8.08,8.08,0,0,0-2.54-.44c-2.13,0-3.78,1-4.32,2.57a3.87,3.87,0,0,0,.89,3.78,7.34,7.34,0,0,0,3.23,2.12,7.91,7.91,0,0,0,2.55.44Z" fill="#fff"/>
          <path d="M175.1,156.2a6,6,0,0,1,1.93.33c2,.7,3.36,2.26,2.94,3.48a2.47,2.47,0,0,1-2.52,1.28,5.89,5.89,0,0,1-1.93-.33c-2-.7-3.36-2.26-2.94-3.48a2.47,2.47,0,0,1,2.52-1.28m0-3.81c-3,0-5.31,1.48-6.12,3.86a5.71,5.71,0,0,0,1.24,5.62,9.3,9.3,0,0,0,4.06,2.69,9.78,9.78,0,0,0,3.17.54c3,0,5.31-1.48,6.12-3.86a5.73,5.73,0,0,0-1.24-5.62,9.33,9.33,0,0,0-4.07-2.69,9.72,9.72,0,0,0-3.16-.54Z" fill="#231f20"/>
        </g>
        <g>
          <path d="M160.35,196.63c2.64,0,4.73-1.5,5.08-3.64.4-2.49-1.68-4.83-4.74-5.33a7.14,7.14,0,0,0-1.12-.09c-2.64,0-4.72,1.49-5.07,3.64-.41,2.49,1.68,4.83,4.74,5.33A7,7,0,0,0,160.35,196.63Z" fill="#fff"/>
          <path d="M159.57,189.47a4.59,4.59,0,0,1,.81.07c2,.32,3.4,1.73,3.17,3.14-.2,1.22-1.56,2-3.2,2a5.49,5.49,0,0,1-.8-.06c-2-.32-3.4-1.73-3.18-3.15.2-1.21,1.56-2,3.2-2m0-3.81c-3.59,0-6.45,2.16-6.95,5.25-.58,3.54,2.2,6.84,6.31,7.51a9.81,9.81,0,0,0,1.42.11c3.6,0,6.45-2.15,7-5.24.57-3.54-2.2-6.84-6.32-7.51a8.51,8.51,0,0,0-1.42-.12Z" fill="#231f20"/>
        </g>
      </g>
      <g>
        <path d="M206.75,170.69l-3.12-6-.49-.27a29.78,29.78,0,0,0-13.41-3.18,27.34,27.34,0,0,0-8.18,1.23c-1.4.19-9.42,1.54-13.22,7.49s-5.34,18.29-.25,22.57a11.84,11.84,0,0,0,6,2.84,8.78,8.78,0,0,1,3.64,1.4,29.73,29.73,0,0,0,9.9,3.77l1.29.23Z" fill="#e98624"/>
        <path d="M189.73,163.1A27.87,27.87,0,0,1,202.2,166l2.38,4.58-16.61,28a28.13,28.13,0,0,1-9.18-3.48c-3.79-2.54-5.53-.8-9.49-4.12s-3-14.39.63-20.09,12-6.64,12-6.64a25.42,25.42,0,0,1,7.77-1.2m0-3.81a29.27,29.27,0,0,0-8.6,1.28c-2,.3-10.3,1.91-14.39,8.32A27.34,27.34,0,0,0,163,181.68c-.28,5.57,1.09,9.92,3.88,12.27a13.62,13.62,0,0,0,6.87,3.24,7.08,7.08,0,0,1,3,1.12,31.18,31.18,0,0,0,10.63,4.06l2.59.46,1.34-2.26,16.61-28,1.08-1.82-1-1.87-2.37-4.59-.53-1-1-.56a31.8,31.8,0,0,0-14.33-3.42Z" fill="#231f20"/>
      </g>
      <g>
        <path d="M205.29,174.7c2.19,0,3.41-.39,4.1-1.3a2.27,2.27,0,0,0,.43-1c.74-2.9-3.94-6.36-4.92-7.06a9.17,9.17,0,0,0-5.1-1.94,4.89,4.89,0,0,0-3.45,1.37,5.22,5.22,0,0,0-1.39,5.37c.46,1.38,2,3.77,6.88,4.34A32,32,0,0,0,205.29,174.7Z" fill="#fff"/>
        <path d="M199.8,165.29a7.61,7.61,0,0,1,4,1.6c1.75,1.23,4.66,4,4.14,5.13,0,0,.22.77-2.65.77a28.4,28.4,0,0,1-3.23-.22c-6.24-.71-6.2-4.71-4.39-6.43a3,3,0,0,1,2.13-.85m0-3.81a6.78,6.78,0,0,0-4.76,1.9,7.11,7.11,0,0,0-1.88,7.36c.6,1.8,2.51,4.93,8.47,5.62a33.23,33.23,0,0,0,3.66.24c1.89,0,4.24-.23,5.62-2a4.24,4.24,0,0,0,.75-1.68c.49-1.81-.22-3.8-2.1-5.91a21.91,21.91,0,0,0-3.57-3.18,10.91,10.91,0,0,0-6.19-2.3Z" fill="#231f20"/>
      </g>
      <g>
        <path d="M207.31,185.34a3.35,3.35,0,0,0,2.58-.91,2.38,2.38,0,0,0,.49-.78c1.59-3.16-3.5-8.82-4.11-9.48-2.3-2.5-4.59-3.76-6.79-3.76a5.62,5.62,0,0,0-3,.85,6.08,6.08,0,0,0-2.92,5.78c.19,1.71,1.35,4.85,7,6.78A23.28,23.28,0,0,0,207.31,185.34Z" fill="#fff"/>
        <path d="M199.48,172.31c2,0,4,1.65,5.39,3.15,1.83,2,4.68,6.19,3.74,7.44,0,0,0,.54-1.3.54A20.77,20.77,0,0,1,201.2,182c-7.52-2.55-6.41-7.48-3.7-9.13a3.72,3.72,0,0,1,2-.57m0-3.81a7.61,7.61,0,0,0-4,1.13,8,8,0,0,0-3.82,7.62c.24,2.15,1.63,6.1,8.28,8.37a24.26,24.26,0,0,0,7.34,1.62,5.21,5.21,0,0,0,4-1.5,4.52,4.52,0,0,0,.83-1.29c2-4.08-2.83-9.83-4.44-11.57-2.68-2.9-5.44-4.38-8.19-4.38Z" fill="#231f20"/>
      </g>
      <g>
        <path d="M201.7,195.49a2.65,2.65,0,0,0,2.47-1.29c2.05-2.88-2.15-9.24-2.65-10-2.16-3.18-4.51-4.79-7-4.79a5.87,5.87,0,0,0-2.24.46,6.09,6.09,0,0,0-3.75,5.29c-.06,1.71.62,5,5.92,7.74C198.92,195.22,200.73,195.49,201.7,195.49Z" fill="#fff"/>
        <path d="M194.53,181.33c2.26,0,4.17,2.13,5.41,4,1.52,2.23,3.71,6.82,2.59,7.92,0,0,0,.38-.83.38s-2.68-.46-6.36-2.36c-7.05-3.65-5.23-8.35-2.31-9.58a3.82,3.82,0,0,1,1.5-.32m0-3.8a7.75,7.75,0,0,0-3,.61,8,8,0,0,0-4.91,7c-.08,2.16.71,6.27,7,9.5,4.77,2.47,6.84,2.78,8.11,2.78a4.57,4.57,0,0,0,4-2.1c2.64-3.74-1.31-10.17-2.65-12.14-2.53-3.73-5.41-5.62-8.56-5.62Z" fill="#231f20"/>
      </g>
      <g>
        <path d="M192.12,203.07a2.55,2.55,0,0,0,2.39-1.27c1.85-2.72-1.92-8.5-2.38-9.18-2-2.93-4.12-4.41-6.41-4.41a5.29,5.29,0,0,0-2.09.43,5.67,5.67,0,0,0-3.46,4.93c-.06,1.59.56,4.63,5.39,7.15C189.58,202.82,191.23,203.07,192.12,203.07Z" fill="#fff"/>
        <path d="M185.72,190.11c2,0,3.72,1.91,4.83,3.57,1.35,2,3.31,6.15,2.31,7.14,0,0,0,.34-.74.34s-2.39-.41-5.68-2.13c-6.29-3.28-4.66-7.53-2.06-8.64a3.5,3.5,0,0,1,1.34-.28m0-3.81a7.14,7.14,0,0,0-2.83.59,7.57,7.57,0,0,0-4.62,6.61c-.08,2,.65,5.9,6.41,8.91,4.34,2.27,6.25,2.56,7.44,2.56a4.5,4.5,0,0,0,3.95-2.06c1.68-2.38.49-5.53.08-6.63a25.4,25.4,0,0,0-2.44-4.72c-2.34-3.49-5-5.26-8-5.26Z" fill="#231f20"/>
      </g>
      <g>
        <g>
          <path d="M189.62,154.88a15.26,15.26,0,0,0,4.25-13.18c-2.55-16.21-29.31-31.53-30.45-32.17l-.07,0-.08,0c-.23-.1-5.56-2.51-9.74-2.51-3.26,0-4.71,1.45-5.35,2.66-1.69,3.18.16,8.57,5.84,17,17.28,25.55,33.18,28.77,33.85,28.89l1,.2Z" fill="#858485"/>
          <path d="M153.53,108.85c3.82,0,8.95,2.33,8.95,2.33s42.59,24.11,25.74,42.41c0,0-15.59-2.9-32.62-28.09-9.15-13.52-6.49-16.65-2.07-16.65m0-3.81c-4.43,0-6.31,2.3-7,3.67-2.12,4-.34,9.64,5.94,18.92,17.73,26.21,34.38,29.57,35.08,29.7l2.07.39,1.43-1.55a17.3,17.3,0,0,0,4.73-14.76c-1.16-7.38-6.89-15.32-17-23.58a115.42,115.42,0,0,0-14.37-10l-.15-.08-.15-.07c-.61-.28-6-2.68-10.53-2.68Z" fill="#231f20"/>
        </g>
        <g>
          <path d="M170,139.55a6.26,6.26,0,1,0-6-6.26A6.13,6.13,0,0,0,170,139.55Z" fill="#fff"/>
          <path d="M170,128.94a4.36,4.36,0,1,1-4.07,4.35,4.23,4.23,0,0,1,4.07-4.35m0-3.8a8.16,8.16,0,1,0,7.89,8.15,8,8,0,0,0-7.89-8.15Z" fill="#231f20"/>
        </g>
      </g>
    </g>
    <g>
      <path d="M127.29,226.06a11.89,11.89,0,0,0,2.55-.31c1.45-.26,37.55-7.1,53.32-39.46L202,158.89a1.94,1.94,0,0,0,.29-1.48,1.86,1.86,0,0,0-.86-1.22L173.6,139a1.92,1.92,0,0,0-1-.28h-.22c-.49.06-12.19,1.47-21.25,8.82-8.49,6.89-12.58,21.48-13.25,24.06a111.15,111.15,0,0,0-13,25.39c-.78,1.91-7.72,19.43-3.16,26.21A6.38,6.38,0,0,0,127.29,226.06Z" fill="#fed091"/>
      <path d="M172.61,140.66l27.85,17.15-19,27.52c-15.49,32-52.08,38.57-52.08,38.57a10.21,10.21,0,0,1-2.14.25c-11.46,0-.67-26.46-.67-26.46a108.78,108.78,0,0,1,13-25.22s4-16.31,12.7-23.4,20.27-8.41,20.27-8.41m0-3.8-.43,0c-.52.06-12.75,1.54-22.24,9.23-8.6,7-12.87,21.26-13.8,24.72a114,114,0,0,0-13.07,25.5,87.39,87.39,0,0,0-3.36,10.37c-2.11,8.32-2,14.08.39,17.61a8.36,8.36,0,0,0,7.19,3.65,13.63,13.63,0,0,0,2.89-.33,85.28,85.28,0,0,0,21.2-7.64c15.16-7.71,26.71-19,33.43-32.74L203.6,160a3.82,3.82,0,0,0-1.15-5.4L174.6,137.42a3.79,3.79,0,0,0-2-.56Z" fill="#231f20"/>
    </g>
    <g>
      <path d="M86.28,231.21c1.46,0,2.28,0,2.28,0h.49l.42-.25c17-9.94,18.64-19.11,17-25-3-11.05-19.34-18.11-29.27-18.11a16.48,16.48,0,0,0-4.36.53c-12.43,3.47-24,17.18-26.83,20.76-1.09-.06-2.69-.1-4.42-.1C22,209,21.28,212.64,21,214c-.55,2.65,2.05,5,8.7,7.89C49.63,230.53,78.05,231.21,86.28,231.21Z" fill="#e98624"/>
      <path d="M77.23,189.66c15.89,0,47.21,18.59,11.28,39.62,0,0-.8,0-2.23,0-8,0-36.19-.64-55.84-9.14-18.36-7.95,1-9.3,11.18-9.3,2.65,0,4.69.09,5.28.18,0,0,12.91-17.13,26.48-20.91a14.15,14.15,0,0,1,3.85-.47m0-3.8a18.19,18.19,0,0,0-4.87.6c-12.19,3.4-23.45,16.07-27.2,20.65-1.14,0-2.45-.06-3.54-.06a95.37,95.37,0,0,0-12.29.72c-4.58.64-9.37,1.83-10.2,5.87-1.1,5.3,6,8.36,9.8,10,20.28,8.78,49,9.46,57.35,9.46,1.46,0,2.29,0,2.33,0l1,0,.84-.49c10-5.83,21.15-15.28,17.91-27.2-3.28-12.09-20.33-19.51-31.11-19.51Z" fill="#231f20"/>
    </g>
    <g>
      <g>
        <g>
          <path d="M181.75,222.37l-1.13-1.88c-2-3.38-8.8-6.9-10.83-7.9-1.93-2.51-6.29-4.35-9.19-5.35,6.5-11.09,10-20.77,0-32.42-9.59-11.16-27.08-12-29.33-12a5.19,5.19,0,0,0-.9-.08c-4.82,0-14.11,6.88-20,13.25-4.48,4.88-6.61,9-6.33,12.18.59,6.94,6.1,11.53,8.74,13.73l.62.53c-.17.62-.59,1.7-1,2.68a99.42,99.42,0,0,0-3.22,9.47c-2.36,8.39.12,13.58,7.6,15.85,5.23,1.59,39.58,2.45,43.48,2.54h.51Z" fill="#231f20"/>
          <path d="M130.39,164.73a2.3,2.3,0,0,1,.66.08s18.46.22,28,11.34,6,19.8-1.56,32.26c0,0,8.9,2.45,10.9,5.78,0,0,8.45,4,10.46,7.35l-18.47,9.34s-37.82-.89-42.94-2.45-8.67-4.67-6.23-13.35,4.9-12.46,4.23-13.57-8.68-5.78-9.34-13.57c-.65-7.49,18.27-23.21,24.26-23.21m0-4.08c-6,0-16.16,8.14-21.46,13.91-4.88,5.32-7.19,9.93-6.87,13.73.64,7.37,6.19,12.37,9,14.75-.15.41-.32.86-.49,1.29-.82,2.13-2.06,5.34-3.27,9.65-2.66,9.41.44,15.76,9,18.35,5.38,1.64,37.62,2.47,44,2.63l1,0,.91-.46,18.47-9.35,3.91-2-2.26-3.76c-2.18-3.64-8.38-7-11.3-8.49-1.82-2.08-4.83-3.67-7.52-4.78,5.94-10.67,8.8-20.84-1.38-32.68-9.95-11.56-27.7-12.65-30.68-12.75a6.53,6.53,0,0,0-1.1-.09Z" fill="#231f20"/>
        </g>
        <g>
          <g>
            <path d="M178.31,228.94c2.88-.05,5-.08,5.8-1.91s-.67-3.7-1.49-4.7c-2.16-2.62-4.32-5-7-5a5,5,0,0,0-3.13,1.17,6.46,6.46,0,0,0-2.53,4.79,5.75,5.75,0,0,0,1,3.71,2.63,2.63,0,0,0,.38.56c.86.95,2.47,1.38,5.21,1.38Z" fill="#231f20"/>
            <path d="M175.62,219.4c1.66,0,3.32,1.68,5.42,4.23,2.88,3.49.62,3.19-3.9,3.29h-.62c-3.9,0-3.81-.94-3.81-.94-.92-.92-1.33-4,1-5.86a3,3,0,0,1,1.88-.73m0-4.08a7,7,0,0,0-4.38,1.6,8.53,8.53,0,0,0-3.31,6.28,7.82,7.82,0,0,0,1.28,4.92,4.44,4.44,0,0,0,.6.84c1.3,1.43,3.31,2,6.72,2h.71l1.11,0c3.07,0,6.24-.1,7.63-3.09s-.83-5.7-1.78-6.85c-2.38-2.89-5-5.72-8.57-5.72Z" fill="#231f20"/>
          </g>
          <g>
            <path d="M172.33,231.11c2.88,0,5-.07,5.8-1.9s-.67-3.7-1.49-4.7c-2.16-2.62-4.32-5-7-5a5,5,0,0,0-3.13,1.16,6.52,6.52,0,0,0-2.52,4.8,5.78,5.78,0,0,0,1,3.71,2.31,2.31,0,0,0,.38.56c.86.95,2.47,1.37,5.21,1.37Z" fill="#231f20"/>
            <path d="M169.63,221.58c1.67,0,3.33,1.67,5.43,4.22,2.88,3.5.62,3.19-3.91,3.29h-.61c-3.9,0-3.81-.93-3.81-.93-.92-.93-1.33-4,1-5.86a3,3,0,0,1,1.87-.73m0-4.08a7,7,0,0,0-4.38,1.6,8.53,8.53,0,0,0-3.31,6.27,7.88,7.88,0,0,0,1.27,4.92,4.92,4.92,0,0,0,.61.85c1.3,1.43,3.3,2,6.72,2h.71l1.11,0c3.07-.05,6.24-.1,7.63-3.08s-.83-5.71-1.78-6.86c-2.48-3-5-5.71-8.58-5.71Z" fill="#231f20"/>
          </g>
          <g>
            <path d="M162.27,233.29c2.88,0,5-.08,5.8-1.91s-.67-3.7-1.49-4.7c-2.16-2.62-4.32-5-7-5a5,5,0,0,0-3.13,1.17,6.46,6.46,0,0,0-2.53,4.79,5.75,5.75,0,0,0,1,3.71,2.63,2.63,0,0,0,.38.56c.86.95,2.47,1.37,5.21,1.37Z" fill="#231f20"/>
            <path d="M159.58,223.75c1.66,0,3.32,1.68,5.42,4.23,2.88,3.49.62,3.19-3.9,3.29h-.62c-3.9,0-3.81-.94-3.81-.94-.92-.92-1.33-4,1-5.86a3,3,0,0,1,1.88-.73m0-4.07a7,7,0,0,0-4.38,1.59,8.53,8.53,0,0,0-3.31,6.28,7.82,7.82,0,0,0,1.28,4.92,4.79,4.79,0,0,0,.6.84c1.3,1.43,3.31,2,6.72,2h.71l1.11,0c3.07-.05,6.24-.1,7.63-3.09s-.83-5.7-1.78-6.85c-2.38-2.89-5-5.71-8.57-5.71Z" fill="#231f20"/>
          </g>
          <g>
            <path d="M155.44,220.37s3.5-.1,7,3.39" fill="#231f20"/>
            <path d="M162.43,225.8a2,2,0,0,0,1.44-3.48,12.46,12.46,0,0,0-8.49-4,2,2,0,0,0,.1,4.08A8.47,8.47,0,0,1,161,225.2,2,2,0,0,0,162.43,225.8Z" fill="#231f20"/>
          </g>
          <g>
            <path d="M165,217.51s3.49-.11,7,3.39" fill="#231f20"/>
            <path d="M172,222.94a2,2,0,0,0,1.44-3.48c-4.07-4.08-8.31-4-8.49-4a2,2,0,0,0,.06,4.08h0a8.46,8.46,0,0,1,5.52,2.79A2,2,0,0,0,172,222.94Z" fill="#231f20"/>
          </g>
        </g>
      </g>
      <g>
        <g>
          <path d="M149.67,235l-1.12-1.88c-2-3.38-8.8-6.9-10.84-7.9-1.93-2.51-6.29-4.35-9.19-5.35,6.5-11.09,10-20.77,0-32.42-9.59-11.15-27.07-12-29.33-12.05a5.08,5.08,0,0,0-.89-.08c-4.82,0-14.12,6.88-20,13.25-4.48,4.88-6.61,9-6.33,12.18.59,6.94,6.1,11.53,8.74,13.74l.63.52c-.17.6-.58,1.66-1,2.69a98.05,98.05,0,0,0-3.22,9.46c-2.36,8.39.12,13.58,7.6,15.85,5.23,1.6,39.58,2.45,43.48,2.54h.52Z" fill="#231f20"/>
          <path d="M98.32,177.37a2.7,2.7,0,0,1,.65.07s18.46.23,28,11.35,6,19.8-1.56,32.26c0,0,8.9,2.45,10.9,5.78,0,0,8.45,4,10.46,7.35l-18.47,9.34s-37.82-.89-42.94-2.45-8.67-4.67-6.22-13.35,4.89-12.46,4.22-13.57-8.67-5.78-9.34-13.57c-.64-7.49,18.27-23.21,24.27-23.21m0-4.08c-6,0-16.17,8.14-21.47,13.91-4.88,5.32-7.19,9.94-6.86,13.73.63,7.37,6.19,12.37,9,14.75-.15.41-.32.86-.49,1.29-.82,2.13-2.06,5.35-3.27,9.65-2.65,9.41.45,15.76,9,18.35,5.38,1.64,37.62,2.48,44,2.63l1,0,.91-.46,18.47-9.35,3.91-2-2.26-3.76c-2.18-3.64-8.38-7-11.29-8.49-1.82-2.08-4.84-3.67-7.52-4.78,5.93-10.67,8.79-20.84-1.39-32.68-9.94-11.56-27.7-12.65-30.68-12.75a6.5,6.5,0,0,0-1.09-.09Z" fill="#231f20"/>
        </g>
        <g>
          <g>
            <path d="M146.23,241.58c2.88-.05,5-.08,5.81-1.9s-.68-3.71-1.5-4.71c-2.16-2.61-4.32-5-7-5a5,5,0,0,0-3.13,1.17,6.51,6.51,0,0,0-2.53,4.79,5.75,5.75,0,0,0,1,3.71,2.63,2.63,0,0,0,.38.56c.86,1,2.47,1.38,5.21,1.38Z" fill="#231f20"/>
            <path d="M143.54,232c1.66,0,3.32,1.68,5.42,4.23,2.88,3.5.62,3.19-3.9,3.29h-.62c-3.9,0-3.8-.94-3.8-.94-.93-.92-1.34-4,1-5.86a3,3,0,0,1,1.88-.73m0-4.07a7,7,0,0,0-4.39,1.59,8.57,8.57,0,0,0-3.31,6.28,7.82,7.82,0,0,0,1.28,4.92,4.44,4.44,0,0,0,.6.84c1.3,1.43,3.31,2,6.72,2h.71l1.11,0c3.07-.05,6.24-.1,7.63-3.09s-.83-5.7-1.78-6.85c-2.48-3-5-5.71-8.57-5.71Z" fill="#231f20"/>
          </g>
          <g>
            <path d="M140.25,243.75c2.88,0,5-.07,5.81-1.9s-.68-3.7-1.5-4.7c-2.16-2.62-4.32-5-7-5a5,5,0,0,0-3.13,1.16,6.5,6.5,0,0,0-2.53,4.8,5.75,5.75,0,0,0,1,3.71,2.63,2.63,0,0,0,.38.56c.86,1,2.47,1.37,5.21,1.37Z" fill="#231f20"/>
            <path d="M137.56,234.22c1.66,0,3.32,1.67,5.42,4.23,2.88,3.49.62,3.18-3.9,3.28h-.62c-3.9,0-3.8-.93-3.8-.93-.93-.93-1.34-4,1-5.86a3,3,0,0,1,1.88-.73m0-4.08a7,7,0,0,0-4.38,1.6,8.53,8.53,0,0,0-3.31,6.28,7.79,7.79,0,0,0,1.28,4.91,4.51,4.51,0,0,0,.6.85c1.3,1.43,3.31,2,6.72,2h.71l1.11,0c3.07,0,6.24-.09,7.63-3.08s-.83-5.71-1.78-6.86c-2.48-3-5-5.71-8.57-5.71Z" fill="#231f20"/>
          </g>
          <g>
            <path d="M130.19,245.93c2.88-.05,5-.08,5.81-1.9s-.68-3.71-1.5-4.71c-2.16-2.61-4.32-5-7-5a5,5,0,0,0-3.13,1.16,6.51,6.51,0,0,0-2.53,4.79,5.75,5.75,0,0,0,1,3.71,2.35,2.35,0,0,0,.39.56c.85.95,2.46,1.38,5.2,1.38Z" fill="#231f20"/>
            <path d="M127.5,236.39c1.66,0,3.32,1.68,5.42,4.23,2.88,3.5.62,3.19-3.9,3.29h-.62c-3.9,0-3.8-.94-3.8-.94-.93-.92-1.34-4,1-5.85a2.94,2.94,0,0,1,1.87-.74m0-4.07a7,7,0,0,0-4.39,1.59,8.52,8.52,0,0,0-3.3,6.28,7.76,7.76,0,0,0,1.27,4.92,4.44,4.44,0,0,0,.6.84c1.3,1.43,3.31,2,6.72,2h.71l1.12,0c3.06-.05,6.24-.1,7.62-3.09s-.83-5.7-1.78-6.85c-2.48-3-5-5.71-8.57-5.71Z" fill="#231f20"/>
          </g>
          <g>
            <path d="M123.36,233s3.5-.1,7,3.39" fill="#231f20"/>
            <path d="M130.36,238.44A2,2,0,0,0,131.8,235c-4.08-4.07-8.32-4-8.5-4a2,2,0,0,0,.06,4.08h0a8.49,8.49,0,0,1,5.51,2.8A2.07,2.07,0,0,0,130.36,238.44Z" fill="#231f20"/>
          </g>
          <g>
            <path d="M132.92,230.15s3.49-.1,7,3.39" fill="#231f20"/>
            <path d="M139.91,235.58a2,2,0,0,0,1.44-3.48c-4.07-4.08-8.32-4-8.49-4a2,2,0,0,0,.09,4.07,8.51,8.51,0,0,1,5.52,2.8A2,2,0,0,0,139.91,235.58Z" fill="#231f20"/>
          </g>
        </g>
      </g>
    </g>
    <g>
      <path d="M173.34,118.58l-1.76-2.13c-12.46-15-30.26-23.65-48.84-23.65-2,0-4,.1-6,.3-20.9,2.08-37.24,11.75-47.26,28-8.06,13-11.72,30.16-10.05,47a72.38,72.38,0,0,0,13.35,35.39L74.6,206Z" fill="#3da448"/>
      <path d="M122.74,95.66c18.26,0,35.07,8.66,46.64,22.61L75.06,201.75a69.27,69.27,0,0,1-12.82-34C59.35,138.6,72.57,100.35,117,95.94c1.92-.19,3.84-.28,5.74-.28m0-5.71c-2.1,0-4.22.11-6.31.31C94.61,92.43,77.52,102.56,67,119.57c-8.38,13.56-12.19,31.33-10.46,48.75a75.24,75.24,0,0,0,13.88,36.79l3.7,5.08,4.7-4.17,94.32-83.47,4.14-3.67-3.53-4.25C160.77,99,142.17,90,122.74,90Z" fill="#231f20"/>
    </g>
    <g>
      <g>
        <path d="M119.63,113c4.5,0,10.57-1.84,13.26-5.87,3.42-5.12.61-10-1.06-13-.21-.36-.41-.71-.58-1-1.55-2.89-7.41-12.42-7.65-12.83a50.32,50.32,0,0,0-3.94-5.75,4.87,4.87,0,0,0-3.51-1.81c-1,0-2.72.4-3.7,3.12-1,2.89-3.2,15.14-3.61,21.49-.08,1.21-.19,2.28-.3,3.22-.45,4-.77,6.93,3.78,10.34A12.07,12.07,0,0,0,119.63,113Z" fill="#fae151"/>
        <path d="M116.15,74.75a3,3,0,0,1,2,1.15,51.44,51.44,0,0,1,3.7,5.44s6,9.85,7.59,12.72,4.82,7.29,1.75,11.91c-2,3-7.07,5-11.57,5a10.18,10.18,0,0,1-6.08-1.68c-4.52-3.39-3.08-5.44-2.67-11.8s2.56-18.37,3.49-20.93c.46-1.29,1.1-1.77,1.78-1.77m0-4.08c-3.72,0-5.24,3.42-5.62,4.46-1.11,3.08-3.29,15.44-3.72,22.06-.08,1.16-.19,2.2-.29,3.12-.47,4.16-.91,8.09,4.58,12.2a14.05,14.05,0,0,0,8.53,2.5c7.21,0,12.71-3.41,15-6.78,4.11-6.17.79-12-1-15.11-.2-.35-.39-.67-.55-1-1.58-3-7.47-12.53-7.7-12.9a47.86,47.86,0,0,0-4.19-6.11,6.78,6.78,0,0,0-5-2.46Z" fill="#231f20"/>
      </g>
      <g>
        <path d="M89.32,133.88c6.58,0,14.43-6.93,15-13.24.56-6.13-4.26-9.1-7.13-10.88l-1-.63c-2.74-1.81-12.43-7.39-12.84-7.63a51,51,0,0,0-6.2-3.18A6.55,6.55,0,0,0,75.1,98a3.65,3.65,0,0,0-2.86,1.22,4.48,4.48,0,0,0-.81,3.74c.47,3,4.42,14.84,7.09,20.61.51,1.11.91,2.1,1.27,3,1.52,3.75,2.63,6.45,8.26,7.28A7.59,7.59,0,0,0,89.32,133.88Z" fill="#fae151"/>
        <path d="M75.1,100a4.52,4.52,0,0,1,1.39.26,51.94,51.94,0,0,1,5.84,3s10,5.77,12.75,7.56,7.71,4.1,7.21,9.63c-.48,5.21-7.49,11.38-13,11.38a6.37,6.37,0,0,1-1-.07c-5.58-.83-5.3-3.31-8-9.1s-6.51-17.37-6.93-20.06c-.29-2,.53-2.62,1.66-2.62m0-4.08a5.67,5.67,0,0,0-4.4,1.94,6.4,6.4,0,0,0-1.29,5.37c.5,3.23,4.47,15.14,7.26,21.16.48,1.06.88,2,1.23,2.89,1.58,3.87,3.06,7.53,9.85,8.53a10.18,10.18,0,0,0,1.57.11c7.61,0,16.36-7.75,17-15.08s-5-10.91-8.08-12.81c-.34-.21-.66-.4-1-.6-2.79-1.83-12.53-7.45-12.91-7.66a49.29,49.29,0,0,0-6.6-3.37,8.6,8.6,0,0,0-2.7-.48Z" fill="#231f20"/>
      </g>
      <g>
        <path d="M76.32,170.9a10.72,10.72,0,0,0,4.5-1.18c2.83-1.32,5.23-4.4,6.58-8.46,1.43-4.27,1.36-8.56-.19-11.46-2.79-5.21-8.29-5.21-10.36-5.21l-1.58,0-1.17,0c-3.31,0-14.46.65-14.93.68a50.13,50.13,0,0,0-6.93.75,4.57,4.57,0,0,0-3.52,2.87c-.27.92-.28,2.39,1.26,4.11,2.06,2.28,11.84,10,17.24,13.33,1,.64,1.92,1.25,2.7,1.79C72.14,169.69,73.89,170.9,76.32,170.9Z" fill="#fae151"/>
        <path d="M76.85,146.63c3,0,6.59.45,8.56,4.13,2.61,4.9-.33,14.73-5.45,17.11a8.67,8.67,0,0,1-3.64,1c-2.49,0-4.17-1.82-8-4.22-5.41-3.36-15-10.93-16.8-13S51,148.5,52.75,148a52,52,0,0,1,6.54-.68s11.53-.69,14.79-.69h0c.81,0,1.76,0,2.76,0m0-4.08c-.57,0-1.11,0-1.63,0l-1.14,0c-3.35,0-14.56.66-15,.68a49,49,0,0,0-7.36.82c-3.47.89-4.6,3.05-5,4.25s-.6,3.51,1.7,6.06,12,10.19,17.68,13.7c1,.62,1.85,1.21,2.62,1.74,2.31,1.59,4.49,3.09,7.55,3.09a12.64,12.64,0,0,0,5.36-1.37c3.33-1.55,6.12-5.07,7.66-9.66,1.6-4.8,1.47-9.68-.34-13.07-3.36-6.29-10-6.29-12.15-6.29Z" fill="#231f20"/>
      </g>
    </g>
    <g>
      <path d="M145.64,105l42.62-2.6a1.71,1.71,0,0,0,.82-.25l30.64-18.66a1.73,1.73,0,0,0,.8-1.12c.39-1.74,3.77-17.15,2.31-21.8-1.26-4-4.21-13.41-15.5-16.85a49.13,49.13,0,0,0-11.67-2c-3.16-.24-5.44-.41-8.13-1.9-1.62-.89-2.95-1.77-4-2.48-1.82-1.2-3-2-4.27-2-1,0-2.31.47-2.92,2.72a20.64,20.64,0,0,0-.09,9.53,16.61,16.61,0,0,0-11.09,5c-.78.82-1.45,1.56-2.06,2.24-3.36,3.75-4.61,5.15-13.12,5.25a1.77,1.77,0,0,0-1.75,1.77,8.86,8.86,0,0,0,4.25,6.94,23.8,23.8,0,0,0-4.64,3c-3.73,3.16-5.1,6.81-4,10.57,0,0,0,.09,0,.14A7.16,7.16,0,0,0,141.74,85a19.24,19.24,0,0,0-1.67,5.58c-.4,2.15-.74,4-2.25,5.64a1.79,1.79,0,0,0,.1,2.52l6.43,5.8a1.76,1.76,0,0,0,1.19.46Z" fill="#f36b35"/>
      <path d="M179.24,37.12c1.25,0,3.43,2,7.43,4.26,5.81,3.21,10,1,20.14,4.07s13,11.37,14.33,15.69S218.8,82,218.8,82l-30.64,18.66-42.62,2.59-6.43-5.8c3.21-3.46,2.1-7.54,4.2-11.62,1.78-3.45,7-3.71,8.57-3.71h.45a3.37,3.37,0,0,0-2.88-1.33,9.41,9.41,0,0,0-3.91,1.08C143.31,74.49,154.06,70,154.06,70a9,9,0,0,0,3,.6,3.26,3.26,0,0,0,2.79-1.1C150,68.18,150,61.89,150,61.89c10.87-.13,11.25-2.6,16.43-8a15.23,15.23,0,0,1,11-4.51,11.07,11.07,0,0,1,1.36.07c-1.49-2.72-1.61-7.66-.74-10.88.27-1,.64-1.41,1.21-1.41m0-3.53c-1.07,0-3.65.39-4.63,4a22.79,22.79,0,0,0-.45,8.45,18,18,0,0,0-10.3,5.34c-.8.84-1.49,1.61-2.09,2.28-3.23,3.6-4.1,4.57-11.83,4.66a3.54,3.54,0,0,0-3.49,3.54,10.37,10.37,0,0,0,2.92,6.65,23.11,23.11,0,0,0-2.69,1.95c-3.93,3.32-5.6,7.35-4.78,11.43a8.68,8.68,0,0,0-1.73,2.31,20.91,20.91,0,0,0-1.84,6.07c-.41,2.24-.7,3.57-1.81,4.76a3.54,3.54,0,0,0,.22,5l6.43,5.81a3.56,3.56,0,0,0,2.37.91h.21l42.62-2.59a3.59,3.59,0,0,0,1.63-.51L220.63,85a3.55,3.55,0,0,0,1.62-2.25c.91-4.1,3.79-17.85,2.27-22.71-1.23-3.91-4.49-14.29-16.68-18A50.58,50.58,0,0,0,195.79,40c-3-.23-5-.38-7.4-1.69-1.56-.86-2.81-1.68-3.9-2.41-2-1.32-3.46-2.28-5.25-2.28Z" fill="#231f20"/>
    </g>
    <g>
      <path d="M70.25,146.07a11.31,11.31,0,0,0,3.84-.8c2.87-1,5.47-3.84,7.14-7.7,1.77-4.06,2.07-8.26.81-11.22-2.35-5.51-7.9-5.84-11.21-6l-1.18-.08c-3.26-.29-14.44-.61-14.91-.63,0,0-1.51-.06-3.14-.06a25.46,25.46,0,0,0-3.78.2,4.28,4.28,0,0,0-3.54,2.38c-.33.83-.45,2.19.86,3.94C47,128.51,56,137,61.09,140.79c1,.74,1.81,1.42,2.54,2C65.83,144.63,67.57,146.07,70.25,146.07Z" fill="#fae151"/>
      <path d="M51.6,121.31c1.62,0,3.09.06,3.09.06s11.56.33,14.81.61,8.73,0,10.91,5.06-1.61,14.65-6.92,16.57a9.67,9.67,0,0,1-3.24.69c-2.77,0-4.25-2-8.09-4.92-5.1-3.83-14-12.21-15.61-14.38s-.22-3.22,1.57-3.52a25.87,25.87,0,0,1,3.48-.17m0-3.53a24,24,0,0,0-4.07.22c-3.27.54-4.47,2.4-4.89,3.46s-.81,3.13,1.09,5.66,11,11.13,16.3,15.09c.95.7,1.76,1.38,2.48,2,2.37,2,4.42,3.65,7.74,3.65a12.83,12.83,0,0,0,4.45-.9c3.31-1.2,6.28-4.35,8.15-8.65,2-4.51,2.26-9.22.81-12.62-2.78-6.52-9.25-6.91-12.72-7.12-.4,0-.78,0-1.13-.08-3.32-.29-14.54-.61-15-.62-.07,0-1.56-.06-3.23-.06Z" fill="#231f20"/>
    </g>
    <g>
      <path d="M97.09,116.24c6.15,0,13.59-5.13,15-10.37,1.57-5.78-2.57-9.48-5-11.69-.32-.28-.61-.54-.88-.8-2.39-2.24-11-9.42-11.32-9.72a49,49,0,0,0-5.51-4.18,5.33,5.33,0,0,0-2.59-.76c-1.62,0-3.36,1.07-3.43,4s1.77,15.32,3.39,21.45c.31,1.19.54,2.24.74,3.17.86,4,1.43,6.66,6.68,8.41A9.6,9.6,0,0,0,97.09,116.24Z" fill="#fae151"/>
      <path d="M86.76,80.49A3.73,3.73,0,0,1,88.5,81a51,51,0,0,1,5.23,4s8.87,7.42,11.24,9.66,6.88,5.38,5.43,10.74c-1.26,4.61-8,9.07-13.31,9.07a7.72,7.72,0,0,1-2.39-.36c-5.36-1.78-4.64-4.18-6.27-10.35s-3.4-18.23-3.34-21c0-1.71.75-2.32,1.67-2.32m0-3.54c-2.52,0-5.11,1.79-5.2,5.78-.07,3.24,1.77,15.57,3.45,22,.3,1.14.52,2.17.72,3.08.88,4.1,1.65,7.65,7.86,9.71a11,11,0,0,0,3.5.54c7,0,15.09-5.67,16.72-11.68,1.85-6.83-3-11.15-5.58-13.47l-.84-.76c-2.42-2.28-11-9.49-11.36-9.78a51.75,51.75,0,0,0-5.83-4.39,7.1,7.1,0,0,0-3.44-1Z" fill="#231f20"/>
    </g>
    <g>
      <path d="M75.88,176.94c2.26,0,4.12-.95,6.22-3.17s3.16-5.88,2.94-10.08c-.24-4.42-1.85-8.31-4.31-10.39a8.89,8.89,0,0,0-5.9-2.2A17.38,17.38,0,0,0,68,152.91c-.38.16-.75.32-1.09.45-3.05,1.21-13.19,5.92-13.62,6.12a49.5,49.5,0,0,0-6.12,3.22,4.29,4.29,0,0,0-2.1,3.71c.07.9.57,2.17,2.53,3.14,2.74,1.37,14.62,4.9,20.86,6,1.2.22,2.25.46,3.18.67A19,19,0,0,0,75.88,176.94Z" fill="#fae151"/>
      <path d="M74.83,152.87a7.11,7.11,0,0,1,4.76,1.78c4.23,3.59,5.11,13.81,1.23,17.91-1.88,2-3.28,2.61-4.94,2.61s-3.85-.73-7.09-1.32c-6.27-1.14-18-4.67-20.39-5.88s-1.65-2.77-.18-3.84a51.89,51.89,0,0,1,5.83-3s10.48-4.87,13.51-6.07c1.92-.76,4.54-2.14,7.27-2.14m0-3.54a19.15,19.15,0,0,0-7.51,1.95l-1,.44c-3.1,1.22-13.28,6-13.68,6.14a51.52,51.52,0,0,0-6.45,3.41c-2.68,2-2.92,4.16-2.82,5.29s.67,3.17,3.5,4.58,14.85,5,21.33,6.19c1.17.21,2.19.44,3.1.65a20.5,20.5,0,0,0,4.63.72c2.75,0,5.07-1.14,7.5-3.71s3.67-6.71,3.42-11.39c-.26-4.91-2.11-9.26-4.92-11.65a10.63,10.63,0,0,0-7-2.62Z" fill="#231f20"/>
    </g>
    <g>
      <path d="M170.89,118.39l-.67-.81c-12.12-14.62-29.43-23-47.48-23-1.94,0-3.91.1-5.85.29C96.55,96.88,80.67,106.26,71,122c-7.85,12.71-11.42,29.43-9.79,45.86a70.57,70.57,0,0,0,13,34.53l.71,1Z" fill="#3da448"/>
      <path d="M122.74,95.66c18.26,0,35.07,8.66,46.64,22.61L75.06,201.75a69.27,69.27,0,0,1-12.82-34C59.35,138.6,72.57,100.35,117,95.94c1.92-.19,3.84-.28,5.74-.28m0-2.18a59.47,59.47,0,0,0-6,.3c-20.68,2-36.85,11.61-46.76,27.65-8,12.91-11.59,29.88-9.94,46.54A71.71,71.71,0,0,0,73.3,203L74.71,205l1.79-1.58,94.32-83.48,1.58-1.39-1.35-1.63c-12.32-14.87-29.93-23.4-48.31-23.4Z" fill="#231f20"/>
    </g>
    <g>
      <path d="M155.21,145.66a.9.9,0,0,0,.5-.14c.08-.05,8.27-5.05,13.82-5.37a1,1,0,0,0,.81-.57.94.94,0,0,0-.12-1l-11.13-13.92a.93.93,0,0,0-.74-.36H146.81a.94.94,0,0,0-.88.59l-4,9.68a.94.94,0,0,0,.29,1.11l12.39,9.76A.92.92,0,0,0,155.21,145.66Z" fill="#e98624"/>
      <path d="M146.81,125.27h11.54l11.12,13.93c-5.86.33-14.26,5.51-14.26,5.51L142.82,135l4-9.68m0-1.9a1.89,1.89,0,0,0-1.76,1.18l-4,9.68a1.88,1.88,0,0,0,.58,2.21L154,146.21a1.9,1.9,0,0,0,1.18.41,1.93,1.93,0,0,0,1-.29c2.22-1.37,9-5,13.37-5.24A1.9,1.9,0,0,0,171,138l-11.12-13.93a1.91,1.91,0,0,0-1.49-.71Z" fill="#231f20"/>
    </g>
    <g>
      <g>
        <path d="M119.63,111.88c4.35,0,10-1.85,12.36-5.39,3-4.56.54-8.93-1.11-11.82-.21-.37-.41-.72-.59-1.06-1.53-2.86-7.37-12.37-7.62-12.77a50.72,50.72,0,0,0-3.81-5.59,3.87,3.87,0,0,0-2.71-1.46c-.83,0-2,.42-2.68,2.4-.92,2.56-3.12,14.69-3.54,21.2-.08,1.24-.2,2.32-.31,3.27-.44,3.93-.7,6.31,3.36,9.35A11,11,0,0,0,119.63,111.88Z" fill="#fae151"/>
        <path d="M116.15,74.75a3,3,0,0,1,2,1.15,51.44,51.44,0,0,1,3.7,5.44s6,9.85,7.59,12.72,4.82,7.29,1.75,11.91c-2,3-7.07,5-11.57,5a10.18,10.18,0,0,1-6.08-1.68c-4.52-3.39-3.08-5.44-2.67-11.8s2.56-18.37,3.49-20.93c.46-1.29,1.1-1.77,1.78-1.77m0-1.91c-.93,0-2.63.4-3.57,3-1,2.89-3.19,15.12-3.6,21.46-.08,1.21-.2,2.28-.3,3.22-.45,4-.77,6.85,3.72,10.22a12,12,0,0,0,7.23,2.06c4.47,0,10.49-1.82,13.15-5.81,3.37-5,.59-9.92-1.07-12.82-.21-.37-.41-.71-.58-1-1.55-2.89-7.4-12.42-7.64-12.8a48.69,48.69,0,0,0-3.93-5.75,4.76,4.76,0,0,0-3.41-1.77Z" fill="#231f20"/>
      </g>
      <g>
        <path d="M89.32,132.79c6,0,13.4-6.52,13.91-12.24.5-5.47-3.78-8.12-6.61-9.87l-1-.64c-2.72-1.79-12.39-7.36-12.8-7.59a49.32,49.32,0,0,0-6-3.1A5.42,5.42,0,0,0,75.1,99a2.56,2.56,0,0,0-2,.84,3.45,3.45,0,0,0-.57,2.87c.42,2.69,4.27,14.4,7,20.32.52,1.12.93,2.13,1.3,3,1.49,3.67,2.39,5.88,7.4,6.62A8.2,8.2,0,0,0,89.32,132.79Z" fill="#fae151"/>
        <path d="M75.1,100a4.52,4.52,0,0,1,1.39.26,51.94,51.94,0,0,1,5.84,3s10,5.77,12.75,7.56,7.71,4.1,7.21,9.63c-.48,5.21-7.49,11.38-13,11.38a6.37,6.37,0,0,1-1-.07c-5.58-.83-5.3-3.31-8-9.1s-6.51-17.37-6.93-20.06c-.29-2,.53-2.62,1.66-2.62m0-1.9a3.49,3.49,0,0,0-2.75,1.17,4.34,4.34,0,0,0-.79,3.63c.47,3,4.41,14.81,7.08,20.58.51,1.1.92,2.1,1.27,3,1.51,3.7,2.6,6.38,8.15,7.2a8.69,8.69,0,0,0,1.26.09c6.52,0,14.29-6.86,14.86-13.11.55-6-4.21-9-7.06-10.76l-1-.63c-2.74-1.8-12.43-7.38-12.82-7.61a50.35,50.35,0,0,0-6.2-3.18,6.23,6.23,0,0,0-2-.36Z" fill="#231f20"/>
      </g>
      <g>
        <path d="M76.32,169.81a9.58,9.58,0,0,0,4-1.08c2.56-1.19,4.75-4,6-7.81,1.32-3.94,1.27-8-.12-10.61-2.2-4.11-6.18-4.64-9.4-4.64-.54,0-1.06,0-1.55,0l-1.2,0c-3.27,0-14.4.66-14.87.69a51.58,51.58,0,0,0-6.72.71,3.55,3.55,0,0,0-2.75,2.13,3.23,3.23,0,0,0,1,3.07c1.82,2,11.47,9.69,17,13.13,1,.66,2,1.28,2.74,1.82C72.68,168.74,74.23,169.81,76.32,169.81Z" fill="#fae151"/>
        <path d="M76.85,146.63c3,0,6.59.45,8.56,4.13,2.61,4.9-.33,14.73-5.45,17.11a8.67,8.67,0,0,1-3.64,1c-2.49,0-4.17-1.82-8-4.22-5.41-3.36-15-10.93-16.8-13S51,148.5,52.75,148a52,52,0,0,1,6.54-.68s11.53-.69,14.79-.69h0c.81,0,1.76,0,2.76,0m0-1.91c-.55,0-1.08,0-1.58,0l-1.19,0c-3.28,0-14.43.66-14.88.69a49.35,49.35,0,0,0-6.93.74A4.43,4.43,0,0,0,48.86,149c-.27.9-.28,2.32,1.22,4,2.06,2.28,11.82,10,17.22,13.31,1,.65,1.92,1.25,2.7,1.79,2.2,1.52,3.93,2.71,6.32,2.71a10.53,10.53,0,0,0,4.45-1.17c2.79-1.29,5.16-4.35,6.5-8.37,1.42-4.24,1.35-8.48-.19-11.36-2.74-5.14-8.18-5.14-10.23-5.14Z" fill="#231f20"/>
      </g>
    </g>
    <g>
      <path d="M54.75,208.15c3.16,0,7.42-1.87,8.78-4.89,1.52-3.38-.61-6-1.88-7.56-.16-.18-.3-.36-.43-.53-1.18-1.52-5.47-6.46-5.65-6.67a30.18,30.18,0,0,0-2.84-3,3.23,3.23,0,0,0-2-.77c-.46,0-2,.17-2.35,2.32a77.81,77.81,0,0,0,0,12.79c.07.71.1,1.33.13,1.88.13,2.42.23,4.16,3.26,5.74A6.33,6.33,0,0,0,54.75,208.15Z" fill="#fae151"/>
      <path d="M50.77,186.12a2,2,0,0,1,1.12.49,28.35,28.35,0,0,1,2.65,2.78s4.44,5.1,5.6,6.61,3.48,3.74,2.15,6.7c-1,2.29-4.61,4.09-7.54,4.09a5.15,5.15,0,0,1-2.33-.5c-2.93-1.52-2.3-2.85-2.67-6.56a76.41,76.41,0,0,1,0-12.41c.16-.87.55-1.2,1-1.2m0-2.72a3.78,3.78,0,0,0-3.68,3.43,76.77,76.77,0,0,0,0,13.18c.06.67.09,1.25.13,1.82.12,2.42.26,4.93,4,6.87a7.65,7.65,0,0,0,3.58.81c3.67,0,8.41-2.13,10-5.69,1.86-4.14-.79-7.4-2.07-9l-.4-.51c-1.2-1.55-5.52-6.53-5.69-6.71a28,28,0,0,0-3-3.17,4.62,4.62,0,0,0-2.79-1.06Z" fill="#231f20"/>
    </g>
    <g>
      <path d="M35,214.69c2.22,0,5.22-.94,6.55-3,1.69-2.6.23-5.09-.55-6.43-.1-.16-.19-.32-.27-.46-.74-1.34-3.51-5.73-3.63-5.92a22.62,22.62,0,0,0-1.9-2.7,2.65,2.65,0,0,0-1.92-.95A2.24,2.24,0,0,0,31.16,197a62.27,62.27,0,0,0-1.57,10.08c0,.56-.08,1.05-.12,1.48-.19,1.93-.34,3.45,2,5.14A5.93,5.93,0,0,0,35,214.69Z" fill="#fae151"/>
      <path d="M33.27,196.6a1.43,1.43,0,0,1,.93.52,23.25,23.25,0,0,1,1.74,2.5s2.86,4.52,3.59,5.84,2.27,3.35.87,5.51c-.93,1.43-3.31,2.36-5.41,2.36a4.63,4.63,0,0,1-2.74-.75c-2.11-1.54-1.45-2.5-1.3-5.44a59.18,59.18,0,0,1,1.5-9.71c.21-.61.5-.83.82-.83m0-2.72a3.56,3.56,0,0,0-3.39,2.66A62.22,62.22,0,0,0,28.23,207c0,.52-.07,1-.11,1.42-.2,2-.42,4.22,2.53,6.37A7.26,7.26,0,0,0,35,216.05c2.66,0,6.08-1.12,7.69-3.6,2.15-3.31.35-6.39-.52-7.87-.09-.15-.18-.29-.25-.43-.76-1.37-3.55-5.8-3.65-6a24.12,24.12,0,0,0-2.08-2.94,4,4,0,0,0-2.91-1.37Z" fill="#231f20"/>
    </g>
    <g>
      <g>
        <path d="M180,221.87l-.45-.75c-2-3.25-9.23-6.9-10.6-7.56-1.9-2.79-7.81-4.88-10.22-5.63,7-11.56,10.84-20.79.93-32.31-5.08-5.91-12.6-8.76-18-10.11A52.22,52.22,0,0,0,131.15,164a3.69,3.69,0,0,0-.76-.08c-4.28,0-13.48,6.78-19.06,12.86-2.91,3.17-6.32,7.69-6,11.24.56,6.44,5.8,10.81,8.32,12.91a12.85,12.85,0,0,1,1.15,1,15.31,15.31,0,0,1-1.14,3.56,98.31,98.31,0,0,0-3.18,9.36c-2.86,10.15,2.5,13,6.78,14.35,5.16,1.57,41.6,2.45,43.15,2.48h.21Z" fill="#e98624"/>
        <path d="M130.39,164.73a2.3,2.3,0,0,1,.66.08s18.46.22,28,11.34,6,19.8-1.56,32.26c0,0,8.9,2.45,10.9,5.78,0,0,8.45,4,10.46,7.35l-18.47,9.34s-37.82-.89-42.94-2.45-8.67-4.67-6.23-13.35,4.9-12.46,4.23-13.57-8.68-5.78-9.34-13.57c-.65-7.49,18.27-23.21,24.26-23.21m0-1.63c-4.56,0-13.85,6.78-19.66,13.12-3,3.29-6.56,8-6.23,11.86.58,6.77,6,11.29,8.6,13.46.28.23.6.5.82.7a28.44,28.44,0,0,1-1,3,97.06,97.06,0,0,0-3.2,9.43c-2.3,8.13.09,13.15,7.32,15.35,5.18,1.58,39.48,2.43,43.37,2.52h.41l.37-.19L179.61,223l1.57-.79-.9-1.5c-2-3.33-8.86-6.86-10.76-7.79-1.93-2.59-6.73-4.5-9.53-5.44,6.78-11.45,10.33-20.74.32-32.38-9.53-11.09-27-11.86-29.07-11.91a3.84,3.84,0,0,0-.85-.08Z" fill="#231f20"/>
      </g>
      <g>
        <g>
          <path d="M178.3,228c2.72-.05,4.36-.07,4.95-1.35s-.34-2.46-1.37-3.7c-2.41-2.93-4.21-4.62-6.26-4.62a4.1,4.1,0,0,0-2.55,1,5.59,5.59,0,0,0-2.16,4.1,4.69,4.69,0,0,0,.84,3.16,1.33,1.33,0,0,0,.27.41c.65.73,2.08,1.06,4.5,1.06Z" fill="#fff"/>
          <path d="M175.62,219.4c1.66,0,3.32,1.68,5.42,4.23,2.88,3.49.62,3.19-3.9,3.29h-.62c-3.9,0-3.81-.94-3.81-.94-.92-.92-1.33-4,1-5.86a3,3,0,0,1,1.88-.73m0-2.17a5.15,5.15,0,0,0-3.21,1.19,6.68,6.68,0,0,0-2.58,4.89,5.93,5.93,0,0,0,1,3.79,3.23,3.23,0,0,0,.4.59c.9,1,2.49,1.41,5.31,1.41h.66l1.13,0c2.93,0,5.05-.07,5.93-2s-.68-3.82-1.52-4.84c-2.18-2.65-4.36-5-7.11-5Z" fill="#231f20"/>
        </g>
        <g>
          <path d="M172.31,230.16c2.72,0,4.37-.07,5-1.35s-.34-2.45-1.37-3.7c-2-2.43-4-4.62-6.27-4.62a4.09,4.09,0,0,0-2.54,1,5.54,5.54,0,0,0-2.16,4.11,4.72,4.72,0,0,0,.83,3.15,1.62,1.62,0,0,0,.28.42c.65.72,2.08,1.06,4.5,1.06Z" fill="#fff"/>
          <path d="M169.63,221.58c1.67,0,3.33,1.67,5.43,4.22,2.88,3.5.62,3.19-3.91,3.29h-.61c-3.9,0-3.81-.93-3.81-.93-.92-.93-1.33-4,1-5.86a3,3,0,0,1,1.87-.73m0-2.18a5.11,5.11,0,0,0-3.21,1.2,6.65,6.65,0,0,0-2.58,4.89,5.94,5.94,0,0,0,1,3.79,3.16,3.16,0,0,0,.4.58c.9,1,2.49,1.42,5.31,1.42h.66l1.13,0c2.93-.05,5-.08,5.93-2s-.68-3.83-1.52-4.85c-2.18-2.64-4.36-5-7.11-5Z" fill="#231f20"/>
        </g>
        <g>
          <path d="M162.26,232.34c2.71-.05,4.36-.07,5-1.36.53-1.14-.34-2.45-1.37-3.69-2.41-2.93-4.21-4.62-6.26-4.62a4.1,4.1,0,0,0-2.55,1,5.59,5.59,0,0,0-2.16,4.1,4.69,4.69,0,0,0,.84,3.16,1.33,1.33,0,0,0,.27.41c.65.73,2.09,1.06,4.5,1.06Z" fill="#fff"/>
          <path d="M159.58,223.75c1.66,0,3.32,1.68,5.42,4.23,2.88,3.49.62,3.19-3.9,3.29h-.62c-3.9,0-3.81-.94-3.81-.94-.92-.92-1.33-4,1-5.86a3,3,0,0,1,1.88-.73m0-2.17a5.15,5.15,0,0,0-3.21,1.19,6.68,6.68,0,0,0-2.58,4.89,5.91,5.91,0,0,0,1,3.79,2.6,2.6,0,0,0,.4.58c.9,1,2.49,1.42,5.31,1.42h.66l1.13,0c2.93,0,5-.07,5.93-2s-.68-3.82-1.52-4.85c-2.18-2.64-4.36-5-7.11-5Z" fill="#231f20"/>
        </g>
        <path d="M162.43,224.85a1.09,1.09,0,0,0,.77-1.86c-3.78-3.78-7.63-3.71-7.79-3.71a1.1,1.1,0,0,0-1.06,1.12,1.12,1.12,0,0,0,1.12,1.06c.15,0,3.11,0,6.19,3.07A1.11,1.11,0,0,0,162.43,224.85Z" fill="#231f20"/>
        <path d="M172,222a1.08,1.08,0,0,0,.77-.31,1.1,1.1,0,0,0,0-1.54c-3.79-3.79-7.64-3.71-7.79-3.71a1.09,1.09,0,0,0-1.06,1.12,1.1,1.1,0,0,0,1.11,1.05c.13,0,3.12,0,6.2,3.08A1.08,1.08,0,0,0,172,222Z" fill="#231f20"/>
      </g>
    </g>
    <g>
      <path d="M74,202.21c11.65,0,32-6.47,39.88-14.49,9.77-10,14-29.37,14-31.77.38-1.68,9.78-11.81,18.69-20.62,1.3-.88,14-9.84,15.34-21.75.72-6.6,2.39-8.94,3.6-8.94a.87.87,0,0,1,.27,0l1.29.68.25-1.44a12.43,12.43,0,0,0-1.88-9c-1.86-2.52-4.82-4-8.82-4.46a13.83,13.83,0,0,0-1.42-.08c-9.72,0-13.31,11.23-15.69,18.66-.5,1.57-.94,2.92-1.37,4-1.13,2.82-6,5.19-11.09,7.7-5.52,2.71-11.78,5.78-15,10.28-2.94,4.1-4.12,11.73-5.37,19.8-1.38,8.88-2.8,18.06-6.6,21.43-5,4.47-17.73,10.93-27.46,10.93-3.64,0-6.45-.9-8.38-2.68l-.51-.47-.64.27a10.11,10.11,0,0,0-5.49,6c-.92,3.18,0,6.8,2.85,10.79C62.73,200.5,67.3,202.21,74,202.21Z" fill="#fff"/>
      <path d="M155.12,91.49a11.7,11.7,0,0,1,1.3.07c11.92,1.3,9.76,12.14,9.76,12.14a1.82,1.82,0,0,0-.75-.15c-1.25,0-3.72,1.17-4.68,9.91-1.3,11.92-15,21-15,21S126.71,153.35,126.71,156s-4.33,21.47-13.66,31c-6.55,6.7-25.63,14.16-39.1,14.16-5.7,0-10.39-1.33-12.71-4.62-7.81-11.06,2.16-15.18,2.16-15.18,2.28,2.11,5.5,3,9.12,3,9.81,0,22.64-6.3,28.18-11.21,7.59-6.72,6.07-33,12.14-41.41s23.63-11.71,26.23-18.21c2.51-6.26,5.21-22,16.05-22m0-2.18c-10.51,0-14.25,11.69-16.73,19.42-.49,1.55-.92,2.89-1.34,3.92-1,2.44-5.84,4.83-10.56,7.13-5.64,2.77-12,5.9-15.42,10.62-3.09,4.32-4.3,12.07-5.57,20.28s-2.74,17.67-6.25,20.78c-4.91,4.35-17.26,10.65-26.73,10.65-3.35,0-5.92-.8-7.64-2.39l-1-.94-1.29.53A11.28,11.28,0,0,0,56.46,186c-1,3.51,0,7.45,3,11.71,2.59,3.68,7.47,5.54,14.49,5.54,13.46,0,33.22-7.2,40.66-14.81,9.29-9.51,14-28.17,14.27-32.25,1-2.21,10-11.82,18.3-20,1.75-1.21,14.41-10.33,15.73-22.49.72-6.55,2.22-7.77,2.48-7.94l2.35,1.23.57-2.85c0-.23,1.06-5.55-2.08-9.83-2-2.78-5.26-4.43-9.58-4.9a13.21,13.21,0,0,0-1.53-.09Z" fill="#231f20"/>
    </g>
    <g>
      <g>
        <path d="M127.29,225.1a10.56,10.56,0,0,0,2.34-.28c.34,0,37.16-7,52.7-39l18.91-27.46a.94.94,0,0,0,.15-.74A1,1,0,0,0,201,157l-27.85-17.14a1,1,0,0,0-.5-.14h-.11c-.48.05-11.92,1.43-20.77,8.61-8.47,6.88-12.48,21.8-13,23.74a112,112,0,0,0-13,25.3c-.3.73-7.62,18.87-3.26,25.35A5.44,5.44,0,0,0,127.29,225.1Z" fill="#fed091"/>
        <path d="M172.61,140.66l27.85,17.15-19,27.52c-15.49,32-52.08,38.57-52.08,38.57a10.21,10.21,0,0,1-2.14.25c-11.46,0-.67-26.46-.67-26.46a108.78,108.78,0,0,1,13-25.22s4-16.31,12.7-23.4,20.27-8.41,20.27-8.41m0-1.9h-.22c-.49.06-12.19,1.47-21.25,8.82-8.49,6.89-12.58,21.48-13.25,24.06a111,111,0,0,0-13,25.36c-.87,2.13-7.7,19.5-3.17,26.24a6.38,6.38,0,0,0,5.61,2.81,11.5,11.5,0,0,0,2.51-.3,82.73,82.73,0,0,0,20.72-7.46c18.71-9.53,28.07-22.64,32.64-32L202,158.89a1.94,1.94,0,0,0,.29-1.48,1.86,1.86,0,0,0-.86-1.22L173.6,139a1.92,1.92,0,0,0-1-.28Z" fill="#231f20"/>
      </g>
      <path d="M172.45,201.13c.48,0,.78,0,.87,0l-.11-1.9c-.19,0-20.43.88-39.32-17.85l-1.34,1.35C150.05,200.07,168.26,201.13,172.45,201.13Z" fill="#231f20"/>
      <path d="M160.37,211.52h.87l-.11-1.91c-.2,0-20.44.88-39.33-17.85l-1.34,1.35C138,210.46,156.18,211.52,160.37,211.52Z" fill="#231f20"/>
      <path d="M146.43,220.27c.49,0,.78,0,.87,0l-.1-1.9c-.2,0-20.44.88-39.33-17.85l-1.34,1.35C124,219.21,142.24,220.27,146.43,220.27Z" fill="#231f20"/>
    </g>
    <g>
      <g>
        <g>
          <path d="M148,234.51l-.45-.75c-1.95-3.25-9.23-6.89-10.6-7.56-1.9-2.79-7.81-4.87-10.22-5.63,6.95-11.56,10.85-20.79.94-32.31-5.09-5.91-12.61-8.76-18-10.11a52.14,52.14,0,0,0-10.52-1.52,3.52,3.52,0,0,0-.75-.08c-4.29,0-13.49,6.78-19.07,12.86-2.91,3.17-6.32,7.69-6,11.24.55,6.44,5.79,10.8,8.31,12.91a11.53,11.53,0,0,1,1.15,1,14.36,14.36,0,0,1-1.14,3.57,97,97,0,0,0-3.18,9.35c-2.86,10.15,2.5,13.05,6.78,14.35,5.16,1.58,41.6,2.45,43.15,2.49h.21Z" fill="#e98624"/>
          <path d="M98.32,177.37a2.7,2.7,0,0,1,.65.07s18.46.23,28,11.35,6,19.8-1.56,32.26c0,0,8.9,2.45,10.9,5.78,0,0,8.45,4,10.46,7.35l-18.47,9.34s-37.82-.89-42.94-2.45-8.67-4.67-6.22-13.35,4.89-12.46,4.22-13.57-8.67-5.78-9.34-13.57c-.64-7.49,18.27-23.21,24.27-23.21m0-1.63c-4.56,0-13.85,6.78-19.67,13.12-3,3.29-6.56,8-6.23,11.86.58,6.77,6,11.29,8.61,13.46.27.23.6.5.81.7a28.44,28.44,0,0,1-1,3,97.06,97.06,0,0,0-3.2,9.43c-2.3,8.13.1,13.15,7.32,15.35,5.18,1.58,39.48,2.43,43.37,2.52h.41l.37-.19,18.46-9.34,1.57-.79-.91-1.5c-2-3.33-8.85-6.86-10.75-7.78-1.93-2.59-6.73-4.51-9.53-5.46,6.79-11.44,10.33-20.73.32-32.37-9.53-11.09-27-11.86-29.07-11.91a3.8,3.8,0,0,0-.84-.08Z" fill="#231f20"/>
        </g>
        <g>
          <g>
            <path d="M146.22,240.63c2.72,0,4.36-.07,4.95-1.36s-.34-2.45-1.37-3.69c-2-2.44-4-4.62-6.26-4.62a4.1,4.1,0,0,0-2.55,1,5.59,5.59,0,0,0-2.16,4.1,4.69,4.69,0,0,0,.84,3.16,1.22,1.22,0,0,0,.27.41c.65.73,2.08,1.06,4.5,1.06Z" fill="#fff"/>
            <path d="M143.54,232c1.66,0,3.32,1.68,5.42,4.23,2.88,3.5.62,3.19-3.9,3.29h-.62c-3.9,0-3.8-.94-3.8-.94-.93-.92-1.34-4,1-5.86a3,3,0,0,1,1.88-.73m0-2.17a5.2,5.2,0,0,0-3.22,1.19,6.68,6.68,0,0,0-2.58,4.89,6,6,0,0,0,1,3.79,2.92,2.92,0,0,0,.4.59c.9,1,2.49,1.41,5.31,1.41h.67l1.12,0c2.93,0,5.05-.07,5.93-2s-.68-3.82-1.52-4.84c-2.17-2.65-4.36-5-7.1-5Z" fill="#231f20"/>
          </g>
          <g>
            <path d="M140.24,242.8c2.72,0,4.36-.07,4.95-1.35.5-1.08-.18-2.26-1.37-3.7-2.41-2.92-4.21-4.62-6.26-4.62a4.1,4.1,0,0,0-2.55,1,5.62,5.62,0,0,0-2.16,4.11,4.67,4.67,0,0,0,.84,3.15,1.37,1.37,0,0,0,.27.42c.65.72,2.08,1.06,4.5,1.06Z" fill="#fff"/>
            <path d="M137.56,234.22c1.66,0,3.32,1.67,5.42,4.23,2.88,3.49.62,3.18-3.9,3.28h-.62c-3.9,0-3.8-.93-3.8-.93-.93-.93-1.34-4,1-5.86a3,3,0,0,1,1.88-.73m0-2.18a5.19,5.19,0,0,0-3.21,1.2,6.68,6.68,0,0,0-2.58,4.89,6,6,0,0,0,1,3.79,2.85,2.85,0,0,0,.4.58c.9,1,2.49,1.42,5.31,1.42h.67l1.12,0c2.93,0,5.05-.08,5.93-2s-.68-3.83-1.52-4.85c-2.18-2.64-4.36-5-7.1-5Z" fill="#231f20"/>
          </g>
          <g>
            <path d="M130.18,245c2.72,0,4.36-.07,4.95-1.36.5-1.08-.18-2.25-1.37-3.69-2-2.44-4-4.62-6.26-4.62a4.12,4.12,0,0,0-2.55,1,5.59,5.59,0,0,0-2.16,4.1,4.69,4.69,0,0,0,.84,3.16,1.37,1.37,0,0,0,.27.42c.65.72,2.09,1.05,4.5,1.05Z" fill="#fff"/>
            <path d="M127.5,236.39c1.66,0,3.32,1.68,5.42,4.23,2.88,3.5.62,3.19-3.9,3.29h-.62c-3.9,0-3.8-.94-3.8-.94-.93-.92-1.34-4,1-5.85a2.94,2.94,0,0,1,1.87-.74m0-2.17a5.13,5.13,0,0,0-3.21,1.19,6.66,6.66,0,0,0-2.59,4.9,6,6,0,0,0,1,3.78,2.6,2.6,0,0,0,.41.59c.89,1,2.48,1.41,5.3,1.41h.67l1.13,0c2.93,0,5-.07,5.92-2s-.68-3.82-1.52-4.84c-2.18-2.65-4.36-5-7.1-5Z" fill="#231f20"/>
          </g>
          <path d="M130.36,237.49a1,1,0,0,0,.76-.32,1.07,1.07,0,0,0,0-1.53c-3.78-3.79-7.63-3.72-7.79-3.72a1.09,1.09,0,1,0,.06,2.18c.13,0,3.12,0,6.2,3.07A1,1,0,0,0,130.36,237.49Z" fill="#231f20"/>
          <path d="M139.91,234.63a1.09,1.09,0,0,0,.77-1.86c-3.78-3.78-7.63-3.71-7.79-3.71a1.09,1.09,0,1,0,.05,2.17c.15,0,3.12,0,6.2,3.08A1.09,1.09,0,0,0,139.91,234.63Z" fill="#231f20"/>
        </g>
      </g>
      <g>
        <path d="M124.7,212.05c1.37,0,2.35-1.65,3-3.13a4.37,4.37,0,0,0,1.33,2.22,2.5,2.5,0,0,0,2.19.46.54.54,0,0,0-.23-1.06,1.46,1.46,0,0,1-1.29-.25c-1-.78-1.26-2.91-1.28-3.67a.54.54,0,0,0-.48-.53.56.56,0,0,0-.59.41c-.45,1.83-1.59,4.46-2.62,4.46h-.07c-1.18-.15-2.2-2.7-2.57-4.27a.55.55,0,0,0-.51-.42.54.54,0,0,0-.54.39c-.29,1-1.41,3.56-3,3.69s-2.76-2.58-3.08-3.63a.54.54,0,0,0-.68-.36.53.53,0,0,0-.36.67c0,.19,1.37,4.41,4,4.41h.2c1.67-.13,2.79-1.74,3.41-3,.52,1.44,1.51,3.4,3,3.58Z" fill="#231f20"/>
        <path d="M120.51,216.78h0c1.48,0,2.85-1.65,3.68-2.87.29,1.2.93,2.66,2.35,2.75h.11c2.14,0,4.29-3.85,4.54-4.3a.55.55,0,0,0-1-.52c-.85,1.57-2.51,3.73-3.57,3.73h0c-1.14-.07-1.52-2.43-1.56-3.25a.54.54,0,0,0-1-.23c-.72,1.38-2.32,3.57-3.55,3.6-1,0-1.79-2.88-2-4.86a.55.55,0,0,0-1.09.11C117.55,211.92,118.16,216.78,120.51,216.78Z" fill="#231f20"/>
      </g>
    </g>
    <g>
      <g>
        <path d="M197.8,154.7l21.71.53s-2.79,12.26-1.33,15.32l-2.13-.26s1.06,3.06-2.8,7.32h.16c.65,0,3.25-.3,4.64-4.94L228.84,174l-4.66,12.38-4-2.93a56.92,56.92,0,0,0-20.28-3.6h-.63L197.8,154.7m0-3a3,3,0,0,0-3,3.17l1.46,25.17a3,3,0,0,0,3,2.82h.64a55.55,55.55,0,0,1,18.82,3.25l3.69,2.7a2.91,2.91,0,0,0,1.77.58,3.12,3.12,0,0,0,.85-.12,3,3,0,0,0,1.95-1.81l4.66-12.39a3,3,0,0,0-2.44-4l-8.06-1a3,3,0,0,0-.25-.75c-.5-1.36.22-7.62,1.54-13.4a3,3,0,0,0-2.84-3.66l-21.71-.53Z" fill="#231f20"/>
        <path d="M220.18,183.47a57,57,0,0,0-20.91-3.59L197.8,154.7l21.71.53s-2.79,12.26-1.33,15.32l-2.13-.26s1.06,3.06-2.8,7.32c0,0,3.2.4,4.8-4.93L228.84,174l-4.66,12.38Z" fill="#e98624"/>
      </g>
      <path d="M228.7,182.23a.89.89,0,0,0,.48-1.64l-5.46-3.46a.89.89,0,1,0-.95,1.5l5.46,3.46A.83.83,0,0,0,228.7,182.23Z" fill="#231f20"/>
      <g>
        <path d="M229.39,190.45a1.17,1.17,0,0,0,1-.45c1.48-1.49-1-6.55-1-6.6-1.23-2.48-2.72-3.74-4.43-3.74a3.18,3.18,0,0,0-.91.13,3.65,3.65,0,0,0-2.69,2.85c-.18,1.05,0,3.15,3.16,5.39C226.85,189.66,228.44,190.45,229.39,190.45Z" fill="#fff"/>
        <path d="M225,180.37c1.79,0,3,1.82,3.79,3.34.86,1.72,2,5.17,1.06,5.84,0,0,0,.2-.43.2s-1.76-.4-4.46-2.3c-4.62-3.25-2.87-6.4-.69-7a2.73,2.73,0,0,1,.73-.1m0-1.41a4.22,4.22,0,0,0-1.1.15,4.37,4.37,0,0,0-3.2,3.41c-.21,1.21,0,3.62,3.45,6.09,3.25,2.28,4.57,2.55,5.27,2.55a1.86,1.86,0,0,0,1.54-.71c1.74-1.88-.62-6.79-.9-7.37-1.69-3.41-3.69-4.12-5.06-4.12Z" fill="#231f20"/>
      </g>
      <g>
        <path d="M234.93,185a1.27,1.27,0,0,0,1.1-.51c1.64-1.65-1.06-7.27-1.09-7.32-1.37-2.76-3-4.15-4.92-4.15a3.57,3.57,0,0,0-1,.14,4.06,4.06,0,0,0-3,3.16c-.2,1.17,0,3.5,3.51,6C232.1,184.12,233.87,185,234.93,185Z" fill="#fff"/>
        <path d="M230,173.8c2,0,3.38,2,4.22,3.71.94,1.91,2.16,5.74,1.17,6.49,0,0,0,.22-.48.22-.6,0-2-.44-5-2.55-5.13-3.62-3.19-7.11-.77-7.76a3.35,3.35,0,0,1,.81-.11m0-1.57a4.59,4.59,0,0,0-1.21.17,4.86,4.86,0,0,0-3.56,3.79c-.24,1.35-.06,4,3.83,6.76,3.61,2.54,5.07,2.84,5.85,2.84a2.07,2.07,0,0,0,1.71-.8c1.93-2.08-.68-7.53-1-8.17-1.88-3.79-4.09-4.59-5.62-4.59Z" fill="#231f20"/>
      </g>
      <g>
        <path d="M238.15,175.34a1.67,1.67,0,0,0,1.64-.83c1.7-2.27-2.53-8.56-2.58-8.63-1.9-2.77-3.92-4.18-6-4.18a4.52,4.52,0,0,0-1.82.39,4.94,4.94,0,0,0-3.05,4.32c0,1.44.57,4.2,5.25,6.59C234.69,174.57,236.83,175.34,238.15,175.34Z" fill="#fff"/>
        <path d="M231.22,162.65c2.17,0,4,2,5.21,3.77,1.46,2.14,3.6,6.53,2.53,7.6,0,0,0,.36-.81.36s-2.58-.43-6.12-2.23c-6.79-3.46-5.06-8-2.26-9.19a3.71,3.71,0,0,1,1.45-.31m0-1.9a5.53,5.53,0,0,0-2.2.46,5.92,5.92,0,0,0-3.62,5.17c-.05,1.66.62,4.84,5.77,7.47,4.29,2.18,6,2.44,7,2.44a2.64,2.64,0,0,0,2.46-1.29c2-2.84-2.12-8.94-2.61-9.65-2.1-3-4.38-4.6-6.78-4.6Z" fill="#231f20"/>
      </g>
      <g>
        <path d="M228.39,172.19c1.06,0,1.46-.39,1.62-.71,1.39-1.86-2.73-6.24-2.78-6.28-1.68-1.74-3.35-2.62-5-2.62a4.34,4.34,0,0,0-1.86.41,3.73,3.73,0,0,0-2.36,3.47c.07,1.31,1,3.16,5,4.49A19.76,19.76,0,0,0,228.39,172.19Z" fill="#fff"/>
        <path d="M222.25,163.33c1.76,0,3.35,1.27,4.44,2.4,1.39,1.45,3.51,4.5,2.65,5.36,0,0,0,.34-1,.34a18.58,18.58,0,0,1-5.16-1.2c-6.09-2-4.87-5.47-2.52-6.55a3.66,3.66,0,0,1,1.54-.35m0-1.51a5.12,5.12,0,0,0-2.17.48,4.48,4.48,0,0,0-2.81,4.2c.08,1.55,1.1,3.7,5.48,5.17a20,20,0,0,0,5.64,1.28,2.3,2.3,0,0,0,2.25-1c1.72-2.35-2.37-6.72-2.86-7.23-1.83-1.89-3.69-2.85-5.53-2.85Z" fill="#231f20"/>
      </g>
    </g>
    <g>
      <g>
        <g>
          <path d="M133.88,178.38a12.24,12.24,0,0,0,3.7-.52c7.34-2.38,15.47-15.07,16.23-16.28.81-.94,8.38-9.93,7.15-16.06-1.27-6.39-9.5-16-19-16-.43,0-.87,0-1.31.06-10.56,1-23.09,8.2-26.56,25.69-1.19,5.94,0,11.29,3.46,15.49A22.23,22.23,0,0,0,133.88,178.38Z" fill="#858485"/>
          <path d="M142,130.57c9.26,0,16.79,9.52,17.92,15.16,1.17,5.89-7,15.2-7,15.2s-8.43,13.54-15.69,15.89a11,11,0,0,1-3.36.47c-8.32,0-21.69-6.85-18.71-21.85,3.43-17.26,15.79-23.93,25.6-24.81.41,0,.81-.06,1.21-.06m0-2.17c-.47,0-.94,0-1.4.06-11,1-24,8.48-27.54,26.56-1.25,6.26,0,11.93,3.69,16.39a23.36,23.36,0,0,0,17.15,8.05,13.07,13.07,0,0,0,4-.57c3.41-1.1,7.31-4.31,11.58-9.52a79.35,79.35,0,0,0,5.2-7.14,47.93,47.93,0,0,0,4-5.55c2.8-4.55,3.92-8.38,3.32-11.37-1.38-6.9-9.87-16.91-20.05-16.91h0v0Z" fill="#231f20"/>
        </g>
        <g>
          <path d="M126.75,150.32A5.72,5.72,0,1,0,121,144.6,5.72,5.72,0,0,0,126.75,150.32Z" fill="#fff"/>
          <path d="M126.75,139.7a4.91,4.91,0,1,1-4.91,4.9,4.9,4.9,0,0,1,4.91-4.9m0-1.63a6.54,6.54,0,1,0,6.53,6.53,6.54,6.54,0,0,0-6.53-6.53Z" fill="#231f20"/>
        </g>
        <g>
          <path d="M154.47,140.92a3.07,3.07,0,0,0,2.64-1.19,3.16,3.16,0,0,0,.06-3.19,7.49,7.49,0,0,0-2.6-3,7.39,7.39,0,0,0-4-1.39,3.07,3.07,0,0,0-2.64,1.2,3.16,3.16,0,0,0-.06,3.19,7.62,7.62,0,0,0,2.6,3,7.37,7.37,0,0,0,4,1.38Z" fill="#fff"/>
          <path d="M150.56,132.87a6.62,6.62,0,0,1,3.62,1.27c2.23,1.54,3.29,3.87,2.37,5.2a2.41,2.41,0,0,1-2.08.91,6.73,6.73,0,0,1-3.62-1.27c-2.23-1.54-3.29-3.87-2.37-5.21a2.43,2.43,0,0,1,2.08-.9m0-1.36a3.72,3.72,0,0,0-3.2,1.49,3.87,3.87,0,0,0-.12,3.86,8.27,8.27,0,0,0,2.84,3.24,7.94,7.94,0,0,0,4.39,1.5,3.7,3.7,0,0,0,3.2-1.49,3.87,3.87,0,0,0,.12-3.86A8.3,8.3,0,0,0,155,133a8,8,0,0,0-4.4-1.51Z" fill="#231f20"/>
        </g>
        <g>
          <path d="M122.56,175.57a3.87,3.87,0,0,0,3.69-2c.92-2-.47-4.6-3.11-5.83a6.63,6.63,0,0,0-2.78-.64,3.86,3.86,0,0,0-3.68,2c-.93,2,.47,4.6,3.1,5.83A6.63,6.63,0,0,0,122.56,175.57Z" fill="#fff"/>
          <path d="M120.36,167.8a5.88,5.88,0,0,1,2.48.57c2.28,1.06,3.52,3.25,2.76,4.88a3.18,3.18,0,0,1-3,1.6,5.83,5.83,0,0,1-2.47-.57c-2.29-1.06-3.52-3.25-2.76-4.88a3.16,3.16,0,0,1,3-1.6m0-1.43A4.55,4.55,0,0,0,116,168.8c-1.11,2.38.41,5.36,3.45,6.78a7.39,7.39,0,0,0,3.08.7,4.56,4.56,0,0,0,4.34-2.43c1.1-2.38-.41-5.36-3.46-6.78a7.39,7.39,0,0,0-3.08-.7Z" fill="#231f20"/>
        </g>
      </g>
      <g>
        <path d="M154.51,186c.74,0,2.46,0,13.7-28.48l.25-.65-.53-.44c-2.62-2.14-9.67-8-10.8-9.36s-3.72-2.28-6.52-2.28a14.1,14.1,0,0,0-6.22,1.47c-5.23,2.56-16.32,13.28-12.75,24.61,1.49,4.72,5.56,8.66,12.09,11.69a48.43,48.43,0,0,0,10.6,3.43h.18Z" fill="#e98624"/>
        <path d="M150.61,145.7c2.72,0,4.92.9,5.79,1.94,1.44,1.73,10.92,9.49,10.92,9.49S156.32,185,154.51,185h0c-1.73-.29-18.59-3.84-21.94-14.47s7.18-21,12.26-23.47a13.13,13.13,0,0,1,5.8-1.37m0-1.9a15.22,15.22,0,0,0-6.64,1.56c-5.44,2.67-17,13.87-13.24,25.75,3.91,12.38,23.25,15.74,23.44,15.78l.19,0h.15c1.44,0,2.36-1.11,4.48-5.42,1.15-2.34,2.62-5.6,4.36-9.67,3-6.92,5.72-13.92,5.75-14l.5-1.3-1.07-.87c-3.61-3-9.7-8.08-10.67-9.24-1.33-1.59-4.17-2.62-7.25-2.62Z" fill="#231f20"/>
      </g>
      <g>
        <g>
          <path d="M166.64,195.39a13.2,13.2,0,0,0,7.09-1.76c5.11-3.41,8.61-14.89,8.93-16,.42-.89,4.29-9.42,2-13.86-1.85-3.62-8-8.64-14.72-8.64a12.07,12.07,0,0,0-4.28.77c-7.89,3-15.94,11.27-14.83,25.42C151.66,191.71,159.86,195.39,166.64,195.39Z" fill="#858485"/>
          <path d="M170,156c6.16,0,12.16,4.67,13.95,8.18,2.17,4.25-2.06,13.16-2.06,13.16s-3.55,12.19-8.6,15.56a12.45,12.45,0,0,1-6.61,1.62c-6.34,0-14.16-3.43-14.93-13.25-1.09-14,6.95-21.76,14.28-24.55a11,11,0,0,1,4-.72m0-1.73a12.88,12.88,0,0,0-4.59.83c-8.18,3.12-16.53,11.67-15.38,26.3.8,10.26,8.94,14.85,16.65,14.85a14.11,14.11,0,0,0,7.57-1.91c5.27-3.51,8.73-14.57,9.27-16.39.67-1.46,4.38-9.85,2-14.56-2-3.82-8.42-9.12-15.5-9.12Z" fill="#231f20"/>
        </g>
        <g>
          <path d="M158.25,175a4.68,4.68,0,0,0,1.23-.17,4.56,4.56,0,0,0-1.23-9,4.31,4.31,0,0,0-1.23.18,4.45,4.45,0,0,0-2.74,2.15,4.55,4.55,0,0,0,4,6.79Z" fill="#fff"/>
          <path d="M158.25,166.56a3.92,3.92,0,1,1-1.06.15,3.91,3.91,0,0,1,1.06-.15m0-1.3a5.22,5.22,0,0,0-1.41.2,5.21,5.21,0,0,0-3.6,6.42,5.21,5.21,0,0,0,9.55,1.14,5.16,5.16,0,0,0,.47-4,5.24,5.24,0,0,0-5-3.8Z" fill="#231f20"/>
        </g>
        <g>
          <path d="M177.45,161.84c1.52,0,2.68-.64,3-1.65a2.52,2.52,0,0,0-.65-2.47,6,6,0,0,0-2.62-1.7,6.59,6.59,0,0,0-2.11-.36c-1.52,0-2.69.63-3,1.65a2.5,2.5,0,0,0,.64,2.45,6,6,0,0,0,2.63,1.71,6.61,6.61,0,0,0,2.11.37Z" fill="#fff"/>
          <path d="M175.1,156.2a6,6,0,0,1,1.93.33c2,.7,3.36,2.26,2.94,3.48a2.47,2.47,0,0,1-2.52,1.28,5.89,5.89,0,0,1-1.93-.33c-2-.7-3.36-2.26-2.94-3.48a2.47,2.47,0,0,1,2.52-1.28m0-1.09c-1.76,0-3.12.78-3.55,2a3.09,3.09,0,0,0,.75,3,6.53,6.53,0,0,0,2.86,1.87,7.17,7.17,0,0,0,2.29.4c1.76,0,3.12-.78,3.54-2a3.06,3.06,0,0,0-.74-3,6.51,6.51,0,0,0-2.87-1.87,7.07,7.07,0,0,0-2.28-.4Z" fill="#231f20"/>
        </g>
        <g>
          <path d="M160.35,195.29c2,0,3.52-1,3.76-2.52.28-1.72-1.35-3.42-3.64-3.8a5.46,5.46,0,0,0-.9-.07c-2,0-3.52,1-3.76,2.52-.28,1.73,1.36,3.43,3.65,3.8A5.34,5.34,0,0,0,160.35,195.29Z" fill="#fff"/>
          <path d="M159.57,189.47a4.59,4.59,0,0,1,.81.07c2,.32,3.4,1.73,3.17,3.14-.2,1.22-1.56,2-3.2,2a5.49,5.49,0,0,1-.8-.06c-2-.32-3.4-1.73-3.18-3.15.2-1.21,1.56-2,3.2-2m0-1.14c-2.26,0-4,1.23-4.32,3-.33,2.07,1.47,4,4.11,4.45a5.61,5.61,0,0,0,1,.09c2.26,0,4-1.24,4.32-3,.34-2.06-1.47-4-4.11-4.45a6.61,6.61,0,0,0-1-.08Z" fill="#231f20"/>
        </g>
      </g>
      <g>
        <path d="M205.67,170.66l-2.75-5.31-.25-.15a28.75,28.75,0,0,0-12.94-3,26.7,26.7,0,0,0-8,1.21c-1,.13-8.95,1.33-12.62,7.07-3.86,6-4.78,17.69-.44,21.33a10.76,10.76,0,0,0,5.6,2.63,9.84,9.84,0,0,1,4,1.55,28.72,28.72,0,0,0,9.54,3.62l.65.12Z" fill="#e98624"/>
        <path d="M189.73,163.1A27.87,27.87,0,0,1,202.2,166l2.38,4.58-16.61,28a28.13,28.13,0,0,1-9.18-3.48c-3.79-2.54-5.53-.8-9.49-4.12s-3-14.39.63-20.09,12-6.64,12-6.64a25.42,25.42,0,0,1,7.77-1.2m0-1.9a27.32,27.32,0,0,0-8.17,1.23c-1.4.19-9.42,1.54-13.22,7.49s-5.34,18.29-.25,22.57a11.84,11.84,0,0,0,6,2.84,8.78,8.78,0,0,1,3.64,1.4,29.73,29.73,0,0,0,9.9,3.77l1.29.23.67-1.13,16.62-28,.53-.91-.48-.94-2.38-4.59-.26-.51-.49-.27a29.78,29.78,0,0,0-13.41-3.18Z" fill="#231f20"/>
      </g>
      <g>
        <path d="M205.29,173.58c1.75,0,2.76-.27,3.21-.86a1.12,1.12,0,0,0,.22-.56c.65-2.24-4.41-5.87-4.47-5.91a8.06,8.06,0,0,0-4.45-1.74,3.71,3.71,0,0,0-2.67,1.06,4.09,4.09,0,0,0-1.11,4.21c.38,1.12,1.65,3.08,5.95,3.57A29.87,29.87,0,0,0,205.29,173.58Z" fill="#fff"/>
        <path d="M199.8,165.29a7.61,7.61,0,0,1,4,1.6c1.75,1.23,4.66,4,4.14,5.13,0,0,.22.77-2.65.77a28.4,28.4,0,0,1-3.23-.22c-6.24-.71-6.2-4.71-4.39-6.43a3,3,0,0,1,2.13-.85m0-1.57a4.53,4.53,0,0,0-3.21,1.28,4.87,4.87,0,0,0-1.31,5c.44,1.3,1.88,3.56,6.6,4.1a31.17,31.17,0,0,0,3.41.23c2,0,3.22-.36,3.83-1.17a1.85,1.85,0,0,0,.37-.88c.71-2.75-4.2-6.29-4.79-6.7a8.82,8.82,0,0,0-4.9-1.89Z" fill="#231f20"/>
      </g>
      <g>
        <path d="M207.31,184.43a2.53,2.53,0,0,0,1.92-.62,1.41,1.41,0,0,0,.31-.53c1.4-2.59-3.88-8.43-3.94-8.49-2.12-2.3-4.18-3.47-6.12-3.47a4.71,4.71,0,0,0-2.5.72,5.14,5.14,0,0,0-2.49,4.9c.16,1.49,1.21,4.25,6.39,6A22.66,22.66,0,0,0,207.31,184.43Z" fill="#fff"/>
        <path d="M199.48,172.31c2,0,4,1.65,5.39,3.15,1.83,2,4.68,6.19,3.74,7.44,0,0,0,.54-1.3.54A20.77,20.77,0,0,1,201.2,182c-7.52-2.55-6.41-7.48-3.7-9.13a3.72,3.72,0,0,1,2-.57m0-2a5.74,5.74,0,0,0-3,.86,6.17,6.17,0,0,0-3,5.86c.2,1.72,1.36,4.9,7.06,6.84a23.07,23.07,0,0,0,6.75,1.53,3.46,3.46,0,0,0,2.64-.93,2.54,2.54,0,0,0,.5-.81c1.6-3.21-3.51-8.9-4.12-9.56-2.32-2.52-4.63-3.79-6.85-3.79Z" fill="#231f20"/>
      </g>
      <g>
        <path d="M201.7,194.58a1.72,1.72,0,0,0,1.69-.85c1.79-2.35-2.58-8.93-2.63-9-2-2.92-4.07-4.39-6.23-4.39a4.76,4.76,0,0,0-1.88.39,5.11,5.11,0,0,0-3.19,4.48c-.06,1.49.57,4.38,5.42,6.89C198.1,193.77,200.33,194.58,201.7,194.58Z" fill="#fff"/>
        <path d="M194.53,181.33c2.26,0,4.17,2.13,5.41,4,1.52,2.23,3.71,6.82,2.59,7.92,0,0,0,.38-.83.38s-2.68-.46-6.36-2.36c-7.05-3.65-5.23-8.35-2.31-9.58a3.82,3.82,0,0,1,1.5-.32m0-2a5.84,5.84,0,0,0-2.27.47,6.16,6.16,0,0,0-3.79,5.36c-.07,1.73.61,5,6,7.81,4.47,2.31,6.29,2.58,7.27,2.58a2.74,2.74,0,0,0,2.54-1.33c2.06-2.94-2.15-9.31-2.66-10.06-2.17-3.2-4.55-4.83-7.05-4.83Z" fill="#231f20"/>
      </g>
      <g>
        <path d="M192.12,202.05a1.55,1.55,0,0,0,1.52-.77c1.58-2.11-2.31-8-2.35-8.1-1.77-2.63-3.64-4-5.57-4a4.37,4.37,0,0,0-1.69.35,4.63,4.63,0,0,0-2.84,4c-.05,1.35.5,3.95,4.84,6.21C188.9,201.32,190.89,202.05,192.12,202.05Z" fill="#fff"/>
        <path d="M185.72,190.11c2,0,3.72,1.91,4.83,3.57,1.35,2,3.31,6.15,2.31,7.14,0,0,0,.34-.74.34s-2.39-.41-5.68-2.13c-6.29-3.28-4.66-7.53-2.06-8.64a3.5,3.5,0,0,1,1.34-.28m0-1.78a5.09,5.09,0,0,0-2,.43,5.52,5.52,0,0,0-3.38,4.82c-.06,1.56.55,4.54,5.31,7,4,2.09,5.63,2.33,6.51,2.33a2.44,2.44,0,0,0,2.28-1.2c1.82-2.64-1.92-8.38-2.38-9.05-1.93-2.89-4.06-4.36-6.3-4.36Z" fill="#231f20"/>
      </g>
      <g>
        <g>
          <path d="M188.86,154.18a14.25,14.25,0,0,0,4-12.32c-1-6.64-6.41-14-16-21.75a113.54,113.54,0,0,0-14-9.68c-.29-.13-5.42-2.45-9.38-2.45-2.2,0-3.69.71-4.44,2.11-1.47,2.77.43,8,5.79,15.89,17,25.21,32.53,28.34,33.18,28.46l.47.09Z" fill="#858485"/>
          <path d="M153.53,108.85c3.82,0,8.95,2.33,8.95,2.33s42.59,24.11,25.74,42.41c0,0-15.59-2.9-32.62-28.09-9.15-13.52-6.49-16.65-2.07-16.65m0-1.73c-3.17,0-4.58,1.39-5.2,2.56-1.66,3.12.19,8.46,5.83,16.79,17.24,25.5,33.08,28.7,33.74,28.83l.94.17.65-.7a15.1,15.1,0,0,0,4.21-13c-2.53-16.13-29.23-31.41-30.37-32l-.06,0-.07,0c-.23-.1-5.53-2.48-9.67-2.48Z" fill="#231f20"/>
        </g>
        <g>
          <path d="M170,138.46a5.17,5.17,0,1,0-4.89-5.17A5,5,0,0,0,170,138.46Z" fill="#fff"/>
          <path d="M170,128.94a4.36,4.36,0,1,1-4.07,4.35,4.23,4.23,0,0,1,4.07-4.35m0-1.63a6,6,0,1,0,5.71,6,5.86,5.86,0,0,0-5.71-6Z" fill="#231f20"/>
        </g>
      </g>
    </g>
    <g>
      <g>
        <g>
          <path d="M235.66,86.2a3.44,3.44,0,0,0,1.49-.34,1.48,1.48,0,0,0,.43-.31c.33-.31,8.07-7.8,9.78-12.91a3,3,0,0,0-.26-2.81,2.77,2.77,0,0,0-2.36-1.09C241,68.74,232.21,74.49,232,80c-.08,2.52.36,4.24,1.35,5.26A3.16,3.16,0,0,0,235.66,86.2Z" fill="#f36b35"/>
          <path d="M244.74,70.51c.88,0,1.31.47.94,1.57-1.59,4.76-9.32,12.2-9.32,12.2a1.72,1.72,0,0,1-.7.15c-.81,0-2-.63-1.88-4.42.15-4.34,8-9.5,11-9.5m0-3.54c-4.39,0-14.26,6.25-14.49,12.92-.11,3,.49,5.16,1.84,6.55A4.94,4.94,0,0,0,235.66,88a5.22,5.22,0,0,0,2.28-.52,3.78,3.78,0,0,0,.87-.61c.85-.83,8.42-8.2,10.22-13.63a4.67,4.67,0,0,0-.5-4.4A4.52,4.52,0,0,0,244.74,67Z" fill="#231f20"/>
        </g>
        <g>
          <path d="M230,81.36a2.08,2.08,0,0,0,1.13-.34c.28-.19,6.74-4.62,5.39-15-1.21-9.28-6.78-13.94-9.55-13.94a2.55,2.55,0,0,0-1.4.4c-1.28.86-1.3,2.4-1.33,4.74,0,1.79-.06,4.23-.74,5.5-1.71,3.22-3.16,9.09-3,11.28,0,.79.17,2.88,8.62,7.11A2.09,2.09,0,0,0,230,81.36Z" fill="#fae151"/>
          <path d="M226.93,54.15c1.43,0,6.42,3.63,7.53,12.17,1.2,9.2-4.5,13-4.5,13s-7.4-3.7-7.5-5.4,1.2-7.2,2.8-10.2.5-8.9,1.4-9.5a.54.54,0,0,1,.27-.07m0-4.07a4.47,4.47,0,0,0-2.53.75c-2.18,1.45-2.21,3.86-2.24,6.4,0,1.31,0,3.74-.5,4.57-1.78,3.35-3.43,9.59-3.27,12.36.08,1.42.24,4.06,9.75,8.81a4.06,4.06,0,0,0,4.08-.26c.32-.21,7.8-5.33,6.29-16.92A22.67,22.67,0,0,0,234,54.5c-2.2-2.77-4.84-4.42-7.08-4.42Z" fill="#231f20"/>
        </g>
        <g>
          <path d="M204.62,126c19.24,0,34.89-13.61,34.89-30.35a26.83,26.83,0,0,0-2.88-12.1,4.16,4.16,0,0,0,.25-1.44,4.74,4.74,0,0,0-4.22-4.54c-6.57-7.7-17-12.28-28-12.28-19.24,0-34.89,13.62-34.89,30.36S185.38,126,204.62,126Z" fill="#3da448"/>
          <path d="M204.62,66.41c11.33,0,21.35,4.83,27.49,12.24a3.7,3.7,0,0,1,3.69,3.5,3.24,3.24,0,0,1-.37,1.48,25.91,25.91,0,0,1,3,12.06c0,16.16-15.13,29.27-33.8,29.27s-33.8-13.11-33.8-29.27S186,66.41,204.62,66.41m0-2.17c-19.84,0-36,14.11-36,31.45s16.14,31.44,36,31.44,36-14.11,36-31.44a27.83,27.83,0,0,0-2.8-12.19,5.55,5.55,0,0,0,.17-1.35,5.8,5.8,0,0,0-4.74-5.54c-6.79-7.76-17.41-12.37-28.61-12.37Z" fill="#231f20"/>
        </g>
        <g>
          <path d="M212.37,101c5.2,0,9.43-5.37,9.43-12s-4.23-12-9.43-12S203,82.39,203,89,207.18,101,212.37,101Z" fill="#fff"/>
          <path d="M212.37,78c4.68,0,8.47,4.93,8.47,11s-3.79,11-8.47,11-8.47-4.93-8.47-11,3.79-11,8.47-11m0-1.9C206.65,76.07,202,81.86,202,89s4.65,12.92,10.37,12.92S222.75,96.11,222.75,89s-4.66-12.91-10.38-12.91Z" fill="#231f20"/>
        </g>
        <path d="M225.93,87.89H226a1.1,1.1,0,0,0,1-1.2,8,8,0,0,1,2.64-6.43,1.09,1.09,0,0,0-1.39-1.67,10.07,10.07,0,0,0-3.41,8.33A1.08,1.08,0,0,0,225.93,87.89Z" fill="#231f20"/>
        <g>
          <path d="M224.46,87.2a2,2,0,0,0,1.66-.92c.92-1.3.86-3.63-.14-6.38-2.31-6.35-6.31-14.85-14.39-15.36-.45,0-.88,0-1.28,0-2.85,0-4.87.68-6,2a3.76,3.76,0,0,0-.88,2.92,1.12,1.12,0,0,0,.49.72,1,1,0,0,0,.59.18,1.35,1.35,0,0,0,.28,0h0a3.58,3.58,0,0,1,.44-.07,6.35,6.35,0,0,0-3.74,5.47,1.08,1.08,0,0,0,1.08,1.17l.23,0a16.07,16.07,0,0,1,3.17-.27,18.28,18.28,0,0,1,8.15,1.84c1.9,1.27,6.86,4.88,7.94,6.94.83,1.59,1.86,1.83,2.4,1.83Z" fill="#f36b35"/>
          <path d="M210.31,65.59c.38,0,.79,0,1.22,0,7.74.48,11.49,9.31,13.43,14.64,1.35,3.71.58,5.84-.5,5.84-.47,0-1-.4-1.44-1.24-1.45-2.79-8.35-7.38-8.35-7.38a19.26,19.26,0,0,0-8.7-2,17.84,17.84,0,0,0-3.4.29c.48-6.17,8.35-5.08,6.05-6.05a7.6,7.6,0,0,0-2.92-.6,5.07,5.07,0,0,0-1.19.12s-.65-3.67,5.8-3.67m0-2.18c-3.19,0-5.49.81-6.83,2.42a4.73,4.73,0,0,0-1.11,3.81,2.14,2.14,0,0,0,.41,1,7.32,7.32,0,0,0-2.38,5A2.18,2.18,0,0,0,202.58,78a2.28,2.28,0,0,0,.44,0,16.6,16.6,0,0,1,2.95-.24,17.14,17.14,0,0,1,7.6,1.69c2.68,1.79,6.71,4.95,7.52,6.51a3.93,3.93,0,0,0,3.37,2.4A3.12,3.12,0,0,0,227,86.9c1.11-1.59,1.11-4.28,0-7.37-1.53-4.23-5.62-15.47-15.34-16.07-.46,0-.92-.05-1.35-.05Z" fill="#231f20"/>
        </g>
        <path d="M221.57,89.83c0,2.94-1.24,5.33-2.78,5.33S216,92.77,216,89.83s1.25-5.32,2.79-5.32S221.57,86.89,221.57,89.83Z" fill="#231f20"/>
        <g>
          <g>
            <path d="M204.19,109.58s-19.73-1.31-22,12.47,4.66,16,7.08,19.92,15.45,14,15.45,14,16-6.52,24.75-34.07Z" fill="#7c1317"/>
            <g>
              <path d="M200.78,156.48c8.47,0,15.38-4.43,17.21-11,1.16-4.2.17-8.7-2.78-12.68a23.4,23.4,0,0,0-12.59-8.31,25.2,25.2,0,0,0-6.75-.93c-8.47,0-15.38,4.43-17.21,11-2.37,8.56,4.52,18,15.36,21a25.33,25.33,0,0,0,6.76.93Z" fill="#ed2027"/>
              <path d="M195.87,124.49a24.35,24.35,0,0,1,6.5.9c10.36,2.87,16.94,11.74,14.7,19.81-1.76,6.36-8.46,10.33-16.29,10.33a24.35,24.35,0,0,1-6.5-.9c-10.36-2.87-16.94-11.73-14.7-19.81,1.76-6.36,8.46-10.33,16.29-10.33m0-1.9c-8.9,0-16.19,4.71-18.13,11.72-2.51,9.07,4.68,19,16,22.16a26.32,26.32,0,0,0,7,1c8.9,0,16.18-4.71,18.12-11.72,1.24-4.48.2-9.28-2.93-13.5a24.32,24.32,0,0,0-13.09-8.65,26,26,0,0,0-7-1Z" fill="#231f20"/>
            </g>
          </g>
          <g>
            <g>
              <path d="M243.15,137.34c1.78,0,3.48-2.15,5.27-4.42.35-.45.7-.88,1-1.27a23.62,23.62,0,0,0,4.87-9.91,1,1,0,0,0-.5-1l-11.88-6.17a1,1,0,0,0-.44-.1,1,1,0,0,0-.46.11,1,1,0,0,0-.49.76c-1.38,16.39-.18,20,1,21.29a2.16,2.16,0,0,0,1.6.73Z" fill="#fff"/>
              <path d="M241.49,115.4l11.88,6.16a22.81,22.81,0,0,1-4.66,9.48c-1.73,2.07-3.93,5.35-5.56,5.35-1.92,0-3-4.55-1.66-21m0-1.91a1.89,1.89,0,0,0-.92.24,1.92,1.92,0,0,0-1,1.51c-1.39,16.62-.22,20.4,1.27,22a3.05,3.05,0,0,0,2.29,1c2.24,0,4.08-2.32,6-4.78.35-.44.68-.87,1-1.25a24.67,24.67,0,0,0,5.08-10.35,1.9,1.9,0,0,0-1-2l-11.88-6.17a2,2,0,0,0-.88-.22Z" fill="#231f20"/>
            </g>
            <g>
              <path d="M220.32,136.84c1.49,0,2.77-1.66,4-3.26,2.16-2.77,5.26-10.13,5.39-10.44a1,1,0,0,0-.26-1.1l-12-10.08a.92.92,0,0,0-.61-.22,1,1,0,0,0-.95,1,142,142,0,0,0,1.22,18.65c.41,2.56,1.16,5.5,3.23,5.5Z" fill="#fff"/>
              <path d="M216.82,112.69l12,10.08s-3.16,7.52-5.26,10.23c-1.11,1.42-2.26,2.88-3.27,2.88s-1.72-1.19-2.3-4.69a144.81,144.81,0,0,1-1.2-18.5m0-1.9a1.87,1.87,0,0,0-.8.18,1.89,1.89,0,0,0-1.1,1.72,143.4,143.4,0,0,0,1.23,18.81c.3,1.88,1,6.29,4.17,6.29,2,0,3.39-1.84,4.77-3.62,2.23-2.88,5.39-10.35,5.52-10.66a1.91,1.91,0,0,0-.53-2.2l-12-10.08a1.91,1.91,0,0,0-1.22-.44Z" fill="#231f20"/>
            </g>
            <g>
              <path d="M202.21,124.22a1.28,1.28,0,0,0,.65-.18c1.88-1.1,7.57-7.58,8.21-8.32a1,1,0,0,0,0-1.25c-3.55-4.09-8.13-9-9.78-9a1.19,1.19,0,0,0-1.19.93c-.35,1.41-.66,15,1.06,17.23a1.31,1.31,0,0,0,1.05.55Z" fill="#fff"/>
              <path d="M201.29,106.46c1.57,0,9.06,8.64,9.06,8.64s-6.17,7.07-8,8.12a.41.41,0,0,1-.17,0c-1.64,0-1.62-14.85-1.19-16.6a.26.26,0,0,1,.27-.21m0-1.9a2.15,2.15,0,0,0-2.11,1.65,53.7,53.7,0,0,0-.27,8.7c.22,7.71,1.09,8.82,1.5,9.35a2.25,2.25,0,0,0,1.8.91,2.19,2.19,0,0,0,1.13-.31c1.92-1.12,6.95-6.8,8.45-8.51a1.91,1.91,0,0,0,0-2.5c-8.06-9.29-9.71-9.29-10.5-9.29Z" fill="#231f20"/>
            </g>
            <g>
              <path d="M221.11,152.07c2.73,0,7.16-2.76,7.65-3.08a.92.92,0,0,0,.44-.87c0-.35-.62-8.73-1.7-12-.41-1.23-1.11-1.49-1.63-1.49-1.48,0-2.94,1.93-6.79,12.44-.66,1.83-.69,3.14-.09,4A2.42,2.42,0,0,0,221.11,152.07Z" fill="#fff"/>
              <path d="M225.87,135.63c.29,0,.54.26.73.83,1.05,3.16,1.65,11.73,1.65,11.73s-4.61,2.93-7.14,2.93c-1.39,0-2.15-.9-1.13-3.68,2.34-6.41,4.58-11.82,5.89-11.81m0-1.91c-2.05,0-3.57,1.82-7.68,13.06-.29.79-1.16,3.18,0,4.88a3.37,3.37,0,0,0,2.9,1.36c2.93,0,7.31-2.69,8.16-3.22a1.92,1.92,0,0,0,.88-1.74c-.06-.91-.65-8.91-1.75-12.2a2.67,2.67,0,0,0-2.52-2.14Z" fill="#231f20"/>
            </g>
            <g>
              <path d="M199.75,155c3.55,0,9-3.71,10.81-6.63a.94.94,0,0,0,.13-.65c-.07-.43-1.68-10.36-2.61-12.69-.37-.92-.77-1.91-1.81-1.91-1.3,0-2.31,1.06-7.9,12.37-1.93,3.9-2.39,6.57-1.42,8.14A3,3,0,0,0,199.75,155Z" fill="#fff"/>
              <path d="M206.27,134.09c.4,0,.63.58.92,1.31.91,2.26,2.56,12.49,2.56,12.49-1.76,2.85-6.95,6.18-10,6.18-2.43,0-3.52-2.09-.53-8.14,4.58-9.26,6.2-11.84,7.05-11.84m0-1.91c-1.89,0-3,1.27-8.76,12.91-2.12,4.28-2.55,7.16-1.36,9.07a4,4,0,0,0,3.6,1.81c3.9,0,9.65-3.89,11.62-7.08a1.91,1.91,0,0,0,.26-1.3c-.17-1.07-1.72-10.51-2.68-12.93-.37-.92-1-2.47-2.68-2.48Z" fill="#231f20"/>
            </g>
          </g>
        </g>
        <g>
          <path d="M201.17,167.94c9.48,0,14.87-2.5,18-5.05a1.3,1.3,0,0,0,.18.23,7.65,7.65,0,0,0,5.49,2.06,12.08,12.08,0,0,0,8.6-3.81,10.23,10.23,0,0,0,2.7-8c-.73-8.77-8-8.91-13.81-9-.95,0-1.88,0-2.79-.09-.35,0-.72,0-1.09,0a66.17,66.17,0,0,0-11.14,1.45,43,43,0,0,1-5.65.84h-.24a60.7,60.7,0,0,1-2.93-6c-1-2.14-1.88-4.16-2.53-5.3-1.2-2.1-5.35-6.57-7.83-9.24l-1.37-1.48c.63-1.8,6.31-7.77,9.57-10a13.49,13.49,0,0,0,1.66-1.36c.66-.62.87-.77,1.17-.77,1.2,0,4.31,2,8.62,5.1,8.71,6.2,20.61,10.21,30.31,10.21a25.19,25.19,0,0,0,7.82-1.11,24.9,24.9,0,0,0,4.17-1.76,1.22,1.22,0,0,0,.75,1.17,8.66,8.66,0,0,0,3.33.62c4.92,0,11.42-3.56,14.83-11.51,4-9.43.39-21.2.23-21.7a1.89,1.89,0,0,0-.09-.21C264,83.71,257,78.91,248.31,78.91c-11.41,0-22.2,8.57-25.09,11.58-1.11,1.15-2,2.2-2.82,3.12-2.11,2.43-3.11,3.5-4.44,3.5a3.76,3.76,0,0,1-.71-.08c-1-.22-2.51-1.32-4.45-2.72a67.59,67.59,0,0,0-18.31-9.9,22.14,22.14,0,0,0-7.4-1.29c-7.82,0-15.76,4.3-23,12.43-4.68,5.3-7.57,19-1.95,27.19,4.69,6.8,12.31,8.92,15,9.47,1.08,6.45,9,17.48,10.62,19.76-1.4,11.85,10.29,15.69,10.41,15.73a1.31,1.31,0,0,0,.27.06C198.09,167.88,199.67,167.94,201.17,167.94Z" fill="#fed091"/>
          <path d="M248.31,80.13c7,0,14.16,3.36,19.72,13.62,0,0,3.73,11.73-.18,20.85-3.18,7.41-9.18,10.77-13.71,10.77a7.44,7.44,0,0,1-2.86-.53s5.59-5.4,3.91-6.33a.83.83,0,0,0-.37-.12c-1.1,0-.48,4.12-9.31,7a24.27,24.27,0,0,1-7.44,1c-9.36,0-21.1-3.94-29.6-10-5.64-4-7.95-5.33-9.33-5.33s-1.8,1.18-3.52,2.35c-3.53,2.42-11.16,10.24-10.05,11.54s7.82,8.2,9.31,10.8,4.66,10.61,5.77,11.73a1.53,1.53,0,0,0,1,.22c2.92,0,11.15-2.3,16.79-2.3q.52,0,1,0c6.52.37,14.71-.93,15.45,8,.54,6.51-5.24,10.45-10.08,10.45a6.37,6.37,0,0,1-4.62-1.71s3.16-3.72,2.42-5.21c0-.08-.09-.12-.13-.12-.75,0-2.75,9.8-21.32,9.8-1.44,0-3-.06-4.61-.18,0,0-11.17-3.54-9.5-14.89,0,0-10.42-14-10.79-20.48,0,0-9.68-1.3-15.08-9.12s-2.42-20.85,1.86-25.69c3.53-4,11.6-12,22-12a21.08,21.08,0,0,1,7,1.22C205.86,90.4,211.63,97.48,215,98.22a4.33,4.33,0,0,0,1,.11c2.68,0,4.14-2.82,8.14-7,2.74-2.84,13.21-11.2,24.21-11.2m0-2.44c-11.83,0-23,8.85-26,12-1.13,1.18-2.05,2.23-2.86,3.16-1.76,2-2.72,3.09-3.52,3.09a2,2,0,0,1-.45-.06,18.76,18.76,0,0,1-4-2.51A68.88,68.88,0,0,0,192.9,83.25a23.55,23.55,0,0,0-7.81-1.35c-8.19,0-16.44,4.44-23.87,12.84-4.89,5.52-8.2,19.79-2.05,28.7,4.53,6.55,11.62,9,15,9.79,1.52,6.49,8.22,16.09,10.4,19.09-.91,9.94,6.9,15.15,11.3,16.55a2.55,2.55,0,0,0,.55.11c1.66.12,3.27.19,4.8.19,7.07,0,12.79-1.37,17-4.07.31-.2.6-.39.87-.59a9.11,9.11,0,0,0,5.78,1.9,13.35,13.35,0,0,0,9.5-4.21,11.42,11.42,0,0,0,3-8.9c-.82-9.87-9.36-10-15-10.15-1,0-1.87,0-2.75-.09-.37,0-.76,0-1.16,0a67.81,67.81,0,0,0-11.36,1.46c-2,.37-3.88.73-5,.81-.64-1.17-1.73-3.58-2.5-5.28-1-2.17-1.9-4.22-2.57-5.41-1.18-2.05-4.6-5.8-8-9.47l-.77-.83A44.76,44.76,0,0,1,197,115.5,13.88,13.88,0,0,0,198.8,114l.47-.42c1.4.31,6.17,3.71,7.78,4.86,8.91,6.34,21.08,10.43,31,10.43a26.44,26.44,0,0,0,8.2-1.17,25.63,25.63,0,0,0,3.19-1.25,2.41,2.41,0,0,0,.88.63,9.93,9.93,0,0,0,3.8.72c5.33,0,12.33-3.79,16-12.25,4.22-9.85.43-22,.27-22.56a3.12,3.12,0,0,0-.18-.42c-5.37-9.89-12.73-14.9-21.88-14.9Z" fill="#231f20"/>
        </g>
        <path d="M248.53,92.25a8.37,8.37,0,0,0-4.69-.37c-1.82.37-1.61-2,1-3a5.42,5.42,0,0,1,6.67,3.07c.83,2.4,1.62,3.44.57,4S250.41,93,248.53,92.25Z" fill="#231f20"/>
      </g>
      <g>
        <path d="M184.6,82.13a9.62,9.62,0,0,0,8.56-5.9l0-.1c2.17-7,.95-7.87.55-8.16-.17-.13-.51-.34-1-.61-2-1.2-7.25-4.39-8-7.34a24.88,24.88,0,0,1-.63-4.18c-.22-2.4-.41-4.47-2.17-4.47a2,2,0,0,0-.73.15c-2.6,1-9.55,6.49-8.92,15.32.6,8.59,7.38,14.87,11.6,15.25A5.79,5.79,0,0,0,184.6,82.13Z" fill="#fae151"/>
        <path d="M181.93,52.32c1.48,0,.9,4.3,1.88,8,1.06,3.93,8.32,7.72,9.38,8.47s-.91,7.11-.91,7.11a8.64,8.64,0,0,1-7.68,5.33c-.21,0-.43,0-.64,0-3.32-.31-10.13-5.75-10.74-14.37s6.36-13.62,8.33-14.37a1,1,0,0,1,.38-.09m0-1.9a3,3,0,0,0-1.07.21c-2.06.79-10.24,6.18-9.53,16.28.64,9.21,7.81,15.71,12.46,16.13a7.32,7.32,0,0,0,.81,0A10.57,10.57,0,0,0,194,76.61a1.18,1.18,0,0,0,.07-.2c2.37-7.66.9-8.71.2-9.22-.23-.16-.55-.35-1-.65-1.71-1-6.92-4.19-7.61-6.76a24.68,24.68,0,0,1-.6-4c-.22-2.38-.49-5.33-3.12-5.33Z" fill="#231f20"/>
      </g>
    </g>
  </g>
</svg>
