<svg id="Layer_1" data-name="Layer 1" xmlns="http://www.w3.org/2000/svg" viewBox="0 0 300 300">
  <g>
    <g>
      <g>
        <path d="M208.48,108.09a20.22,20.22,0,0,1-2.17-.11c-5.85-.63-13-4.57-13.3-4.74l-.81-.45-9-20.54.19-8.69-5.95-8.33,10.54-6.66.95.1a7.39,7.39,0,0,1,1,.15l.39-.87-.74-5.63.05-.35c.77-6,4.34-9.71,9.31-9.71a11.46,11.46,0,0,1,3.09.44,8.45,8.45,0,0,1,5.47,5.13c.91-2.75,3.58-6,7.61-6a9.34,9.34,0,0,1,6.32,2.83,10.85,10.85,0,0,1,3.29,8,5.94,5.94,0,0,1,3.88-1.43,8.49,8.49,0,0,1,4.52,1.5,7.85,7.85,0,0,1,3.57,5.93,14.71,14.71,0,0,1-1,6.62,8.17,8.17,0,0,1,1.11-.08c3.05,0,6.56,1.83,7.26,7,1,7.36-9.2,12.08-13.56,14.08l-.73.34c-.46.22-.46.22-.91,1a22.75,22.75,0,0,1-5.56,6.46,19.12,19.12,0,0,1-5,3.14c.89,3.76-.19,6.17-1.25,7.52C215.3,106.93,212.34,108.09,208.48,108.09Z" fill="#fff"/>
        <path d="M215,44.57a6.64,6.64,0,0,1,4.44,2.1c5.26,4.86.53,15.5-1.05,18-1.25,2-3,4-2.28,4a3.08,3.08,0,0,0,1.1-.42c2.76-1.45,6.83-8.8,7.36-10.38C225,56.65,226,54,228.52,54a5.71,5.71,0,0,1,3,1.07c4.73,3,1.57,11.55-2.5,15.76-3.21,3.32-6.59,4.59-5.87,4.59a15.19,15.19,0,0,0,1.54-.26c4.07-.79,7.88-5.12,9.19-6.3a4.5,4.5,0,0,1,2.83-.89c1.9,0,4,1,4.53,4.57.78,5.77-10,10.24-12.74,11.55s-1,2.63-7.1,7.88a17.68,17.68,0,0,1-11.68,4.17,15.66,15.66,0,0,1-3.55-.36,5.47,5.47,0,0,0-1.25-.17c-.91,0-1.32.37-.08,1.2s6.66,1,9.27,1h1.45c1.34,5.57-2.51,7.57-7.12,7.57-.62,0-1.25,0-1.88-.1-5.36-.58-12.25-4.41-12.25-4.41L185.93,81.7l.19-9L181.34,66l7.27-4.59c5.74.58,6.13,9.38,6.13,9.38a10.44,10.44,0,0,1,1.36-.08c6,0,10.5,4.48,10.5,4.48-3.47-6.35-8.27-6.73-9.36-6.73H197c-1.31-8-4.46-8.93-4.46-8.93l.52-1.18-.78-6c.55-4.29,2.76-7.3,6.57-7.3a8.65,8.65,0,0,1,2.36.35c5.25,1.44,5.38,11.16,5.38,14.44,0,2.58-.73,5.25-.21,5.25.14,0,.37-.2.74-.65,1.71-2.1,2.23-12.35,2.76-15.1.36-1.9,2.27-4.73,5.14-4.73m0-5.52h0a10.43,10.43,0,0,0-7.75,3.66,10.18,10.18,0,0,0-4.6-2.67,14.37,14.37,0,0,0-3.82-.54c-6.37,0-11.1,4.75-12.05,12.11l-.09.71.1.71.36,2.77-1.51,1-7.27,4.59-4.94,3.12,3.39,4.75,3.72,5.21-.15,7.16,0,1.22.49,1.12,8.42,19.14.75,1.69,1.62.91c.81.44,8.05,4.38,14.34,5.06a23.3,23.3,0,0,0,2.47.14c4.74,0,8.45-1.53,10.73-4.43a10.59,10.59,0,0,0,2.13-7.67,21.88,21.88,0,0,0,3.72-2.61A26,26,0,0,0,231.2,89l0,0,.38-.18c4.91-2.27,16.42-7.57,15.14-17-.65-4.76-3.51-8.11-7.55-9.06a15,15,0,0,0,.16-4.37,10.67,10.67,0,0,0-4.82-7.94,11.11,11.11,0,0,0-6-1.94,8.77,8.77,0,0,0-1.67.17,12.57,12.57,0,0,0-3.63-6A12,12,0,0,0,215,39.05Z" fill="#231f20"/>
      </g>
      <g>
        <g>
          <path d="M162.77,147.43l22.82-49.92L212,99.36l-1.71,3.5c-.64,1.31-15.9,32.28-33.09,50.26l-1.39,1.46Z" fill="#3da448"/>
          <path d="M187.22,100.26l20.66,1.45s-15.52,31.7-32.63,49.59l-9.07-5,21-46M184,94.77l-1.51,3.31-21,46-2,4.43,4.27,2.36,9.08,5,3.54,1.94,2.79-2.92C196.51,136.67,212,105.34,212.6,104L216,97l-7.78-.54L187.59,95,184,94.77Z" fill="#231f20"/>
        </g>
        <path d="M207.88,101.71s-15.52,31.7-32.63,49.59l-9.07-5,21-46Z" fill="#3da448"/>
      </g>
      <g>
        <g>
          <g>
            <g>
              <g>
                <path d="M142.47,270.58c-6.7,0-13.82-2.73-17.72-6.8a33.89,33.89,0,0,1-8.59-18.13c-4.87-11.22-.91-14.23-.44-14.53l1.49-1,.13,1.77c2.06,27.41,16,32.57,21.85,33.52a22.41,22.41,0,0,0,3.46.27,19.92,19.92,0,0,0,9.93-2.5l2.48-1.59-.92,2.8c-1.28,3.91-5.53,6.16-11.67,6.16Z" fill="#f3dcbc"/>
                <path d="M116.29,232c1.94,25.71,14.42,33.14,22.74,34.47a22.11,22.11,0,0,0,3.62.29,20.91,20.91,0,0,0,10.49-2.67c-1.22,3.75-5.59,5.43-10.67,5.43-6,0-13-2.36-17-6.47-7.28-7.57-8.33-17.68-8.33-17.68-4.75-10.85-.89-13.37-.89-13.37m1.83-3.71-3,2c-.88.58-5,4,0,15.69A35.16,35.16,0,0,0,124,264.51c4.09,4.26,11.51,7.12,18.48,7.12,6.62,0,11.24-2.51,12.67-6.88l1.84-5.61-5,3.19a19.3,19.3,0,0,1-9.36,2.33,21.45,21.45,0,0,1-3.29-.26c-5.64-.91-19-5.89-21-32.56l-.27-3.55Z" fill="#231f20"/>
              </g>
              <g>
                <path d="M142.38,265.2a36.15,36.15,0,0,1-7.28-.82c-5.57-1.16-10.48-6.67-13.85-15.51-3.48-9.16-4.53-19.91-2.23-23a19.07,19.07,0,0,1,8.38-6.46l1.38-.45v.2a17,17,0,0,1,2.28-3.85l.58-.74,19.8,12,.7,5.2-.08.23c-.65,2-3.09,5.76-7.6,5.76a11.6,11.6,0,0,1-5.15-1.38c.34.2.71.4,1.09.6l1.91,1a14.29,14.29,0,0,1,1.86-.12,12,12,0,0,1,4.14.71c7.95,2.94,11.22,8.14,9.73,15.46C156.59,261.13,150.88,265.2,142.38,265.2Z" fill="#8b4d21"/>
                <path d="M131.89,216l18.58,11.29.59,4.46s-1.66,5-6.6,5c-2.74,0-6.49-1.55-11.52-6.37,0,0-.45,3.71,7,7.57,0,0-5.65,1.94-6.39,4.76,0,0,5.06-3.77,10.64-3.77a10.84,10.84,0,0,1,3.77.65c6.84,2.52,10.55,7,9.07,14.26-1.2,5.88-5.79,10.31-14.63,10.31a34.39,34.39,0,0,1-7.07-.8c-13.52-2.82-18.87-32.24-15.45-36.85a18.08,18.08,0,0,1,7.87-6.09s0,3.27,1.49,4c0,0-1.34-3.27,2.67-8.47m-.51-2.77-1.15,1.49a18.84,18.84,0,0,0-2.12,3.4l-1,.34a20.16,20.16,0,0,0-8.9,6.84c-2.78,3.74-1.15,15.42,2.1,24,3.5,9.19,8.69,14.93,14.61,16.17a36.79,36.79,0,0,0,7.5.84c12.85,0,16-8.38,16.69-12,1.1-5.4.21-12.66-10.23-16.59a10.61,10.61,0,0,0,4.22-5.31l.15-.46-.06-.48-.6-4.45-.13-1-.86-.52L133,214.16l-1.61-1Z" fill="#231f20"/>
              </g>
            </g>
            <g>
              <g>
                <path d="M153.14,264.09A21.53,21.53,0,0,1,139,266.47c-8.32-1.33-20.8-8.76-22.74-34.47,0,0-3.86,2.52.89,13.37,0,0,1,10.11,8.33,17.68S150.47,272.27,153.14,264.09Z" fill="#f3dcbc"/>
                <path d="M142.47,270.58h0c-6.7,0-13.82-2.73-17.72-6.8a33.89,33.89,0,0,1-8.59-18.13c-4.87-11.22-.91-14.23-.44-14.53l1.49-1,.13,1.77c2.06,27.41,16,32.57,21.85,33.52a22.41,22.41,0,0,0,3.46.27,19.92,19.92,0,0,0,9.93-2.5l2.48-1.59-.92,2.8C152.86,268.33,148.61,270.58,142.47,270.58ZM120,252a29.84,29.84,0,0,0,6.31,10.35c3.54,3.67,10,6.14,16.21,6.14a13.5,13.5,0,0,0,7.29-1.75,23.78,23.78,0,0,1-7.11,1.09,24.11,24.11,0,0,1-3.79-.3C134.36,266.79,125.52,263.83,120,252Z" fill="#231f20"/>
              </g>
              <g>
                <path d="M133.53,242.7s7.58-5.65,14.41-3.12,10.55,7,9.07,14.26-8.18,12.34-21.7,9.51-18.87-32.24-15.45-36.85a18.08,18.08,0,0,1,7.87-6.09s0,3.27,1.49,4c0,0-1.34-3.27,2.67-8.47l18.58,11.29.59,4.46s-4,12.19-18.12-1.33c0,0-.45,3.71,7,7.57C139.92,237.94,134.27,239.88,133.53,242.7Z" fill="#8b4d21"/>
                <path d="M142.38,265.2a36.15,36.15,0,0,1-7.28-.82c-5.57-1.16-10.48-6.67-13.85-15.51-3.48-9.16-4.53-19.91-2.23-23a19.07,19.07,0,0,1,8.38-6.46l1.38-.45v.2a17,17,0,0,1,2.28-3.85l.58-.74,19.8,12,.7,5.2-.08.23c-.65,2-3.09,5.76-7.6,5.76a11.6,11.6,0,0,1-5.15-1.38c.34.2.71.4,1.09.6l1.91,1a12.89,12.89,0,0,1,6,.59c7.95,2.94,11.22,8.14,9.73,15.46C156.59,261.13,150.88,265.2,142.38,265.2ZM126.81,222a17.88,17.88,0,0,0-6.11,5.16c-1.45,2-1,11.65,2.52,21C125,252.84,129,261,135.53,262.33a34,34,0,0,0,6.85.77c7.52,0,12.35-3.37,13.6-9.47s-1.48-10.51-8.4-13.07a9.77,9.77,0,0,0-3.41-.58c-5.15,0-10,3.53-10,3.56l-2.41,1.79.76-2.9c.57-2.14,3.14-3.73,5-4.63-5.91-3.7-5.7-7.15-5.65-7.56l.25-2.09,1.52,1.45c4.22,4,7.85,6.09,10.8,6.09,3.61,0,5.18-3.25,5.53-4.11l-.5-3.7-17.32-10.53c-2.87,4.12-2,6.58-2,6.69l.92,2.49-2.37-1.17C127.51,224.74,127,223.19,126.81,222Z" fill="#231f20"/>
              </g>
            </g>
          </g>
          <g>
            <g>
              <g>
                <g>
                  <path d="M166.48,270.55c-7.3,0-14.82-2.9-19.13-7.39a36.16,36.16,0,0,1-9.09-19c-5.22-12.23-.59-16.06.4-16.71a3,3,0,0,1,3-.18,3,3,0,0,1,1.68,2.48c1.95,26,14.77,30.85,20.2,31.72a19.46,19.46,0,0,0,3.14.25,18,18,0,0,0,8.86-2.19,3,3,0,0,1,1.63-.48,3,3,0,0,1,1.85.64,3,3,0,0,1,1,3.32c-1.54,4.71-6.6,7.51-13.54,7.51Z" fill="#f3dcbc"/>
                  <path d="M140.31,230c1.93,25.71,14.42,33.13,22.74,34.47a22,22,0,0,0,3.62.29,20.91,20.91,0,0,0,10.49-2.67c-1.22,3.75-5.59,5.44-10.68,5.44-6,0-13-2.37-17-6.48-7.28-7.57-8.32-17.68-8.32-17.68-4.75-10.85-.89-13.37-.89-13.37m0-6a6.07,6.07,0,0,0-3.3,1c-1.88,1.23-7.45,6.26-1.68,20.07.51,3.13,2.58,12.68,9.84,20.23,4.86,5.06,13.22,8.33,21.31,8.33,8.32,0,14.46-3.59,16.43-9.6a6,6,0,0,0-5.7-8,5.8,5.8,0,0,0-3.27,1,15.62,15.62,0,0,1-7.27,1.73,16.94,16.94,0,0,1-2.66-.21c-4.72-.76-15.88-5.1-17.67-29a6,6,0,0,0-3.36-5,6.12,6.12,0,0,0-2.67-.63Z" fill="#231f20"/>
                </g>
                <g>
                  <path d="M166.39,265.18a37.93,37.93,0,0,1-7.68-.86c-6.24-1.3-11.67-7.25-15.28-16.75-3.33-8.75-5-20.75-2-24.86a21.2,21.2,0,0,1,9.35-7.16,2.83,2.83,0,0,1,.63-.13,19.15,19.15,0,0,1,2.09-3.3,3,3,0,0,1,2.4-1.18,3,3,0,0,1,1.56.44l18.58,11.29a3,3,0,0,1,1.42,2.18l.6,4.46a3,3,0,0,1-.13,1.34,11.35,11.35,0,0,1-3.22,4.8c9.59,4.28,10.37,11.53,9.26,17C182.36,260.42,175.78,265.18,166.39,265.18Z" fill="#8b4d21"/>
                  <path d="M155.91,214l18.58,11.29.59,4.46s-1.66,5-6.6,5c-2.74,0-6.49-1.55-11.53-6.38,0,0-.44,3.72,7,7.58,0,0-5.65,1.93-6.39,4.76,0,0,5.06-3.78,10.64-3.78a10.63,10.63,0,0,1,3.77.66c6.84,2.52,10.55,7,9.07,14.26-1.2,5.88-5.79,10.31-14.64,10.31a34.3,34.3,0,0,1-7.06-.8c-13.52-2.82-18.87-32.24-15.45-36.85a17.92,17.92,0,0,1,7.87-6.09s0,3.27,1.49,4c0,0-1.34-3.27,2.67-8.47m0-6a6,6,0,0,0-4.79,2.35,23.64,23.64,0,0,0-1.75,2.59,24.34,24.34,0,0,0-10.35,8c-.71,1-2.87,3.86-2,12.74a60.1,60.1,0,0,0,3.57,15c4,10.64,10.09,17.08,17.49,18.63a41,41,0,0,0,8.29.92c10.94,0,18.62-5.66,20.56-15.14,1.58-7.78-1.14-14.29-7.56-18.49a13.46,13.46,0,0,0,1.43-3,6,6,0,0,0,.25-2.69l-.59-4.46a6.07,6.07,0,0,0-2.85-4.36L159.05,208.8a6.06,6.06,0,0,0-3.13-.88Z" fill="#231f20"/>
                </g>
              </g>
              <g>
                <g>
                  <path d="M177.16,262.1a21.53,21.53,0,0,1-14.11,2.38c-8.32-1.34-20.81-8.76-22.74-34.47,0,0-3.86,2.52.89,13.37,0,0,1,10.11,8.32,17.68S174.49,270.28,177.16,262.1Z" fill="#f3dcbc"/>
                  <path d="M166.49,270.55h0c-7.3,0-14.82-2.9-19.13-7.39a36.16,36.16,0,0,1-9.09-19c-5.22-12.23-.59-16.06.4-16.71a3,3,0,0,1,4.67,2.3c1.95,26,14.77,30.85,20.2,31.72a19.46,19.46,0,0,0,3.14.25,18,18,0,0,0,8.86-2.19A3,3,0,0,1,180,263C178.49,267.75,173.43,270.55,166.49,270.55Z" fill="#231f20"/>
                </g>
                <g>
                  <path d="M157.55,240.71s7.58-5.65,14.41-3.12,10.55,7,9.07,14.26-8.18,12.33-21.7,9.51-18.87-32.24-15.45-36.85a17.92,17.92,0,0,1,7.87-6.09s0,3.27,1.49,4c0,0-1.34-3.27,2.67-8.47l18.58,11.29.59,4.46s-4,12.19-18.13-1.34c0,0-.44,3.72,7,7.58C163.94,236,158.29,237.88,157.55,240.71Z" fill="#8b4d21"/>
                  <path d="M166.39,265.18a37.93,37.93,0,0,1-7.68-.86c-6.24-1.3-11.67-7.25-15.28-16.75-3.33-8.75-5-20.75-2-24.86a21.2,21.2,0,0,1,9.35-7.16,2.83,2.83,0,0,1,.63-.13,19.15,19.15,0,0,1,2.09-3.3,3,3,0,0,1,4-.74l18.58,11.29a3,3,0,0,1,1.42,2.18l.6,4.46a3,3,0,0,1-.13,1.34,11.35,11.35,0,0,1-3.22,4.8c9.59,4.28,10.37,11.53,9.26,17C182.36,260.42,175.78,265.18,166.39,265.18ZM149.73,223a15.59,15.59,0,0,0-3.43,3.36c-1,1.68-.57,11.86,3.75,21.46,2.73,6.09,6.25,9.87,9.9,10.64a32.17,32.17,0,0,0,6.44.73c6.59,0,10.62-2.73,11.68-7.89.72-3.54.56-8-7.15-10.83a7.82,7.82,0,0,0-2.73-.46c-4.47,0-8.8,3.14-8.84,3.17a3,3,0,0,1-4.72-3.19,8.12,8.12,0,0,1,3.33-4.32c-4.2-3.59-4.1-6.85-4-7.61a3,3,0,0,1,5.09-1.82c5,4.82,8.08,5.54,9.44,5.54a4,4,0,0,0,3.5-2.43l-.3-2.22-14.82-9a5.7,5.7,0,0,0-.78,3.3,2.8,2.8,0,0,1-.59,3.31,3.1,3.1,0,0,1-3.6.45A5,5,0,0,1,149.73,223Z" fill="#231f20"/>
                </g>
              </g>
            </g>
            <g>
              <g>
                <g>
                  <path d="M142.47,272.54c-7.31,0-14.83-2.9-19.14-7.39a36.16,36.16,0,0,1-9.09-19c-5.22-12.23-.59-16.06.4-16.71a3,3,0,0,1,3-.18,3,3,0,0,1,1.68,2.48c2,26,14.77,30.85,20.2,31.72a19.55,19.55,0,0,0,3.14.25,18.15,18.15,0,0,0,8.86-2.19A3,3,0,0,1,156,265c-1.53,4.7-6.6,7.5-13.54,7.5Z" fill="#f3dcbc"/>
                  <path d="M116.29,232c1.94,25.71,14.42,33.14,22.74,34.47a22.11,22.11,0,0,0,3.62.29,20.91,20.91,0,0,0,10.49-2.67c-1.22,3.75-5.59,5.43-10.67,5.43-6,0-13-2.36-17-6.47-7.28-7.57-8.33-17.68-8.33-17.68-4.75-10.85-.89-13.37-.89-13.37m0-6a6.11,6.11,0,0,0-3.31,1c-1.87,1.23-7.44,6.26-1.66,20.08.5,3.12,2.57,12.66,9.83,20.22,4.86,5.06,13.23,8.32,21.32,8.32,8.31,0,14.45-3.58,16.42-9.59a6,6,0,0,0-5.7-8,5.8,5.8,0,0,0-3.27,1,15.62,15.62,0,0,1-7.27,1.73,17,17,0,0,1-2.66-.21c-4.72-.76-15.88-5.1-17.67-29a6,6,0,0,0-6-5.59Z" fill="#231f20"/>
                </g>
                <g>
                  <path d="M142.38,267.17a37.85,37.85,0,0,1-7.68-.86c-6.25-1.31-11.68-7.25-15.29-16.74-3.33-8.76-5-20.75-2-24.87a21.2,21.2,0,0,1,9.35-7.16,3.56,3.56,0,0,1,.63-.14,19.9,19.9,0,0,1,2.09-3.29,3,3,0,0,1,4-.74L152,224.66a3,3,0,0,1,1.42,2.18l.6,4.46a3.09,3.09,0,0,1-.13,1.35,11.29,11.29,0,0,1-3.22,4.79c9.59,4.28,10.38,11.53,9.26,17C158.34,262.41,151.77,267.17,142.38,267.17Z" fill="#8b4d21"/>
                  <path d="M131.89,216l18.58,11.29.59,4.46s-1.66,5-6.6,5c-2.74,0-6.49-1.55-11.52-6.37,0,0-.45,3.71,7,7.57,0,0-5.65,1.94-6.39,4.76,0,0,5.06-3.77,10.64-3.77a10.84,10.84,0,0,1,3.77.65c6.84,2.52,10.55,7,9.07,14.26-1.2,5.88-5.79,10.31-14.63,10.31a34.39,34.39,0,0,1-7.07-.8c-13.52-2.82-18.87-32.24-15.45-36.85a18.08,18.08,0,0,1,7.87-6.09s0,3.27,1.49,4c0,0-1.34-3.27,2.67-8.47m0-6a6,6,0,0,0-4.79,2.35,25.15,25.15,0,0,0-1.75,2.59A24.34,24.34,0,0,0,115,222.9c-.71.95-2.87,3.86-2,12.74a60.54,60.54,0,0,0,3.57,15c4,10.64,10.09,17.08,17.49,18.63a41,41,0,0,0,8.3.92c10.93,0,18.61-5.66,20.55-15.14,1.58-7.78-1.14-14.29-7.55-18.49a13.85,13.85,0,0,0,1.42-3,5.94,5.94,0,0,0,.25-2.68l-.59-4.47a6,6,0,0,0-2.85-4.36L135,210.79a5.94,5.94,0,0,0-3.13-.88Z" fill="#231f20"/>
                </g>
              </g>
              <g>
                <g>
                  <path d="M153.14,264.09A21.53,21.53,0,0,1,139,266.47c-8.32-1.33-20.8-8.76-22.74-34.47,0,0-3.86,2.52.89,13.37,0,0,1,10.11,8.33,17.68S150.47,272.27,153.14,264.09Z" fill="#f3dcbc"/>
                  <path d="M142.47,272.54h0c-7.31,0-14.83-2.9-19.14-7.39a36.16,36.16,0,0,1-9.09-19c-5.22-12.23-.59-16.06.4-16.71a3,3,0,0,1,4.67,2.3c2,26,14.77,30.85,20.2,31.72a19.55,19.55,0,0,0,3.14.25,18.15,18.15,0,0,0,8.86-2.19A3,3,0,0,1,156,265C154.48,269.74,149.41,272.54,142.47,272.54Z" fill="#231f20"/>
                </g>
                <g>
                  <path d="M133.53,242.7s7.58-5.65,14.41-3.12,10.55,7,9.07,14.26-8.18,12.34-21.7,9.51-18.87-32.24-15.45-36.85a18.08,18.08,0,0,1,7.87-6.09s0,3.27,1.49,4c0,0-1.34-3.27,2.67-8.47l18.58,11.29.59,4.46s-4,12.19-18.12-1.33c0,0-.45,3.71,7,7.57C139.92,237.94,134.27,239.88,133.53,242.7Z" fill="#8b4d21"/>
                  <path d="M142.38,267.17a37.85,37.85,0,0,1-7.68-.86c-6.25-1.31-11.68-7.25-15.29-16.74-3.33-8.76-5-20.75-2-24.87a21.2,21.2,0,0,1,9.35-7.16,3.56,3.56,0,0,1,.63-.14,19.9,19.9,0,0,1,2.09-3.29,3,3,0,0,1,4-.74L152,224.66a3,3,0,0,1,1.42,2.18l.6,4.46a3.09,3.09,0,0,1-.13,1.35,11.29,11.29,0,0,1-3.22,4.79c9.59,4.28,10.38,11.53,9.26,17C158.34,262.41,151.77,267.17,142.38,267.17Zm-16.66-42.24a15.69,15.69,0,0,0-3.44,3.37c-1,1.68-.57,11.85,3.75,21.45,2.73,6.1,6.25,9.88,9.9,10.65a32.27,32.27,0,0,0,6.45.73c6.58,0,10.61-2.73,11.67-7.89.72-3.55.56-8-7.15-10.83a7.78,7.78,0,0,0-2.73-.46c-4.47,0-8.8,3.14-8.84,3.18a3,3,0,0,1-4.72-3.2,8.17,8.17,0,0,1,3.33-4.32c-4.19-3.59-4.09-6.85-4-7.6a3,3,0,0,1,5.08-1.83c5,4.82,8.08,5.54,9.44,5.54a4,4,0,0,0,3.5-2.43l-.3-2.22-14.82-9a5.68,5.68,0,0,0-.78,3.29,2.83,2.83,0,0,1-.58,3.32,3.1,3.1,0,0,1-3.61.45A4.94,4.94,0,0,1,125.72,224.93Z" fill="#231f20"/>
                </g>
              </g>
            </g>
          </g>
          <g>
            <g>
              <g>
                <g>
                  <path d="M166.48,269.24c-6.86,0-14.17-2.81-18.19-7a34.66,34.66,0,0,1-8.75-18.42c-5-11.64-.68-14.91-.16-15.25L141.8,227l.21,2.88c2,26.95,15.58,32,21.31,32.92a22.15,22.15,0,0,0,3.35.27,19.29,19.29,0,0,0,9.57-2.4l4-2.59-1.49,4.56c-1.38,4.19-5.86,6.6-12.3,6.6Z" fill="#f3dcbc"/>
                  <path d="M140.31,230c1.93,25.71,14.42,33.13,22.74,34.47a22,22,0,0,0,3.62.29,20.91,20.91,0,0,0,10.49-2.67c-1.22,3.75-5.59,5.44-10.68,5.44-6,0-13-2.37-17-6.48-7.28-7.57-8.32-17.68-8.32-17.68-4.75-10.85-.89-13.37-.89-13.37m3-6-4.84,3.17c-1,.68-5.88,4.66-.56,17.15.35,2.4,2.11,11.77,9.18,19.13,4.39,4.57,12,7.52,19.42,7.52,7.13,0,12.33-2.91,13.93-7.78l3-9.11-8.07,5.17a17.87,17.87,0,0,1-8.65,2.13,19.89,19.89,0,0,1-3.08-.25c-5.33-.86-17.94-5.63-19.87-31.36l-.44-5.77Z" fill="#231f20"/>
                </g>
                <g>
                  <path d="M166.39,263.86A37.37,37.37,0,0,1,159,263c-5.79-1.22-10.88-6.87-14.32-15.93-3.15-8.29-4.81-20-2.15-23.62a19.67,19.67,0,0,1,8.7-6.69l1.2-.4a18,18,0,0,1,2.15-3.48l.93-1.21,20.58,12.51.76,5.65-.13.37a9.83,9.83,0,0,1-4.84,5.51c.24.08.47.15.69.24,10.34,3.82,11.23,10.92,10.15,16.21C181.19,259.61,175.24,263.86,166.39,263.86Z" fill="#8b4d21"/>
                  <path d="M155.91,214l18.58,11.29.59,4.46s-1.66,5-6.6,5c-2.74,0-6.49-1.55-11.53-6.38,0,0-.44,3.72,7,7.58,0,0-5.65,1.93-6.39,4.76,0,0,5.06-3.78,10.64-3.78a10.63,10.63,0,0,1,3.77.66c6.84,2.52,10.55,7,9.07,14.26-1.2,5.88-5.79,10.31-14.64,10.31a34.3,34.3,0,0,1-7.06-.8c-13.52-2.82-18.87-32.24-15.45-36.85a17.92,17.92,0,0,1,7.87-6.09s0,3.27,1.49,4c0,0-1.34-3.27,2.67-8.47m-.83-4.5-1.87,2.41a21.52,21.52,0,0,0-2,3.14l-.52.17a21.26,21.26,0,0,0-9.54,7.29c-3.13,4.23-1.43,16.39,1.93,25.24,2.59,6.81,7.39,15.29,15.57,17a38.68,38.68,0,0,0,7.76.86c9.59,0,16.32-4.87,18-13,1.56-7.65-1.61-13.68-9-17.19a11.71,11.71,0,0,0,2.91-4.57l.24-.74-.1-.78-.6-4.46-.21-1.62-1.4-.84L157.69,211l-2.61-1.58Z" fill="#231f20"/>
                </g>
              </g>
              <g>
                <path d="M177.16,262.1a21.53,21.53,0,0,1-14.11,2.38c-8.32-1.34-20.81-8.76-22.74-34.47,0,0-3.86,2.52.89,13.37,0,0,1,10.11,8.32,17.68S174.49,270.28,177.16,262.1Z" fill="#f3dcbc"/>
                <path d="M157.55,240.71s7.58-5.65,14.41-3.12,10.55,7,9.07,14.26-8.18,12.33-21.7,9.51-18.87-32.24-15.45-36.85a17.92,17.92,0,0,1,7.87-6.09s0,3.27,1.49,4c0,0-1.34-3.27,2.67-8.47l18.58,11.29.59,4.46s-4,12.19-18.13-1.34c0,0-.44,3.72,7,7.58C163.94,236,158.29,237.88,157.55,240.71Z" fill="#8b4d21"/>
              </g>
            </g>
            <g>
              <g>
                <g>
                  <path d="M142.47,271.23c-6.87,0-14.18-2.81-18.19-7a34.7,34.7,0,0,1-8.76-18.42c-5-11.64-.68-14.91-.16-15.25l2.42-1.58.22,2.88c2,26.94,15.57,32,21.3,32.92a21,21,0,0,0,3.35.27,19.25,19.25,0,0,0,9.57-2.4l4-2.59-1.49,4.56c-1.38,4.19-5.86,6.6-12.3,6.6Z" fill="#f3dcbc"/>
                  <path d="M116.29,232c1.94,25.71,14.42,33.14,22.74,34.47a22.11,22.11,0,0,0,3.62.29,20.91,20.91,0,0,0,10.49-2.67c-1.22,3.75-5.59,5.43-10.67,5.43-6,0-13-2.36-17-6.47-7.28-7.57-8.33-17.68-8.33-17.68-4.75-10.85-.89-13.37-.89-13.37m3-6-4.84,3.17c-1,.68-5.88,4.66-.56,17.15.35,2.4,2.11,11.77,9.18,19.13,4.39,4.57,12,7.52,19.43,7.52,7.12,0,12.33-2.91,13.92-7.78l3-9.11-8.07,5.17a17.87,17.87,0,0,1-8.65,2.13,18.82,18.82,0,0,1-3.08-.25c-5.33-.86-17.94-5.63-19.87-31.36l-.44-5.77Z" fill="#231f20"/>
                </g>
                <g>
                  <path d="M142.38,265.86A36.13,36.13,0,0,1,135,265c-5.79-1.2-10.88-6.86-14.32-15.92-3.15-8.29-4.81-20-2.15-23.62a19.77,19.77,0,0,1,8.7-6.69l1.2-.4a18.55,18.55,0,0,1,2.15-3.48l.94-1.21,20.57,12.51.76,5.65-.12.38a10,10,0,0,1-4.84,5.51c.23.06.46.14.69.22,10.33,3.83,11.22,10.93,10.14,16.21C157.17,261.6,151.22,265.86,142.38,265.86Z" fill="#8b4d21"/>
                  <path d="M131.89,216l18.58,11.29.59,4.46s-1.66,5-6.6,5c-2.74,0-6.49-1.55-11.52-6.37,0,0-.45,3.71,7,7.57,0,0-5.65,1.94-6.39,4.76,0,0,5.06-3.77,10.64-3.77a10.84,10.84,0,0,1,3.77.65c6.84,2.52,10.55,7,9.07,14.26-1.2,5.88-5.79,10.31-14.63,10.31a34.39,34.39,0,0,1-7.07-.8c-13.52-2.82-18.87-32.24-15.45-36.85a18.08,18.08,0,0,1,7.87-6.09s0,3.27,1.49,4c0,0-1.34-3.27,2.67-8.47m-.83-4.51-1.87,2.43a20.94,20.94,0,0,0-2,3.13l-.52.17a21.2,21.2,0,0,0-9.53,7.29c-3.14,4.23-1.44,16.39,1.92,25.25,2.59,6.8,7.4,15.27,15.57,17a38.08,38.08,0,0,0,7.77.88c9.59,0,16.31-4.88,18-13,1.56-7.65-1.6-13.68-8.94-17.19a11.86,11.86,0,0,0,2.9-4.57l.24-.74-.1-.78-.6-4.46-.21-1.62-1.4-.85L133.67,213l-2.61-1.59Z" fill="#231f20"/>
                </g>
              </g>
              <g>
                <path d="M153.14,264.09A21.53,21.53,0,0,1,139,266.47c-8.32-1.33-20.8-8.76-22.74-34.47,0,0-3.86,2.52.89,13.37,0,0,1,10.11,8.33,17.68S150.47,272.27,153.14,264.09Z" fill="#f3dcbc"/>
                <path d="M133.53,242.7s7.58-5.65,14.41-3.12,10.55,7,9.07,14.26-8.18,12.34-21.7,9.51-18.87-32.24-15.45-36.85a18.08,18.08,0,0,1,7.87-6.09s0,3.27,1.49,4c0,0-1.34-3.27,2.67-8.47l18.58,11.29.59,4.46s-4,12.19-18.12-1.33c0,0-.45,3.71,7,7.57C139.92,237.94,134.27,239.88,133.53,242.7Z" fill="#8b4d21"/>
              </g>
            </g>
          </g>
        </g>
        <g>
          <path d="M112,187.33c0-2.94-1.07-11.33-5.28-14.86l-4.25-3.55,5.35-1.45c3.66-1,13.89-4,17.25-5.91.83-.47,1.82-1.09,2.89-1.77,4.37-2.74,9.32-5.85,13.26-5.85a6,6,0,0,1,3.23.87,5.68,5.68,0,0,1,2.61,3.76c.73,3.63-1.83,7.89-4.43,11.58-2.76,3.92-13.75,13.19-26.42,19.72L112,192Z" fill="#231f20"/>
          <path d="M141.21,156.82a3.09,3.09,0,0,1,1.69.44c3.41,2.14-.25,7.82-2.65,11.23S127.12,181,114.88,187.3c0,0-.13-11.87-6.31-17,0,0,13.5-3.66,17.92-6.19,3.81-2.17,10.7-7.25,14.72-7.25m0-5.77h0c-4.42,0-9.12,2.73-14.79,6.3-1,.65-2,1.27-2.79,1.7-2.75,1.57-11.63,4.29-16.58,5.63l-10.69,2.9,8.5,7.11c3.34,2.8,4.2,10.29,4.24,12.69l.15,9.3,8.28-4.25c12-6.16,24.07-15.81,27.45-20.61,3.1-4.41,5.84-9.14,4.9-13.82a8.54,8.54,0,0,0-3.9-5.63,8.77,8.77,0,0,0-4.77-1.32Z" fill="#231f20"/>
        </g>
        <g>
          <g>
            <path d="M188.53,186.08c-3.63,0-6.43-4.49-7.73-8.34-2-5.9-1.05-10.81,2.27-11.93a4.11,4.11,0,0,1,1.3-.21c3.64,0,6.44,4.49,7.73,8.34a17.36,17.36,0,0,1,1,6.74c-.29,3.66-2.16,4.82-3.25,5.19A4.07,4.07,0,0,1,188.53,186.08Z" fill="#fcee21"/>
            <path d="M184.37,168.09c1.77,0,4.07,2.78,5.37,6.65,1.42,4.23,1.11,8.15-.71,8.77a1.68,1.68,0,0,1-.5.07c-1.77,0-4.06-2.78-5.36-6.63-1.43-4.24-1.11-8.16.7-8.78a1.69,1.69,0,0,1,.5-.08m0-5h0a6.73,6.73,0,0,0-2.09.34c-4.72,1.59-6.3,7.8-3.84,15.09,1.63,4.86,5.14,10,10.09,10a6.67,6.67,0,0,0,2.09-.33c1.35-.46,4.53-2.08,4.95-7.36a20,20,0,0,0-1.1-7.74c-1.64-4.85-5.15-10-10.1-10Z" fill="#231f20"/>
          </g>
          <g>
            <g>
              <g>
                <path d="M136.69,194.42a8.91,8.91,0,0,1-5.94-2.21L129.4,191l.36-1.77a186.57,186.57,0,0,1,8.3-27.11l5.18-13.35,3.39,4.87a33.8,33.8,0,0,1,5.86,23.69c-.88,6.2-3.67,11.34-7.65,14.11A14.52,14.52,0,0,1,136.69,194.42Z" fill="#3da448"/>
                <path d="M144,155.44a30.7,30.7,0,0,1,5.33,21.45c-.76,5.33-3.06,9.69-6.33,12a11.31,11.31,0,0,1-6.35,2.41,5.66,5.66,0,0,1-3.84-1.4A181.7,181.7,0,0,1,141,163.23l3-7.79m-1.59-13.34-4.29,11.05-3,7.8,0,0v0a189,189,0,0,0-8.44,27.59l-.72,3.55,2.7,2.41a12,12,0,0,0,8,3,17.54,17.54,0,0,0,9.95-3.54c4.7-3.27,8-9.19,9-16.25a37,37,0,0,0-6.39-25.94l-6.77-9.74Z" fill="#231f20"/>
              </g>
              <g>
                <path d="M156.29,229.86c-7.4,0-14.16-2.33-18.57-6.39-8.29-7.65-10.8-16.4-8.69-30.18l.68-4.44,3.95,2.15a6.41,6.41,0,0,0,3.1.79,11.88,11.88,0,0,0,6.58-2.51c3.39-2.35,5.77-6.84,6.55-12.31a31.37,31.37,0,0,0-6.74-23.6L142,152l1.64-4.23,16.48-4.58,1.05.47c.81.37,19.86,9.22,26.07,29.78,1.37,2.7,9.94,21-.39,39.13C179.57,225.3,166.29,229.86,156.29,229.86Z" fill="#425ea9"/>
                <path d="M159.87,146.48s18.67,8.47,24.44,28.1c0,0,10,18.48-.19,36.37-6.22,10.93-17.62,15.76-27.83,15.76-6.51,0-12.53-2-16.43-5.56-6.5-6-9.91-13.06-7.71-27.38a9.57,9.57,0,0,0,4.61,1.17c2.29,0,5.09-.78,8.38-3.07,4.11-2.85,7-8.12,7.87-14.46a34.6,34.6,0,0,0-7.4-26l.41-1.06,13.85-3.85m.52-6.68-2.2.61-13.86,3.85-3,.84-1.15,3-.41,1.06-1.32,3.4,2.28,2.84a28.18,28.18,0,0,1,6.08,21.18c-.65,4.54-2.6,8.34-5.23,10.17a9.11,9.11,0,0,1-4.78,1.94,3.22,3.22,0,0,1-1.59-.41l-7.89-4.3-1.36,8.88c-2.27,14.76.62,24.63,9.66,33,5,4.6,12.53,7.24,20.71,7.24a38.22,38.22,0,0,0,33.31-18.94c10.79-19,2.45-38.06.59-41.85-6.69-21.74-26.85-31.1-27.71-31.49l-2.09-.94Z" fill="#231f20"/>
              </g>
            </g>
            <g>
              <path d="M149.37,176.89c-.76,5.33-3.06,9.69-6.33,12-5.67,4-8.95,2.12-10.19,1A181.7,181.7,0,0,1,141,163.23l3-7.79A30.7,30.7,0,0,1,149.37,176.89Z" fill="#3da448"/>
              <path d="M136.76,194.94c2.29,0,5.09-.78,8.38-3.07,4.11-2.85,7-8.12,7.87-14.46a34.6,34.6,0,0,0-7.4-26l.41-1.06,13.85-3.85s18.67,8.47,24.44,28.1c0,0,10,18.48-.19,36.37s-34.25,19.44-44.26,10.2c-6.5-6-9.91-13.06-7.71-27.38A9.57,9.57,0,0,0,136.76,194.94Z" fill="#425ea9"/>
            </g>
            <g>
              <path d="M164.58,168.92a1.17,1.17,0,0,1-1.06-.66c-6-12.32-10.06-14.74-10.11-14.76a1.21,1.21,0,0,1-.6-1.12,1.18,1.18,0,0,1,.74-1l5.63-2.19a1,1,0,0,1,.43-.09,1.55,1.55,0,0,1,.29,0c7.34,1.88,15,15.62,15.3,16.2a1.21,1.21,0,0,1,0,1.08,1.18,1.18,0,0,1-.85.65l-9.59,1.84Z" fill="#3da448"/>
              <path d="M159.61,150.28c6.92,1.77,14.56,15.62,14.56,15.62l-9.59,1.84c-6.34-13-10.6-15.27-10.6-15.27l5.63-2.19m0-2.37a2.1,2.1,0,0,0-.86.17l-5.62,2.18a2.38,2.38,0,0,0-1.57,2.11,2.25,2.25,0,0,0,1.29,2.17c.37.25,4.14,3,9.6,14.23a2.36,2.36,0,0,0,2.13,1.33,2.18,2.18,0,0,0,.44,0l9.59-1.84a2.36,2.36,0,0,0,1.63-3.46c-.84-1.51-8.35-14.8-16.05-16.77a2.32,2.32,0,0,0-.58-.08Z" fill="#231f20"/>
            </g>
            <g>
              <g>
                <path d="M163.78,191.64c-4.79,0-8.7-4.25-8.7-9.47s3.91-9.47,8.7-9.47,8.7,4.25,8.7,9.47S168.58,191.64,163.78,191.64Z" fill="#fcee21"/>
                <path d="M163.78,173.75c4.23,0,7.65,3.77,7.65,8.42s-3.42,8.42-7.65,8.42-7.64-3.78-7.64-8.42,3.42-8.42,7.64-8.42m0-2.1c-5.37,0-9.75,4.72-9.75,10.52s4.38,10.52,9.75,10.52,9.75-4.72,9.75-10.52-4.37-10.52-9.75-10.52Z" fill="#231f20"/>
              </g>
              <g>
                <path d="M188.53,184.77c-2.75,0-5.24-3.74-6.48-7.45-1.47-4.36-1.45-9.29,1.45-10.27a2.78,2.78,0,0,1,.87-.14c2.75,0,5.24,3.74,6.49,7.45a16,16,0,0,1,.91,6.21c-.23,2.92-1.58,3.79-2.36,4.06A2.89,2.89,0,0,1,188.53,184.77Z" fill="#fcee21"/>
                <path d="M184.37,168.09c1.77,0,4.07,2.78,5.37,6.65,1.42,4.23,1.11,8.15-.71,8.77a1.68,1.68,0,0,1-.5.07c-1.77,0-4.06-2.78-5.36-6.63-1.43-4.24-1.11-8.16.7-8.78a1.69,1.69,0,0,1,.5-.08m0-2.36h0a4,4,0,0,0-1.25.2c-3.26,1.1-4.16,5.94-2.19,11.77,1.28,3.8,4,8.25,7.6,8.25a3.87,3.87,0,0,0,1.26-.21c1.05-.35,2.88-1.48,3.16-5.07a17.29,17.29,0,0,0-1-6.69c-1.28-3.8-4-8.25-7.61-8.25Z" fill="#231f20"/>
              </g>
            </g>
          </g>
        </g>
        <g>
          <path d="M113.56,187.32c0-.12-.19-11.33-5.84-16l-1.93-1.62,2.43-.66c.14,0,13.4-3.64,17.62-6.06.85-.48,1.86-1.12,2.95-1.8,4-2.51,8.93-5.62,12.42-5.62a4.42,4.42,0,0,1,2.39.64,4.15,4.15,0,0,1,1.91,2.73c.6,3-1.78,7-4.18,10.37-2.72,3.86-13.87,13-25.85,19.22l-1.89,1Z" fill="#231f20"/>
          <path d="M141.21,156.82a3.09,3.09,0,0,1,1.69.44c3.41,2.14-.25,7.82-2.65,11.23S127.12,181,114.88,187.3c0,0-.13-11.87-6.31-17,0,0,13.5-3.66,17.92-6.19,3.81-2.17,10.7-7.25,14.72-7.25m0-2.62h0c-3.87,0-8.78,3.09-13.12,5.81-1.07.68-2.09,1.31-2.9,1.78-3.38,1.93-13.64,4.94-17.31,5.93L103,169l3.86,3.23c4.29,3.59,5.33,12.09,5.37,15.06l.06,4.25,3.77-1.94C128.24,183.37,139.6,174,142.4,170c2.57-3.65,5.1-7.85,4.39-11.38A5.41,5.41,0,0,0,144.3,155a5.74,5.74,0,0,0-3.09-.83Z" fill="#231f20"/>
        </g>
        <g>
          <g>
            <g>
              <path d="M80.22,218.66a5.47,5.47,0,0,1-2.35-.55c-5-2.4-6.6-7.55-4.15-13.12a17.22,17.22,0,0,1,3.93-5.21c.26-.25.57-.56.85-.86-1.73-.42-4.54-.8-6.58-1.08a61.76,61.76,0,0,1-9.31-1.72c-7.78-2.45-12.2-6.91-11.83-11.93A7.33,7.33,0,0,1,53.32,179c-2.11-2.94-2.71-6.75-1.15-9.55A7.23,7.23,0,0,1,57.53,166a6.75,6.75,0,0,1,6.59-5.78,5.23,5.23,0,0,1,1.28.14l1.74.46a5.86,5.86,0,0,1,4.42-2,9.71,9.71,0,0,1,5,1.68c2.26,1.39,11,5.88,14.85,6.13a14.48,14.48,0,0,1,4.36,1l.7-.39A9.32,9.32,0,0,1,101.1,166c2.92,0,5.72,1.51,8.1,4.36,4,4.82,6.42,13.1,5.42,18.46-1.42,7.56-6.58,8.16-8.13,8.16a6.92,6.92,0,0,1-1.64-.19l-.79-.21c-3.32,4.67-7.9,7.8-10.89,9.84a21.68,21.68,0,0,0-2.5,1.84,24.52,24.52,0,0,0-1.77,2.67c-2.1,3.45-4.72,7.75-8.68,7.75Z" fill="#fff"/>
              <path d="M71.56,161.42a7.5,7.5,0,0,1,3.66,1.29c2,1.21,11.36,6.21,16.06,6.52s8.94,4.09,8.94,4.09a7,7,0,0,0-2.42-3.79,6.69,6.69,0,0,1,3.3-.93c7.21,0,12.13,13.38,10.94,19.72-1,5.29-4,6-5.55,6a4.19,4.19,0,0,1-1-.1c.91-3.64,0-8.64,0-8.64C104.31,198.32,91,203.92,88.7,206.5c-2,2.31-4.94,9.53-8.48,9.53a2.75,2.75,0,0,1-1.21-.29c-4.09-2-4.55-5.91-2.88-9.7s5.76-5.6,5.76-8-12.73-2.57-18.49-4.39-10.3-5.15-10-9.24,4.4-4.7,4.4-4.7c-3.19-2-4.85-6.21-3.34-8.94,1.14-2,3.64-2.3,4.82-2.3a5.94,5.94,0,0,1,.64,0c0-4.67,2.67-5.68,4.2-5.68a3,3,0,0,1,.65.07l3.48.91a3.61,3.61,0,0,1,3.31-2.35m0-5.25h0a8.34,8.34,0,0,0-5.12,1.7l-.4-.1a8,8,0,0,0-1.92-.23,9.18,9.18,0,0,0-6.34,2.57,9.73,9.73,0,0,0-2.33,3.64,9.51,9.51,0,0,0-5.58,4.44,11.29,11.29,0,0,0,.18,10.52A10.18,10.18,0,0,0,48.16,184c-.47,6.32,4.64,11.79,13.66,14.64a65,65,0,0,0,9.74,1.82l1.72.23a15.48,15.48,0,0,0-2,3.25c-3,6.88-.85,13.53,5.41,16.54a7.93,7.93,0,0,0,3.49.81c5.44,0,8.61-5.2,10.93-9,.47-.79,1.12-1.84,1.44-2.24s1.29-.94,2.06-1.47a47.06,47.06,0,0,0,10.51-9.08,9.93,9.93,0,0,0,1.33.09c4.24,0,9.29-2.7,10.71-10.3,1.15-6.13-1.48-15.18-6-20.61-3.65-4.4-7.52-5.32-10.12-5.32a11.84,11.84,0,0,0-5.52,1.4,17,17,0,0,0-4-.77c-3-.18-11-4.13-13.65-5.74a12.2,12.2,0,0,0-6.41-2.07Z" fill="#231f20"/>
            </g>
            <path d="M105.52,185.59s.91,5,0,8.64c0,0,5.15,1.36,6.52-5.91s-5.31-23.79-14.24-18.79a7,7,0,0,1,2.42,3.79s-4.24-3.79-8.94-4.09-14.09-5.31-16.06-6.52-5.15-2.57-7,1.06l-3.48-.91c-1.22-.3-4.85.16-4.85,5.61,0,0-3.94-.45-5.46,2.27s.15,7,3.34,8.94c0,0-4.1.61-4.4,4.7s4.24,7.42,10,9.24,18.49,2,18.49,4.39-4.1,4.25-5.76,8-1.21,7.73,2.88,9.7,7.42-6.67,9.69-9.24S104.31,198.32,105.52,185.59Z" fill="#fff"/>
            <g>
              <path d="M77,170a.66.66,0,0,0,.58-.36.65.65,0,0,0-.28-.88,53.42,53.42,0,0,1-7.17-4.63,26.87,26.87,0,0,0-6.1-3.62c-.36-.16-.64-.28-.79-.37a.65.65,0,0,0-.9.23.66.66,0,0,0,.23.9,9.6,9.6,0,0,0,.93.44,25.46,25.46,0,0,1,5.82,3.45A53,53,0,0,0,76.74,170a.61.61,0,0,0,.3.08Z" fill="#231f20"/>
              <path d="M75.07,175.79a.65.65,0,0,0,.65-.59.66.66,0,0,0-.59-.72c-.08,0-5.23-.59-16.53-7.78a.66.66,0,0,0-.9.2.65.65,0,0,0,.2.91c11.67,7.43,16.89,8,17.11,8Z" fill="#231f20"/>
              <path d="M72.64,184.28a.66.66,0,0,0,.12-1.3A94.19,94.19,0,0,1,61,180a75.08,75.08,0,0,1-7.8-3.15.66.66,0,0,0-.88.3.66.66,0,0,0,.29.88,79.91,79.91,0,0,0,8,3.21,93.52,93.52,0,0,0,11.92,3.06Z" fill="#231f20"/>
            </g>
            <path d="M58.88,164.92s1.67,3.16,8.06,7.35l-10.16-5.86Z" fill="#231f20"/>
            <path d="M53.37,171.58s-1.84,3.5,5.25,7.88L50,176.31Z" fill="#231f20"/>
            <path d="M52.84,183.92s.79-4.73,8-3.24l-8.41-3.15Z" fill="#231f20"/>
            <path d="M63,170.09s-5.08-3.15-8.41.09l-.7-3.16,3.51-1.49Z" fill="#231f20"/>
            <path d="M71,165.53s-2.89-3.06-2.63-3.94l-1.84.79Z" fill="#231f20"/>
            <path d="M60.9,163.79s3.24-2.63,8.84,1.48l-6.48-5.78Z" fill="#231f20"/>
          </g>
          <g>
            <path d="M90.49,174.31c.3-.5-1.73-1.25-3.27-1.93s-5-2.31-5.77-.19,4.23,2.41,5.87,2.5S89.91,175.27,90.49,174.31Z" fill="#231f20"/>
            <path d="M91.79,182.4c.17-.65-2.32-.82-4.24-1.06s-6.29-.91-6.44,1.68,5.46,1.27,7.3.85S91.47,183.65,91.79,182.4Z" fill="#231f20"/>
          </g>
        </g>
        <path d="M114.88,187.3s-.13-11.87-6.31-17c0,0,13.5-3.66,17.92-6.19s13-9,16.41-6.81-.25,7.82-2.65,11.23S127.12,181,114.88,187.3Z" fill="#3da448"/>
      </g>
      <g>
        <g>
          <path d="M208.48,106.65a20.15,20.15,0,0,1-2-.11c-5.56-.59-12.45-4.4-12.74-4.56l-.39-.21L184.61,82l.19-8.85-5.34-7.47,8.83-5.58.45,0c3.81.38,5.64,3.55,6.52,6.33-1.22-4.84-3.12-5.65-3.14-5.66l-1.44-.42.67-1.35.37-.85L191,52.32l0-.17c.68-5.29,3.63-8.45,7.88-8.45a10.07,10.07,0,0,1,2.7.39c3.59,1,5.67,4.95,6.21,11.82.13-1.1.25-2.14.34-3,.18-1.7.33-3,.48-3.87.45-2.34,2.8-5.79,6.44-5.79a8,8,0,0,1,5.34,2.45c4.08,3.78,3,10.33,1.33,14.93a21.85,21.85,0,0,0,1.65-3.22c1.3-3.91,3.53-4.72,5.17-4.72A7,7,0,0,1,232.26,54a6.44,6.44,0,0,1,2.92,4.88c.35,3-.82,6.54-2.55,9.42.16-.14.29-.28.41-.38a5.85,5.85,0,0,1,3.71-1.22c3.16,0,5.34,2.13,5.83,5.7.86,6.3-8.67,10.7-12.74,12.57l-.74.35a2.86,2.86,0,0,0-1.54,1.59,21.56,21.56,0,0,1-5.25,6.1,18,18,0,0,1-6.1,3.47l.41,0,.25,1c.63,2.61.31,4.75-1,6.37C214.45,105.68,211.88,106.65,208.48,106.65Z" fill="#fff"/>
          <path d="M215,44.57a6.64,6.64,0,0,1,4.44,2.1c5.26,4.86.53,15.5-1.05,18-1.25,2-3,4-2.28,4a3.08,3.08,0,0,0,1.1-.42c2.76-1.45,6.83-8.8,7.36-10.38C225,56.65,226,54,228.52,54a5.71,5.71,0,0,1,3,1.07c4.73,3,1.57,11.55-2.5,15.76-3.21,3.32-6.59,4.59-5.87,4.59a15.19,15.19,0,0,0,1.54-.26c4.07-.79,7.88-5.12,9.19-6.3a4.5,4.5,0,0,1,2.83-.89c1.9,0,4,1,4.53,4.57.78,5.77-10,10.24-12.74,11.55s-1,2.63-7.1,7.88a17.68,17.68,0,0,1-11.68,4.17,15.66,15.66,0,0,1-3.55-.36,5.47,5.47,0,0,0-1.25-.17c-.91,0-1.32.37-.08,1.2s6.66,1,9.27,1h1.45c1.34,5.57-2.51,7.57-7.12,7.57-.62,0-1.25,0-1.88-.1-5.36-.58-12.25-4.41-12.25-4.41L185.93,81.7l.19-9L181.34,66l7.27-4.59c5.74.58,6.13,9.38,6.13,9.38a10.44,10.44,0,0,1,1.36-.08c6,0,10.5,4.48,10.5,4.48-3.47-6.35-8.27-6.73-9.36-6.73H197c-1.31-8-4.46-8.93-4.46-8.93l.52-1.18-.78-6c.55-4.29,2.76-7.3,6.57-7.3a8.65,8.65,0,0,1,2.36.35c5.25,1.44,5.38,11.16,5.38,14.44,0,2.58-.73,5.25-.21,5.25.14,0,.37-.2.74-.65,1.71-2.1,2.23-12.35,2.76-15.1.36-1.9,2.27-4.73,5.14-4.73m0-2.63h0c-4.13,0-6.8,3.49-7.58,6.27-1.23-2.9-3.07-4.71-5.54-5.39a11.5,11.5,0,0,0-3-.43c-4.9,0-8.42,3.67-9.18,9.59l0,.34,0,.33.69,5.32-.22.5-.22.5a8.69,8.69,0,0,0-1.06-.17l-.9-.09-.76.48-7.27,4.59-2.35,1.49,1.61,2.26,4.28,6-.17,8.12,0,.58.24.54L192,101.89l.35.81.78.43c.3.17,7.42,4.1,13.24,4.72.73.07,1.46.12,2.16.12,3.82,0,6.74-1.15,8.45-3.33,1.06-1.34,2.13-3.73,1.22-7.49v0a19.39,19.39,0,0,0,5-3.15,22.4,22.4,0,0,0,5.52-6.44c.47-.8.48-.82,1-1.06l.73-.33c4.33-2,14.48-6.68,13.49-14-.69-5-4.13-6.83-7.13-6.83a9.51,9.51,0,0,0-1.31.1,14.7,14.7,0,0,0,1-6.76A7.74,7.74,0,0,0,233,52.86a8.32,8.32,0,0,0-4.45-1.48,5.83,5.83,0,0,0-4,1.59,10.81,10.81,0,0,0-3.25-8.23,9.19,9.19,0,0,0-6.23-2.8Z" fill="#231f20"/>
        </g>
        <path d="M206.6,75.19s-5.17-5.16-11.86-4.4c0,0-.39-8.8-6.13-9.38L181.34,66l4.78,6.7-.19,9,8.42,19.13s6.89,3.83,12.25,4.41,10.52-1.15,9-7.47c0,0-9,.19-10.72-1s-.25-1.43,1.33-1,9.19,1.45,15.23-3.81,4.34-6.57,7.1-7.88,13.52-5.78,12.74-11.55-6.05-4.87-7.36-3.68-5.12,5.51-9.19,6.3.26-.13,4.33-4.33,7.23-12.74,2.5-15.76-6.44,1.18-7,2.75-4.6,8.93-7.36,10.38-.39-1,1.18-3.55,6.31-13.13,1.05-18-9.06-.13-9.58,2.63-1,13-2.76,15.1-.53-1.31-.53-4.6-.13-13-5.38-14.44-8.28,1.84-8.93,7l.78,6-.52,1.18s3.15.92,4.46,8.93C197,68.47,202.66,68,206.6,75.19Z" fill="#fff"/>
      </g>
    </g>
    <g>
      <g>
        <g>
          <path d="M159,61.13s8.65,12.08,10.77,19.26c0,0-8.16,5.87-8,11.75,0,0,4.57-8.81,13.87-11.42s19.26,3.42,19.26,12.89-9.46,20.08-27.58,16.32l.21.45s-9.41.89-15.42-.9-9.41-3.15-10.72,3S143,129,157.87,128.89l12-3.94s2.23-2,3.54-3.15c0,0,3,1.09,3.55,1.18a33.63,33.63,0,0,1-3.94,9.63,54.3,54.3,0,0,1-6.31,9c-.79,1.05-2.54,3.24-2.36,5.87,0,0-11,2.71-17.6,1.05,0,0-5.25-16.11-19.09-22.33,0,0-2.28,5.95-11.82,6s-14.89-7.44-16.46-13.57,1.14-16.29,17.51-14.71l-6.13-18.92Z" fill="#231f20"/>
          <path d="M151.87,153a25.18,25.18,0,0,1-6.13-.66l-2.1-.54-.68-2.06c0-.13-4.16-12.29-14.14-18.46-2.45,2.49-6.62,4.83-13,4.89h-.21c-10.95,0-18-8.3-20.11-16.53a15.69,15.69,0,0,1,2.58-13.45c2.05-2.65,6-5.75,13.3-6.27L105.93,83l54.31-26.93,1.95,2.73c.34.47,7.8,10.93,10.73,18.61.53-.19,1.08-.37,1.65-.53a20.45,20.45,0,0,1,5.5-.76c10.52,0,18.76,7.67,18.76,17.45,0,10.2-8.53,21-24.35,21a37.8,37.8,0,0,1-5.62-.44l-1,.09c-.1,0-2.57.24-5.83.24A39.88,39.88,0,0,1,151,113.26l-.92-.27a23.45,23.45,0,0,0-4.4-1.07,6.16,6.16,0,0,0-.43,1.36,9.69,9.69,0,0,0,1.8,7.79c2,2.51,5.47,3.81,10.21,3.88l10.58-3.49,2.92-2.59,1.75-1.58,2.22.8c1.12.41,2.53.89,3,1l3.8.63-.69,3.93a37.22,37.22,0,0,1-4.4,10.89,55.47,55.47,0,0,1-6.07,8.82c-.21.25-.38.45-.5.61l-.12.16c-.54.71-1.54,2-1.47,3.08l.22,3.3-3.21.79A64,64,0,0,1,151.87,153Zm-2.29-8c.7.07,1.46.11,2.29.11a51.77,51.77,0,0,0,8.93-.94,15.41,15.41,0,0,1,2.62-4.81l.1-.14c.19-.25.44-.55.76-.94a45.78,45.78,0,0,0,5.27-7.66c.36-.62.68-1.22,1-1.79l-12,3.95h-.92c-9.25,0-14.18-3.7-16.69-6.81a17.57,17.57,0,0,1-3.38-14.38c1.34-6.29,5.11-7.61,8-7.61a24.83,24.83,0,0,1,6.77,1.41l.89.27a25.36,25.36,0,0,0,5,.82l-.4-14.28c-.15-5.55,4.34-10.5,7.28-13.14a94.74,94.74,0,0,0-7.42-12.93l-42.16,20.9,6.93,21.4-6-.58c-1-.1-2-.15-2.88-.15-3.06,0-7.15.57-9.26,3.29a8,8,0,0,0-1.18,6.67c.28,1.08,3,10.61,12.48,10.61h.13c6.57-.06,8.17-3.47,8.18-3.51l1.49-3.9,3.81,1.71C141.36,128.07,147.47,140,149.58,145Zm10.87-40.56,7.66,1.59a31.53,31.53,0,0,0,6.37.69c10.7,0,16.47-6.78,16.47-13.15,0-6-5.53-9.56-10.88-9.56a12.4,12.4,0,0,0-3.37.46c-7.45,2.09-11.4,9.37-11.44,9.44l-6.54,12.61c.86.06,1.78.09,2.73.1Z" fill="#231f20"/>
        </g>
        <g>
          <path d="M125.73,112.21a10.09,10.09,0,0,1-3.1-.46c-3.38-1.1-8.58-5.4-9.59-6.25l-1.9-1.6,5.25-20.07,4.9,6.16c1.85,2.32,2.83,2.93,3.43,3.1l.14-.12a6.61,6.61,0,0,1,4.58-2.1,7.72,7.72,0,0,1,5.64,2.51c1.91,2.07,2.72,5,2.42,8.77C137,108.75,131.18,112.21,125.73,112.21Z" fill="#231f20"/>
          <path d="M118.21,92.44C121,96,122.87,97,125,97.1h.17c2,0,2.7-2.3,4.3-2.3s4.59,1.31,4.13,7c-.37,4.66-4.72,6.44-7.84,6.44a6.12,6.12,0,0,1-1.87-.26c-2.83-.92-8.28-5.52-8.28-5.52l2.63-10m-3.64-17.22-4,15.23-2.62,10-1.26,4.81,3.8,3.2c2,1.68,7,5.73,10.92,7a13.9,13.9,0,0,0,4.31.65c9.59,0,15.15-6.88,15.7-13.69.49-6.09-1.61-9.75-3.46-11.76a11.66,11.66,0,0,0-8.53-3.77,9.48,9.48,0,0,0-4.6,1.17l-.47-.57-9.8-12.31Z" fill="#231f20"/>
        </g>
        <g>
          <path d="M191,110s.7,4.84-3.13,7.19S179,122,173,117.73c0,0-7,8.12-14.93,8.2s-12.66-4.61-13.67-9.69,2.19-5.31,4.22-4.45,9.77,2.42,21.26-.16C169.87,111.63,179,116.4,191,110Z" fill="#231f20"/>
          <path d="M157.87,129.87c-10.21,0-16.07-6.45-17.35-12.85-.61-3.06-.18-5.5,1.27-7.27a6.34,6.34,0,0,1,5-2.29,8.49,8.49,0,0,1,3.32.7,24.28,24.28,0,0,0,7.64,1A51.86,51.86,0,0,0,169,107.79l1.41-.32,1.28.67h0a16.53,16.53,0,0,0,6.63,1.25h0a22.68,22.68,0,0,0,10.79-2.88l4.95-2.65.81,5.56c.4,2.76-.2,8.2-5,11.12-2.77,1.7-6.16,3.43-10.22,3.43a14.42,14.42,0,0,1-6-1.33c-3.08,2.82-8.9,7.17-15.56,7.23Zm-9.53-14c.77,2.92,3.66,6.13,9.53,6.13H158c4.56,0,9.38-4.09,11.45-6.24A58.88,58.88,0,0,1,157.78,117,34.85,34.85,0,0,1,148.34,115.86Z" fill="#231f20"/>
        </g>
        <g>
          <path d="M97.78,110.28l-.56-.6c-5.11-5.36-10.39-10.9-9.6-19.76.76-8.55,9.85-13.81,12.27-15.07.8-13.2,6.94-30,15.86-41.51,6.71-8.68,14.14-13.26,21.48-13.26.31,0,.62,0,.93,0,18.2,1,25.72,19.46,27.16,29.09l.56,3.78-3.75.68c-6.71,1.23-19.82,5.42-32.29,19.65-10.29,11.74-13.1,29.22-13.12,29.4l-.62,4-4-.71a14.94,14.94,0,0,0-2.47-.23c-4.13,0-5.08,2.39-5.22,2.87L103,116.15Z" fill="#231f20"/>
          <path d="M137.23,24H138c19.79,1,23.47,25.75,23.47,25.75C150.91,51.7,138,58,126.88,70.71s-14.06,31.38-14.06,31.38a18.63,18.63,0,0,0-3.16-.29c-7.59,0-9,5.76-9,5.76-5-5.25-9.75-9.93-9.09-17.29s10.52-12.11,10.52-12.11.6,4.49,1,5.67a1.06,1.06,0,0,0,1.08.86,1.32,1.32,0,0,0,.4-.06C99.66,65.94,117.72,24,137.23,24m0-7.89c-8.6,0-17.11,5.12-24.6,14.8C104.56,41.35,97.46,58,96.07,72.5c-4.13,2.55-11.59,8.32-12.37,17.07-1,10.63,5.49,17.4,10.67,22.83l.56.59,9.9,10.43L108.17,110a2.87,2.87,0,0,1,1.49-.27,10.22,10.22,0,0,1,1.79.18l7.93,1.4,1.23-8c0-.15,2.73-16.61,12.19-27.4,11.69-13.34,23.84-17.23,30-18.37l7.5-1.38-1.13-7.53c-1.59-10.74-10.1-31.35-30.84-32.46q-.57,0-1.14,0Z" fill="#231f20"/>
        </g>
        <g>
          <g>
            <path d="M144.91,65.61A18.29,18.29,0,0,1,129,55.42,18.71,18.71,0,0,1,127.46,42a16,16,0,0,1,8.17-10.28A15.51,15.51,0,0,1,142.78,30a18.28,18.28,0,0,1,15.94,10.18c4.53,8.86,1.55,19.48-6.65,23.68a15.56,15.56,0,0,1-7.16,1.72Z" fill="#231f20"/>
            <path d="M142.78,34a14.26,14.26,0,0,1,12.43,8c3.55,6.94,1.34,15.17-4.94,18.38a11.72,11.72,0,0,1-5.36,1.29,14.27,14.27,0,0,1-12.43-8c-3.55-6.94-1.34-15.17,4.94-18.38A11.72,11.72,0,0,1,142.78,34m0-7.87a19.43,19.43,0,0,0-8.95,2.15A19.89,19.89,0,0,0,123.65,41a22.68,22.68,0,0,0,1.81,16.23,22.27,22.27,0,0,0,19.45,12.32,19.52,19.52,0,0,0,9-2.14c10.14-5.19,13.89-18.19,8.37-29a22.29,22.29,0,0,0-19.45-12.32Z" fill="#231f20"/>
          </g>
          <g>
            <polygon points="146.24 35.89 153.3 50.62 141.05 56.21 138.49 51.24 146.48 48.53 140.82 38.29 146.24 35.89" fill="#231f20"/>
            <polygon points="139.27 61.35 132.89 48.98 140.75 46.31 135.28 36.44 148.15 30.74 158.59 52.54 139.27 61.35" fill="#231f20"/>
          </g>
        </g>
        <g>
          <path d="M117.18,84.08c9-22.5,33.14-34.72,47.37-36.21a74.31,74.31,0,0,1,7.55-.43c9.25,0,13.48,2.31,16,3.69l.16.09c3.32,1.81,3.34,4.19,3.06,5.45-.83,3.67-5.08,3.91-7.62,4-2,.12-5.06.77-15.5,3.92-10.75,3.23-25.47,12.54-32,17.81-8.13,6.53-14.46,7-15.16,7l-6.13.29Z" fill="#231f20"/>
          <path d="M172.1,51.38c8.45,0,12,2,14.27,3.3,2.89,1.58-.52,2-2.88,2.1s-5.52.79-16.42,4.07-26,12.61-33.36,18.52-12.88,6.18-12.88,6.18c8.28-20.63,30.34-32.32,44.14-33.76a69.89,69.89,0,0,1,7.13-.41m0-7.87a79.29,79.29,0,0,0-8,.44c-17.76,1.86-41.54,16-50.62,38.66L109,94l12.26-.58c1.35-.07,8.53-.75,17.43-7.91,6.57-5.27,20.89-14.15,30.7-17.11s13-3.66,14.58-3.75c2.67-.15,9.76-.54,11.24-7.11.24-1,1.1-6.44-5-9.78l-.16-.09c-2.67-1.45-7.63-4.16-17.89-4.16Z" fill="#231f20"/>
        </g>
        <g>
          <g>
            <g>
              <path d="M163,139.83c-5.47,0-6.79-7.35-7.35-10.5a4,4,0,0,1,3-4.55c2.62-.56,7-1.84,8.5-2.93a3.94,3.94,0,0,1,6.09,4.26c-.32,1.14-2,7-4.17,9.77C168.06,137.26,166.08,139.83,163,139.83Z" fill="#231f20"/>
              <path d="M169.5,125.05s-1.71,6.1-3.5,8.43c-.85,1.1-1.91,2.41-3,2.41s-2.48-1.68-3.48-7.25c0,0,7.09-1.53,10-3.59m0-7.88a7.88,7.88,0,0,0-4.59,1.47,31.36,31.36,0,0,1-7,2.29,7.88,7.88,0,0,0-6.1,9.1c.61,3.4,2.46,13.74,11.23,13.74,5,0,8-3.84,9.23-5.48,2.46-3.2,4.21-8.84,4.85-11.12a7.88,7.88,0,0,0-7.59-10Z" fill="#231f20"/>
            </g>
            <g>
              <path d="M166.16,137.2a3.77,3.77,0,0,1-.94-.11,3.93,3.93,0,0,1-3-3.31,5.12,5.12,0,0,0-1.36-3.14,3.93,3.93,0,0,1,1.4-6.79,17.94,17.94,0,0,0,4.91-2,3.94,3.94,0,0,1,6.09,4.26c-.3,1.07-1.89,6.54-3.91,9.41A3.93,3.93,0,0,1,166.16,137.2Z" fill="#231f20"/>
              <path d="M169.5,125.05s-1.61,5.74-3.34,8.21a9,9,0,0,0-2.74-5.64,22.71,22.71,0,0,0,6.08-2.57m0-7.88a7.91,7.91,0,0,0-4.58,1.46,16.84,16.84,0,0,1-3.76,1.44,7.89,7.89,0,0,0-3,13.38,2.74,2.74,0,0,1,.22.85,7.89,7.89,0,0,0,5.95,6.62,7.84,7.84,0,0,0,8.32-3.13c2.33-3.32,4-9,4.48-10.62a7.88,7.88,0,0,0-7.59-10Z" fill="#231f20"/>
            </g>
          </g>
          <g>
            <g>
              <path d="M169.5,125.05s-1.71,6.1-3.5,8.43-4.58,5.65-6.47-4.84C159.53,128.64,166.62,127.11,169.5,125.05Z" fill="#231f20"/>
              <path d="M163,139.83c-5.47,0-6.79-7.35-7.35-10.5l-.67-3.74,3.71-.81c2.62-.56,7-1.84,8.5-2.93l9.11-6.55-3,10.81c-.32,1.14-2,7-4.17,9.77C168.06,137.26,166.08,139.83,163,139.83Z" fill="#231f20"/>
            </g>
            <g>
              <path d="M163.42,127.62a22.71,22.71,0,0,0,6.08-2.57s-1.61,5.74-3.34,8.21A9,9,0,0,0,163.42,127.62Z" fill="#231f20"/>
              <path d="M163.58,143.79l-1.33-10a5.12,5.12,0,0,0-1.36-3.14l-5.59-4.7,7-2.09a17.94,17.94,0,0,0,4.91-2l9.11-6.54-3,10.8c-.3,1.07-1.89,6.54-3.91,9.41Z" fill="#231f20"/>
            </g>
          </g>
        </g>
        <g>
          <path d="M144.93,88.05c1.58,4.61,4.3,7.86,6.07,7.25s1.94-4.84.37-9.46-4.3-7.86-6.07-7.25S143.36,83.43,144.93,88.05Z" fill="#231f20"/>
          <path d="M150.56,99.32h0c-4.37,0-7.7-5.17-9.35-10a22,22,0,0,1-1.28-7.66c.18-4.76,2.65-6.3,4.1-6.8a5.35,5.35,0,0,1,1.72-.29c4.38,0,7.71,5.17,9.36,10a22,22,0,0,1,1.28,7.65c-.18,4.76-2.65,6.31-4.1,6.8A5.31,5.31,0,0,1,150.56,99.32Z" fill="#231f20"/>
        </g>
        <g>
          <path d="M162,71.16c1.77-.61,4.49,2.64,6.07,7.25a20.71,20.71,0,0,1,1,4.13,31.8,31.8,0,0,0-4.1,4,17.08,17.08,0,0,1-3.31-6C160.05,76,160.22,71.76,162,71.16Z" fill="#231f20"/>
          <path d="M165.16,92.59l-3.1-3.31a21,21,0,0,1-4.16-7.4,22,22,0,0,1-1.28-7.65c.18-4.76,2.65-6.31,4.1-6.8a5.31,5.31,0,0,1,1.72-.29c4.38,0,7.7,5.16,9.36,10A24.24,24.24,0,0,1,173,82.06l.26,2.13-1.64,1.37a27.78,27.78,0,0,0-3.57,3.5Z" fill="#231f20"/>
        </g>
        <g>
          <path d="M108.47,112.79s5.36-.83,9.37,2.23c0,0-3.89.51-4.46,2.29,0,0,5-2.36,7.65.2s-.13,7.58-6,8.48c0,0,6,1.91,8.41-4.91S114.14,109.22,108.47,112.79Z" fill="#231f20"/>
          <path d="M116.93,130.17h0a10.67,10.67,0,0,1-3.08-.43l.59-7.65a5,5,0,0,0,3.46-1.82h-.22a7.56,7.56,0,0,0-2.64.63l-8.12,3.72,2.54-8-.41,0-2.68-7.24a12.59,12.59,0,0,1,6.68-1.78c5.07,0,10.23,2.44,12.82,6.07a10,10,0,0,1,1.64,3.69l.33.26-.28,0a9.12,9.12,0,0,1-.39,4.64C125.46,127.33,121.72,130.17,116.93,130.17Z" fill="#231f20"/>
        </g>
        <path d="M195,55.91s2.44,10.22-25.39,18l-3.85-8.24Z" fill="#231f20"/>
      </g>
      <g>
        <g>
          <path d="M134.64,145.6a7,7,0,0,1-5-2.11,9.72,9.72,0,0,1-3.6.78,6.53,6.53,0,0,1-3.37-.9,5,5,0,0,1-2.61-3.61c-.35-2.5,1.5-4.5,2.4-5.46a6.77,6.77,0,0,0,1.31-1.91c.09-.61.37-1.7,3.12-3.84l1.56-1.23,1.6,1.17c.91.65,8.87,6.55,11.33,11.77l.9,1.91-1.67,1.29A10.66,10.66,0,0,1,134.64,145.6Z" fill="#492614"/>
          <path d="M128.49,130.61s8.25,6,10.5,10.77a8.18,8.18,0,0,1-4.35,1.59,4.73,4.73,0,0,1-4.27-2.85,8.76,8.76,0,0,1-4.35,1.52,3.89,3.89,0,0,1-2-.53c-2.69-1.61-.8-3.77.36-5a7.89,7.89,0,0,0,2-3.23c.09-.63,2.15-2.25,2.15-2.25m-.12-6.58-3.12,2.44c-2.38,1.87-3.58,3.38-4,5.06a6,6,0,0,1-.74,1c-1.08,1.16-3.6,3.88-3.07,7.62a7.64,7.64,0,0,0,3.86,5.49,9.1,9.1,0,0,0,4.72,1.27,11.31,11.31,0,0,0,3-.43,9.48,9.48,0,0,0,5.59,1.76,13.18,13.18,0,0,0,7.56-2.69l3.34-2.58-1.8-3.81c-2.68-5.69-10.6-11.64-12.16-12.77L128.37,124Z" fill="#231f20"/>
        </g>
        <path d="M159,61.13s8.65,12.08,10.77,19.26c0,0-8.16,5.87-8,11.75,0,0,4.57-8.81,13.87-11.42s19.26,3.42,19.26,12.89-9.46,20.08-27.58,16.32l.21.45s-9.41.89-15.42-.9-9.41-3.15-10.72,3S143,129,157.87,128.89l12-3.94s2.23-2,3.54-3.15c0,0,3,1.09,3.55,1.18a33.63,33.63,0,0,1-3.94,9.63,54.3,54.3,0,0,1-6.31,9c-.79,1.05-2.54,3.24-2.36,5.87,0,0-11,2.71-17.6,1.05,0,0-5.25-16.11-19.09-22.33,0,0-2.28,5.95-11.82,6s-14.89-7.44-16.46-13.57,1.14-16.29,17.51-14.71l-6.13-18.92Z" fill="#fed091"/>
        <g>
          <path d="M125.73,109.45a7.34,7.34,0,0,1-2.24-.32c-3-1-8.1-5.25-8.67-5.74l-.57-.48,3.41-13,1.47,1.84c2.69,3.38,4.26,4.12,5.92,4.22h0c.64,0,1-.35,1.68-.93a4,4,0,0,1,2.71-1.37,4.94,4.94,0,0,1,3.61,1.63c1.37,1.48,1.94,3.73,1.7,6.68C134.36,106.86,129.91,109.45,125.73,109.45Z" fill="#492614"/>
          <path d="M118.21,92.44C121,96,122.87,97,125,97.1h.17c2,0,2.7-2.3,4.3-2.3s4.59,1.31,4.13,7c-.37,4.66-4.72,6.44-7.84,6.44a6.12,6.12,0,0,1-1.87-.26c-2.83-.92-8.28-5.52-8.28-5.52l2.63-10m-1.09-5.17-1.2,4.58-2.63,10-.37,1.44,1.14,1c.59.5,5.89,4.92,9.06,6a8.48,8.48,0,0,0,2.61.38c4.73,0,9.75-3,10.2-8.61.27-3.29-.41-5.84-2-7.57a6.13,6.13,0,0,0-4.48-2,5.08,5.08,0,0,0-3.51,1.69,3.68,3.68,0,0,1-.79.62c-1.12-.07-2.41-.42-5.08-3.78l-2.94-3.7Z" fill="#231f20"/>
        </g>
        <path d="M191,110s.7,4.84-3.13,7.19S179,122,173,117.73c0,0-7,8.12-14.93,8.2s-12.66-4.61-13.67-9.69,2.19-5.31,4.22-4.45,9.77,2.42,21.26-.16C169.87,111.63,179,116.4,191,110Z" fill="#492614"/>
        <g>
          <path d="M97.8,107.25c-5.08-5.36-7.54-9.46-6.86-17s10.45-12.4,10.87-12.61l.76-.36.11.83c.2,1.54.66,4.68.92,5.57a.9.9,0,0,0,.1.22c-2.7-12.63,3.87-34.52,14.68-48.49,6.06-7.83,12.58-12,18.85-12l.76,0c20,1.07,24,26,24,26.27l.08.58-.58.11c-7.13,1.31-21.06,5.74-34.19,20.73-10.92,12.45-13.88,30.9-13.91,31.08l-.1.62-.61-.11a19.84,19.84,0,0,0-3.44-.32c-7.38,0-10.49,4.72-10.52,4.77l-.42.66Z" fill="#3da448"/>
          <path d="M137.23,24H138c19.79,1,23.47,25.75,23.47,25.75C150.91,51.7,138,58,126.88,70.71s-14.06,31.38-14.06,31.38a20.76,20.76,0,0,0-3.54-.32c-7.8,0-11,5-11,5-5-5.25-7.35-9.19-6.69-16.55s10.52-12.11,10.52-12.11.6,4.49,1,5.67a1.06,1.06,0,0,0,1.08.86,1.32,1.32,0,0,0,.4-.06C99.66,65.94,117.72,24,137.23,24m0-1.23c-6.47,0-13.15,4.22-19.34,12.21-9,11.65-15.1,28.79-15.39,41.61l-1,.45c-.42.21-10.5,5.15-11.21,13.11-.7,7.8,1.82,12,7,17.5l1.07,1.13.84-1.32c.12-.18,3-4.49,10-4.49a19.57,19.57,0,0,1,3.33.31l1.23.22.19-1.24c0-.18,3-18.45,13.77-30.77,13-14.85,26.79-19.24,33.84-20.53l1.16-.21-.17-1.17c0-.26-4.06-25.7-24.61-26.79l-.79,0Z" fill="#231f20"/>
        </g>
        <g>
          <g>
            <path d="M144.91,62.59a15.28,15.28,0,0,1-13.25-8.54,15.75,15.75,0,0,1-1.29-11.25A13.08,13.08,0,0,1,137,34.43a12.56,12.56,0,0,1,5.78-1.38A15.24,15.24,0,0,1,156,41.59c3.78,7.37,1.38,16.17-5.34,19.61a12.54,12.54,0,0,1-5.78,1.39Z" fill="#fff"/>
            <path d="M142.78,34a14.26,14.26,0,0,1,12.43,8c3.55,6.94,1.34,15.17-4.94,18.38a11.72,11.72,0,0,1-5.36,1.29,14.27,14.27,0,0,1-12.43-8c-3.55-6.94-1.34-15.17,4.94-18.38A11.72,11.72,0,0,1,142.78,34m0-1.83a13.44,13.44,0,0,0-6.2,1.49,13.9,13.9,0,0,0-7.09,8.94,16.68,16.68,0,0,0,1.35,11.91,16.18,16.18,0,0,0,14.07,9,13.55,13.55,0,0,0,6.2-1.48c7.17-3.67,9.75-13,5.74-20.86a16.2,16.2,0,0,0-14.07-9Z" fill="#231f20"/>
          </g>
          <polygon points="133.92 40.92 141.4 55.44 153.25 49.05 150.84 44.02 143.85 48.74 139.12 38.05 133.92 40.92" fill="#3da448"/>
        </g>
        <g>
          <path d="M119.62,85.06c8.62-21.48,31.63-33.15,45.21-34.58a71.46,71.46,0,0,1,7.27-.41c8.58,0,12.29,2,14.74,3.37l.16.09c.52.28,2.08,1.13,1.75,2.56s-2.15,1.84-5.19,2c-2.26.12-5.37.77-16.11,4C156.36,65.45,141.25,75,134.53,80.4c-7.6,6.11-13.39,6.45-13.63,6.46l-2.05.09Z" fill="#3da448"/>
          <path d="M172.1,51.38c8.45,0,12,2,14.27,3.3,2.89,1.58-.52,2-2.88,2.1s-5.52.79-16.42,4.07-26,12.61-33.36,18.52-12.88,6.18-12.88,6.18c8.28-20.63,30.34-32.32,44.14-33.76a69.89,69.89,0,0,1,7.13-.41m0-2.62a71.54,71.54,0,0,0-7.41.42c-13.91,1.46-37.47,13.4-46.29,35.39l-1.53,3.79,4.09-.19c.26,0,6.46-.38,14.39-6.75,6.64-5.33,21.55-14.76,32.47-18.05,10.57-3.18,13.71-3.85,15.81-4,2.31-.13,5.8-.33,6.41-3,.24-1.09,0-2.68-2.41-4l-.16-.08C185.06,51,181,48.76,172.1,48.76Z" fill="#231f20"/>
        </g>
        <g>
          <g>
            <g>
              <path d="M163,136.94c-2.11,0-3.5-2.5-4.51-8.12a1.05,1.05,0,0,1,.81-1.21c.07,0,6.91-1.5,9.57-3.41a1,1,0,0,1,.62-.2,1,1,0,0,1,.6.19,1.05,1.05,0,0,1,.41,1.14c-.07.26-1.79,6.33-3.68,8.8C166,135.25,164.66,136.94,163,136.94Z" fill="#ed2027"/>
              <path d="M169.5,125.05s-1.71,6.1-3.5,8.43c-.85,1.1-1.91,2.41-3,2.41s-2.48-1.68-3.48-7.25c0,0,7.09-1.53,10-3.59m0-2.1a2.11,2.11,0,0,0-1.23.39c-2.07,1.49-7.33,2.84-9.18,3.24a2.1,2.1,0,0,0-1.62,2.43c.79,4.44,2.08,9,5.54,9,2.17,0,3.72-2,4.65-3.23,2-2.58,3.67-8.48,3.86-9.14a2.1,2.1,0,0,0-2-2.67Z" fill="#231f20"/>
            </g>
            <g>
              <path d="M166.16,134.32a1.9,1.9,0,0,1-.25,0,1.06,1.06,0,0,1-.79-.89,8.08,8.08,0,0,0-2.37-5,1,1,0,0,1-.36-1,1.06,1.06,0,0,1,.73-.8,21.44,21.44,0,0,0,5.76-2.41,1,1,0,0,1,.62-.2,1,1,0,0,1,.6.19,1.05,1.05,0,0,1,.41,1.14c-.07.24-1.68,6-3.49,8.54A1.08,1.08,0,0,1,166.16,134.32Z" fill="#ba2027"/>
              <path d="M169.5,125.05s-1.61,5.74-3.34,8.21a9,9,0,0,0-2.74-5.64,22.71,22.71,0,0,0,6.08-2.57m0-2.1a2.11,2.11,0,0,0-1.23.39,20.37,20.37,0,0,1-5.45,2.27,2.11,2.11,0,0,0-.75,3.62,6.88,6.88,0,0,1,2,4.31,2.1,2.1,0,0,0,1.59,1.76,1.68,1.68,0,0,0,.5.07,2.11,2.11,0,0,0,1.72-.9c1.88-2.69,3.46-8.23,3.64-8.85a2.1,2.1,0,0,0-2-2.67Z" fill="#231f20"/>
            </g>
          </g>
          <g>
            <path d="M169.5,125.05s-1.71,6.1-3.5,8.43-4.58,5.65-6.47-4.84C159.53,128.64,166.62,127.11,169.5,125.05Z" fill="#ed2027"/>
            <path d="M163.42,127.62a22.71,22.71,0,0,0,6.08-2.57s-1.61,5.74-3.34,8.21A9,9,0,0,0,163.42,127.62Z" fill="#670f16"/>
          </g>
        </g>
        <path d="M144.93,88.05c1.58,4.61,4.3,7.86,6.07,7.25s1.94-4.84.37-9.46-4.3-7.86-6.07-7.25S143.36,83.43,144.93,88.05Z" fill="#231f20"/>
        <path d="M162,71.16c1.77-.61,4.49,2.64,6.07,7.25a20.71,20.71,0,0,1,1,4.13,31.8,31.8,0,0,0-4.1,4,17.08,17.08,0,0,1-3.31-6C160.05,76,160.22,71.76,162,71.16Z" fill="#231f20"/>
        <path d="M108.47,112.79s5.36-.83,9.37,2.23c0,0-3.89.51-4.46,2.29,0,0,5-2.36,7.65.2s-.13,7.58-6,8.48c0,0,6,1.91,8.41-4.91S114.14,109.22,108.47,112.79Z" fill="#231f20"/>
      </g>
    </g>
  </g>
</svg>
