<svg id="Layer_1" data-name="Layer 1" xmlns="http://www.w3.org/2000/svg" viewBox="0 0 300 300">
  <g>
    <g>
      <g>
        <path d="M109.86,151.09c-1.49,0-8.63-1.45-9.22-5.57-.44-3,.5-5.3,2.79-6.73.39-.24,1.6-1,5-1,1.73,0,7.63.23,10.83,3.22l2.83,2.64L119.05,146c-6.19,4.75-7.9,5-8.54,5.05C110.31,151.08,110.09,151.09,109.86,151.09Z" fill="#231f20"/>
        <path d="M108.47,141.07c2.89,0,6.8.66,8.59,2.34,0,0-5.49,4.2-7,4.39h-.25c-1.68,0-5.8-1.54-6-2.76s-.18-2.56,1.28-3.47a7.63,7.63,0,0,1,3.31-.51m0-6.56h0c-3.93,0-5.75.86-6.78,1.5-2,1.23-5.14,4.16-4.3,10,1,6.85,10.72,8.4,12.47,8.4a9.28,9.28,0,0,0,1.06-.07c1.13-.14,3.23-.4,10.13-5.69l6.15-4.72-5.66-5.29c-4-3.7-10.47-4.1-13.07-4.1Z" fill="#231f20"/>
      </g>
      <g>
        <path d="M155.49,165.35c-7.48,0-17.29-4.22-22.48-6.73-5.41-2.62-12.32-9.37-15.24-13.55-4.84-.08-15.46-1.16-22.79-8.49a21.19,21.19,0,0,1-6-19,19.26,19.26,0,0,1,11.57-14.19,17.43,17.43,0,0,1,6.88-1.44c7.37,0,14.09,4.94,18.28,10.34l7.66-20.58,72.11-3.64-2.66,9-.47,18.84a34.61,34.61,0,0,1,6.63,3.13c6.4,4,9.59,9.51,9.22,16-.74,12.82-8.6,20.47-21,20.47-7.61,0-19.58,0-24.94-6.12l-10.89,7.21a7,7,0,0,1,0,5.78C160.69,163.71,159.08,165.35,155.49,165.35ZM169.82,146a73.39,73.39,0,0,1-10.64-10.59,20.18,20.18,0,0,0-3.55-3.62c-.17.16-.37.36-.52.52l-.59.58c0,1,.9,3.55,2.08,5.69Z" fill="#231f20"/>
        <path d="M201.05,91.62l-1.46,4.94L199,118.34s16.65,3.84,15.91,16.47-8.78,17.38-17.74,17.38-21.59-.18-24-7.68a64.36,64.36,0,0,1-11.53-11.17c-3.11-3.75-4.9-5-6.22-5s-2.2,1.23-3.48,2.42c-2.56,2.38,2.2,10.25,2.2,10.25l13.35,7.5-10.45,6.92s4.6,6.62-1.62,6.62-15-3.48-21.05-6.4-13.9-11.53-14.82-13.91c0,0-.44,0-1.22,0-3.57,0-14.19-.62-21.11-7.53-8.41-8.42-7-22.88,4.58-27.82a14.13,14.13,0,0,1,5.59-1.17c9.21,0,16.94,9.21,18.93,14.71l9.33-25.06,65.33-3.3m8.92-7-9.25.47-65.33,3.29-4.31.22-1.51,4-5,13.53c-4.5-4.2-10.42-7.45-17.07-7.45a20.68,20.68,0,0,0-8.18,1.7A22.53,22.53,0,0,0,85.79,117a24.48,24.48,0,0,0,6.86,21.9c7.39,7.38,17.61,9.07,23.4,9.39,4,5.08,11,11.1,15.53,13.28,5.44,2.64,15.78,7.07,23.91,7.07,5.51,0,7.89-3,8.83-4.78a9.23,9.23,0,0,0,.83-5.87l6-4,.71-.47c6.73,5.22,17.89,5.22,25.31,5.22,14.14,0,23.45-9,24.3-23.56.44-7.6-3.38-14.32-10.77-18.92a34.36,34.36,0,0,0-5-2.58l.4-16.09,1.22-4.11L210,84.6Z" fill="#231f20"/>
      </g>
      <g>
        <path d="M132.63,130.4c-2.74,0-5.58-2.22-8.44-6.61-2.62-4-5.88-16.21-4.21-19.55.33-.66,1.1-2.2,11.66-9.63l5.48-3.86-.32,6.7c-.33,7.16.49,12.37,2.44,15.49.1.13.55.58.88.91,1.65,1.65,5.52,5.51,2.62,9.38a6.3,6.3,0,0,1-5.13,2.53,5.84,5.84,0,0,1-2.64,4A4.72,4.72,0,0,1,132.63,130.4Z" fill="#231f20"/>
        <path d="M133.53,97.29c-.55,11.71,2,15.93,2.93,17.39s5.3,4.39,3.65,6.59a3.21,3.21,0,0,1-2.78,1.21c-.54,0-1-.06-1.45-.06s-.74.06-.89.31c-.55.91-.36,3.48-1.65,4.21a1.41,1.41,0,0,1-.71.18c-1.35,0-3.4-1.6-5.69-5.12-2.75-4.21-4.76-14.82-4-16.29s10.62-8.42,10.62-8.42m7.18-13.08-11,7.72c-11.23,7.9-12.09,9.6-12.71,10.84s-1.66,3.32.18,11.49c.62,2.76,2,7.9,4.22,11.32,3.56,5.45,7.22,8.1,11.19,8.1a7.93,7.93,0,0,0,4-1.05,8.26,8.26,0,0,0,3.47-3.91,9.31,9.31,0,0,0,5.29-3.52,8.62,8.62,0,0,0,.23-9.92,20.13,20.13,0,0,0-3.15-3.75l-.56-.57c-1.85-3.22-2-9-1.8-13.36l.63-13.39Z" fill="#231f20"/>
      </g>
      <g>
        <path d="M185.91,166.09h-.47a14.45,14.45,0,0,1-5.76-2,11.88,11.88,0,0,1-4.58.92,12.59,12.59,0,0,1-2.29-.21,13.63,13.63,0,0,1-7.32-4.46c-.57,0-1.12,0-1.64,0a12.16,12.16,0,0,1-10.3-4.71,10.36,10.36,0,0,1-1.87-10.24,22.36,22.36,0,0,1-3.47-4.79c-2.05-3.76-1.3-8.84,2.11-14.29a3.71,3.71,0,0,1,3.16-1.79c2.21,0,3.42,1.62,5.26,4.08a40.74,40.74,0,0,0,4.32,5.13c2.84,2.72,8.32,4.53,11,5.4a12.09,12.09,0,0,1,2.37.93,7.08,7.08,0,0,1,2.33,2.81,20.37,20.37,0,0,0,3.73,4.94c2.08,2,8.83,4.24,13,5.22a3.28,3.28,0,0,1,.17,6.34l-1.07.32a8.67,8.67,0,0,1-1.78,3.07,9.55,9.55,0,0,1-6.81,3.34Z" fill="#231f20"/>
        <path d="M153.48,127.79c1.12,0,3.43,4.58,7.31,8.3,4.39,4.21,13,6.22,13.91,6.77s1.83,3.84,5.49,7.32,14.45,6,14.45,6l-3.11.91c.36,2.84-3.08,5.68-5.62,5.68h-.23c-2.57-.18-5.86-2.56-5.86-2.56a8.15,8.15,0,0,1-4.72,1.44,8.36,8.36,0,0,1-1.68-.16C169.58,160.79,167,157,167,157c-1.16,0-2.2.1-3.16.1a8.94,8.94,0,0,1-7.81-3.58c-3.48-4-.37-9-.37-9a15.22,15.22,0,0,1-4.58-5.49c-2.19-4,1.1-9.52,2-11a.42.42,0,0,1,.37-.25m0-6.57a7,7,0,0,0-5.94,3.34c-4.07,6.51-4.85,12.76-2.21,17.6a26.81,26.81,0,0,0,2.75,4.11,13.22,13.22,0,0,0,3,11.49,15.42,15.42,0,0,0,12.78,5.85h.28a16.15,16.15,0,0,0,8.06,4.36,15.85,15.85,0,0,0,2.91.28,15.3,15.3,0,0,0,4.31-.63,16.15,16.15,0,0,0,5.8,1.73c.23,0,.46,0,.7,0a13.1,13.1,0,0,0,11-7,6.57,6.57,0,0,0-.77-12.54c-4.76-1.13-10.22-3.24-11.45-4.41a17.55,17.55,0,0,1-3.16-4.2,10,10,0,0,0-3.48-4,14.11,14.11,0,0,0-3-1.23c-2.21-.73-7.4-2.44-9.71-4.65a38.73,38.73,0,0,1-4-4.72c-2-2.66-4-5.41-7.89-5.41Z" fill="#231f20"/>
      </g>
      <g>
        <g>
          <path d="M167.75,97.17a2.09,2.09,0,0,0-3.41,2.42l2.36,3.32c-1.82,1.14-3.31,5.1-3.54,9.89-.27,5.76,1.38,10.52,3.7,10.62s4.41-4.47,4.68-10.22a25,25,0,0,0-.09-3.6l1.64,2.31a2.09,2.09,0,1,0,3.41-2.41Z" fill="#231f20"/>
          <path d="M166.94,126.71h-.24c-1.47-.07-4.18-.86-5.76-5.39a23.89,23.89,0,0,1-1.06-8.67,21.9,21.9,0,0,1,2.64-10l-.86-1.21a5.37,5.37,0,0,1,8.76-6.21l8.75,12.33a5.36,5.36,0,0,1-4.61,8.47C173.76,121.71,171.26,126.71,166.94,126.71Zm.91-20.14a16.34,16.34,0,0,0-1.41,6.38,17.31,17.31,0,0,0,.63,6,17.23,17.23,0,0,0,1.19-5.91,21.44,21.44,0,0,0-.07-3.11Z" fill="#231f20"/>
        </g>
        <g>
          <path d="M201.85,92.55a2.09,2.09,0,0,0-2.37,1.33c-.68,1.23-6,8.2-10.82,14.34a2.1,2.1,0,0,0,.36,2.94l0,0a24.79,24.79,0,0,0-.43,3.61,22.79,22.79,0,0,0,0,2.48h8.19c.09-.67.15-1.37.19-2.08.17-3.71-.45-7-1.53-8.89,7.76-10,7.92-10.8,8-11.29A2.09,2.09,0,0,0,201.85,92.55Z" fill="#231f20"/>
          <path d="M199.7,120.55H185.5l-.16-3.12c0-1,0-1.89,0-2.8s.12-1.72.24-2.57a5.42,5.42,0,0,1-.61-1.91,5.34,5.34,0,0,1,1.11-4c5.35-6.81,9.68-12.57,10.47-13.81a5.46,5.46,0,0,1,5.95-3.06,5.39,5.39,0,0,1,4.21,6.32c-.23,1.17-.39,1.95-7.46,11.12a23.74,23.74,0,0,1,1,8.57c0,.79-.11,1.58-.21,2.35ZM192,114h1.79a14.55,14.55,0,0,0-1-5.72l-.78,1,.67.49-.41,2A21.79,21.79,0,0,0,192,114Z" fill="#231f20"/>
        </g>
      </g>
      <g>
        <path d="M94.73,109.72a3.27,3.27,0,0,1-3.18-2.5c-2.27-9.29,1.61-18.07,9.66-21.86A25.85,25.85,0,0,1,112.11,83c.48,0,.93,0,1.33,0A132.13,132.13,0,0,1,133,61.72c14.51-13,32.49-16.5,41.93-17.46a32,32,0,0,1,3.37-.18c11.56,0,21.82,6.52,26.14,16.61s.63,21.57.47,22.06A3.27,3.27,0,0,1,201.78,85a3.12,3.12,0,0,1-.52,0A129.83,129.83,0,0,0,181,83.3c-42.4,0-60.34,23.75-60.51,24a3.32,3.32,0,0,1-2.26,1.32h-.39a3.25,3.25,0,0,1-2.11-.76c-.09-.07-2.86-2.24-8.32-2.53l-.57,0c-5.2,0-10,3.68-10,3.72A3.34,3.34,0,0,1,94.73,109.72Z" fill="#231f20"/>
        <path d="M178.29,47.37c11.13,0,19.6,6.38,23.12,14.61,3.85,9,.37,19.76.37,19.76A132.8,132.8,0,0,0,181,80c-44.55,0-63.16,25.33-63.16,25.33s-3.48-2.93-10.25-3.3l-.75,0c-6.46,0-12.06,4.41-12.06,4.41-2-8.23,1.65-15.19,7.87-18.11a22.48,22.48,0,0,1,9.51-2,18.94,18.94,0,0,1,2.94.2c1.82-2.75,8-11.53,20.12-22.33s27.45-15.37,40.08-16.65c1-.1,2.05-.15,3-.15m0-6.57h0c-1.22,0-2.47.07-3.71.19-9.82,1-28.58,4.7-43.78,18.29a139.08,139.08,0,0,0-19,20.46,29.07,29.07,0,0,0-12,2.65c-9.5,4.47-14.1,14.76-11.45,25.61a6.56,6.56,0,0,0,6.37,5,6.64,6.64,0,0,0,4.07-1.41c1.06-.82,4.65-3,8-3h.4a13,13,0,0,1,6.44,1.81,6,6,0,0,0,4.21,1.62l.68,0a6.43,6.43,0,0,0,4.56-2.78c.67-.89,17.52-22.64,57.87-22.65a125.85,125.85,0,0,1,19.8,1.64,6,6,0,0,0,1,.08A6.57,6.57,0,0,0,208,83.75c.43-1.34,4.09-13.45-.58-24.36C202.61,48.1,191.16,40.8,178.29,40.8Z" fill="#231f20"/>
      </g>
      <g>
        <path d="M184.67,93.07c-9.83,0-17.83-8.57-17.83-19.11s8-19.11,17.83-19.11S202.5,63.43,202.5,74,194.5,93.07,184.67,93.07Z" fill="#231f20"/>
        <path d="M184.67,58.14c8,0,14.55,7.08,14.55,15.82s-6.52,15.83-14.55,15.83S170.12,82.7,170.12,74s6.52-15.82,14.55-15.82m0-6.57c-11.64,0-21.11,10-21.11,22.39s9.47,22.4,21.11,22.4,21.11-10,21.11-22.4-9.47-22.39-21.11-22.39Z" fill="#231f20"/>
      </g>
      <g>
        <polyline points="177.44 78.44 181.65 67.28 186.23 74.06 191.17 68.38 193.36 79.36" fill="#231f20"/>
        <polygon points="190.15 80.01 189.26 75.57 185.9 79.43 182.48 74.38 180.51 79.61 174.37 77.29 180.82 60.19 186.56 68.68 193.08 61.2 196.58 78.72 190.15 80.01" fill="#231f20"/>
      </g>
      <g>
        <path d="M153.73,102.25c-10.83,0-17.33-1.93-20.45-6.1a3.28,3.28,0,0,1-.62-2.44,3.22,3.22,0,0,1,1.3-2.16c.57-.43,14.49-10.49,44.58-12.17.07,0,2-.12,5-.12,7.6,0,21.82.7,31.7,5.37,16.94,8,16.14,11.57,15.79,13.1a3.93,3.93,0,0,1-4.17,3,11.52,11.52,0,0,1-2.84-.42,76.49,76.49,0,0,0-20.23-2.49,139.15,139.15,0,0,0-20.21,1.64C170.68,101.36,161.19,102.25,153.73,102.25Z" fill="#231f20"/>
        <path d="M183.56,82.54c7.22,0,21,.65,30.3,5.06,11.43,5.39,16.25,9.83,13,9.83a8.73,8.73,0,0,1-2-.32,80.12,80.12,0,0,0-21-2.59,140.6,140.6,0,0,0-20.69,1.68C171.94,97.86,161.81,99,153.73,99c-8.85,0-15.24-1.34-17.82-4.79,0,0,13.35-9.88,42.82-11.53,0,0,1.86-.11,4.83-.11m0-6.56h0c-3.12,0-5.14.12-5.22.12-31,1.74-45.73,12.36-46.34,12.81a6.56,6.56,0,0,0-1.35,9.21c3.8,5.06,11.13,7.41,23.08,7.41,7.63,0,17.27-.9,30.35-2.84a135.42,135.42,0,0,1,19.72-1.61,73,73,0,0,1,19.44,2.4,15,15,0,0,0,3.64.51,7.26,7.26,0,0,0,7.38-5.55c1.18-5.3-3.88-8.82-6-10.33a82.51,82.51,0,0,0-11.55-6.45C206.2,76.72,191.43,76,183.56,76Z" fill="#231f20"/>
      </g>
      <g>
        <path d="M105.82,112.67s11.24,2,11.24,12.26-11,10.73-14.29,5.51a11,11,0,0,0,8,.36c4.2-1.52,5.36-7.76-3.12-9.64a8.58,8.58,0,0,1,4.86.72S113.94,120,105.82,112.67Z" fill="#231f20"/>
        <path d="M109.21,137a10.82,10.82,0,0,1-9.22-4.8l-6.18-9.89,10.43,5.21h0a8,8,0,0,0,3.07.61,6.89,6.89,0,0,0,2.32-.39c.7-.26,1.09-.8,1.06-1.17,0-.55-1.06-1.59-3.77-2.19l.2-5.8a46.41,46.41,0,0,0-3.5-3.45l-8.55-7.71,11.33,2c4.82.87,13.94,5.23,13.94,15.49C120.34,133.21,114.57,137,109.21,137Z" fill="#231f20"/>
      </g>
      <g>
        <path d="M111.55,91.62s9.55-24.07,44-42" fill="#231f20"/>
        <path d="M111.55,94.9a3.46,3.46,0,0,1-1.21-.23,3.29,3.29,0,0,1-1.84-4.26c.41-1,10.4-25.41,45.49-43.67a3.28,3.28,0,1,1,3,5.82c-32.94,17.14-42.33,40-42.42,40.26A3.28,3.28,0,0,1,111.55,94.9Z" fill="#231f20"/>
      </g>
      <path d="M234,95.42s2.95,11.64-14.12,12-16.08-.07-16.08-.07l.28-9,13-.49Z" fill="#231f20"/>
    </g>
    <g>
      <g>
        <g>
          <path d="M133.3,227.13a56.68,56.68,0,0,1-37.2-14.39c-12.59-11.48-12-23.22-11.68-28.85.26-4.9,3.93-11.17,6.09-14.48a2.94,2.94,0,0,1,2.19-1.34l.3,0a3,3,0,0,1,2.12.88c6.74,6.77,9,8.58,9.64,9.06l17.39,1.43a5.17,5.17,0,0,0,3.47-2.27c2.09-3,3.55-9.72-1.37-25.21a3,3,0,0,1,1.65-3.64l9.65-4.19a2.89,2.89,0,0,1,1.19-.25,3,3,0,0,1,2.84,2.08c2.4,7.51,7.56,24.05,8.65,30.41l12,.4c-.21-2.29-1.65-7.78-4.43-14.67a3,3,0,0,1,4.62-3.46l3.52,2.8a2.71,2.71,0,0,1,.57.6c6.23,8.7,10.32,26.3,6.37,40.7-2.59,9.46-8.26,16.35-16.39,19.93a52.33,52.33,0,0,1-21.14,4.48Z" fill="#231f20"/>
          <path d="M136.74,146.84c3.76,11.78,8.86,28.86,8.71,31.34l.46,1.07,15.25.51a2,2,0,0,0,1.76-1c1-1.77-1.23-9.89-4.41-17.75l3.53,2.8c9.23,12.9,13.19,46.47-8.8,56.15a49.08,49.08,0,0,1-19.94,4.24,53.59,53.59,0,0,1-35.19-13.62c-11.58-10.56-11-21-10.7-26.54.22-4.27,3.89-10.35,5.59-13,4,4,9.39,9.26,10.72,9.79l.2.08,18.19,1.5h.08a7.89,7.89,0,0,0,5.87-3.53c3.61-5.1,3.28-14.47-1-27.83l9.64-4.2m0-6a6,6,0,0,0-2.38.49l-9.64,4.2a6,6,0,0,0-3.31,7.27c5,15.64,2.9,21,1.78,22.58a2.51,2.51,0,0,1-1.22,1l-16.07-1.32c-1-.85-3.43-3-8.67-8.26A6,6,0,0,0,93,165.07c-.2,0-.41,0-.61,0A6,6,0,0,0,88,167.78c-2.84,4.35-6.28,10.64-6.56,15.9-.32,6.14-1,18.83,12.64,31.26a59.73,59.73,0,0,0,39.21,15.18,55.27,55.27,0,0,0,22.34-4.74c9-3.95,15.23-11.52,18.07-21.87,4.34-15.83-.28-34.08-6.82-43.22a6.24,6.24,0,0,0-1.14-1.21l-3.53-2.8a6,6,0,0,0-7.29-.1,6,6,0,0,0-2,7,86.76,86.76,0,0,1,3.55,10.44l-5.87-.2c-1.23-5.58-4-15.08-8.24-28.41a6,6,0,0,0-3.22-3.62,6,6,0,0,0-2.46-.53Z" fill="#231f20"/>
        </g>
        <g>
          <path d="M148.36,179.77a3,3,0,0,1-3-2.64c-.33-2.84-3.69-14.48-8.76-30.37a3,3,0,0,1,1.14-3.36,2.93,2.93,0,0,1,1.7-.54,3,3,0,0,1,1.85.65l14.08,11.17a3,3,0,0,1,.84,1.07c3.94,8.36,7.18,18.91,7.13,21.1a3,3,0,0,1-3,2.92Z" fill="#231f20"/>
          <path d="M139.47,145.85,153.54,157c4.05,8.6,6.88,18.44,6.85,19.76h-12c-.46-3.94-5.37-19.9-8.89-30.93m0-6a5.91,5.91,0,0,0-3.39,1.06,6,6,0,0,0-2.3,6.72c5.63,17.62,8.4,27.67,8.65,29.81a6,6,0,0,0,5.93,5.28h12a6,6,0,0,0,6-5.83c.07-3.16-3.67-14.49-7.41-22.44a5.89,5.89,0,0,0-1.69-2.14l-14.07-11.17a6,6,0,0,0-3.71-1.29Z" fill="#231f20"/>
        </g>
        <g>
          <path d="M121.93,182.39,104.47,181a3,3,0,0,1-1.44-.51c-2-1.37-9-8.42-10.43-9.82a3,3,0,0,1-.31-3.84c5.81-8.12,17.38-17.41,20.71-19.16a7.21,7.21,0,0,1,3.36-.75c3.62,0,8,2,8.44,2.24l.9.45a3,3,0,0,1,1.49,1.77c4.13,13.09,4.45,22.32.95,27.41a8,8,0,0,1-5.67,3.63l-.3,0Z" fill="#231f20"/>
          <path d="M116.36,149.87c3,0,7.17,1.95,7.17,1.95l.82.41c4.76,15.13,3.38,21.85,1.33,24.83a5.08,5.08,0,0,1-3.51,2.36L104.72,178c-1.21-.83-5.72-5.16-10-9.46,5.77-8.05,17-16.87,19.68-18.26a4.18,4.18,0,0,1,2-.4m0-6a10,10,0,0,0-4.75,1.09C108,146.89,96,156.44,89.86,165.05a6,6,0,0,0,.62,7.68c2.57,2.58,8.77,8.74,10.86,10.17a6,6,0,0,0,2.89,1l17.46,1.42a3.85,3.85,0,0,0,.48,0q.3,0,.6,0a11,11,0,0,0,7.83-4.91c4.1-6,3.92-15.78-.56-30a6,6,0,0,0-3-3.53l-.83-.42-.14-.06c-.89-.43-5.54-2.53-9.72-2.53Z" fill="#231f20"/>
        </g>
      </g>
      <g>
        <path d="M104,200.88c-4.49-.84-12.72-5.52-11.73-17.25,1.09-13,15.77-28.29,24-30.63a17.14,17.14,0,0,1,4.65-.76c3.1,0,4.61,1.36,5.33,2.49a5.61,5.61,0,0,1,.11,5.47c-.42.88-1.36,2.37-3,4.91-1.8,2.8-5.54,8.63-5.87,10.12-.71,3.21-8.7,20.53-10.3,24l-1,2.1Z" fill="#231f20"/>
        <path d="M120.93,155.23c3.24,0,3.53,2.05,2.74,3.7-1,2.15-8.39,12.59-9.07,15.65s-10.09,23.36-10.09,23.36S94.18,196,95.2,183.88s15.09-26.09,21.89-28a14.8,14.8,0,0,1,3.84-.63m0-6h0a20.18,20.18,0,0,0-5.46.86c-9.25,2.63-25,18.91-26.21,33.26C88.1,197.23,98,202.8,103.41,203.81l4.56.85,2-4.21c3.57-7.7,9.63-21,10.47-24.45.56-1.57,3.89-6.77,5.5-9.28a56.08,56.08,0,0,0,3.17-5.24,8.61,8.61,0,0,0-.28-8.34c-.92-1.45-3.16-3.88-7.85-3.88Z" fill="#231f20"/>
      </g>
      <g>
        <g>
          <path d="M133.9,219.22A24.75,24.75,0,0,1,113.25,208h-.15a9.79,9.79,0,0,1-6.95-2.92c-2.42-2.51-3.56-6.33-3.39-11.37.47-13.67,8.32-24.38,17.89-24.38a11.53,11.53,0,0,1,1.55.1l2.86.35a17.87,17.87,0,0,1,9-2.79l.5,0c4.86.18,8.25,1.41,10.35,3.76a8.8,8.8,0,0,1,2.09,4.37,3.54,3.54,0,0,1,2.33-.77,4.21,4.21,0,0,1,1.16.16c.11,0,11,3.64,12.77,10.71,1,4.06.75,7.36-.89,10.09a12.85,12.85,0,0,1-6.52,5.15,6.09,6.09,0,0,1-.8,3.12c-2.3,4.22-7.24,11.71-14.5,14.52A18.75,18.75,0,0,1,133.9,219.22Z" fill="#231f20"/>
          <path d="M134.09,169.93h.39c8.36.32,10,4,9.72,8.26-.1,1.41-.43,1.91-.88,1.91-.9,0-2.29-2-3.2-2.53a1.08,1.08,0,0,0-.57-.15,1.61,1.61,0,0,0-.78,3,65.88,65.88,0,0,0,8,4.39,8.18,8.18,0,0,0,3,.65,2,2,0,0,0,1.94-.86c.68-1.37-1.11-2.1-2.37-2.1H149c-1.13,0-1.21-1.32-.91-2.83s.47-2.35,1.29-2.35a1.81,1.81,0,0,1,.38,0c1.15.32,9.41,3.66,10.66,8.58s.84,10.34-8.47,12.64a2.62,2.62,0,0,1,.53,3.55c-1.26,2.3-6,10.45-13,13.17a15.71,15.71,0,0,1-5.6,1,21.71,21.71,0,0,1-20.43-14.53s0,2.08.11,3.23a3.23,3.23,0,0,1-.48,0c-1.74,0-7.72-.77-7.36-11.21.4-11.65,7-21.5,14.91-21.5a9.36,9.36,0,0,1,1.18.08s-3.55,4.07-3.34,7.1c0,0,7.39-9.51,15.6-9.51m0-6a20.23,20.23,0,0,0-9.66,2.69l-1.86-.23a15.59,15.59,0,0,0-1.92-.12c-11.18,0-20.35,12-20.87,27.26C99.58,199.43,101,204,104,207.1a12.68,12.68,0,0,0,7.61,3.74A27.79,27.79,0,0,0,133.9,222.2a21.82,21.82,0,0,0,7.76-1.34c8.14-3.17,13.54-11.31,16-15.88a9.62,9.62,0,0,0,1-2.53,15,15,0,0,0,6.3-5.64c2-3.4,2.45-7.56,1.22-12.36-2.27-8.89-14.74-12.81-14.87-12.85a7.69,7.69,0,0,0-1.95-.26h-.43a11.34,11.34,0,0,0-1.77-2.61c-2.67-3-6.74-4.54-12.45-4.76Z" fill="#231f20"/>
        </g>
        <g>
          <path d="M113.47,201.71s0,2.08.11,3.23c0,0-8.26,1.05-7.84-11.18s7.63-22.47,16.09-21.42c0,0-3.55,4.07-3.34,7.1,0,0,7.63-9.82,16-9.51s10,4,9.72,8.26-2.72.1-4.08-.62-3.13,1.46-1.35,2.82a65.88,65.88,0,0,0,8,4.39c1.15.52,4.18,1.25,4.92-.21s-1.36-2.2-2.62-2.09-1.35-1.26-1-2.83.52-2.61,1.67-2.3,9.41,3.66,10.66,8.58.84,10.34-8.47,12.64a2.62,2.62,0,0,1,.53,3.55c-1.26,2.3-6,10.45-13,13.17S118.49,215.29,113.47,201.71Z" fill="#231f20"/>
          <path d="M133.9,219.22A24.75,24.75,0,0,1,113.25,208a9.78,9.78,0,0,1-7.1-2.92c-2.42-2.51-3.56-6.33-3.39-11.37.47-13.67,8.32-24.38,17.89-24.38a11.53,11.53,0,0,1,1.55.1l2.86.35a17.51,17.51,0,0,1,9.53-2.77c4.86.18,8.25,1.41,10.35,3.76a8.8,8.8,0,0,1,2.09,4.37,3.54,3.54,0,0,1,2.33-.77,4.21,4.21,0,0,1,1.16.16c.11,0,11,3.64,12.77,10.71,1,4.06.75,7.36-.89,10.09a12.85,12.85,0,0,1-6.52,5.15,6.09,6.09,0,0,1-.8,3.12c-2.3,4.22-7.24,11.71-14.5,14.52A18.75,18.75,0,0,1,133.9,219.22Zm-17.63-18.55a18.8,18.8,0,0,0,17.63,12.59,12.66,12.66,0,0,0,4.52-.75c5.67-2.2,9.85-8.94,11.4-11.78l-4.94-3.49,6.34-1.56c3.11-.78,5.15-1.94,6.06-3.46.79-1.32.86-3.09.23-5.56a7,7,0,0,0-2.69-3.27,4.29,4.29,0,0,1-.42,2.51,4.81,4.81,0,0,1-4.61,2.51,10.91,10.91,0,0,1-4.21-.92c-.06,0-6.27-2.93-8.63-4.73a4.59,4.59,0,0,1,3.35-8.26c-1-.93-3.06-1.48-5.93-1.58h-.28c-5.5,0-11.43,6-13.25,8.37l-4.79,6.13-.53-7.76a7.56,7.56,0,0,1,.28-2.58c-3.91,3-6.83,9.5-7.08,16.79-.11,3.31.48,5.74,1.72,7a3.06,3.06,0,0,0,.9.67Z" fill="#231f20"/>
        </g>
        <g>
          <path d="M130.72,196.38s-4.29-2.2-4.08-3.46.63-.83,3.66-.72,8.78,1.46,8.57,4S136.78,200.45,130.72,196.38Z" fill="#231f20"/>
          <path d="M136.41,201.78c-2,0-4.35-.93-7.21-2.83-5.42-2.82-5.74-5.06-5.5-6.51a3.73,3.73,0,0,1,3.93-3.38c.29,0,.67,0,1.16.06s1,.07,1.61.09c2.49.09,7.82.95,10.18,3.61a4.68,4.68,0,0,1,1.26,3.59C141.57,199.67,139.44,201.78,136.41,201.78Z" fill="#231f20"/>
        </g>
        <g>
          <path d="M127.17,207s-4.29-2.19-4.08-3.45.63-.83,3.66-.73,8.78,1.47,8.57,4S133.23,211,127.17,207Z" fill="#231f20"/>
          <path d="M132.85,212.36c-2,0-4.34-.92-7.2-2.82-5.43-2.82-5.74-5.07-5.5-6.52a3.72,3.72,0,0,1,3.92-3.37c.3,0,.68,0,1.16.06s1,.07,1.62.09c2.49.09,7.82.95,10.18,3.61a4.68,4.68,0,0,1,1.26,3.59C138,210.26,135.88,212.36,132.85,212.36Z" fill="#231f20"/>
        </g>
      </g>
      <g>
        <path d="M168.64,206.36a4.19,4.19,0,0,1-.5,0c-4.5-.52-5.82-6.76-5.13-12.71.59-5.18,2.88-11.24,7.38-11.24a4.19,4.19,0,0,1,.5,0c1.3.15,3.65,1,4.75,5.12a21,21,0,0,1,.38,7.59C175.42,200.3,173.13,206.36,168.64,206.36Z" fill="#231f20"/>
        <path d="M170.39,185.37h.16c2,.23,3.08,4.44,2.51,9.41s-2.51,8.6-4.42,8.6h-.16c-2-.23-3.08-4.44-2.51-9.41s2.51-8.59,4.42-8.59m0-6h0c-5.32,0-9.38,5.45-10.35,13.88-1,8.92,2.09,15.36,7.75,16a8.19,8.19,0,0,0,.85,0c5.31,0,9.38-5.45,10.35-13.88a23.93,23.93,0,0,0-.47-8.7c-1.61-6-5.63-7.12-7.29-7.31a7.73,7.73,0,0,0-.84,0Z" fill="#231f20"/>
      </g>
    </g>
    <g id="body">
      <g>
        <g>
          <g>
            <path d="M170,250.05c-8.78,0-20.07-.58-23.79-1.56-6.13-1.62-8.2-10.14-8.41-11.1-.1-.4-2.62-11.27,9-20.95l.34-.29,11-4.17.44,0c.12,0,2.91-.11,6-.11,1.84,0,3.39,0,4.62.12a6,6,0,0,1,4.26,2,7.43,7.43,0,0,1,1.55,3.1,43.55,43.55,0,0,1,4.61-.25c4.27,0,7.55.71,9.77,2.11,4.54,2.87,7.15,8.16,7.35,14.89.19,6.34-3.25,14.21-13.54,15.56A113.34,113.34,0,0,1,170,250.05Z" fill="#8b4d21"/>
            <path d="M164.58,214.53c1.53,0,3.12,0,4.45.12,4,.24,3.62,5.47,3.62,5.47a44.75,44.75,0,0,1,7-.58c3,0,6.23.37,8.33,1.7,4.73,3,6,8.47,6.1,12.7s-1.74,11.58-11.2,12.82a107.45,107.45,0,0,1-12.87.61c-9.51,0-20-.66-23.11-1.47-4.73-1.25-6.47-9.1-6.47-9.1s-2.37-9.58,8.09-18.3l10.21-3.85s2.82-.12,5.88-.12m0-5.37h0c-3.14,0-6,.11-6.1.12l-.87,0-.82.31-10.2,3.86-.85.32-.7.58c-10.25,8.55-11,18.87-9.88,23.66a28,28,0,0,0,1.86,5.19c2.59,5.33,6,7.21,8.47,7.86,4.09,1.07,15.66,1.65,24.48,1.65a115.59,115.59,0,0,0,13.57-.65c11.29-1.49,16.11-10.27,15.88-18.3-.23-7.66-3.29-13.73-8.61-17.09-2.69-1.7-6.35-2.52-11.2-2.52-1,0-1.92,0-2.8.09a9.5,9.5,0,0,0-1.34-2,8.69,8.69,0,0,0-6.11-3c-1.29-.08-2.9-.12-4.78-.12Z" fill="#231f20"/>
          </g>
          <g>
            <path d="M175.41,257.46A43,43,0,0,1,161.2,255c-.41-.13-.91-.3-1.15-.36l-.88,0c-1.25.06-3.35.17-5.59.17-7.63,0-10-1.22-11.12-2.28-2.64-2.38-2.37-4.47-2-5.49a3.88,3.88,0,0,1,3.64-2.45,3.64,3.64,0,0,1,1,.14l.51.14.1.1c.62.22,3.85,1.2,13.89,1.39,4,.08,6.52.27,8.76.43,2,.14,3.65.27,5.83.27h0c3.49,0,8-.32,15.21-1.06l2.61-.26.33,2.59a5.93,5.93,0,0,1-1.43,4.33c-2,2.51-5.87,4-11.45,4.54C178.12,257.4,176.75,257.46,175.41,257.46Z" fill="#f3dcbc"/>
            <path d="M144.13,247.35a.93.93,0,0,1,.25,0s2.49,1.49,15.19,1.74c7.54.15,9.9.69,14.64.69,3.24,0,7.6-.25,15.49-1.06,0,0,.62,4.85-10.46,5.85-1.34.12-2.62.17-3.83.17-8.77,0-14-2.79-15.21-2.79-.63,0-3.47.21-6.62.21-3.74,0-7.9-.29-9.32-1.58-2.37-2.15-1-3.27-.13-3.27m0-5.37h0a6.61,6.61,0,0,0-6.15,4.17c-.52,1.35-1.29,4.86,2.68,8.46,2.32,2.1,6.07,3,12.92,3,2.31,0,4.45-.11,5.72-.17l.42,0,.65.21a45.75,45.75,0,0,0,15,2.56c1.42,0,2.87-.06,4.31-.2,6.34-.57,10.81-2.43,13.31-5.54a8.55,8.55,0,0,0,2-6.34l-.66-5.19-5.21.53c-7.08.73-11.54,1-14.94,1-2.08,0-3.65-.11-5.64-.26-2.16-.16-4.84-.35-8.89-.43-8.94-.18-12.16-1-12.89-1.19l-.25-.15-.68-.2a6.28,6.28,0,0,0-1.73-.24Z" fill="#231f20"/>
          </g>
        </g>
        <g>
          <path d="M140.4,236.8s-2.37-9.58,8.09-18.3l10.21-3.85s6.35-.26,10.33,0,3.62,5.47,3.62,5.47,10.58-1.86,15.3,1.12,6,8.47,6.1,12.7-1.74,11.58-11.2,12.82-31.24.38-36-.86S140.4,236.8,140.4,236.8Z" fill="#8b4d21"/>
          <path d="M189.7,248.76s.62,4.85-10.46,5.85-17.67-2.62-19-2.62-13.33,1-15.94-1.37-.75-3.48.12-3.23c0,0,2.49,1.49,15.19,1.74S170.28,250.75,189.7,248.76Z" fill="#f3dcbc"/>
        </g>
        <path d="M167.26,222.75s-1.4,4.21-21.16,2.11l.84-1.27S158.43,224.86,167.26,222.75Z" fill="#231f20"/>
      </g>
      <g>
        <g>
          <path d="M180.93,202.47c-4.8-.15-12.92-2.41-13.27-2.51L166,199.5l-1.06-22.23,15.6,1.07-.31,2.5c-1.42,11.4,2.71,17.86,2.76,17.92l2.51,3.84Z" fill="#231f20"/>
          <path d="M167.45,179.84l10.41.71c-1.57,12.55,3.14,19.54,3.14,19.54-4.56-.15-12.69-2.43-12.69-2.43l-.86-17.82m-5-5.13.25,5.35.86,17.83.16,3.44,3.32.93c.89.25,8.83,2.44,13.83,2.6l9.31.29-5.2-7.73c-.12-.19-3.66-5.88-2.36-16.28l.62-5-5-.35-10.41-.72-5.35-.36Z" fill="#231f20"/>
        </g>
        <g>
          <g>
            <g>
              <path d="M204.15,209.22a15.53,15.53,0,0,1-9.58-2.94l-1.44.2a11.3,11.3,0,0,1-1.42.1c-2.82,0-8-1.31-11.22-10.1-2.27-6.21-2-12-1.53-17.78.65-7.86,8.12-9.69,8.44-9.77l1.27-.29c1.65-2.87,6.06-7.95,12-8.29H201a9.45,9.45,0,0,1,6.77,3.39,19.51,19.51,0,0,1,4.69,14.4c-.52,6.59-4.59,9.2-8.2,9.49l-.06.79c-1,11.18,3.66,16.06,3.7,16.11l4.16,4.06-5.79.53C205.56,209.19,204.84,209.22,204.15,209.22Z" fill="#231f20"/>
              <path d="M201,163c4.45,0,9.4,7,8.78,14.9-.39,5-3.25,7-6.22,7a7.49,7.49,0,0,1-4.91-1.91c-3.63-3.26-3.75-9.39-3.75-9.39-3.14,11.39,6.63,14.51,6.63,14.51C200.4,201,206,206.45,206,206.45c-.65.06-1.27.09-1.88.09-6.86,0-10.3-3.82-12.26-7.84a21.56,21.56,0,0,1-1.75-9.64,15.43,15.43,0,0,0,2.63,14.76,7.68,7.68,0,0,1-1.06.08c-4,0-6.86-3.27-8.7-8.34-2-5.5-1.88-10.63-1.38-16.63s6.38-7.39,6.38-7.39c-3,10.39,1.5,13.64,1.5,13.64-2.62-8.5-.12-12.26,1.38-15s5.38-6.88,9.88-7.13H201m0-5.37h0l-.52,0c-6.39.35-11.15,5.08-13.5,8.59l-.19,0a13.7,13.7,0,0,0-10.51,12.16c-.51,6.13-.76,12.19,1.68,18.92,3.76,10.32,10.23,11.87,13.75,11.87a13.74,13.74,0,0,0,1.8-.13l.4-.06a18.82,18.82,0,0,0,10.24,2.83c.77,0,1.57,0,2.37-.11l12.38-1.15-9.07-8c-.45-.52-3.48-4.38-3-12.78,4.15-1.23,7.83-4.92,8.34-11.53a22.19,22.19,0,0,0-5.39-16.42,12.07,12.07,0,0,0-8.74-4.26Z" fill="#231f20"/>
            </g>
            <g>
              <path d="M214.27,209.42c-4.24,0-7.79-2.3-10-6.47a23.23,23.23,0,0,1-2.11-15.16l.39-1.6,1.61-.37c2.8-.64,4.62-1.94,5.59-4,2.3-4.82-.59-12.83-1.89-15.51L206.71,164l2.37-1.19a20.25,20.25,0,0,1,8.89-2.43,10.18,10.18,0,0,1,10,6.79,13.55,13.55,0,0,1,0,8.56c-.08.29-.18.66-.22.87.09.39.45,1.31.71,2a28.69,28.69,0,0,1,2,7.21c1.08,9.43-1.08,16.34-6.24,20a17.66,17.66,0,0,1-9.95,3.66Z" fill="#231f20"/>
              <path d="M218,163a7.53,7.53,0,0,1,7.45,5c1.38,3.75-.25,6.88-.38,8.38s2.26,5.26,2.76,9.64.87,13.26-5.13,17.51a15.08,15.08,0,0,1-8.4,3.16c-3,0-5.75-1.51-7.62-5a20.51,20.51,0,0,1-1.87-13.26c15.14-3.51,5.5-23.27,5.5-23.27A17.42,17.42,0,0,1,218,163m0-5.37a22.82,22.82,0,0,0-10.09,2.71l-4.75,2.38,2.32,4.77c1.34,2.79,3.56,9.68,1.88,13.2-.38.79-1.18,1.9-3.76,2.49l-3.22.75-.79,3.21a25.66,25.66,0,0,0,2.35,17.05c2.69,5.09,7.08,7.89,12.36,7.89a20.29,20.29,0,0,0,11.5-4.14c4.2-3,8.88-9.29,7.36-22.51a30.6,30.6,0,0,0-2.19-7.87c-.13-.35-.3-.78-.42-1.12l0-.1a16.19,16.19,0,0,0-.09-10.17A12.93,12.93,0,0,0,218,157.65Z" fill="#231f20"/>
            </g>
          </g>
          <g>
            <path d="M194.9,173.67s.12,6.13,3.75,9.39,10.51,2.87,11.13-5.13-4.5-15.14-9-14.89-8.38,4.38-9.88,7.13-4,6.51-1.38,15c0,0-4.5-3.25-1.5-13.64,0,0-5.88,1.38-6.38,7.39S181,190.06,183,195.56s5.25,8.89,9.76,8.26a15.43,15.43,0,0,1-2.63-14.76,21.56,21.56,0,0,0,1.75,9.64c2.13,4.37,6,8.5,14.14,7.75,0,0-5.63-5.5-4.5-18.27C201.53,188.18,191.76,185.06,194.9,173.67Z" fill="#fff"/>
            <path d="M204.78,188.44a20.51,20.51,0,0,0,1.87,13.26c3.51,6.63,10,6.13,16,1.87s5.63-13.13,5.13-17.51-2.88-8.13-2.76-9.64,1.76-4.63.38-8.38-5.88-7.5-15.14-2.87C210.28,165.17,219.92,184.93,204.78,188.44Z" fill="#fff"/>
          </g>
        </g>
        <path d="M168.31,197.66s8.13,2.28,12.69,2.43c0,0-4.71-7-3.14-19.54l-10.41-.71Z" fill="#ed2027"/>
      </g>
      <g>
        <g>
          <g>
            <path d="M133.3,225.94a55.44,55.44,0,0,1-36.4-14.09c-12.17-11.09-11.59-22-11.28-27.9.24-4.62,3.79-10.68,5.88-13.89a1.79,1.79,0,0,1,1.32-.8H93a1.82,1.82,0,0,1,1.27.52c7.79,7.82,9.69,9.16,10.09,9.39l17.79,1.45a6.19,6.19,0,0,0,4.45-2.78c3.22-4.54,2.8-13.62-1.21-26.25a1.78,1.78,0,0,1,1-2.18l9.65-4.2a1.74,1.74,0,0,1,.71-.15,1.78,1.78,0,0,1,.74.17,1.74,1.74,0,0,1,1,1.08c1.42,4.46,8.19,25.84,8.76,31.21l14,.47s.06,0,.15-.17c.36-1.12-1-7.45-4.52-16.18a1.79,1.79,0,0,1,.59-2.1,1.77,1.77,0,0,1,2.18,0l3.53,2.8a1.46,1.46,0,0,1,.34.36c6.07,8.47,10,25.64,6.19,39.69-2.49,9.1-7.93,15.71-15.72,19.14a50.89,50.89,0,0,1-20.66,4.39Z" fill="#425ea9"/>
            <path d="M136.74,146.84c3.76,11.78,8.86,28.86,8.71,31.34l.46,1.07,15.25.51a2,2,0,0,0,1.76-1c1-1.77-1.23-9.89-4.41-17.75l3.53,2.8c9.23,12.9,13.19,46.47-8.8,56.15a49.08,49.08,0,0,1-19.94,4.24,53.59,53.59,0,0,1-35.19-13.62c-11.58-10.56-11-21-10.7-26.54.22-4.27,3.89-10.35,5.59-13,4,4,9.39,9.26,10.72,9.79l.2.08,18.19,1.5h.08a7.89,7.89,0,0,0,5.87-3.53c3.61-5.1,3.28-14.47-1-27.83l9.64-4.2m0-3.58a3.53,3.53,0,0,0-1.43.3l-9.64,4.2a3.57,3.57,0,0,0-2,4.36c3.77,11.9,4.29,20.67,1.45,24.68a4.58,4.58,0,0,1-3,2L105,177.41c-.75-.56-3.07-2.5-9.44-8.9a3.58,3.58,0,0,0-2.54-1,2.17,2.17,0,0,0-.36,0,3.57,3.57,0,0,0-2.63,1.6c-2.68,4.11-5.93,10-6.18,14.72-.3,5.79-.93,17.71,11.87,29.37a57.23,57.23,0,0,0,37.6,14.56,52.85,52.85,0,0,0,21.38-4.54c8.31-3.65,14.09-10.67,16.73-20.31,4.14-15.12-.24-32.51-6.46-41.21a3.58,3.58,0,0,0-.69-.71l-3.52-2.81a3.61,3.61,0,0,0-2.23-.77,3.67,3.67,0,0,0-2.15.71,3.6,3.6,0,0,0-1.17,4.21,71.28,71.28,0,0,1,4.31,13.83l-10.78-.36c-1.28-6.81-6.24-22.69-8.57-30a3.6,3.6,0,0,0-1.93-2.17,3.65,3.65,0,0,0-1.48-.32Z" fill="#231f20"/>
          </g>
          <g>
            <path d="M148.36,178.57a1.79,1.79,0,0,1-1.78-1.58c-.34-3-3.64-14.39-8.82-30.6a1.79,1.79,0,0,1,.69-2,1.82,1.82,0,0,1,1-.31,1.77,1.77,0,0,1,1.11.39l14.07,11.17a1.73,1.73,0,0,1,.51.63c4.06,8.62,7.06,18.77,7,20.57a1.78,1.78,0,0,1-1.78,1.75Z" fill="#ed2027"/>
            <path d="M139.47,145.85,153.54,157c4.05,8.6,6.88,18.44,6.85,19.76h-12c-.46-3.94-5.37-19.9-8.89-30.93m0-3.58a3.57,3.57,0,0,0-3.41,4.67c5.07,15.86,8.41,27.45,8.74,30.25a3.58,3.58,0,0,0,3.56,3.17h12a3.59,3.59,0,0,0,3.58-3.5c.05-2.54-3.42-13.35-7.19-21.37a3.51,3.51,0,0,0-1-1.28L141.69,143a3.59,3.59,0,0,0-2.22-.77Z" fill="#231f20"/>
          </g>
          <g>
            <path d="M122,181.2l-17.46-1.43a1.73,1.73,0,0,1-.87-.31c-1.47-1-6.45-5.84-10.26-9.67a1.8,1.8,0,0,1-.18-2.31c6-8.41,17.56-17.36,20.29-18.8a6,6,0,0,1,2.81-.6c3.42,0,7.75,2,7.93,2.12l.87.44a1.76,1.76,0,0,1,.9,1.06c4,12.73,4.38,21.6,1.1,26.37a6.83,6.83,0,0,1-4.81,3.13H122Z" fill="#ed2027"/>
            <path d="M116.36,149.87c3,0,7.17,1.95,7.17,1.95l.82.41c4.76,15.13,3.38,21.85,1.33,24.83a5.08,5.08,0,0,1-3.51,2.36L104.72,178c-1.21-.83-5.72-5.16-10-9.46,5.77-8.05,17-16.87,19.68-18.26a4.18,4.18,0,0,1,2-.4m0-3.58a7.75,7.75,0,0,0-3.64.81c-2.91,1.53-14.63,10.56-20.92,19.34a3.58,3.58,0,0,0,.38,4.61c1.39,1.4,8.48,8.49,10.51,9.89a3.61,3.61,0,0,0,1.74.61L121.88,183l.29,0,.36,0a8.65,8.65,0,0,0,6.1-3.89c3.61-5.25,3.31-14.65-.87-27.93A3.55,3.55,0,0,0,126,149l-.83-.42-.08,0c-.49-.23-5-2.29-8.7-2.29Z" fill="#231f20"/>
          </g>
        </g>
        <g>
          <path d="M104.29,199.12c-.12,0-11.37-2.28-10.28-15.34,1.07-12.68,15.73-27.07,22.76-29.06a15.59,15.59,0,0,1,4.16-.69c2.28,0,3.33.9,3.81,1.66a3.86,3.86,0,0,1,0,3.75c-.39.81-1.48,2.53-2.88,4.7-2.27,3.55-5.71,8.91-6.11,10.7-.68,3.1-9.2,21.52-10.17,23.61l-.39.84Z" fill="#ed2027"/>
          <path d="M120.93,155.23c3.24,0,3.53,2.05,2.74,3.7-1,2.15-8.39,12.59-9.07,15.65s-10.09,23.36-10.09,23.36S94.18,196,95.2,183.88s15.09-26.09,21.89-28a14.8,14.8,0,0,1,3.84-.63m0-2.39h0a16.78,16.78,0,0,0-4.49.73c-8.13,2.31-22.54,17.33-23.62,30.11-.94,11.3,6.94,15.8,11.25,16.61l1.82.34.78-1.68c1.59-3.43,9.56-20.7,10.26-23.85.35-1.59,4-7.27,5.95-10.32,1.61-2.52,2.55-4,3-4.83a5.06,5.06,0,0,0-.07-4.9c-.65-1-2-2.21-4.83-2.21Z" fill="#231f20"/>
        </g>
        <g>
          <g>
            <path d="M133.9,218a23.54,23.54,0,0,1-20-11.32h-.09a5.09,5.09,0,0,1-.7,0,8.58,8.58,0,0,1-6.1-2.56c-2.18-2.27-3.21-5.8-3-10.5.44-12.81,7.93-23.22,16.7-23.22a13.63,13.63,0,0,1,1.41.08l3.25.4a17,17,0,0,1,8.78-2.82h.46c4.51.16,7.62,1.27,9.5,3.36a8.77,8.77,0,0,1,1.94,6.81c-.15,2-.8,2.9-1.54,3.3l2,1a5.59,5.59,0,0,1-.12-3.31c.3-1.51.76-3.79,3.05-3.79a3.17,3.17,0,0,1,.85.12c1.58.43,10.45,4.07,11.92,9.85,1,3.74.71,6.74-.75,9.19-1.3,2.18-3.58,3.84-6.77,5A4.77,4.77,0,0,1,154,203c-2.22,4.07-7,11.3-13.88,14A17.5,17.5,0,0,1,133.9,218Z" fill="#fff"/>
            <path d="M134.09,169.93h.39c8.36.32,10,4,9.72,8.26-.1,1.41-.43,1.91-.88,1.91-.9,0-2.29-2-3.2-2.53a1.08,1.08,0,0,0-.57-.15,1.61,1.61,0,0,0-.78,3,65.88,65.88,0,0,0,8,4.39,8.18,8.18,0,0,0,3,.65,2,2,0,0,0,1.94-.86c.68-1.37-1.11-2.1-2.37-2.1H149c-1.13,0-1.21-1.32-.91-2.83s.47-2.35,1.29-2.35a1.81,1.81,0,0,1,.38,0c1.15.32,9.41,3.66,10.66,8.58s.84,10.34-8.47,12.64a2.62,2.62,0,0,1,.53,3.55c-1.26,2.3-6,10.45-13,13.17a15.71,15.71,0,0,1-5.6,1,21.71,21.71,0,0,1-20.43-14.53s0,2.08.11,3.23a3.23,3.23,0,0,1-.48,0c-1.74,0-7.72-.77-7.36-11.21.4-11.65,7-21.5,14.91-21.5a9.36,9.36,0,0,1,1.18.08s-3.55,4.07-3.34,7.1c0,0,7.39-9.51,15.6-9.51m0-3.58a18.07,18.07,0,0,0-9.19,2.76l-2.63-.32a12.47,12.47,0,0,0-1.62-.1c-9.89,0-18,11-18.49,24.95-.18,5.21,1,9.18,3.56,11.8a10.31,10.31,0,0,0,7.21,3.1,25.35,25.35,0,0,0,21,11.28,19.32,19.32,0,0,0,6.9-1.19c7.43-2.89,12.46-10.51,14.8-14.79a7,7,0,0,0,.88-3,13.22,13.22,0,0,0,6.43-5.25c1.72-2.87,2-6.32,1-10.54-1.92-7.5-13.08-11.11-13.19-11.14a5.05,5.05,0,0,0-1.32-.18,4.41,4.41,0,0,0-1.94.41,9.24,9.24,0,0,0-2-3.81c-2.22-2.48-5.75-3.77-10.77-4Z" fill="#231f20"/>
          </g>
          <path d="M113.47,201.71s0,2.08.11,3.23c0,0-8.26,1.05-7.84-11.18s7.63-22.47,16.09-21.42c0,0-3.55,4.07-3.34,7.1,0,0,7.63-9.82,16-9.51s10,4,9.72,8.26-2.72.1-4.08-.62-3.13,1.46-1.35,2.82a65.88,65.88,0,0,0,8,4.39c1.15.52,4.18,1.25,4.92-.21s-1.36-2.2-2.62-2.09-1.35-1.26-1-2.83.52-2.61,1.67-2.3,9.41,3.66,10.66,8.58.84,10.34-8.47,12.64a2.62,2.62,0,0,1,.53,3.55c-1.26,2.3-6,10.45-13,13.17S118.49,215.29,113.47,201.71Z" fill="#fff"/>
          <path d="M130.72,196.38s-4.29-2.2-4.08-3.46.63-.83,3.66-.72,8.78,1.46,8.57,4S136.78,200.45,130.72,196.38Z" fill="#231f20"/>
          <path d="M127.17,207s-4.29-2.19-4.08-3.45.63-.83,3.66-.73,8.78,1.47,8.57,4S133.23,211,127.17,207Z" fill="#231f20"/>
        </g>
        <g>
          <path d="M168.64,204.87l-.33,0c-3.3-.38-4.42-5.85-3.82-11.06.55-4.78,2.63-9.91,5.9-9.91h.33c.93.11,2.61.77,3.48,4a19.58,19.58,0,0,1,.34,7C174,199.73,171.91,204.87,168.64,204.87Z" fill="#fcee21"/>
          <path d="M170.39,185.37h.16c2,.23,3.08,4.44,2.51,9.41s-2.51,8.6-4.42,8.6h-.16c-2-.23-3.08-4.44-2.51-9.41s2.51-8.59,4.42-8.59m0-3h0c-2.81,0-6.43,2.94-7.38,11.24s1.89,12.34,5.13,12.71a4.19,4.19,0,0,0,.5,0c2.81,0,6.43-2.94,7.38-11.24a21,21,0,0,0-.38-7.59c-1.1-4.1-3.45-5-4.75-5.12a4.19,4.19,0,0,0-.5,0Z" fill="#231f20"/>
        </g>
      </g>
      <g>
        <g>
          <g>
            <path d="M90.17,261.33c-9.91,0-14.68-1.34-17-4.81-.6-.9-1.84-2.76-.81-4.68a3.48,3.48,0,0,1,3.23-1.8,15.53,15.53,0,0,1,3.73.68c2.49.65,10.9,1.05,15.61,1.16.74,0,1.4,0,2,0a63.49,63.49,0,0,0,8.39-.64c1.4-.17,2.61-.32,3.71-.37a4.51,4.51,0,0,0,1.81-.83,4.14,4.14,0,0,1,2.36-.88h1.58l1,1.36c1,1.49.39,3-.2,4.45-2.29,5.61-11.4,6.16-24,6.32Z" fill="#f3dcbc"/>
            <path d="M113.26,252.19c.21,0,.11.42-.41,1.7-1.54,3.76-10.17,4.32-21.31,4.45H90.17c-10,0-13.17-1.49-14.5-3.49-.86-1.28-1-1.83-.06-1.83a14.82,14.82,0,0,1,3,.58c3.76,1,16.29,1.25,16.29,1.25.73,0,1.43,0,2.11,0,5.46,0,9.51-.9,12.24-1,2-.09,3.62-1.7,4-1.7m0-6a7,7,0,0,0-4,1.35c-.17.11-.43.28-.61.37-1.13.07-2.31.22-3.66.39a62.88,62.88,0,0,1-8,.61c-.62,0-1.24,0-1.85,0H95c-5.7-.13-13-.57-14.93-1.07a18.21,18.21,0,0,0-4.48-.77,6.49,6.49,0,0,0-5.86,3.37c-1.88,3.5.26,6.69,1,7.74,3.39,5.1,10.23,6.15,19.46,6.15h1.45c13.78-.17,23.77-.86,26.75-8.17.68-1.66,1.81-4.44-.08-7.25a6.07,6.07,0,0,0-5-2.67Z" fill="#231f20"/>
          </g>
          <g>
            <path d="M92.65,255.62c-9.86,0-17.06-2.31-21.39-6.87-3.32-3.5-4.85-8.2-4.56-13.95.74-14.25,10.27-17.48,16.94-18.21a6.64,6.64,0,0,1,.08-3.71l0-.16c1-4.67,7.38-4.67,9.46-4.67a54.9,54.9,0,0,1,7.08.55c7.71,1,19.31,6,19.71,13.24a6.13,6.13,0,0,1-1.68,4.67,3.57,3.57,0,0,1-.28.27c1.19,1.31,2.19,3.81,1.68,12.52C118.78,255.62,101.78,255.62,92.65,255.62Z" fill="#8b4d21"/>
            <path d="M93.21,211a50.35,50.35,0,0,1,6.68.52c7.24,1,16.86,5.43,17.13,10.44.23,4.1-5.79,4.48-8,4.48-.49,0-.79,0-.79,0,1.12,1.81,6.82,2.08,6.82,2.08a.59.59,0,0,1,.22,0c.57,0,2,.91,1.46,10.63-.7,12-11.15,13.5-24.1,13.5S69,248.46,69.68,235s9.75-15.6,18.8-15.6,19.21,9.89,19.21,9.89c-7.24-11-11.27-11-16.57-11.83s-5-1.54-4.45-4C87,211.72,89.5,211,93.21,211m0-6c-4.93,0-11.08,1.22-12.37,7l0,.16a16.57,16.57,0,0,0-.34,1.9c-10.53,2.17-16.16,9-16.75,20.51-.34,6.61,1.47,12.05,5.38,16.16,4.92,5.18,12.84,7.8,23.55,7.8,9.4,0,28.94,0,30.05-19.13.35-6,.06-9.86-1-12.44a9.2,9.2,0,0,0,1.32-5.36c-.53-9.56-14-14.91-22.29-16a55.82,55.82,0,0,0-7.48-.58Z" fill="#231f20"/>
          </g>
        </g>
        <g>
          <path d="M94.88,254.86s-12.53-.28-16.29-1.25-4.32-.83-2.92,1.25,4.73,3.62,15.87,3.48,19.77-.69,21.31-4.45-.56-.14-3.62,0S101.43,255.14,94.88,254.86Z" fill="#f3dcbc"/>
          <path d="M107.69,229.24s-10.16-9.89-19.21-9.89-18.1,2.09-18.8,15.6,10,17.68,23,17.68,23.4-1.53,24.1-13.5-1.68-10.59-1.68-10.59-5.7-.27-6.82-2.08c0,0,9,.55,8.77-4.46s-9.89-9.47-17.13-10.44-12.67-.7-13.22,1.81-.84,3.2,4.45,4S100.45,218.24,107.69,229.24Z" fill="#8b4d21"/>
        </g>
      </g>
    </g>
    <g id="head">
      <g>
        <path d="M109.86,149.3c-1.48,0-7.08-1.47-7.45-4a4.53,4.53,0,0,1,2-5,8.92,8.92,0,0,1,4.1-.73c3.23,0,7.45.72,9.61,2.74l1.28,1.2-1.4,1.07c-2.16,1.66-6,4.49-7.67,4.69Z" fill="#492614"/>
        <path d="M108.47,141.07c2.89,0,6.8.66,8.59,2.34,0,0-5.49,4.2-7,4.39h-.25c-1.68,0-5.8-1.54-6-2.76s-.18-2.56,1.28-3.47a7.63,7.63,0,0,1,3.31-.51m0-3h0c-3.36,0-4.51.72-4.89.95a6,6,0,0,0-2.65,6.44c.57,3.93,7.48,5.31,8.93,5.31a6,6,0,0,0,.62,0c.56-.07,2.26-.29,8.39-5l2.8-2.14-2.58-2.4c-3.11-2.91-8.92-3.14-10.62-3.14Z" fill="#231f20"/>
      </g>
      <g>
        <path d="M169.18,163.45c-.07,0-7.56-.19-13.69-.19-7.33,0-17.52-4.56-21.57-6.52-5.72-2.77-13-10.42-15-13.76h-.5c-4.23,0-14.83-.76-22-7.88A19.11,19.11,0,0,1,91.06,118a17.22,17.22,0,0,1,10.34-12.67,15.32,15.32,0,0,1,6.06-1.27c8.7,0,15.71,7.32,18.8,12.83l8.62-23.15,67.79-3.41-1.9,6.4-.52,20.68a31.81,31.81,0,0,1,7.65,3.4c5.72,3.56,8.57,8.42,8.25,14-.67,11.6-7.76,18.51-18.94,18.51-8.26,0-22,0-25-8.13a67.83,67.83,0,0,1-11.44-11.14c-2.51-3-4.29-4.56-5.3-4.56-.53,0-1.05.5-1.86,1.32-.26.25-.52.52-.81.78-1.17,1.09.52,5.54,2.25,8.49l13.6,7.65,1.89,15.69Z" fill="#fed091"/>
        <path d="M201.05,91.62l-1.46,4.94L199,118.34s16.65,3.84,15.91,16.47-8.78,17.38-17.74,17.38-21.59-.18-24-7.68a64.36,64.36,0,0,1-11.53-11.17c-3.11-3.75-4.9-5-6.22-5s-2.2,1.23-3.48,2.42c-2.56,2.38,2.2,10.25,2.2,10.25l13.35,7.5,1.65,13.72s-7.5-.18-13.72-.18-15-3.48-21.05-6.4-13.9-11.53-14.82-13.91c0,0-.44,0-1.22,0-3.57,0-14.19-.62-21.11-7.53-8.41-8.42-7-22.88,4.58-27.82a14.13,14.13,0,0,1,5.59-1.17c9.21,0,16.94,9.21,18.93,14.71l9.33-25.06,65.33-3.3m3.24-2.55-3.36.17L135.6,92.53l-1.57.08-.54,1.47L126,114.24c-3.71-5.38-10.41-11.35-18.52-11.35a16.58,16.58,0,0,0-6.53,1.36,18.39,18.39,0,0,0-11,13.54A20.31,20.31,0,0,0,95.61,136c7.34,7.34,18.16,8.21,22.64,8.23,2.61,4,9.77,11,15.15,13.64,5.12,2.48,14.79,6.64,22.09,6.64,6.12,0,13.59.18,13.66.18l2.76.07-.33-2.74-1.65-13.72-.14-1.21-1.06-.59-12.79-7.18c-1.52-2.7-2.61-5.91-2.26-6.78l.79-.78a8.41,8.41,0,0,1,1.06-1c.24.07,1.39.56,4.34,4.12A70.93,70.93,0,0,0,171.24,146c3.51,8.58,17.51,8.58,26,8.58,11.89,0,19.41-7.35,20.13-19.64.35-6.08-2.69-11.32-8.81-15.13a32.59,32.59,0,0,0-7.06-3.25L202,96.94l1.38-4.64.95-3.23Z" fill="#231f20"/>
      </g>
      <g>
        <path d="M132.63,128.61c-2.61,0-5.22-3.15-6.94-5.8-2.68-4.11-5.29-15.4-4.11-17.77.78-1.56,7.28-6.29,11.09-9l2.49-1.75-.14,3c-.53,11.36,1.9,15.25,2.7,16.53a12.7,12.7,0,0,0,1.13,1.23c1.66,1.65,4.43,4.41,2.46,7a4.73,4.73,0,0,1-4,1.81h0c-.32,0-.62,0-.91,0l-.27,0c0,.19-.08.4-.11.57-.23,1.24-.54,2.93-2,3.74A2.76,2.76,0,0,1,132.63,128.61Z" fill="#492614"/>
        <path d="M133.53,97.29c-.55,11.71,2,15.93,2.93,17.39s5.3,4.39,3.65,6.59a3.21,3.21,0,0,1-2.78,1.21c-.54,0-1-.06-1.45-.06s-.74.06-.89.31c-.55.91-.36,3.48-1.65,4.21a1.41,1.41,0,0,1-.71.18c-1.35,0-3.4-1.6-5.69-5.12-2.75-4.21-4.76-14.82-4-16.29s10.62-8.42,10.62-8.42m3.26-5.94-5,3.5c-10.5,7.39-11.25,8.89-11.56,9.52s-1.09,2.19.46,9.11c.46,2,1.73,7.08,3.73,10.15,2.8,4.29,5.56,6.47,8.19,6.47a4.51,4.51,0,0,0,2.2-.57,5.75,5.75,0,0,0,2.54-4.07,6.08,6.08,0,0,0,5.13-2.41c2.75-3.66-.86-7.26-2.59-9-.34-.34-.81-.81-.94-1-2-3.14-2.8-8.41-2.46-15.64l.28-6.08Z" fill="#231f20"/>
      </g>
      <g>
        <path d="M185.91,164.3h-.34a14,14,0,0,1-5.79-2.28,10,10,0,0,1-4.68,1.16,10.83,10.83,0,0,1-2-.18c-3.37-.64-5.83-3.25-6.85-4.52h0c-.88,0-1.68.07-2.44.07a10.44,10.44,0,0,1-8.94-4.09,9,9,0,0,1-1.13-9.54,19,19,0,0,1-4-5.18c-1.73-3.16-1-7.6,2.05-12.49a1.93,1.93,0,0,1,1.64-.94c1.31,0,2.21,1.19,3.83,3.36a42.06,42.06,0,0,0,4.51,5.35c3.14,3,8.88,4.9,11.64,5.81a11.53,11.53,0,0,1,2,.76,5.55,5.55,0,0,1,1.71,2.18,22,22,0,0,0,4.05,5.34c2.76,2.62,10.87,5,13.77,5.67a1.48,1.48,0,0,1,1.15,1.4,1.5,1.5,0,0,1-1.08,1.48l-2.06.61a6.42,6.42,0,0,1-1.63,3.3,7.76,7.76,0,0,1-5.46,2.74Z" fill="#492614"/>
        <path d="M153.48,127.79c1.12,0,3.43,4.58,7.31,8.3,4.39,4.21,13,6.22,13.91,6.77s1.83,3.84,5.49,7.32,14.45,6,14.45,6l-3.11.91c.36,2.84-3.08,5.68-5.62,5.68h-.23c-2.57-.18-5.86-2.56-5.86-2.56a8.15,8.15,0,0,1-4.72,1.44,8.36,8.36,0,0,1-1.68-.16C169.58,160.79,167,157,167,157c-1.16,0-2.2.1-3.16.1a8.94,8.94,0,0,1-7.81-3.58c-3.48-4-.37-9-.37-9a15.22,15.22,0,0,1-4.58-5.49c-2.19-4,1.1-9.52,2-11a.42.42,0,0,1,.37-.25m0-3a3.41,3.41,0,0,0-2.9,1.64c-3.35,5.37-4.1,10.34-2.1,14a21.45,21.45,0,0,0,3.54,4.87,10.1,10.1,0,0,0,1.76,10.11A11.87,11.87,0,0,0,163.85,160c.57,0,1.16,0,1.77,0a13.39,13.39,0,0,0,7.24,4.46,11.26,11.26,0,0,0,2.24.21,11.57,11.57,0,0,0,4.6-.95,14.37,14.37,0,0,0,5.76,2.07l.45,0a9.22,9.22,0,0,0,6.58-3.25,8.18,8.18,0,0,0,1.77-3.12l1.23-.35a3,3,0,0,0-.15-5.77c-3.88-.92-10.86-3.17-13.1-5.29a20.6,20.6,0,0,1-3.78-5,6.77,6.77,0,0,0-2.23-2.71,11.19,11.19,0,0,0-2.31-.89c-2.65-.88-8.17-2.71-11.07-5.48a41.29,41.29,0,0,1-4.35-5.16c-1.78-2.39-3-4-5-4Z" fill="#231f20"/>
      </g>
      <g>
        <path d="M167.75,97.17a2.09,2.09,0,0,0-3.41,2.42l2.36,3.32c-1.82,1.14-3.31,5.1-3.54,9.89-.27,5.76,1.38,10.52,3.7,10.62s4.41-4.47,4.68-10.22a25,25,0,0,0-.09-3.6l1.64,2.31a2.09,2.09,0,1,0,3.41-2.41Z" fill="#231f20"/>
        <path d="M201.85,92.55a2.09,2.09,0,0,0-2.37,1.33c-.68,1.23-6,8.2-10.82,14.34a2.1,2.1,0,0,0,.36,2.94l0,0a24.79,24.79,0,0,0-.43,3.61,22.79,22.79,0,0,0,0,2.48h8.19c.09-.67.15-1.37.19-2.08.17-3.71-.45-7-1.53-8.89,7.76-10,7.92-10.8,8-11.29A2.09,2.09,0,0,0,201.85,92.55Z" fill="#231f20"/>
      </g>
      <g>
        <path d="M94.73,107.94a1.36,1.36,0,0,1-.48-.09,1.49,1.49,0,0,1-1-1C91.22,98.36,94.71,90.39,102,87a24,24,0,0,1,10.14-2.18,20.68,20.68,0,0,1,2.21.11,127.38,127.38,0,0,1,19.86-21.85C148.31,50.43,165.88,47,175.1,46a31.29,31.29,0,0,1,3.19-.17c11,0,20.39,6,24.5,15.52,4,9.37.56,20.34.41,20.81a1.49,1.49,0,0,1-1.42,1,1,1,0,0,1-.24,0A132,132,0,0,0,181,81.52c-43.29,0-61.78,24.46-62,24.71a1.49,1.49,0,0,1-1,.6h-.17a1.53,1.53,0,0,1-1-.35s-3.24-2.62-9.37-2.95l-.67,0c-5.84,0-11.08,4-11.13,4.1A1.58,1.58,0,0,1,94.73,107.94Z" fill="#ed2027"/>
        <path d="M178.29,47.37c11.13,0,19.6,6.38,23.12,14.61,3.85,9,.37,19.76.37,19.76A132.8,132.8,0,0,0,181,80c-44.55,0-63.16,25.33-63.16,25.33s-3.48-2.93-10.25-3.3l-.75,0c-6.46,0-12.06,4.41-12.06,4.41-2-8.23,1.65-15.19,7.87-18.11a22.48,22.48,0,0,1,9.51-2,18.94,18.94,0,0,1,2.94.2c1.82-2.75,8-11.53,20.12-22.33s27.45-15.37,40.08-16.65c1-.1,2.05-.15,3-.15m0-3h0c-1.1,0-2.22.06-3.34.17-9.4,1-27.32,4.48-41.76,17.4a130.94,130.94,0,0,0-19.6,21.4c-.44,0-.93,0-1.48,0a25.7,25.7,0,0,0-10.78,2.32C93.42,89.35,89.6,98,91.84,107.15a3,3,0,0,0,1.92,2.11,2.95,2.95,0,0,0,2.82-.47s4.9-3.77,10.21-3.77h.59c5.56.3,8.4,2.53,8.51,2.62a2.91,2.91,0,0,0,1.9.69l.37,0a3,3,0,0,0,2-1.21C120.37,106.88,138.59,83,181,83a129.3,129.3,0,0,1,20.36,1.69l.47,0a3,3,0,0,0,2.84-2.07c.16-.48,3.77-12-.47-21.85s-14.42-16.42-25.86-16.42Z" fill="#231f20"/>
      </g>
      <g>
        <path d="M184.67,91c-8.68,0-15.74-7.63-15.74-17s7.06-17,15.74-17,15.74,7.63,15.74,17S193.35,91,184.67,91Z" fill="#fff"/>
        <path d="M184.67,58.14c8,0,14.55,7.08,14.55,15.82s-6.52,15.83-14.55,15.83S170.12,82.7,170.12,74s6.52-15.82,14.55-15.82m0-2.39c-9.33,0-16.93,8.17-16.93,18.21s7.6,18.22,16.93,18.22S201.61,84,201.61,74,194,55.75,184.67,55.75Z" fill="#231f20"/>
      </g>
      <polygon points="191.02 79.83 189.78 73.61 185.99 77.96 182.26 72.44 179.68 79.29 175.21 77.6 181.05 62.13 186.46 70.15 192.56 63.15 195.7 78.89 191.02 79.83" fill="#ed2027"/>
      <g>
        <path d="M153.73,100.46c-10.08,0-16.3-1.76-19-5.38a1.48,1.48,0,0,1-.28-1.11,1.51,1.51,0,0,1,.59-1c.56-.41,14-10.16,43.62-11.81.07,0,1.94-.12,4.92-.12,7.45,0,21.37.68,30.93,5.2,13.61,6.42,15.12,9.7,14.82,11.09-.11.47-.56,1.58-2.43,1.58a10,10,0,0,1-2.4-.36A77.73,77.73,0,0,0,203.81,96a141.45,141.45,0,0,0-20.48,1.66C170.51,99.57,161.1,100.46,153.73,100.46Z" fill="#ed2027"/>
        <path d="M183.56,82.54c7.22,0,21,.65,30.3,5.06,11.43,5.39,16.25,9.83,13,9.83a8.73,8.73,0,0,1-2-.32,80.09,80.09,0,0,0-21-2.59,140.62,140.62,0,0,0-20.7,1.68C171.94,97.86,161.81,99,153.73,99c-8.85,0-15.24-1.34-17.82-4.79,0,0,13.35-9.88,42.82-11.53,0,0,1.86-.11,4.83-.11m0-3h0c-3,0-4.93.11-5,.12-30,1.67-43.84,11.68-44.42,12.11a3,3,0,0,0-.61,4.19c3.06,4.08,9.48,6,20.21,6,7.44,0,16.92-.9,29.83-2.81A138.25,138.25,0,0,1,203.8,97.5,76.46,76.46,0,0,1,224.12,100a11.72,11.72,0,0,0,2.76.4,3.65,3.65,0,0,0,3.88-2.75c.33-1.46,1.09-4.86-15.63-12.76-9.83-4.64-24-5.34-31.57-5.34Z" fill="#231f20"/>
      </g>
      <path d="M105.82,112.67s11.24,2,11.24,12.26-11,10.73-14.29,5.51a11,11,0,0,0,8,.36c4.2-1.52,5.36-7.76-3.12-9.64a8.58,8.58,0,0,1,4.86.72S113.94,120,105.82,112.67Z" fill="#231f20"/>
      <path d="M180.33,123.57s6-10.42,23.65-8.84l-1.37,4.18S193,115.7,180.33,123.57Z" fill="#231f20"/>
      <path d="M111.55,92.51a1,1,0,0,1-.33-.06.89.89,0,0,1-.5-1.16c.1-.25,2.51-6.24,9.21-14.51,6.15-7.59,17.25-18.61,35.16-27.92a.89.89,0,1,1,.83,1.58C122.2,68,112.48,91.71,112.38,91.94A.88.88,0,0,1,111.55,92.51Z" fill="#231f20"/>
    </g>
  </g>
</svg>
