<svg id="Layer_1" data-name="Layer 1" xmlns="http://www.w3.org/2000/svg" viewBox="0 0 300 300">
  <g>
    <g>
      <path d="M209.23,240.33c-2.62,0-6.44-1.74-13.16-6-12.3-7.82-35.93-21.89-49.36-29.85-13.7,7.23-37.74,20-50.05,27-6.71,3.82-10.51,5.38-13.14,5.38a4.2,4.2,0,0,1-3.31-1.37C78,233,78.69,227.59,80,217.84l.19-1.46c1.67-12.93,6.91-40.81,10-56.77-12.26-12.29-28.62-28.56-38-37.34-7.58-7.14-10-10.71-9.07-13.64,1.08-3.6,6.81-4.57,17.21-6.34l1.45-.24c11-1.88,33.15-4.48,50.07-6.36,7.12-14.51,19.65-39.77,26-51l.72-1.28c5.14-9,8-14,11.62-14,3.13,0,5.74,3.45,9.93,13.18,6,13.8,18.23,40.05,25.23,54.92,15,2.4,41.13,6.71,53.3,9.42l1.43.32c10.3,2.29,16,3.54,16.88,7.19.73,3-1.82,6.41-9.75,13.16C237.27,136,219.58,152,206.28,164c2.23,15.77,6,43.3,7,56l.12,1.47c.79,9.72,1.22,15.08-1,17.54a4.08,4.08,0,0,1-3.14,1.28Z" fill="#fcee21"/>
      <path d="M150.2,30.7c2.48,0,5,3.75,8.71,12.38,6.19,14.36,19.36,42.44,25.55,55.59,16.61,2.66,42,6.87,53.91,9.52,18.54,4.13,23.87,4.85,8,18.36-10.55,9-29.76,26.31-41.49,37C207.2,180,211,207.39,212,220.14c1,12.32,1.71,18.86-2.75,18.86-2.4,0-6.29-1.9-12.45-5.81-12.42-7.91-36.79-22.42-50-30.25C133,210.2,108.58,223.16,96,230.32c-6.13,3.5-10.06,5.21-12.48,5.21-4.72,0-3.67-6.52-2-19,1.68-13,7-41.15,10.09-57.38-11.25-11.28-28.73-28.69-38.49-37.88C37.89,107,43.25,106.55,62,103.36c11.21-1.91,34.13-4.59,50.73-6.42C120,82.05,132.59,56.65,139,45.34c5.16-9.08,8.16-14.64,11.19-14.64m0-2.66c-4.44,0-7.4,5.22-12.77,14.71L136.7,44c-6.31,11.1-18.57,35.81-25.75,50.43-16.84,1.88-38.55,4.43-49.42,6.28l-1.45.25c-10.93,1.86-16.94,2.88-18.27,7.26-1.21,4,2.39,8.36,9.44,15,9.2,8.66,25.23,24.6,37.43,36.82-3.08,16.07-8.19,43.38-9.85,56.16l-.19,1.46c-1.32,10.13-2,15.71.57,18.7a5.51,5.51,0,0,0,4.31,1.82c2.88,0,6.88-1.61,13.8-5.55,12.1-6.9,35.56-19.37,49.35-26.65,13.53,8,36.6,21.75,48.69,29.44,7,4.49,10.93,6.24,13.87,6.24a5.41,5.41,0,0,0,4.12-1.72c2.66-2.89,2.22-8.45,1.4-18.55l-.12-1.47c-1-12-4.26-36.45-6.93-55.4,13.23-12,30.58-27.61,40.38-35.95,7.38-6.28,11.18-10.45,10.18-14.5-1.11-4.45-7.06-5.77-17.88-8.17l-1.43-.32c-12-2.67-37.58-6.9-52.68-9.32-7-15-19.06-40.66-24.92-54.24C157.44,33,154.5,28,150.2,28Z" fill="#231f20"/>
    </g>
    <g>
      <g>
        <path d="M139.81,130.82c0,12.62-3.27,22.85-7.31,22.85s-7.32-10.23-7.32-22.85S128.45,108,132.5,108,139.81,118.2,139.81,130.82Z" fill="#231f20"/>
        <path d="M135.67,121.27c0,4.37-1.42,7.92-3.17,7.92s-3.17-3.55-3.17-7.92,1.42-7.93,3.17-7.93S135.67,116.89,135.67,121.27Z" fill="#fff"/>
      </g>
      <g>
        <path d="M170.73,130.82c0,12.62-3.28,22.85-7.32,22.85s-7.32-10.23-7.32-22.85S159.37,108,163.41,108,170.73,118.2,170.73,130.82Z" fill="#231f20"/>
        <path d="M166.58,121.27c0,4.37-1.42,7.92-3.17,7.92s-3.17-3.55-3.17-7.92,1.41-7.93,3.17-7.93S166.58,116.89,166.58,121.27Z" fill="#fff"/>
      </g>
    </g>
  </g>
</svg>
