<svg id="Layer_1" data-name="Layer 1" xmlns="http://www.w3.org/2000/svg" xmlns:xlink="http://www.w3.org/1999/xlink" viewBox="0 0 300 300">
  <defs>
    <clipPath id="clip-path">
      <path d="M227.59,92c0,36.28-33.76,65.69-75.4,65.69S76.81,128.24,76.81,92s33.75-65.71,75.38-65.71S227.59,55.67,227.59,92Z" fill="none"/>
    </clipPath>
  </defs>
  <g>
    <g>
      <g>
        <g>
          <path d="M175.83,214.28l-18-1a3.36,3.36,0,0,1-3.18-3.36v-33a3.36,3.36,0,0,1,1.68-2.91,6.41,6.41,0,0,1,3.26-.9c9.43,0,16.4,23.2,19.7,37a3.37,3.37,0,0,1-3.27,4.16Z" fill="#814f9d"/>
          <path d="M159.59,176.48c8.19,0,16.43,34.44,16.43,34.44l-18-1v-33a3.12,3.12,0,0,1,1.57-.44m0-6.74a9.82,9.82,0,0,0-4.94,1.35,6.74,6.74,0,0,0-3.37,5.83v33a6.74,6.74,0,0,0,6.36,6.73l18,1H176a6.74,6.74,0,0,0,6.55-8.31c-.09-.36-2.18-9.07-5.35-17.92-5.44-15.2-10.72-21.69-17.63-21.69Z" fill="#231f20"/>
        </g>
        <g>
          <path d="M176.27,219.46l-23.7-1.66a3.36,3.36,0,0,1-3.14-3.34l-.27-36.68a3.37,3.37,0,0,1,3.35-3.39l4.23,0a3.34,3.34,0,0,1,2.37,1,3.39,3.39,0,0,1,1,2.37l.22,29.67,16.7,1.17a3.37,3.37,0,0,1,3.13,3.6l-.3,4.2a3.36,3.36,0,0,1-3.35,3.13Z" fill="#f6a21e"/>
          <path d="M156.74,177.72l.24,32.79,19.82,1.39-.29,4.2-23.71-1.66-.27-36.69,4.21,0m0-6.74h-.05l-4.21,0a6.73,6.73,0,0,0-6.69,6.78l.27,36.69a6.74,6.74,0,0,0,6.27,6.67l23.7,1.66a3.85,3.85,0,0,0,.48,0,6.75,6.75,0,0,0,6.72-6.27l.29-4.2a6.74,6.74,0,0,0-6.25-7.19l-13.59-1-.2-26.55a6.74,6.74,0,0,0-6.74-6.69Z" fill="#231f20"/>
        </g>
        <g>
          <path d="M114.77,206.3a3.42,3.42,0,0,1-.71-.07l-16.87-3.59a3.35,3.35,0,0,1-2.36-1.89,3.41,3.41,0,0,1,.1-3c4.86-8.89,17.11-29.55,26-29.55a6.23,6.23,0,0,1,4.52,1.91,3.34,3.34,0,0,1,.86,3.25L118,203.81A3.35,3.35,0,0,1,114.77,206.3Z" fill="#814f9d"/>
          <path d="M120.91,171.55a2.91,2.91,0,0,1,2.13.91l-8.28,30.47-16.87-3.59s15.18-27.79,23-27.79m0-6.74h0c-5.91,0-11.9,5-20,16.82C96,188.78,92.14,195.81,92,196.11a6.74,6.74,0,0,0,4.51,9.82l16.87,3.59a6.83,6.83,0,0,0,1.41.15,6.76,6.76,0,0,0,6.5-5l8.27-30.48a6.73,6.73,0,0,0-1.72-6.51,9.67,9.67,0,0,0-6.91-2.9Z" fill="#231f20"/>
        </g>
        <g>
          <path d="M118.45,211.78a3.66,3.66,0,0,1-.65-.06l-22.31-4.41a3.37,3.37,0,0,1-2.65-4l.78-3.95a3.37,3.37,0,0,1,3.3-2.72,3,3,0,0,1,.66.07l15.59,3.08,7.6-27.22a3.37,3.37,0,0,1,3.25-2.46,3.61,3.61,0,0,1,.91.12l3.87,1.08a3.42,3.42,0,0,1,2,1.6,3.34,3.34,0,0,1,.31,2.55l-9.45,33.82A3.36,3.36,0,0,1,118.45,211.78Z" fill="#f6a21e"/>
          <path d="M124,173.52l3.88,1.08-9.45,33.81L96.14,204l.78-3.95,18.65,3.68L124,173.52m0-6.74a6.73,6.73,0,0,0-6.48,4.92l-6.77,24.22-12.53-2.48a6.4,6.4,0,0,0-1.31-.13,6.83,6.83,0,0,0-3.75,1.14,6.73,6.73,0,0,0-2.85,4.3l-.78,3.95a6.74,6.74,0,0,0,5.3,7.92l22.3,4.41a7.34,7.34,0,0,0,1.31.12,6.75,6.75,0,0,0,6.49-4.92l9.45-33.82a6.73,6.73,0,0,0-4.68-8.3L125.83,167a6.39,6.39,0,0,0-1.82-.25Z" fill="#231f20"/>
        </g>
      </g>
      <g>
        <g>
          <path d="M157.6,210.32V176.68l.2-.12a3.59,3.59,0,0,1,1.79-.5c8.42,0,16.5,33.34,16.84,34.76l.13.55Z" fill="#814f9d"/>
          <path d="M159.59,176.48c8.19,0,16.43,34.44,16.43,34.44l-18-1v-33a3.12,3.12,0,0,1,1.57-.44m0-.84a3.85,3.85,0,0,0-2,.56l-.43.24v34.28l.8,0,18,1,1.13.07-.26-1.11c-.86-3.59-8.65-35.08-17.25-35.08Z" fill="#231f20"/>
        </g>
        <g>
          <polygon points="152.38 214.83 152.11 177.34 157.16 177.3 157.4 210.12 177.25 211.51 176.89 216.56 152.38 214.83" fill="#f6a21e"/>
          <path d="M156.74,177.72l.24,32.79,19.82,1.39-.29,4.2-23.71-1.66-.27-36.69,4.21,0m.84-.85h-.85l-4.21,0h-.84v.85l.27,36.69v.78l.78.05,23.71,1.66.83.06.06-.84.3-4.2.06-.84-.84-.06-19-1.34-.24-32v-.84Z" fill="#231f20"/>
        </g>
        <g>
          <path d="M97.25,199.63l.27-.49c.63-1.14,15.4-28,23.39-28a3.34,3.34,0,0,1,2.43,1l.17.17-8.44,31.09Z" fill="#814f9d"/>
          <path d="M120.91,171.55a2.91,2.91,0,0,1,2.13.91l-8.28,30.47-16.87-3.59s15.18-27.79,23-27.79m0-.84h0c-8.1,0-22.18,25.34-23.76,28.23l-.54,1,1.11.23,16.87,3.59.78.17.21-.77,8.27-30.47.13-.47-.34-.35a3.75,3.75,0,0,0-2.73-1.15Z" fill="#231f20"/>
        </g>
        <g>
          <polygon points="95.65 204.33 96.59 199.56 115.27 203.25 123.72 173 128.42 174.31 118.75 208.9 95.65 204.33" fill="#f6a21e"/>
          <path d="M124,173.52l3.88,1.08-9.45,33.81L96.14,204l.78-3.95,18.65,3.68L124,173.52m-.59-1-.22.81L115,202.76l-17.88-3.54-.83-.16-.16.83-.78,4-.17.83.83.16,22.31,4.41.76.15.21-.75,9.45-33.81.22-.81-.81-.23-3.88-1.09-.81-.22Z" fill="#231f20"/>
        </g>
      </g>
    </g>
    <g>
      <g>
        <path d="M116.21,192.55a12.88,12.88,0,0,1-4.53-.94c-12.44-4.76-22.37-17.12-25.23-21h-.1c-15.4,0-17.61-4.41-17.81-4.91a4.23,4.23,0,0,1,.21-3.74,3.29,3.29,0,0,1,.28-.44,4.45,4.45,0,0,1-1.7-2.48,3.27,3.27,0,0,1,.59-2.73,4.53,4.53,0,0,1,1.69-1.28,4.49,4.49,0,0,1-1.07-4.61A4,4,0,0,1,72.31,148a4.53,4.53,0,0,1,0-2,3.67,3.67,0,0,1,2.29-2.53,4.82,4.82,0,0,1,1.8-.3c2.42,0,6.7,1.5,9.41,3.47,2-4.85,3.86-4.85,4.92-4.85h.33c1.18.12,4.71.45,6.36,14.41L123,168.92l.28,1.14c.34,1.43,3.22,14.13-1.2,19.73a7.17,7.17,0,0,1-5.83,2.76Z" fill="#f1d1ba"/>
        <path d="M90.75,144.27h.09c2.87.27,4.24,13.54,4.24,13.54l25.7,12.84S125.43,190,116.21,190a10.38,10.38,0,0,1-3.63-.77c-14-5.34-24.88-21.19-24.88-21.19-.31,0-.77.05-1.35.05-4.22,0-14.5-.93-15.47-3.33-1.09-2.74,4-3.56,4-3.56s-4.65-.95-5.06-2.73,5.61-2.05,5.61-2.05-5.34-3-4.52-5.06c.27-.66,1-.88,1.85-.88a14.2,14.2,0,0,1,4.31,1s-4-4.79-1.51-5.74a2.34,2.34,0,0,1,.89-.14c3.27,0,10.71,3.71,9.23,5.19s-.42,6.62-.17,6.62c0,0,0,0,0-.06.14-.67,2.41-13.12,5.24-13.12m0-5.05h0c-2.43,0-4.36,1.15-6,3.78a20.77,20.77,0,0,0-8.36-2.41,7.44,7.44,0,0,0-2.72.48,6.19,6.19,0,0,0-3.82,4.24c0,.23-.1.46-.14.68a6.3,6.3,0,0,0-3.48,8.39,4.46,4.46,0,0,0-.35.43,5.8,5.8,0,0,0-1,4.81A6.55,6.55,0,0,0,66,162a6.79,6.79,0,0,0,.2,4.65c1.5,3.74,6.09,5,10.38,5.68a66.57,66.57,0,0,0,8.61.81c3.75,4.84,13.5,16.2,25.6,20.83a15.41,15.41,0,0,0,5.43,1.1,9.74,9.74,0,0,0,7.82-3.72c4.92-6.24,2.52-18.32,1.66-21.87l-.55-2.29-2.1-1.06L99.79,154.51c-1-7.63-3-14.74-8.47-15.27a5.43,5.43,0,0,0-.57,0Z" fill="#231f20"/>
      </g>
      <path d="M120.78,170.65l-25.7-12.84s-1.37-13.27-4.24-13.54-5.19,12.44-5.33,13.12-1.5-4.92.14-6.56-7.66-6-10.12-5.05S77,151.52,77,151.52s-5.33-2.19-6.16-.14,4.52,5.06,4.52,5.06-6,.27-5.61,2.05,5.06,2.73,5.06,2.73-5.06.82-4,3.56,14.22,3.55,16.82,3.28c0,0,10.93,15.85,24.88,21.19S120.78,170.65,120.78,170.65Z" fill="#f1d1ba"/>
    </g>
    <g>
      <g>
        <path d="M183.32,232.6l-.24,0c-4.09-.46-13-19.27-14.12-21.74l-.05,0c-.61-1.73-9.33-18.6-14.69-28.83l-1.6-3.08,3.41-.58a11,11,0,0,1,1.81-.13c16.48,0,26.29,19,29.77,27.23,1.64-.17,4.09-.37,6.33-.37,4,0,6.05.62,7.06,2.13a3.52,3.52,0,0,1,.39,3.26,4.31,4.31,0,0,1,1.12.93,3.77,3.77,0,0,1,.85,3.1,4.88,4.88,0,0,1-.83,2,4.77,4.77,0,0,1,.64,2.42,4.93,4.93,0,0,1-.56,2.36,3.18,3.18,0,0,1,.78,1.23,3.35,3.35,0,0,1-1,3.66c-1.75,1.76-5.74,2.13-8.77,2.13a29.53,29.53,0,0,1-6.51-.65,6.63,6.63,0,0,1-1.25,3.84,3.21,3.21,0,0,1-2.44,1.12Z" fill="#f1d1ba"/>
        <path d="M157.84,180.77c4.4,0,18.32,2.12,28.15,27.43a71.67,71.67,0,0,1,7.95-.57c2.35,0,4.44.23,4.95,1,1.32,2-4.15,3.28-4.15,3.28s.41,0,1,0c1.82,0,5.43.24,5.1,2.21-.26,1.56-2.06,2.19-3.49,2.45a9.46,9.46,0,0,0-1.76.17,11.27,11.27,0,0,0,1.76-.17h0c1.45,0,3.26.39,3.26,2.36,0,2.59-3.13,2.86-4.45,2.86h-.48c.85.06,7,.58,4.93,2.62-.92.93-3.86,1.39-7,1.39-4.24,0-8.82-.84-9.2-2.48,0,0,.85,6.78-1,6.78h-.09c-2-.22-11.82-18.59-12-19.91s-14.88-29.3-14.88-29.3a8.62,8.62,0,0,1,1.38-.09m0-5.05h0a13.93,13.93,0,0,0-2.24.15l-6.83,1.19L152,183.2c6.52,12.46,13.84,26.7,14.55,28.54a4.23,4.23,0,0,1-.19-.75c.33,2,3.87,8.4,6,12,4.62,8.09,7,11.67,10.5,12.06.23,0,.44,0,.66,0a5.81,5.81,0,0,0,4.34-2,6.2,6.2,0,0,0,1.4-2.59,35.76,35.76,0,0,0,4.46.26c7.69,0,9.85-2.16,10.56-2.87a5.87,5.87,0,0,0,1.53-6.33,6.36,6.36,0,0,0-.31-.71,8,8,0,0,0,.26-2,7.76,7.76,0,0,0-.34-2.33,6.91,6.91,0,0,0,.49-1.65,6.26,6.26,0,0,0-1.41-5.14c-.09-.11-.19-.22-.29-.32a6.1,6.1,0,0,0-1.05-3.64c-1.91-2.86-5.53-3.26-9.16-3.26-1.59,0-3.27.1-4.71.21-10.68-24.34-25.37-27.06-31.39-27.06Z" fill="#231f20"/>
      </g>
      <path d="M156.46,180.86s17.72-3.07,29.53,27.34c0,0,11.59-1.54,12.9.43s-4.15,3.28-4.15,3.28,6.56-.43,6.12,2.19-5.25,2.62-5.25,2.62,5-1.09,5,2.19-5,2.85-5,2.85,7.22.43,5,2.62-15.52,1.75-16.18-1.09c0,0,.88,7-1.09,6.78s-11.82-18.59-12-19.91S156.46,180.86,156.46,180.86Z" fill="#f1d1ba"/>
    </g>
    <polygon points="111.34 192.19 126.08 163.55 158.51 169.87 164.83 211.15 111.34 192.19" fill="#f1d1ba"/>
    <g>
      <g>
        <g>
          <path d="M172,272.35c-15.86,0-28.76-9.54-28.76-21.27s12.9-21.27,28.76-21.27,28.78,9.54,28.78,21.27S187.88,272.35,172,272.35Z" fill="#b36157"/>
          <path d="M172,231.92c14.73,0,26.67,8.58,26.67,19.16S186.74,270.25,172,270.25s-26.65-8.58-26.65-19.17,11.93-19.16,26.65-19.16m0-4.22c-17,0-30.87,10.49-30.87,23.38S155,274.46,172,274.46s30.88-10.49,30.88-23.38S189,227.7,172,227.7Z" fill="#231f20"/>
        </g>
        <g>
          <path d="M103.06,268.29c-15,0-26.83-8.37-27.54-19.48-.37-5.8,2.37-11.41,7.7-15.78a34.54,34.54,0,0,1,19.65-7.28c.85-.05,1.69-.08,2.52-.08,15,0,26.84,8.37,27.55,19.47.37,5.81-2.36,11.42-7.69,15.79a34.67,34.67,0,0,1-19.66,7.28C104.74,268.26,103.9,268.29,103.06,268.29Z" fill="#b36157"/>
          <path d="M105.39,227.78c13.64,0,24.82,7.51,25.45,17.5.67,10.56-10.69,19.89-25.39,20.82-.8.06-1.6.08-2.39.08-13.63,0-24.8-7.51-25.44-17.5C77,238.11,88.31,228.79,103,227.85c.8,0,1.6-.07,2.38-.07m0-4.22h0c-.87,0-1.77,0-2.65.09a36.67,36.67,0,0,0-20.86,7.75C76,236.22,73,242.45,73.42,249c.78,12.22,13.52,21.44,29.64,21.44.88,0,1.77,0,2.66-.08a36.74,36.74,0,0,0,20.86-7.75c5.87-4.82,8.88-11.05,8.46-17.55-.78-12.22-13.52-21.45-29.64-21.45Z" fill="#231f20"/>
        </g>
      </g>
      <g>
        <path d="M136.8,244.94h-1.25c-19.76-.49-35.55-12.48-35.2-26.73.35-14,15.82-25,35.22-25l1.26,0c9.46.23,18.32,3.07,24.94,8C168.56,206.31,172.2,213,172,220,171.68,234,156.21,244.94,136.8,244.94Z" fill="#fff"/>
        <path d="M135.57,194.92h1.22c18.86.47,33.88,11.66,33.55,25C170,233,155.12,243.26,136.8,243.26l-1.21,0c-18.86-.46-33.88-11.66-33.55-25,.32-13.05,15.22-23.32,33.53-23.32m0-3.38h0c-20.33,0-36.53,11.7-36.9,26.62-.38,15.18,16.15,27.94,36.84,28.45l1.29,0c20.33,0,36.54-11.69,36.91-26.62.19-7.57-3.7-14.72-10.94-20.11-6.89-5.13-16.09-8.09-25.9-8.34l-1.3,0Z" fill="#231f20"/>
      </g>
    </g>
    <g>
      <g>
        <g>
          <path d="M158,176.92v33l18,1S166.69,171.92,158,176.92Z" fill="#814f9d"/>
          <path d="M176,214.29h-.19l-18-1a3.36,3.36,0,0,1-3.18-3.36v-33a3.36,3.36,0,0,1,1.68-2.91,6.41,6.41,0,0,1,3.26-.9c9.43,0,16.4,23.2,19.7,37a3.37,3.37,0,0,1-3.27,4.16Zm-14.63-7.56,10.23.57c-3.11-11.51-7.27-21.94-10.23-25.85Z" fill="#231f20"/>
        </g>
        <g>
          <polygon points="176.51 216.1 152.8 214.44 152.53 177.75 156.74 177.72 156.98 210.51 176.8 211.9 176.51 216.1 176.51 216.1" fill="#f6a21e"/>
          <path d="M176.51,219.47h-.24l-23.7-1.66a3.36,3.36,0,0,1-3.14-3.34l-.27-36.68a3.37,3.37,0,0,1,3.35-3.39l4.21,0h0a3.34,3.34,0,0,1,2.37,1,3.39,3.39,0,0,1,1,2.37l.22,29.67,16.7,1.17a3.37,3.37,0,0,1,3.13,3.6l-.3,4.2a3.36,3.36,0,0,1-3.35,3.13Z" fill="#231f20"/>
        </g>
        <g>
          <path d="M123,172.46l-8.28,30.47-16.87-3.59S116.29,165.67,123,172.46Z" fill="#814f9d"/>
          <path d="M114.77,206.3a3.42,3.42,0,0,1-.71-.07l-16.87-3.59a3.35,3.35,0,0,1-2.36-1.89,3.41,3.41,0,0,1,.1-3c4.86-8.89,17.11-29.55,26-29.55a6.23,6.23,0,0,1,4.52,1.91,3.34,3.34,0,0,1,.86,3.25L118,203.81A3.35,3.35,0,0,1,114.77,206.3ZM103.09,197l9.26,2,6.18-22.77C114.81,179.27,108.62,187.56,103.09,197Z" fill="#231f20"/>
        </g>
        <g>
          <polygon points="118.45 208.41 96.14 204 96.92 200.05 115.57 203.73 124.02 173.52 127.9 174.6 118.45 208.41 118.45 208.41" fill="#f6a21e"/>
          <path d="M118.45,211.78a3.66,3.66,0,0,1-.65-.06l-22.31-4.41a3.37,3.37,0,0,1-2.65-4l.78-3.95a3.36,3.36,0,0,1,4-2.65l15.59,3.08,7.6-27.22a3.37,3.37,0,0,1,4.16-2.34l3.87,1.08a3.42,3.42,0,0,1,2,1.6,3.34,3.34,0,0,1,.31,2.55l-9.45,33.82A3.36,3.36,0,0,1,118.45,211.78Z" fill="#231f20"/>
        </g>
      </g>
      <g>
        <path d="M158,176.92v33l18,1S166.69,171.92,158,176.92Z" fill="#814f9d"/>
        <polygon points="176.51 216.1 152.8 214.44 152.53 177.75 156.74 177.72 156.98 210.51 176.8 211.9 176.51 216.1 176.51 216.1" fill="#f6a21e"/>
        <path d="M123,172.46l-8.28,30.47-16.87-3.59S116.29,165.67,123,172.46Z" fill="#814f9d"/>
        <polygon points="118.45 208.41 96.14 204 96.92 200.05 115.57 203.73 124.02 173.52 127.9 174.6 118.45 208.41 118.45 208.41" fill="#f6a21e"/>
      </g>
    </g>
    <g>
      <g>
        <path d="M152.19,160.61c-43.19,0-78.33-30.8-78.33-68.65S109,23.31,152.19,23.31,230.53,54.1,230.53,92,195.39,160.61,152.19,160.61Z" fill="#fff"/>
        <path d="M152.19,26.25c41.64,0,75.4,29.42,75.4,65.71s-33.76,65.69-75.4,65.69S76.81,128.24,76.81,92s33.75-65.71,75.38-65.71m0-5.9c-44.81,0-81.28,32.13-81.28,71.61s36.47,71.59,81.28,71.59S233.48,131.43,233.48,92,197,20.35,152.19,20.35Z" fill="#231f20"/>
      </g>
      <g clip-path="url(#clip-path)">
        <path d="M183.78,103.33A39.17,39.17,0,1,0,223,64.16,39.17,39.17,0,0,0,183.78,103.33Z" fill="#ed2027"/>
        <path d="M130.29,22a39.17,39.17,0,1,0,39.17-39.17A39.17,39.17,0,0,0,130.29,22Z" fill="#ed2027"/>
        <path d="M46.06,75.11A39.17,39.17,0,1,0,85.23,35.94,39.17,39.17,0,0,0,46.06,75.11Z" fill="#ed2027"/>
      </g>
      <g>
        <path d="M146.74,176.15a38.51,38.51,0,0,1-5.14-.37c-21.21-3.06-35.77-24.37-32.44-47.51a45.4,45.4,0,0,1,5.54-16.18,2.13,2.13,0,0,1,1-.87c10.42-4.7,20.65-7.09,30.4-7.09,1.26,0,2.54,0,3.79.12,18.52,1.21,29.38,10.24,35.22,17.62a2,2,0,0,1,.41.84,45.51,45.51,0,0,1,.64,16.63c-3,21-20,36.81-39.38,36.81Z" fill="#231f20"/>
        <path d="M146.06,106.24c1.2,0,2.42,0,3.65.11,18,1.17,28.4,10.12,33.72,16.82A43.55,43.55,0,0,1,184,139c-2.92,20.25-19.09,35-37.3,35a34.47,34.47,0,0,1-4.84-.35c-20.1-2.89-33.82-23.09-30.66-45.12a43.31,43.31,0,0,1,5.29-15.43c8.41-3.8,18.61-6.9,29.53-6.9m0-4.22c-10.05,0-20.57,2.45-31.27,7.28a4.2,4.2,0,0,0-1.92,1.74,47.62,47.62,0,0,0-5.8,16.93c-3.49,24.29,11.87,46.67,34.23,49.89a38.18,38.18,0,0,0,5.44.39c20.47,0,38.3-16.6,41.47-38.61a47.71,47.71,0,0,0-.67-17.4,4.37,4.37,0,0,0-.81-1.68c-6.11-7.71-17.45-17.16-36.75-18.41-1.29-.08-2.61-.13-3.92-.13Z" fill="#231f20"/>
      </g>
      <path d="M149.71,106.35c-12.29-.79-23.83,2.57-33.18,6.79a43.31,43.31,0,0,0-5.29,15.43c-3.16,22,10.56,42.23,30.66,45.12s39-12.62,42.14-34.65a43.55,43.55,0,0,0-.61-15.87C178.11,116.47,167.73,107.52,149.71,106.35Z" fill="#f1d1ba"/>
      <g>
        <path d="M166.36,127.74c-.65,4.78-2.77,8.45-4.74,8.18s-3.06-4.36-2.42-9.15,2.76-8.44,4.74-8.18S167,123,166.36,127.74Z" fill="#231f20"/>
        <path d="M138.77,124c-.21,4.82-2,8.66-4,8.57s-3.43-4.07-3.22-8.89,2-8.67,4-8.58S139,119.12,138.77,124Z" fill="#231f20"/>
        <path d="M164.86,123.47c0,1.12-.62,2-1.39,2s-1.39-.91-1.39-2,.62-2,1.39-2S164.86,122.35,164.86,123.47Z" fill="#fff"/>
        <path d="M136.66,119.38a1.53,1.53,0,1,1-1.51-1.75A1.65,1.65,0,0,1,136.66,119.38Z" fill="#fff"/>
      </g>
      <path d="M144.76,161.31s10.38.56,13.47-11.8c0,0,1.69,2,1.41-2.24s-2.81-5.9-3.37-3.37a114.38,114.38,0,0,1-13.48.56c-5-.28-6.74-2.25-5-3.09,0,0-4.5-2-5.34,3.65s1.69.56,2.53,8.15S143.63,160.75,144.76,161.31Z" fill="#231f20"/>
      <path d="M136.89,151.76s6.74,14.32,17.69,1.69C154.58,153.45,146.16,145.58,136.89,151.76Z" fill="#ed2027"/>
    </g>
  </g>
</svg>
